<?xml version="1.0" encoding="utf-8"?>
<!-- Generator: Adobe Illustrator 27.5.0, SVG Export Plug-In . SVG Version: 6.00 Build 0)  -->
<svg version="1.1" id="Layer_1" xmlns="http://www.w3.org/2000/svg" xmlns:xlink="http://www.w3.org/1999/xlink" x="0px" y="0px"
	 viewBox="0 0 62 62" style="enable-background:new 0 0 62 62;" xml:space="preserve">
<style type="text/css">
	.st0{fill:#003C71;}
</style>
<path id="Mail_00000034805142091730622730000015747733887613171853_" class="st0" d="M53.9,9H8c-4.2,0-7.7,3.5-7.7,7.7v28.8
	C0.3,49.6,3.8,53,8,53h46c4.2,0,7.7-3.5,7.7-7.7V16.7C61.7,12.4,58.2,9,53.9,9z M53.3,22L32.2,39.3c-0.3,0.3-0.8,0.4-1.2,0.4
	s-0.9-0.2-1.2-0.4L8.6,22c-0.8-0.6-1-1.9-0.2-2.7c0.6-0.8,1.9-1,2.7-0.2L31,35.3L50.9,19c0.8-0.6,2-0.6,2.7,0.2
	C54.2,20.1,54.1,21.3,53.3,22z"/>
</svg>
