<?xml version="1.0" encoding="utf-8"?>
<!-- Generator: Adobe Illustrator 27.7.0, SVG Export Plug-In . SVG Version: 6.00 Build 0)  -->
<svg version="1.1" id="Layer_1" xmlns="http://www.w3.org/2000/svg" xmlns:xlink="http://www.w3.org/1999/xlink" x="0px" y="0px"
	 viewBox="0 0 54 54" style="enable-background:new 0 0 54 54;" xml:space="preserve">
<style type="text/css">
	.st0{fill:#FFFFFF;}
</style>
<path id="Mail_00000036248836378590132620000015090154141710420629_" class="st0" d="M43.6,11H10.3c-3,0-5.6,2.5-5.6,5.6v20.9
	c0,3,2.5,5.6,5.6,5.6h33.4c3,0,5.6-2.5,5.6-5.6V16.6C49.2,13.5,46.7,11,43.6,11z M43.2,20.5L27.8,33c-0.2,0.2-0.6,0.3-0.9,0.3
	s-0.6-0.1-0.9-0.3L10.8,20.5c-0.6-0.5-0.7-1.3-0.2-1.9c0.5-0.6,1.3-0.7,1.9-0.2L27,30.1l14.4-11.8c0.6-0.5,1.5-0.4,1.9,0.2
	C43.8,19.1,43.7,20,43.2,20.5z"/>
</svg>
