<?xml version="1.0" encoding="utf-8"?>
<!-- Generator: Adobe Illustrator 27.7.0, SVG Export Plug-In . SVG Version: 6.00 Build 0)  -->
<svg version="1.1" id="Layer_1" xmlns="http://www.w3.org/2000/svg" xmlns:xlink="http://www.w3.org/1999/xlink" x="0px" y="0px"
	 viewBox="0 0 54 54" style="enable-background:new 0 0 54 54;" xml:space="preserve">
<style type="text/css">
	.st0{fill:#FFFFFF;}
</style>
<path class="st0" d="M27,6.6C15.7,6.6,6.6,15.7,6.6,27c0,11.3,9.1,20.4,20.4,20.4c11.3,0,20.4-9.1,20.4-20.4
	C47.4,15.7,38.3,6.6,27,6.6z M29.3,23.8V26H20c0,0.3-0.1,0.7-0.1,1c0,0.4,0,0.7,0.1,1h9.4v2.1h-8.8c1.2,2.7,3.8,4.3,7,4.3
	c2.2,0,4.2-0.8,5.7-2.5l2.5,2.4c-2,2.3-5,3.6-8.5,3.6c-5.4,0-9.7-3.2-11-7.8h-3.5V28H16c0-0.3,0-0.7,0-1c0-0.4,0-0.7,0-1h-3.1v-2.1
	h3.5c1.3-4.7,5.6-7.8,11-7.8c3.5,0,6.5,1.3,8.5,3.6L33.3,22c-1.6-1.7-3.5-2.5-5.7-2.5c-3.3,0-5.9,1.7-7,4.3H29.3z"/>
</svg>
