<?xml version="1.0" encoding="utf-8"?>
<!-- Generator: Adobe Illustrator 28.0.0, SVG Export Plug-In . SVG Version: 6.00 Build 0)  -->
<svg version="1.1" id="Layer_1" xmlns="http://www.w3.org/2000/svg" xmlns:xlink="http://www.w3.org/1999/xlink" x="0px" y="0px"
	 viewBox="0 0 80 70" style="enable-background:new 0 0 80 70;" xml:space="preserve">
<style type="text/css">
	.st0{fill-rule:evenodd;clip-rule:evenodd;fill:#FFFFFF;}
</style>
<path class="st0" d="M45.1,50.9c-5.3-5.4-5.3-14.1,0-19.5c2.6-2.6,6.1-4,9.8-4c2.8,0,5.5,0.8,7.7,2.3c2.3-1.5,4.9-2.3,7.7-2.3
	c1.3,0,2.6,0.2,3.8,0.5c2-6.8,0.3-14.4-5-19.8C65.4,4.4,60.4,2.3,55,2.3c-5.2,0-10.2,2-13.9,5.5l-2.6,4l-3.7-3.7
	C31,4.3,26,2.3,20.6,2.3c-5.4,0-10.4,2.1-14.2,5.8c-7.8,7.8-7.8,20.6,0,28.4l31.4,31.3l12.1-12.1L45.1,50.9z"/>
<path class="st0" d="M48.5,47.5c-3.5-3.5-3.5-9.2,0-12.8c1.7-1.7,4-2.6,6.4-2.6c2.4,0,4.7,0.9,6.3,2.6l1.7,1.7l1.2-1.8
	c1.7-1.6,3.9-2.5,6.3-2.5c2.4,0,4.7,0.9,6.4,2.6c3.4,3.5,3.5,9.1,0.1,12.6l-0.1,0.1L62.6,61.6L48.5,47.5z"/>
</svg>
