<?xml version="1.0" encoding="utf-8"?>
<!-- Generator: Adobe Illustrator 27.7.0, SVG Export Plug-In . SVG Version: 6.00 Build 0)  -->
<svg version="1.1" id="Layer_1" xmlns="http://www.w3.org/2000/svg" xmlns:xlink="http://www.w3.org/1999/xlink" x="0px" y="0px"
	 viewBox="0 0 120 120" style="enable-background:new 0 0 120 120;" xml:space="preserve">
<style type="text/css">
	.st0{fill:#FFFFFF;}
</style>
<g>
	<polygon class="st0" points="49.3,88.7 61.1,81.6 71,97.8 86.4,88.4 76.6,72.2 88.2,65 51.9,49.3 	"/>
	<path class="st0" d="M105,0.5H15C7,0.5,0.5,7,0.5,15v90.1c0,7.9,6.4,14.4,14.4,14.4H105c7.9,0,14.4-6.4,14.4-14.4V15
		C119.5,7,113,0.5,105,0.5z M40.9,65c-5-2.2-9.3-6.3-11.4-11.8C24.9,42,30.6,29.1,42,24.8c10.6-3.9,22.7,1.1,27.3,11.3
		c1.3,2.7,1.9,5.7,2,8.5c0,1.2-1,2.1-2.2,1.9c-0.9-0.1-1.6-0.9-1.6-1.7c0-2.3-0.5-4.7-1.5-7c-3.8-8.5-14-12.7-22.8-9.4
		C33.9,32,29.4,42.6,33.1,51.8c1.9,4.5,5.3,7.8,9.4,9.7c0.4,0.2,0.9,0.5,1,1C44.1,64.1,42.5,65.7,40.9,65z M41.4,47
		c0.3,1.3,0.9,2.5,1.6,3.4c0.8,1,0.4,2.4-0.7,2.8l-0.2,0.1c-0.8,0.3-1.6,0.1-2.1-0.5c-1.1-1.4-1.9-2.9-2.3-4.8
		c-1.2-4.9,1-10.2,5.2-13c6.6-4.4,15.2-1.3,18.1,5.7c0.3,0.8,0.5,1.6,0.7,2.4c0.2,1.3-0.9,2.4-2.2,2.2c-0.9-0.1-1.4-0.8-1.6-1.6
		c-0.1-0.5-0.2-1.1-0.4-1.6c-2-4.9-8.1-7-12.6-3.8C42,40.1,40.6,43.7,41.4,47z M90.3,68.3l-8.5,5.2l7.9,13c1.1,1.7,0.5,4.1-1.3,5.2
		L73,101.1c-1.7,1.1-4.1,0.5-5.2-1.3l-7.9-13L51.3,92c-1.2,0.8-2.7,0.8-3.9,0s-2-2.1-1.9-3.5l2.6-39.4c0.1-1.2,0.8-2.4,1.9-2.9
		c1.1-0.7,2.4-0.8,3.5-0.2l36.3,15.7c1.3,0.5,2.2,1.9,2.3,3.3C92.1,66.2,91.5,67.5,90.3,68.3z"/>
</g>
</svg>
