<?xml version="1.0" encoding="utf-8"?>
<!-- Generator: Adobe Illustrator 27.7.0, SVG Export Plug-In . SVG Version: 6.00 Build 0)  -->
<svg version="1.1" id="Layer_1" xmlns="http://www.w3.org/2000/svg" xmlns:xlink="http://www.w3.org/1999/xlink" x="0px" y="0px"
	 viewBox="0 0 120 120" style="enable-background:new 0 0 120 120;" xml:space="preserve">
<style type="text/css">
	.st0{fill:#FFFFFF;}
</style>
<g>
	<path class="st0" d="M90,56.6L48.3,32.5c-0.6-0.4-1.3-0.5-2-0.5c-0.7,0-1.4,0.2-2,0.5c-1.2,0.7-2,2-2,3.4v48.1c0,1.4,0.8,2.7,2,3.4
		c0.6,0.4,1.3,0.5,2,0.5c0.7,0,1.4-0.2,2-0.5L90,63.4c1.2-0.7,2-2,2-3.4C92,58.6,91.2,57.3,90,56.6z"/>
	<path class="st0" d="M60,0.7C27.3,0.7,0.7,27.3,0.7,60c0,32.7,26.6,59.3,59.3,59.3c32.7,0,59.3-26.6,59.3-59.3
		C119.3,27.3,92.7,0.7,60,0.7z M60,111.5C31.6,111.5,8.5,88.4,8.5,60C8.5,31.6,31.6,8.5,60,8.5c28.4,0,51.5,23.1,51.5,51.5
		C111.5,88.4,88.4,111.5,60,111.5z"/>
</g>
</svg>
