<?xml version="1.0" encoding="utf-8"?>
<!-- Generator: Adobe Illustrator 27.5.0, SVG Export Plug-In . SVG Version: 6.00 Build 0)  -->
<svg version="1.1" id="Layer_1" xmlns="http://www.w3.org/2000/svg" xmlns:xlink="http://www.w3.org/1999/xlink" x="0px" y="0px"
	 viewBox="0 0 120 120" style="enable-background:new 0 0 120 120;" xml:space="preserve">
<style type="text/css">
	.st0{fill:#003C71;}
</style>
<path class="st0" d="M105,0.5H15C7,0.5,0.5,7,0.5,15v90.1c0,7.9,6.4,14.4,14.4,14.4H105c7.9,0,14.4-6.4,14.4-14.4V15
	C119.5,7,113,0.5,105,0.5z M48.8,22c4.2-2.8,7.8-3.8,12.9-3.8c4.5,0,8.2,1.2,11.9,3.6c1.1,0.7,1,1.7-0.4,1.4
	c-7.2-2-16.6-1.6-23.7,0.2C47.8,23.8,48,22.5,48.8,22z M39.7,31.4c0.2-0.3,0.4-0.4,0.7-0.7l0,0c8.9-4.6,19.2-6.2,29.2-4.5
	c4.5,0.8,8.7,2.2,12.7,4.1c0.1,0.1,0.2,0.2,0.3,0.4c0.4,0.7,0.4,1.6-0.1,2.3s-1.4,0.9-2.2,0.4c-3.6-1.7-7.3-2.9-11.3-3.6
	c-9.1-1.5-18.6-0.1-26.8,4.1c-0.8,0.4-1.6,0.2-2.3-0.4C39.3,33,39.3,32,39.7,31.4z M34,44.5L34,44.5c1.5-1.5,3.3-2.9,5-4.2
	c8.5-6,19.1-8.4,29.3-6.6c7.5,1.3,14.4,4.7,19.8,9.7c2.3,2.1-0.5,4.6-2.3,2.9c-5-4.7-11.3-7.8-18.2-8.9c-9.3-1.6-18.8,0.5-26.6,6
	c-1.6,1.2-3.2,2.4-4.6,3.8c-0.7,0.7-1.5,0.8-2.3,0.3C33.3,46.8,33.1,45.4,34,44.5z M44.5,94.6L44.5,94.6c2.5-1.5,4.7-3.4,6.6-5.6
	c2.2-2.4,4-5,5.4-7.9c1.4-2.8,2.4-5.9,3-9.1l0,0c0.1-0.5,0.4-1,0.9-1.3c0.4-0.3,1-0.4,1.5-0.3l0,0c0.5,0.1,1,0.4,1.3,0.9
	c0.3,0.4,0.4,1,0.3,1.5C63,76.3,62,79.8,60.3,83c-1.6,3.3-3.7,6.2-6.1,8.9c-2.2,2.4-4.7,4.5-7.4,6.2C44.8,99.3,42.4,96,44.5,94.6z
	 M51,99.6c2.2-1.5,4.1-3.4,5.9-5.2c2.7-2.9,5-6.2,6.8-9.8c1.7-3.5,3-7.3,3.7-11.3c0.2-1.5-0.1-3-1-4.2c-0.9-1.2-2.2-2.1-3.7-2.3
	c-1.5-0.2-3,0.1-4.2,1c-1.2,0.9-2.1,2.2-2.3,3.7c-0.5,2.8-1.4,5.7-2.6,8.2c-1.3,2.6-2.9,5-4.9,7.1c-2.1,2.2-4.4,4-7,5.6
	c-2.1,1.2-4-2-1.9-3.2l0,0c2.3-1.3,4.4-2.9,6.1-4.9c1.7-1.9,3.2-3.9,4.2-6.2c1.1-2.3,1.9-4.7,2.3-7.1c0.4-2.5,1.9-4.7,3.8-6.1
	c2.1-1.4,4.6-2.1,7.1-1.6c2.5,0.4,4.7,1.9,6.1,3.8c1.4,2.1,2.1,4.6,1.6,7.1c-0.8,4.2-2.1,8.4-4,12.3c-2,3.9-4.4,7.5-7.4,10.7
	c-2,2.1-4,3.9-6.2,5.6C51.1,104.2,49.1,100.9,51,99.6z M62.2,104.9c-1.6,1.4-4.4-1.1-2.4-2.8c0.9-0.9,1.9-1.7,2.6-2.6
	c3.2-3.5,5.9-7.3,7.9-11.5c2.1-4.2,3.6-8.7,4.4-13.3c0.5-3.5-0.2-7-2.3-9.9c-2.1-2.8-5.1-4.8-8.5-5.3c-3.5-0.5-7,0.2-9.8,2.3
	c-2.8,2.1-4.8,5.1-5.3,8.5c-0.3,2.1-1.1,4.1-2,6.1c-1,2-2.2,3.7-3.7,5.3c-1.4,1.5-3.2,2.9-5,4c-2,1.1-3.6-2.2-1.9-3.3l0,0
	c1.5-0.9,2.8-2.1,4-3.3c1.2-1.3,2.3-2.8,3-4.5c0.8-1.6,1.3-3.3,1.6-5.1c0.8-4.5,3.3-8.3,6.9-10.9C55.5,56,60,55,64.5,55.8
	c4.5,0.8,8.4,3.3,10.9,6.9c2.6,3.7,3.6,8.2,2.8,12.6c-0.9,5-2.4,9.8-4.7,14.4c-2.3,4.6-5.1,8.7-8.6,12.4
	C64.1,103,63.2,104,62.2,104.9z M85.7,76.4c-1,5.7-2.8,11.2-5.3,16.3c-1.1,2.2-2.3,4.2-3.6,6.3c-0.1,0.1-0.1,0.1-0.2,0.1
	c-0.8,0.7-1.7,0.5-2.4,0c-0.7-0.7-0.9-1.6-0.3-2.4c1.2-1.9,2.3-3.7,3.3-5.7c2.4-4.9,4.1-10,5-15.4c1-5.4-0.3-11-3.5-15.5
	s-7.9-7.5-13.4-8.4c-5.4-1-10.9,0.3-15.5,3.5c-4.5,3.2-7.5,7.9-8.4,13.3c-0.2,1.4-0.7,2.8-1.3,4c-0.7,1.3-1.4,2.5-2.4,3.5
	c-0.5,0.7-1.2,1.2-1.9,1.7c-2,1.5-3.6-1.9-2.1-3l0,0c0.4-0.3,0.9-0.8,1.2-1.1c0.8-0.8,1.3-1.6,1.9-2.6c0.4-1,0.8-2,1-3
	c1.1-6.3,4.7-12,9.9-15.7c5.2-3.7,11.8-5.2,18.2-4.1c6.3,1.1,12,4.7,15.8,9.9C85.4,63.5,86.8,70,85.7,76.4z M87.7,61.5
	c-0.8-1.9-1.9-3.7-3-5.4C80.3,50,73.8,46,66.4,44.6c-7.4-1.3-14.9,0.4-21,4.8c-5.9,4.1-9.9,10.3-11.3,17.4c-0.4,2.1-4,2.5-3.5-1.2
	c0.2-1.2,0.7-2.8,1.1-4l0,0c2.2-6.1,6.2-11.3,11.5-15.1c6.9-4.9,15.5-6.9,23.7-5.4s15.7,6.1,20.6,13c1,1.4,2.9,4.5,3.5,6.4
	C91.7,62.7,88.4,63.5,87.7,61.5z"/>
</svg>
