<?xml version="1.0" encoding="utf-8"?>
<!-- Generator: Adobe Illustrator 27.9.0, SVG Export Plug-In . SVG Version: 6.00 Build 0)  -->
<svg version="1.1" id="Layer_1" xmlns="http://www.w3.org/2000/svg" xmlns:xlink="http://www.w3.org/1999/xlink" x="0px" y="0px"
	 viewBox="0 0 120 120" style="enable-background:new 0 0 120 120;" xml:space="preserve">
<style type="text/css">
	.st0{fill:#FFFFFF;}
</style>
<g>
	<polygon class="st0" points="40,68.3 23.9,68.3 15.9,82.2 32,82.2 	"/>
	<polygon class="st0" points="67.2,51.5 59.2,37.5 43,37.5 51.1,51.5 	"/>
	<polygon class="st0" points="67.2,20.8 51.1,20.8 43,34.9 59.2,34.9 	"/>
	<polygon class="st0" points="104.4,82.3 96.2,68.4 80.2,68.4 88.2,82.3 	"/>
	<polygon class="st0" points="69.6,50.2 77.7,36.2 69.6,22.2 61.5,36.2 	"/>
	<polygon class="st0" points="15.9,84.9 23.9,98.9 40,98.9 32,84.9 	"/>
	<path class="st0" d="M103.4,56.2H81l-0.4-0.6l11.2-19.3L75.9,8.6H44L28.2,36.2l11.2,19.4L39,56H16.8L0.9,83.6l15.9,27.6h31.8
		l11.2-19.3h0.5l11.2,19.4h31.8l15.9-27.6L103.4,56.2z M99.4,104.4H75.5L64.4,85l-8.5-0.1l-11.2,19.3H20.8L8.9,83.6L20.8,63H43
		l4.2-7.4L36,36.2l12-20.7H72l11.9,20.7L72.7,55.5L77,63h22.3l11.9,20.7L99.4,104.4z"/>
	<polygon class="st0" points="80.2,99 96.2,99 104.4,85 88.2,85 	"/>
	<polygon class="st0" points="34.2,83.6 42.3,97.5 50.3,83.6 42.2,69.5 	"/>
	<polygon class="st0" points="77.9,69.8 69.8,83.8 77.9,97.6 85.9,83.8 	"/>
	<path class="st0" d="M70.4,56.9H49.5l-4.2,7.3l10.4,18.1l8.5,0.1l10.4-18L70.4,56.9z M60.3,75.4h-0.5l-6.5-11.2l0.2-0.4h12.8
		l0.4,0.6L60.3,75.4z"/>
</g>
</svg>
