<?xml version="1.0" encoding="utf-8"?>
<!-- Generator: Adobe Illustrator 28.2.0, SVG Export Plug-In . SVG Version: 6.00 Build 0)  -->
<svg version="1.1" id="Layer_1" xmlns="http://www.w3.org/2000/svg" xmlns:xlink="http://www.w3.org/1999/xlink" x="0px" y="0px"
	 viewBox="0 0 62 38" style="enable-background:new 0 0 62 38;" xml:space="preserve">
<style type="text/css">
	.st0{fill:#FFFFFF;}
</style>
<path class="st0" d="M46.8,4.6H15.2c-2.7,0-5,2.3-5,5v18.8c0,2.7,2.3,5,5,5h31.6c2.7,0,5-2.3,5-5V9.7C51.8,6.9,49.5,4.6,46.8,4.6z
	 M46.5,13.4L31.8,24.6c-0.2,0.2-0.6,0.3-1,0.3c-0.3,0-0.7-0.1-1-0.3L15.4,13.4c-0.3-0.3-0.5-0.6-0.6-1c0-0.4,0.1-0.8,0.4-1.1
	c0.3-0.4,0.7-0.6,1.2-0.6c0.4,0,0.7,0.1,0.9,0.4l13.5,10.4L44.6,11c0.3-0.2,0.6-0.3,1-0.3c0.5,0,0.9,0.2,1.1,0.5
	C47.2,11.8,47.1,12.8,46.5,13.4z"/>
</svg>
