<?xml version="1.0" encoding="utf-8"?>
<!-- Generator: Adobe Illustrator 27.7.0, SVG Export Plug-In . SVG Version: 6.00 Build 0)  -->
<svg version="1.1" id="Layer_1" xmlns="http://www.w3.org/2000/svg" xmlns:xlink="http://www.w3.org/1999/xlink" x="0px" y="0px"
	 viewBox="0 0 120 120" style="enable-background:new 0 0 120 120;" xml:space="preserve">
<style type="text/css">
	.st0{fill:#FFFFFF;}
</style>
<path class="st0" d="M60,0.8c-14.4,0-26.1,11.7-26.1,26.1v26C33.9,67.3,45.6,79,60,79s26.1-11.7,26.1-26.1v-26
	C86.1,12.5,74.4,0.8,60,0.8z M80.7,52.9c0,11.4-9.3,20.7-20.7,20.7s-20.7-9.3-20.7-20.7v-26c0-11.4,9.3-20.7,20.7-20.7
	s20.7,9.3,20.7,20.7V52.9z"/>
<path class="st0" d="M60,31.3L60,31.3c-1.5,0-2.7-1.2-2.7-2.7v-9.1c0-1.5,1.2-2.7,2.7-2.7h0c1.5,0,2.7,1.2,2.7,2.7v9.1
	C62.7,30.1,61.5,31.3,60,31.3z"/>
<path class="st0" d="M72.6,87.6c-1-1-2.7-1-3.8,0L60,96.4l-8.8-8.8c-1-1-2.7-1-3.8,0c-1,1-1,2.7,0,3.8l10.7,10.7c1,1,2.7,1,3.8,0
	l10.7-10.7C73.7,90.3,73.7,88.6,72.6,87.6z"/>
<path class="st0" d="M72.6,103.7c-1-1-2.7-1-3.8,0l-8.8,8.8l-8.8-8.8c-1-1-2.7-1-3.8,0c-1,1-1,2.7,0,3.8l10.7,10.7c1,1,2.7,1,3.8,0
	l10.7-10.7C73.7,106.4,73.7,104.7,72.6,103.7z"/>
</svg>
