<?xml version="1.0" encoding="utf-8"?>
<!-- Generator: Adobe Illustrator 27.9.0, SVG Export Plug-In . SVG Version: 6.00 Build 0)  -->
<svg version="1.1" id="Layer_1" xmlns="http://www.w3.org/2000/svg" xmlns:xlink="http://www.w3.org/1999/xlink" x="0px" y="0px"
	 viewBox="0 0 120 120" style="enable-background:new 0 0 120 120;" xml:space="preserve">
<style type="text/css">
	.st0{fill:#FFFFFF;}
</style>
<g>
	<path class="st0" d="M35.8,107.7c-7.7-5.1-13.8-12.5-17.1-21c-0.5-1.2-1.8-1.8-3-1.3c-1.2,0.5-1.8,1.8-1.3,3
		c3.7,9.4,10.4,17.6,18.9,23.2c0.4,0.3,0.8,0.4,1.3,0.4c0.7,0,1.5-0.4,1.9-1C37.1,109.8,36.9,108.4,35.8,107.7z"/>
	<path class="st0" d="M76.4,111.9c-5.1,2-10.5,3.1-16,3.1c-4.9,0-9.7-0.7-14.3-2.3c-1.2-0.4-2.5,0.2-2.9,1.5
		c-0.4,1.2,0.3,2.5,1.5,2.9c5.1,1.7,10.4,2.5,15.7,2.5c6.1,0,12-1.2,17.7-3.4c1.2-0.5,1.8-1.8,1.3-3C78.9,112,77.6,111.5,76.4,111.9
		z"/>
	<path class="st0" d="M106.4,87.1c0.4-1.2-0.2-2.5-1.4-2.9c-1.2-0.4-2.5,0.2-2.9,1.4c-2.9,8-8,15-14.8,20.3c-1,0.8-1.2,2.2-0.4,3.2
		c0.5,0.6,1.1,0.9,1.8,0.9c0.5,0,1-0.2,1.4-0.5C97.5,103.6,103.2,95.9,106.4,87.1z"/>
	<path class="st0" d="M98.2,26.6c4.1,6.8,6.3,14.6,6.3,22.6l0.1,21c0,2.1-0.1,4.2-0.4,6.3c-0.2,1.3,0.7,2.4,2,2.6c0.1,0,0.2,0,0.3,0
		c1.1,0,2.1-0.8,2.3-2c0.3-2.3,0.5-4.6,0.4-7l-0.1-21c-0.1-8.8-2.5-17.4-7-24.9c-0.7-1.1-2.1-1.4-3.2-0.8
		C97.9,24.1,97.6,25.5,98.2,26.6z"/>
	<path class="st0" d="M63.2,5c11.8,0.9,22.7,6.3,30.5,15.4c0.5,0.5,1.1,0.8,1.8,0.8c0.5,0,1.1-0.2,1.5-0.6c1-0.8,1.1-2.3,0.2-3.2
		c-8.6-10-20.6-16-33.6-17c-1.3-0.1-2.4,0.9-2.5,2.1C61,3.8,62,4.9,63.2,5z"/>
	<path class="st0" d="M34.1,20.9c-1,0.8-1.1,2.3-0.3,3.2c0.5,0.5,1.1,0.8,1.8,0.8c0.5,0,1-0.2,1.5-0.5c5.1-4.4,11.4-7.2,18-8.1
		c1.3-0.2,2.1-1.3,2-2.6c-0.2-1.3-1.3-2.1-2.6-2C47,12.8,39.9,16,34.1,20.9z"/>
	<path class="st0" d="M62.7,106.2c0-1.3-1-2.3-2.3-2.3c-6.9,0-13.5-1.9-19.3-5.6C40,97.6,38.5,98,37.9,99c-0.7,1.1-0.4,2.5,0.7,3.2
		c6.5,4.2,14.1,6.4,21.8,6.3C61.7,108.5,62.7,107.5,62.7,106.2z"/>
	<path class="st0" d="M69.9,105c0.3,1,1.2,1.6,2.2,1.6c0.2,0,0.5,0,0.7-0.1c5-1.7,9.5-4.3,13.5-7.7c1-0.8,1.1-2.3,0.2-3.2
		c-0.8-1-2.3-1.1-3.2-0.2c-3.5,3.1-7.6,5.4-12,6.8C70.1,102.5,69.5,103.8,69.9,105z"/>
	<path class="st0" d="M78.4,72.1c-1.1-0.6-2.5-0.2-3.1,0.9c-1.2,2-2.7,3.8-4.6,5.2c-1,0.8-1.2,2.2-0.4,3.2c0.5,0.6,1.1,0.9,1.8,0.9
		c0.5,0,1-0.2,1.4-0.5c2.4-1.8,4.3-4,5.8-6.6C79.8,74.1,79.5,72.7,78.4,72.1z"/>
	<path class="st0" d="M24.6,73.8c0-0.2,0.1-0.4,0.1-0.6l0-0.4l0-2.2l-0.1-18.9c0-6.7,1.8-13.3,5.4-19c0.7-1.1,0.4-2.5-0.7-3.2
		c-1.1-0.7-2.5-0.4-3.2,0.7c-4.1,6.5-6.2,13.9-6.1,21.5l0.1,18.9l0,2.2c0,1.2-1,2.2-2.2,2.2c-1.1,0-2-0.7-2.2-1.7c0-0.1,0-0.1,0-0.2
		c0-0.8-0.1-1.6-0.1-2.4l0-0.9l-0.1-20.1C15.3,26.6,33.2,7,56.2,5.1c1.3-0.1,2.2-1.2,2.1-2.5c-0.1-1.3-1.2-2.2-2.5-2.1
		c-25.4,2.2-45.1,23.8-45,49.3L11,69.9l0,0.9l0,2.1c0,3.8,3.1,6.8,6.9,6.8C21.3,79.7,24.1,77.1,24.6,73.8z"/>
	<path class="st0" d="M95.4,87.4c3.2-5.9,4.9-12.5,4.8-19.2l-0.1-17c-0.1-9.3-3.4-18.3-9.4-25.5c0,0,0,0,0,0c-2-2.4-4.3-4.6-6.8-6.4
		c-1-0.8-2.5-0.5-3.2,0.5c-0.8,1-0.5,2.5,0.5,3.2c2.2,1.7,4.3,3.6,6,5.7c0,0,0,0,0,0c5.3,6.3,8.3,14.3,8.3,22.5l0.1,17
		c0,6.1-1.5,12.2-4.5,17.5c-0.3,0.6-0.9,1-1.5,1.2c-0.7,0.2-1.5,0.2-2.1-0.2c-0.7-0.3-1.1-0.9-1.4-1.6c-0.2-0.7-0.2-1.4,0.2-2.1
		c3.2-5,4.9-10.9,4.9-16.8l-0.1-12.9C91,36.2,76.9,22.4,59.8,22.5C42.7,22.6,28.9,36.6,29,53.7l0.1,12.9
		c0.1,17.1,14.1,30.9,31.2,30.8c0,0,0,0,0,0c0,0,0,0,0,0c4.3,0,7.8-3.6,7.8-7.9c0-4.3-3.6-7.8-7.9-7.8c0,0,0,0,0,0c0,0,0,0,0,0
		c-9.6,0.1-17.4-7.7-17.5-17.3l-0.1-8.8c-0.1-9.6,7.7-17.4,17.3-17.5s17.4,7.7,17.5,17.3l0,2.9l0,2.2c0,1.2-1,2.2-2.2,2.2
		c-1.2,0-2.2-1-2.2-2.2l0-3c0-7.1-5.9-12.9-13-12.9c-7.1,0-12.9,5.9-12.9,13l0,4.8c0,7.1,5.9,12.9,13,12.9c1.3,0,2.3-1,2.3-2.3
		c0-1.3-1-2.3-2.3-2.3c-4.6,0-8.4-3.7-8.4-8.3l0-4.8c0-4.6,3.7-8.4,8.3-8.4c4.6,0,8.4,3.7,8.4,8.3l0,3c0,3.8,3.1,6.8,6.9,6.8
		c3.8,0,6.8-3.1,6.8-6.9l0-2.2l0-2.9C82,43.3,72,33.5,59.9,33.6c-12.1,0.1-21.9,10-21.8,22.1l0.1,8.8c0.1,12.1,10,21.9,22.1,21.8
		c0,0,0,0,0,0c0,0,0,0,0,0c1.8,0,3.3,1.4,3.3,3.2c0,1.8-1.4,3.3-3.2,3.3c0,0,0,0,0,0c0,0,0,0,0,0C45.7,93,33.8,81.2,33.7,66.6
		l-0.1-12.9c-0.1-14.6,11.7-26.5,26.3-26.6C74.4,27,86.4,38.8,86.5,53.3l0.1,12.9c0,5.2-1.4,10.2-4.3,14.5c0,0,0,0,0,0
		c0,0,0,0.1-0.1,0.1c0,0.1-0.1,0.1-0.1,0.2c0,0,0,0,0,0.1c-0.8,1.7-0.9,3.6-0.3,5.3c0.6,1.9,1.9,3.4,3.6,4.3
		c1.1,0.5,2.2,0.8,3.4,0.8c0.7,0,1.5-0.1,2.2-0.4c1.7-0.5,3-1.6,4-3.1c0,0,0,0,0,0c0,0,0,0,0-0.1c0.1-0.2,0.2-0.3,0.3-0.5
		C95.3,87.6,95.4,87.5,95.4,87.4z"/>
</g>
</svg>
