<?xml version="1.0" encoding="utf-8"?>
<!-- Generator: Adobe Illustrator 28.0.0, SVG Export Plug-In . SVG Version: 6.00 Build 0)  -->
<svg version="1.1" id="Layer_1" xmlns="http://www.w3.org/2000/svg" xmlns:xlink="http://www.w3.org/1999/xlink" x="0px" y="0px"
	 viewBox="0 0 120 120" style="enable-background:new 0 0 120 120;" xml:space="preserve">
<style type="text/css">
	.st0{fill:#FFFFFF;}
</style>
<g>
	<polygon class="st0" points="12.7,11.7 39.6,11.7 39.6,1.7 2.8,1.7 2.8,38.6 12.7,38.6 	"/>
	<rect x="86.9" y="87" class="st0" width="9.9" height="9.9"/>
	<polygon class="st0" points="12.7,81.4 2.8,81.4 2.8,118.3 39.6,118.3 39.6,108.3 12.7,108.3 	"/>
	<rect x="86.9" y="65.9" class="st0" width="9.9" height="9.9"/>
	<path class="st0" d="M24.1,65.9v30.9H55V65.9H24.1z M45.1,87h-11V75.9h11V87z"/>
	<path class="st0" d="M65.9,23.1V54h30.9V23.1H65.9z M86.9,44h-11V33h11V44z"/>
	<path class="st0" d="M24.1,54H55V23.1H24.1V54z M34.1,33h11v11h-11V33z"/>
	<rect x="65.9" y="65.9" class="st0" width="9.9" height="9.9"/>
	<rect x="76.5" y="76.5" class="st0" width="9.9" height="9.9"/>
	<polygon class="st0" points="107.3,108.3 80.4,108.3 80.4,118.3 117.2,118.3 117.2,81.4 107.3,81.4 	"/>
	<polygon class="st0" points="80.4,1.7 80.4,11.7 107.3,11.7 107.3,38.6 117.2,38.6 117.2,1.7 	"/>
	<rect x="65.9" y="87" class="st0" width="9.9" height="9.9"/>
</g>
</svg>
