<?xml version="1.0" encoding="utf-8"?>
<!-- Generator: Adobe Illustrator 27.9.0, SVG Export Plug-In . SVG Version: 6.00 Build 0)  -->
<svg version="1.1" id="Layer_1" xmlns="http://www.w3.org/2000/svg" xmlns:xlink="http://www.w3.org/1999/xlink" x="0px" y="0px"
	 viewBox="0 0 120 120" style="enable-background:new 0 0 120 120;" xml:space="preserve">
<style type="text/css">
	.st0{fill-rule:evenodd;clip-rule:evenodd;fill:#FFFFFF;}
</style>
<path class="st0" d="M54.8,82.3V62.7h-9.7v19.6H54.8z M104.2,91.4c0,3.8-3.1,7-7,7c-1.9,0-3.6-0.8-4.9-2c-0.9-0.9-1.6-2.2-1.9-3.5
	c-1,0.8-1.9,1.6-3,2.3c-5.9,4.1-13.1,6.5-20.9,6.5c-20.4,0-37-16.6-37-37c0-6.7,1.8-12.9,4.8-18.3l14.8-31
	c-6.2-5.7-9.5-13.4-17.2-5.2L0.5,57.8l47.6,51.6c5.5,5.9,12.7,8.7,20.7,7.9c8-0.7,13.1-5.2,17.5-11.9l4-6.1c1.8,1.6,4.2,2.6,6.9,2.6
	c5.8,0,10.5-4.7,10.5-10.5c0-4.2-2.4-7.7-5.9-9.5l17.7-26.8L72.1,6.9c-2.8-2.1-5.2-3.1-7.2-2.8c-1.1,0.2-2.1,0.7-2.9,1.8
	C55,15.6,48,27.3,41.3,37.4c6.6-6.1,15.4-9.9,25.2-9.9c20.5,0,37.1,16.6,37.1,37.1c0,6-1.4,11.6-3.9,16.6c-0.6,1.1-1.2,2.2-1.8,3.2
	C101.4,84.7,104.2,87.7,104.2,91.4L104.2,91.4z M83.4,82.3V50.4h-9.7v31.9H83.4z M69.1,82.3V56h-9.7v26.3H69.1z"/>
</svg>
