<?xml version="1.0" encoding="utf-8"?>
<!-- Generator: Adobe Illustrator 28.2.0, SVG Export Plug-In . SVG Version: 6.00 Build 0)  -->
<svg version="1.1" id="Layer_1" xmlns="http://www.w3.org/2000/svg" xmlns:xlink="http://www.w3.org/1999/xlink" x="0px" y="0px"
	 viewBox="0 0 62 38" style="enable-background:new 0 0 62 38;" xml:space="preserve">
<style type="text/css">
	.st0{fill:#FFFFFF;}
</style>
<g>
	<path class="st0" d="M27,35.9l-1.6-5.1H14.9l-1.7,5.1H4.5L16.9,1.8h6.5l12.4,34.1H27z M20.4,14.7l-3.1,9.1h5.9L20.4,14.7z"/>
	<path class="st0" d="M52.7,35.9v-2.2c-1.8,1.8-3.4,2.5-6.5,2.5c-3,0-5-0.7-6.5-2.2c-1.2-1.3-1.9-3.2-1.9-5.2c0-4.1,2.8-7,8.4-7h6.4
		v-1.7c0-3.1-1.5-4.5-5.3-4.5c-2.6,0-3.9,0.7-5.3,2.4l-3.2-3c2.2-2.7,4.6-3.5,8.7-3.5c6.7,0,10,2.9,10,8.3v16.2H52.7z M52.6,25.2H47
		c-3,0-4.5,1.2-4.5,3.5s1.4,3.4,4.6,3.4c1.7,0,3.1-0.2,4.4-1.4c0.8-0.7,1.1-1.9,1.1-3.6V25.2z"/>
</g>
</svg>
