<?xml version="1.0" encoding="utf-8"?>
<!-- Generator: Adobe Illustrator 27.5.0, SVG Export Plug-In . SVG Version: 6.00 Build 0)  -->
<svg version="1.1" id="Layer_1" xmlns="http://www.w3.org/2000/svg" xmlns:xlink="http://www.w3.org/1999/xlink" x="0px" y="0px"
	 viewBox="0 0 120 120" style="enable-background:new 0 0 120 120;" xml:space="preserve">
<style type="text/css">
	.st0{fill:#003C71;}
</style>
<path class="st0" d="M105,0.5H15C7,0.5,0.5,7,0.5,15v90.1c0,7.9,6.4,14.4,14.4,14.4H105c7.9,0,14.4-6.4,14.4-14.4V15
	C119.5,7,113,0.5,105,0.5z M89.5,69.7C88,71.9,86.2,74,84,76.2C78.4,81.8,72.2,87,62.7,94.7c-0.8,0.7-1.7,1-2.7,1s-1.9-0.3-2.7-1
	C47.8,87,41.6,81.8,36,76.2c-11.9-11.7-12-22.8-11.9-24.9c0-0.2,0-0.4,0-0.7c0-11.2,9.6-20.7,20.8-20.7c5.7,0,11.1,2.5,15,6.6
	c3.9-4.1,9.4-6.6,15-6.6c11.3,0,20.8,9.5,20.8,20.7c0,3.6-4.2,3.4-4.2,0c0-8.8-7.4-16.4-16.6-16.4c-6.6,0-12.4,4.4-15,9.8l0,0
	c-2.6-5.4-8.4-9.8-15-9.8c-9.1,0-16.6,7.6-16.6,16.4c0,0.2,0,0.4,0,0.7l0,0c0,0-1,10.5,10.7,21.9c5.2,5.3,11.2,10.3,20.9,18.3
	c9.7-7.9,15.7-13,20.9-18.3c2.1-2,3.6-3.9,4.9-5.8C87.9,64.6,91.6,66.9,89.5,69.7z M104.1,61.5H75.7l-3.5,6.1
	c-0.2,0.4-0.8,0.9-1.3,1c-0.2,0-0.3,0.1-0.5,0.1c-1,0-1.7-0.7-2-1.5l-2-7.3l-4.4,17.9c-0.2,0.8-0.8,1.3-1.4,1.5
	c-0.2,0-0.3,0.1-0.5,0.1c-1,0-1.7-0.7-2-1.5l-6.3-23.5l-2,5.7c-0.2,0.9-1.1,1.6-2,1.6H37.1c-1.1,0-2.1-1-2.1-2.1s1-2.1,2.1-2.1h9.1
	l3.6-11.7c0.2-0.9,1.1-1.5,2-1.5c0.2,0,0.3,0,0.5,0.1c0.8,0.2,1.3,0.8,1.4,1.5l6.3,23.4l4.4-17.9c0.2-0.9,1.1-1.5,2-1.5
	c0.2,0,0.3,0,0.5,0.1c0.8,0.2,1.3,0.8,1.4,1.5l2.6,9.9l1.6-2.8c0.3-0.7,1.1-1,1.7-1h29.5c1.1,0,2.1,1,2.1,2.1
	C106.2,60.7,105.2,61.5,104.1,61.5z"/>
</svg>
