<?xml version="1.0" encoding="utf-8"?>
<!-- Generator: Adobe Illustrator 27.7.0, SVG Export Plug-In . SVG Version: 6.00 Build 0)  -->
<svg version="1.1" id="Layer_1" xmlns="http://www.w3.org/2000/svg" xmlns:xlink="http://www.w3.org/1999/xlink" x="0px" y="0px"
	 viewBox="0 0 120 120" style="enable-background:new 0 0 120 120;" xml:space="preserve">
<style type="text/css">
	.st0{fill-rule:evenodd;clip-rule:evenodd;fill:#FFFFFF;}
	.st1{clip-path:url(#SVGID_00000163052814065955387180000010762232258162182329_);fill:#FFFFFF;}
</style>
<g>
	<g>
		<path id="SVGID_1_" class="st0" d="M71,48.1h1.7L85,26.9H53.2l-8.5,14.2l-8.2-14.2h-29l-6.9,12l31.3,54.3h7.2l6.3-10.9h-7.2
			L12.5,37.7h17.7l14.7,25.4l14.7-25.4H77L71,48.1z M83.3,37.7h17.5c4.2,0,7.7,3.4,7.7,7.7c0,4.2-3.4,7.7-7.7,7.7H68.1L46.4,90.4
			h1.7l6-10.4h13.2l10.5-18.2l18.1,31.3h12.6L91.9,64h8.9c10.2,0,18.5-8.3,18.5-18.5S111,27,100.8,27H89.6L83.3,37.7z"/>
	</g>
	<g>
		<defs>
			<path id="SVGID_00000020357102191617224090000008955840280278686372_" d="M71,48.1h1.7L85,26.9H53.2l-8.5,14.2l-8.2-14.2h-29
				l-6.9,12l31.3,54.3h7.2l6.3-10.9h-7.2L12.5,37.7h17.7l14.7,25.4l14.7-25.4H77L71,48.1z M83.3,37.7h17.5c4.2,0,7.7,3.4,7.7,7.7
				c0,4.2-3.4,7.7-7.7,7.7H68.1L46.4,90.4h1.7l6-10.4h13.2l10.5-18.2l18.1,31.3h12.6L91.9,64h8.9c10.2,0,18.5-8.3,18.5-18.5
				S111,27,100.8,27H89.6L83.3,37.7z"/>
		</defs>
		<use xlink:href="#SVGID_00000020357102191617224090000008955840280278686372_"  style="overflow:visible;fill:#FFFFFF;"/>
		<clipPath id="SVGID_00000056420242959459398260000015510312508520127620_">
			<use xlink:href="#SVGID_00000020357102191617224090000008955840280278686372_"  style="overflow:visible;"/>
		</clipPath>
		
			<rect x="0.6" y="26.9" style="clip-path:url(#SVGID_00000056420242959459398260000015510312508520127620_);fill:#FFFFFF;" width="118.8" height="66.2"/>
	</g>
</g>
</svg>
