<?xml version="1.0" encoding="utf-8"?>
<!-- Generator: Adobe Illustrator 28.2.0, SVG Export Plug-In . SVG Version: 6.00 Build 0)  -->
<svg version="1.1" id="Layer_1" xmlns="http://www.w3.org/2000/svg" xmlns:xlink="http://www.w3.org/1999/xlink" x="0px" y="0px"
	 viewBox="0 0 62 38" style="enable-background:new 0 0 62 38;" xml:space="preserve">
<style type="text/css">
	.st0{fill:#FFFFFF;}
</style>
<g id="lists_icon">
	<g id="right_button">
		<path id="icon_00000068656261672076974480000012193293335651236748_" class="st0" d="M45.8,1.6H16.2c-2.7,0-4.9,2.2-4.9,4.9v24.9
			c0,2.7,2.2,4.9,4.9,4.9h29.7c2.7,0,4.9-2.2,4.9-4.9V6.5C50.8,3.8,48.6,1.6,45.8,1.6z M31.1,26.7H20.2c-0.8,0-1.5-0.7-1.5-1.5
			c0-0.8,0.7-1.5,1.5-1.5h10.9c0.8,0,1.5,0.7,1.5,1.5C32.6,26.1,31.9,26.7,31.1,26.7z M41.8,20.5H20.2c-0.8,0-1.5-0.7-1.5-1.5
			s0.7-1.5,1.5-1.5h21.5c0.8,0,1.5,0.7,1.5,1.5S42.6,20.5,41.8,20.5z M41.8,14.2H20.2c-0.8,0-1.5-0.7-1.5-1.5s0.7-1.5,1.5-1.5h21.5
			c0.8,0,1.5,0.7,1.5,1.5S42.6,14.2,41.8,14.2z"/>
	</g>
</g>
</svg>
