<?xml version="1.0" encoding="utf-8"?>
<!-- Generator: Adobe Illustrator 28.0.0, SVG Export Plug-In . SVG Version: 6.00 Build 0)  -->
<svg version="1.1" id="Layer_1" xmlns="http://www.w3.org/2000/svg" xmlns:xlink="http://www.w3.org/1999/xlink" x="0px" y="0px"
	 viewBox="0 0 17 17" style="enable-background:new 0 0 17 17;" xml:space="preserve">
<style type="text/css">
	.st0{fill:#FFFFFF;}
</style>
<path class="st0" d="M15.5,16.7c-0.3,0-0.6-0.1-0.9-0.4l-4-4c-1.1,0.7-2.4,1.1-3.7,1.1c-1.8,0-3.4-0.7-4.6-1.9S0.3,8.6,0.3,6.9
	c0-1.8,0.7-3.4,1.9-4.6C3.5,1,5.1,0.3,6.9,0.3s3.4,0.7,4.6,1.9c2.2,2.2,2.5,5.8,0.8,8.4l4,4c0.2,0.2,0.4,0.5,0.4,0.9
	c0,0.3-0.1,0.6-0.4,0.9C16.1,16.6,15.8,16.7,15.5,16.7z M6.9,2.7c-1.1,0-2.2,0.4-2.9,1.2c-1.6,1.6-1.6,4.2,0,5.9
	C4.7,10.6,5.8,11,6.9,11S9,10.6,9.8,9.8S11,8,11,6.9c0-1.1-0.4-2.2-1.2-2.9C9,3.2,8,2.7,6.9,2.7z"/>
</svg>
