<?xml version="1.0" encoding="utf-8"?>
<!-- Generator: Adobe Illustrator 27.7.0, SVG Export Plug-In . SVG Version: 6.00 Build 0)  -->
<svg version="1.1" id="Layer_1" xmlns="http://www.w3.org/2000/svg" xmlns:xlink="http://www.w3.org/1999/xlink" x="0px" y="0px"
	 viewBox="0 0 120 120" style="enable-background:new 0 0 120 120;" xml:space="preserve">
<style type="text/css">
	.st0{fill:#FFFFFF;}
</style>
<g>
	<path class="st0" d="M114,35.8l-9.6,11.4c1.2,4.1,1.8,8.4,1.8,12.9c0,25.6-20.8,46.5-46.5,46.5s-46.4-21-46.4-46.5
		s20.9-46.5,46.5-46.5c8.2,0,15.9,2.2,22.6,6l8.4-10.1c-9-5.6-19.6-8.9-31.1-8.9C27,0.6,0.4,27.2,0.4,60.1s26.6,59.3,59.3,59.3
		S119,92.8,119,60.1C119.2,51.4,117.3,43.2,114,35.8z"/>
	<polygon class="st0" points="66.3,80.8 37,51.5 51.3,37.2 65.2,51.1 104.2,3.9 119.6,16.9 	"/>
</g>
</svg>
