<?xml version="1.0" encoding="utf-8"?>
<!-- Generator: Adobe Illustrator 27.7.0, SVG Export Plug-In . SVG Version: 6.00 Build 0)  -->
<svg version="1.1" id="Layer_1" xmlns="http://www.w3.org/2000/svg" xmlns:xlink="http://www.w3.org/1999/xlink" x="0px" y="0px"
	 viewBox="0 0 120 120" style="enable-background:new 0 0 120 120;" xml:space="preserve">
<style type="text/css">
	.st0{fill:#FFFFFF;}
</style>
<g>
	<path class="st0" d="M0.7,74.1c0,11,8.9,19.9,19.9,19.9h22.5V50.4c0-1.3,1.1-2.4,2.4-2.4h50c-4-12.9-16.2-22-29.9-22
		c-16.3,0-30.1,12.7-31.3,29c-0.1,0.8-0.5,1.6-1.3,2c-0.7,0.4-1.6,0.4-2.3-0.1c-3-1.7-6.4-2.7-10-2.7C9.6,54.2,0.7,63.1,0.7,74.1z"
		/>
	<path class="st0" d="M98.7,52.8L98.7,52.8L98.7,52.8H48v10.5h68.6C113.1,57,106.4,52.8,98.7,52.8z M59.6,59.5H54v-2.9h5.6V59.5z"/>
	<path class="st0" d="M118.5,68.2H48v10.5h70.6c0.4-1.7,0.7-3.4,0.7-5.2C119.3,71.6,119,69.9,118.5,68.2z M59.6,74.9H54V72h5.6V74.9
		z"/>
	<path class="st0" d="M48,83.5V94h50.7c7.6,0,14.4-4.2,17.9-10.5H48z M59.6,90.2H54v-2.9h5.6V90.2z"/>
</g>
</svg>
