<?xml version="1.0" encoding="utf-8"?>
<!-- Generator: Adobe Illustrator 28.2.0, SVG Export Plug-In . SVG Version: 6.00 Build 0)  -->
<svg version="1.1" id="Layer_1" xmlns="http://www.w3.org/2000/svg" xmlns:xlink="http://www.w3.org/1999/xlink" x="0px" y="0px"
	 viewBox="0 0 62 38" style="enable-background:new 0 0 62 38;" xml:space="preserve">
<style type="text/css">
	.st0{fill-rule:evenodd;clip-rule:evenodd;fill:#FFFFFF;}
</style>
<path class="st0" d="M29.5,33.4c-1.4-0.1-2.7-0.5-4.1-1c-1.8-0.7-3.4-1.7-4.7-3l3.4-4c1,0.9,2.2,1.6,3.4,2.2
	c1.2,0.5,2.4,0.8,3.6,0.8c1.4,0,2.4-0.3,3.1-0.8c0.7-0.5,1.1-1.3,1.1-2.2c0-0.6-0.2-1.1-0.5-1.5c-0.3-0.4-0.7-0.7-1.2-1
	c-0.5-0.3-1.3-0.6-2.4-1.1l-3.7-1.6c-1.7-0.7-3-1.6-4.1-2.9c-1.1-1.2-1.6-2.8-1.6-4.7c0-1.5,0.4-2.9,1.3-4.1c0.8-1.2,2-2.2,3.5-3
	c0.9-0.4,1.9-0.8,2.9-0.9V1h2.9v3.6c1.3,0.1,2.6,0.4,3.9,0.9C38,6.1,39.3,7,40.5,8.2l-3,3.7c-1-0.8-1.9-1.3-2.9-1.7
	c-0.9-0.4-2-0.6-3-0.6c-1.2,0-2.1,0.2-2.8,0.7c-0.7,0.5-1,1.2-1,2c0,0.6,0.2,1.1,0.5,1.5c0.4,0.4,0.8,0.7,1.3,1
	c0.5,0.3,1.3,0.6,2.5,1.1l3.6,1.5c1.8,0.7,3.2,1.7,4.2,2.9c1,1.2,1.5,2.8,1.5,4.6c0,1.6-0.4,3-1.2,4.3c-0.8,1.3-2,2.3-3.6,3.1
	c-1.2,0.6-2.5,0.9-4,1.1V37h-2.9V33.4L29.5,33.4z"/>
</svg>
