<?xml version="1.0" encoding="utf-8"?>
<!-- Generator: Adobe Illustrator 28.0.0, SVG Export Plug-In . SVG Version: 6.00 Build 0)  -->
<svg version="1.1" id="Layer_1" xmlns="http://www.w3.org/2000/svg" xmlns:xlink="http://www.w3.org/1999/xlink" x="0px" y="0px"
	 viewBox="0 0 120 120" style="enable-background:new 0 0 120 120;" xml:space="preserve">
<style type="text/css">
	.st0{fill:#FFFFFF;}
</style>
<g>
	<path class="st0" d="M112,53.3C107.8,39.3,94.7,30,79.3,30h-6.5c-2.5-2.3-6.6-4-10.8-4.4V14.8c2.5-0.9,4.3-3.2,4.3-6.1
		c0-3.5-2.9-6.5-6.5-6.5s-6.5,2.9-6.5,6.5c0,2.8,1.8,5.1,4.2,6.1v10.8C53.5,26,49.5,27.7,47,30h-6.5C25.3,30,12.1,39.3,8,53.3
		C3.4,55,0.2,58.8,0.2,66.9c0,7.8,2.9,11.6,7.3,13.4c3.5,15,17,25.3,33.2,25.3l0,0l0,0h6.1l0,0l0,0v12.1c0,0,13-3.5,32.6-10.1
		c19.7-6.5,30.6-13.5,33.4-27.5c4.2-1.8,7.1-5.7,7.1-13.3C119.8,58.8,116.6,55,112,53.3z M103.6,68.4c-0.3,12.2-10.3,22-22.6,22
		H39.2c-12.5,0-22.6-10.2-22.6-22.6c0-12.5,10.2-22.6,22.6-22.6l0,0l0,0H81l0,0c12.3,0,22.3,9.8,22.6,22c0,0.2,0,0.4,0,0.6
		C103.6,68,103.6,68.2,103.6,68.4z"/>
	<g>
		<path class="st0" d="M73.2,67.8c0-3.1,2.5-5.5,5.5-5.5c3.1,0,5.5,2.5,5.5,5.5c0,3.1-2.5,5.5-5.5,5.5
			C75.7,73.5,73.2,70.9,73.2,67.8z"/>
		<path class="st0" d="M35.7,67.8c0-3.1,2.5-5.5,5.5-5.5c3.1,0,5.5,2.5,5.5,5.5c0,3.1-2.5,5.5-5.5,5.5
			C38.3,73.5,35.7,70.9,35.7,67.8z"/>
	</g>
</g>
</svg>
