<?xml version="1.0" encoding="utf-8"?>
<!-- Generator: Adobe Illustrator 28.0.0, SVG Export Plug-In . SVG Version: 6.00 Build 0)  -->
<svg version="1.1" id="Layer_1" xmlns="http://www.w3.org/2000/svg" xmlns:xlink="http://www.w3.org/1999/xlink" x="0px" y="0px"
	 viewBox="0 0 36 36" style="enable-background:new 0 0 36 36;" xml:space="preserve">
<style type="text/css">
	.st0{fill:#FFFFFF;}
	.st1{fill:#003366;}
</style>
<g>
	<path class="st0" d="M18,0.2C8.2,0.2,0.2,8.2,0.2,18s8,17.8,17.8,17.8s17.8-8,17.8-17.8S27.8,0.2,18,0.2z"/>
	<path class="st1" d="M18,32.5C10,32.5,3.5,26,3.5,18S10,3.5,18,3.5S32.5,10.1,32.5,18S26,32.5,18,32.5z"/>
</g>
<path class="st0" d="M23.2,15.2h-7.3V13c0-1.2,1-2.2,2.2-2.1c1.1,0,2,1,2,2.2v0.3c0,0.4,0.4,0.8,0.8,0.8s0.8-0.4,0.8-0.8V13
	c0-1-0.4-2-1.1-2.6c-0.7-0.7-1.7-1.1-2.7-1.1c-2,0.1-3.6,1.8-3.6,3.8v2.1h-1.5c-0.6,0-1.1,0.5-1.1,1.1v8.3c0,0.6,0.5,1.1,1.1,1.1
	h10.4c0.6,0,1.1-0.5,1.1-1.1v-8.3C24.3,15.7,23.8,15.2,23.2,15.2z M19,21v0.8c0,0.6-0.5,1-1,1c-0.6,0-1-0.5-1-1V21
	c-0.4-0.3-0.7-0.8-0.7-1.4c0-0.9,0.8-1.7,1.7-1.7s1.7,0.8,1.7,1.7C19.7,20.2,19.4,20.7,19,21z"/>
</svg>
