<?xml version="1.0" encoding="utf-8"?>
<!-- Generator: Adobe Illustrator 27.7.0, SVG Export Plug-In . SVG Version: 6.00 Build 0)  -->
<svg version="1.1" id="Layer_1" xmlns="http://www.w3.org/2000/svg" xmlns:xlink="http://www.w3.org/1999/xlink" x="0px" y="0px"
	 viewBox="0 0 120 120" style="enable-background:new 0 0 120 120;" xml:space="preserve">
<style type="text/css">
	.st0{fill:#FFFFFF;}
</style>
<g>
	<rect x="43.9" y="69.9" class="st0" width="6.8" height="6.9"/>
	<rect x="43.9" y="43.2" class="st0" width="6.8" height="6.8"/>
	<rect x="69.9" y="43.2" class="st0" width="6.8" height="6.8"/>
	<path class="st0" d="M105,0.5H15C7,0.5,0.5,7,0.5,15v90.1c0,7.9,6.4,14.4,14.4,14.4H105c7.9,0,14.4-6.4,14.4-14.4V15
		C119.5,7,113,0.5,105,0.5z M63.7,37.1h19.2v19.2H63.7V37.1z M76.7,69.9v-6.2h6.2v6.2H76.7z M82.9,76.8v6.2h-6.2v-6.2H82.9z
		 M24.5,23.8h22.9V30H30.7v16.7h-6.2V23.8z M47.4,96.2H24.5V73.3h6.2V90h16.7V96.2z M56.9,82.9H37.7V63.7h19.2V82.9z M56.9,56.2
		H37.7V37.1h19.2V56.2z M69.9,82.9h-6.2v-6.2h6.2V82.9z M69.9,69.9h-6.2v-6.2h6.2V69.9z M70.2,70.2h6.2v6.2h-6.2V70.2z M95.5,96.2
		H72.6V90h16.7V73.3h6.2V96.2z M95.5,46.7h-6.2V30H72.6v-6.2h22.9V46.7z"/>
</g>
</svg>
