<?xml version="1.0" encoding="utf-8"?>
<!-- Generator: Adobe Illustrator 27.9.0, SVG Export Plug-In . SVG Version: 6.00 Build 0)  -->
<svg version="1.1" id="Layer_1" xmlns="http://www.w3.org/2000/svg" xmlns:xlink="http://www.w3.org/1999/xlink" x="0px" y="0px"
	 viewBox="0 0 120 120" style="enable-background:new 0 0 120 120;" xml:space="preserve">
<style type="text/css">
	.st0{fill-rule:evenodd;clip-rule:evenodd;fill:#FFFFFF;}
</style>
<g>
	<path class="st0" d="M80.9,96.5c-4.4,0-7.9,3.5-7.9,7.9c0,4.4,3.5,7.9,7.9,7.9c4.4,0,7.9-3.5,7.9-7.9C88.8,100,85.3,96.5,80.9,96.5
		z"/>
	<path class="st0" d="M50.7,96.5c-4.4,0-7.9,3.5-7.9,7.9c0,4.4,3.5,7.9,7.9,7.9c4.4,0,7.9-3.5,7.9-7.9C58.6,100,55,96.5,50.7,96.5z"
		/>
	<path class="st0" d="M111.5,26.6H29l-2.2-16.5c-0.3-2.4-1.7-3.4-4-3.4H6.6c-2.2,0-3.9,1.8-3.9,3.9c0,2.2,1.8,3.9,3.9,3.9l12.9,0
		l9.2,56.1c1.5,9.7,3.7,19,16.3,19l43.4,0c12.7,0,14.1-9.1,16.4-18.2l9.7-38.7C115.2,29.8,115.3,26.6,111.5,26.6z M103.6,44.5H49.9
		c-2.2,0-3.9,1.8-3.9,3.9v0c0,2.2,1.8,3.9,3.9,3.9h51.7l-2.3,9H59.5c-2.2,0-3.9,1.8-3.9,3.9v0c0,2.2,1.8,3.9,3.9,3.9h37.9L97,70.9
		c-1.2,5-1.5,10.9-8.6,10.9H44.9c-7.5,0-7.7-6.8-8.6-12.1l-5.9-35.2h75.6L103.6,44.5z"/>
</g>
</svg>
