<?xml version="1.0" encoding="utf-8"?>
<!-- Generator: Adobe Illustrator 27.7.0, SVG Export Plug-In . SVG Version: 6.00 Build 0)  -->
<svg version="1.1" id="Layer_1" xmlns="http://www.w3.org/2000/svg" xmlns:xlink="http://www.w3.org/1999/xlink" x="0px" y="0px"
	 viewBox="0 0 120 120" style="enable-background:new 0 0 120 120;" xml:space="preserve">
<style type="text/css">
	.st0{fill:#FFFFFF;}
</style>
<g>
	<path class="st0" d="M90.2,52.8c2.7-7.5,4.5-14.7,5.7-21.2c-6.6-1-14-1.5-22-1.4c-2.6,0.1-5.2,0.2-7.8,0.4c1.8,1.8,3.6,3.7,5.2,5.6
		l0,0c0.8-0.3,1.5-0.4,2.4-0.4c3.5,0,6.3,2.8,6.3,6.3c0,1.4-0.4,2.7-1.2,3.7l0,0c3.1,4.4,6,9.2,8.4,14.2
		C88.3,57.7,89.2,55.2,90.2,52.8z"/>
	<path class="st0" d="M9.3,29.5c-4.1,6.9-6.9,14.8-8,23.2c3.6-2.8,7.3-5.5,11-7.9C11,40,10,34.8,9.3,29.5z"/>
	<path class="st0" d="M19.1,41L19.1,41C19,40.7,19,40.2,19,39.8c0-3.5,2.8-6.3,6.3-6.3c1.9,0,3.7,0.9,4.8,2.3l0,0
		c9-3.8,18.5-6.3,28.4-7.8c-8.3-7.5-17.9-13.8-28.6-18.9c-6.9,4.1-12.9,9.5-17.7,16c0.6,5.5,1.6,11.6,3.2,17.9
		C16.6,42.3,17.8,41.6,19.1,41z"/>
	<path class="st0" d="M111.5,31c-2.7-4.9-6.2-9.3-10.2-13.2c-0.3,3.2-0.8,6.9-1.4,10.8C104.2,29.4,108.1,30.2,111.5,31z"/>
	<path class="st0" d="M74,26.7c8.1-0.2,15.7,0.4,22.5,1.4c0.9-5,1.3-9.5,1.5-13.3c-10.3-8.7-23.6-14-38.1-14
		c-9.5,0-18.5,2.3-26.4,6.2c11,5.6,20.8,12.3,29.3,20.4C66.6,27,70.2,26.8,74,26.7z"/>
	<path class="st0" d="M25.3,46.1c-1.8,0-3.6-0.8-4.7-2.1l0,0c-1.4,0.8-2.8,1.5-4.1,2.4C19.6,57,24.4,68,31.8,78
		c6.9,9.3,15.5,17,25.7,23.2l0,0c11.8-10.2,21.1-22.5,27.9-37l0,0c-2.7-5.7-5.8-11-9.3-16.1l0,0c-0.8,0.3-1.5,0.4-2.4,0.4
		c-3.5,0-6.3-2.8-6.3-6.3c0-1.4,0.4-2.7,1.3-3.8l0,0c-2.2-2.5-4.4-5-6.9-7.3c-10.6,1.2-20.7,3.8-30.3,7.8l0,0c0,0.3,0.1,0.6,0.1,1
		C31.6,43.3,28.8,46.1,25.3,46.1z"/>
	<path class="st0" d="M113.7,35.3L113.7,35.3c-0.6-1.4-1.4-2.8-2.2-4.2L113.7,35.3L113.7,35.3c-4-1.1-8.8-2.2-14.2-3.1
		c-1.3,6.7-3.1,14.1-6,21.8c-1.3,3.5-2.7,6.9-4.2,10.2c1.5,3.4,2.9,6.7,4.2,10.2c3.8,10.4,5.8,20.4,7,28.6
		C111.9,92.3,119,76.9,119,60C119.1,51.1,117.1,42.7,113.7,35.3z"/>
	<path class="st0" d="M87.2,68.2c-6,11.8-13.8,22.2-23.1,31.3c-1.2,1.2-2.4,2.3-3.7,3.5c1.1,0.5,2.1,1.1,3.1,1.6
		c1.1-1.6,3-2.8,5.2-2.8c3.5,0,6.3,2.8,6.3,6.3c0,0.4-0.1,1-0.1,1.4l0,0c3.6,1.3,7.3,2.5,11.2,3.5c4-1.9,7.8-4.4,11.3-7.3
		c-1.1-8.6-3.1-19.2-7.3-30.3C89.2,72.9,88.3,70.6,87.2,68.2z"/>
	<path class="st0" d="M42.2,116.3l-4.2-1.5C39.3,115.4,40.7,115.8,42.2,116.3z"/>
	<path class="st0" d="M73.3,112.6c-1.1,1.1-2.7,1.8-4.4,1.8c-3.5,0-6.3-2.8-6.3-6.3V108l0,0c-1.6-0.9-3.2-1.7-4.9-2.6
		c-4.8,4-10,7.7-15.5,11c5.6,1.7,11.6,2.7,17.8,2.7c7.5,0,14.5-1.4,21.1-3.9C78.4,114.4,75.8,113.4,73.3,112.6L73.3,112.6z"/>
	<path class="st0" d="M28.9,80c-6.8-9.2-12-19.8-15.6-31.7C9.1,51.1,5,54.1,1,57.5c0,0.9,0,1.6,0,2.5c0,24.9,15.4,46.1,37,54.9
		c6-3.4,11.5-7.1,16.7-11.4C44.5,97.2,35.8,89.4,28.9,80z"/>
</g>
</svg>
