<?xml version="1.0" encoding="utf-8"?>
<!-- Generator: Adobe Illustrator 27.9.0, SVG Export Plug-In . SVG Version: 6.00 Build 0)  -->
<svg version="1.1" id="Layer_1" xmlns="http://www.w3.org/2000/svg" xmlns:xlink="http://www.w3.org/1999/xlink" x="0px" y="0px"
	 viewBox="0 0 120 120" style="enable-background:new 0 0 120 120;" xml:space="preserve">
<style type="text/css">
	.st0{fill:#FFFFFF;}
</style>
<g>
	<g>
		<g>
			<g>
				<g>
					<g>
						<g>
							<path class="st0" d="M60,0.6c7.4,0,14.5,2.8,20,7.8c1.2,1.1,1.3,3.1,0.2,4.3c-1.1,1.2-3.1,1.3-4.3,0.2
								c-4.3-4-10-6.2-15.8-6.2c0,0,0,0,0,0c-5.9,0-11.5,2.2-15.9,6.2c-1.2,1.1-3.2,1.1-4.3-0.2c-1.2-1.2-1.1-3.2,0.2-4.3
								C45.4,3.4,52.6,0.6,60,0.6C60,0.6,60,0.6,60,0.6z"/>
						</g>
						<g>
							<path class="st0" d="M60,12.8c5.2,0,10.1,2.2,13.5,6.2c1.1,1.3,1,3.2-0.3,4.3c-1.3,1.1-3.2,1-4.3-0.3
								c-2.2-2.6-5.5-4.1-8.8-4.1c0,0,0,0,0,0c-3.4,0-6.6,1.5-8.8,4.1c-1.1,1.3-3.1,1.4-4.3,0.3c-1.3-1.1-1.4-3-0.3-4.3
								C49.9,15,54.8,12.8,60,12.8C60,12.8,60,12.8,60,12.8z"/>
						</g>
					</g>
					<g>
						<g>
							<path class="st0" d="M60,119.4c7.4,0,14.5-2.8,20-7.8c1.2-1.1,1.3-3.1,0.2-4.3c-1.1-1.2-3.1-1.3-4.3-0.2
								c-4.3,4-10,6.2-15.8,6.2c0,0,0,0,0,0c-5.9,0-11.5-2.2-15.9-6.2c-1.2-1.1-3.2-1.1-4.3,0.2c-1.2,1.2-1.1,3.2,0.2,4.3
								C45.4,116.6,52.6,119.4,60,119.4C60,119.4,60,119.4,60,119.4z"/>
						</g>
						<g>
							<path class="st0" d="M60,107.2c5.2,0,10.1-2.2,13.5-6.2c1.1-1.3,1-3.2-0.3-4.3c-1.3-1.1-3.2-1-4.3,0.3
								c-2.2,2.6-5.5,4.1-8.8,4.1c0,0,0,0,0,0c-3.4,0-6.6-1.5-8.8-4.1c-1.1-1.3-3.1-1.4-4.3-0.3c-1.3,1.1-1.4,3-0.3,4.3
								C49.9,105,54.8,107.2,60,107.2C60,107.2,60,107.2,60,107.2z"/>
						</g>
					</g>
				</g>
				<path class="st0" d="M89.7,29.4H30.3c-7,0-12.6,5.7-12.6,12.6v36c0,7,5.7,12.6,12.6,12.6h59.5c7,0,12.6-5.7,12.6-12.6V42
					C102.4,35,96.7,29.4,89.7,29.4z M30.3,36.2h59.5c3.2,0,5.8,2.6,5.8,5.8v19.6H24.4V42C24.4,38.8,27,36.2,30.3,36.2z M89.7,83.8
					H30.3c-3.2,0-5.8-2.6-5.8-5.8v-3.1h71.2V78C95.6,81.2,93,83.8,89.7,83.8z"/>
			</g>
		</g>
	</g>
</g>
</svg>
