<?xml version="1.0" encoding="utf-8"?>
<!-- Generator: Adobe Illustrator 28.2.0, SVG Export Plug-In . SVG Version: 6.00 Build 0)  -->
<svg version="1.1" id="Layer_1" xmlns="http://www.w3.org/2000/svg" xmlns:xlink="http://www.w3.org/1999/xlink" x="0px" y="0px"
	 viewBox="0 0 62 38" style="enable-background:new 0 0 62 38;" xml:space="preserve">
<style type="text/css">
	.st0{fill:#FFFFFF;}
</style>
<g>
	<g id="left_button_00000053518244479700531320000016893920283651915932_">
		<g id="icon_00000178920503850201212240000012080622423361577384_">
			<circle class="st0" cx="41.1" cy="9.6" r="6.9"/>
			<path class="st0" d="M49.8,22.6c-2.2-2.2-5.3-3.6-8.8-3.6c-2.3,0-4.5,0.6-6.4,1.8c3.7,3.3,6.1,8.1,6.2,13.5h9.7
				c1.6,0,2.9-1.3,2.9-2.9C53.4,28,52.1,24.9,49.8,22.6z"/>
		</g>
	</g>
	<g>
		<circle class="st0" cx="23.3" cy="8.5" r="8.2"/>
		<path class="st0" d="M23.3,19.6L23.3,19.6c-8.1,0-14.7,6.6-14.7,14.7v0c0,1.9,1.5,3.4,3.4,3.4h22.6c1.9,0,3.4-1.5,3.4-3.4v0
			C38,26.2,31.4,19.6,23.3,19.6z"/>
	</g>
</g>
</svg>
