<?xml version="1.0" encoding="utf-8"?>
<!-- Generator: Adobe Illustrator 27.9.0, SVG Export Plug-In . SVG Version: 6.00 Build 0)  -->
<svg version="1.1" id="Layer_1" xmlns="http://www.w3.org/2000/svg" xmlns:xlink="http://www.w3.org/1999/xlink" x="0px" y="0px"
	 viewBox="0 0 120 120" style="enable-background:new 0 0 120 120;" xml:space="preserve">
<style type="text/css">
	.st0{fill:#FFFFFF;}
</style>
<g>
	<g>
		<path class="st0" d="M8.2,69.9C9,70.8,9.4,72,9.4,73.2c0,1.2-0.5,2.3-1.5,3.2C6,78,3.2,77.9,1.5,76.1c-0.9-0.9-1.2-2.1-1.2-3.3
			c0-1.2,0.5-2.3,1.5-3.2C3.6,67.9,6.5,68,8.2,69.9z"/>
		<path class="st0" d="M72,41.1c0,0.1,0,0.2,0,0.4c0,1,0.2,2.1,0.6,3l-14.1,13l-14.1,13c-1-0.6-2.2-0.8-3.3-0.8L25.9,25.3
			c0.6-0.3,1.3-0.8,1.8-1.3c0.6-0.5,1-1.1,1.4-1.7L72,41.1z"/>
		<path class="st0" d="M13,75.7l21.7,2c0.3,1.1,0.8,2.1,1.6,3c0.8,0.9,1.9,1.5,3,1.8l0.5,17.3l0.2,7.5c-0.6,0.3-1.2,0.6-1.8,1.1
			L11,79C11.9,78.1,12.6,77,13,75.7z"/>
		<path class="st0" d="M21.5,26.3c0.1,0,0.3,0,0.4,0L37.2,71c-0.2,0.1-0.3,0.3-0.5,0.4c-0.7,0.6-1.2,1.4-1.6,2.2l-21.7-2
			c-0.3-1.7-1-3.2-2.2-4.5c-1.1-1.2-2.5-2.1-4.1-2.5l12.6-38.5C20.2,26.2,20.8,26.3,21.5,26.3z"/>
		<path class="st0" d="M47.7,76.9c0.1-1.2-0.1-2.4-0.6-3.4l28.2-26c1,0.6,2.2,0.9,3.4,0.8l16.3,45.8c-0.6,0.3-1.2,0.7-1.7,1.2
			c-0.5,0.5-1,1-1.4,1.6L47.7,76.9z"/>
		<path class="st0" d="M71.1,11.9c1.3,1.4,3,2.3,4.8,2.6l0,0.7l0.5,20.2c-0.8,0.3-1.6,0.7-2.3,1.4c-0.2,0.1-0.3,0.3-0.4,0.5
			l-14.7-6.4L30.4,18.4c0-0.1,0-0.3,0-0.4c0-0.6,0-1.2-0.1-1.7l38.5-8.9C69.1,9.1,69.9,10.7,71.1,11.9z"/>
		<path class="st0" d="M109.3,40.6c-0.8,0.7-1.4,1.6-1.9,2.6l-22.3-2.7c-0.2-1.2-0.8-2.3-1.6-3.2c-0.8-0.9-1.9-1.5-2.9-1.8L80,14.6
			l0-0.3c1.2-0.4,2.4-1,3.3-1.9c0,0,0,0,0,0L109.3,40.6C109.3,40.6,109.3,40.6,109.3,40.6z"/>
		<path class="st0" d="M99.6,93c-0.2,0-0.4,0-0.5,0L82.6,47c0.1-0.1,0.3-0.2,0.4-0.4c0.6-0.6,1.1-1.3,1.5-2.1l22,2.7
			c0.1,2.1,0.8,4.1,2.3,5.6c1.1,1.2,2.4,2,3.9,2.4l-11.5,37.9C100.7,93.1,100.1,93.1,99.6,93z"/>
		<path class="st0" d="M47.7,109.2c-1-1.1-2.3-1.8-3.7-2.1l-0.6-24.6c0.8-0.3,1.6-0.7,2.3-1.4c0.1-0.1,0.3-0.3,0.4-0.4l44.6,20.1
			c0,0.2,0,0.4,0,0.5c0,0.6,0,1.1,0.1,1.7l-41.3,9.2C49.1,111.1,48.5,110.1,47.7,109.2z"/>
		<path class="st0" d="M26.4,17.9c0,1.2-0.5,2.3-1.5,3.2c-1.8,1.7-4.7,1.6-6.4-0.3c-0.9-0.9-1.2-2.1-1.2-3.3c0-1.2,0.5-2.3,1.5-3.2
			c1.8-1.7,4.7-1.6,6.4,0.3C26,15.5,26.4,16.7,26.4,17.9z"/>
		<path class="st0" d="M80.5,9.4c-1.8,1.7-4.7,1.6-6.4-0.3c-0.9-0.9-1.2-2.1-1.2-3.3c0-1.2,0.5-2.3,1.5-3.2C76.2,1,79.1,1.1,80.8,3
			c0.9,0.9,1.2,2.1,1.2,3.3C82,7.4,81.5,8.6,80.5,9.4z"/>
		<path class="st0" d="M111.8,50.1c-0.9-0.9-1.2-2.1-1.2-3.3c0-1.2,0.5-2.3,1.5-3.2c1.8-1.7,4.7-1.6,6.4,0.3
			c0.9,0.9,1.2,2.1,1.2,3.3c0,1.2-0.5,2.3-1.5,3.2C116.4,52.1,113.5,52,111.8,50.1z"/>
		<path class="st0" d="M94.7,101.5c0-1.2,0.5-2.3,1.5-3.2c1.8-1.7,4.7-1.6,6.4,0.3c0.9,0.9,1.2,2.1,1.2,3.3c0,1.2-0.5,2.3-1.5,3.2
			c-1.8,1.7-4.7,1.6-6.4-0.3C95,103.9,94.6,102.7,94.7,101.5z"/>
		<path class="st0" d="M39.5,110.6c1.8-1.7,4.7-1.6,6.4,0.3c0.9,0.9,1.2,2.1,1.2,3.3c0,1.2-0.5,2.3-1.5,3.2
			c-1.8,1.7-4.7,1.6-6.4-0.3c-0.9-0.9-1.2-2.1-1.2-3.3C38,112.6,38.5,111.4,39.5,110.6z"/>
	</g>
</g>
</svg>
