<?xml version="1.0" encoding="utf-8"?>
<!-- Generator: Adobe Illustrator 28.2.0, SVG Export Plug-In . SVG Version: 6.00 Build 0)  -->
<svg version="1.1" id="Layer_1" xmlns="http://www.w3.org/2000/svg" xmlns:xlink="http://www.w3.org/1999/xlink" x="0px" y="0px"
	 viewBox="0 0 62 38" style="enable-background:new 0 0 62 38;" xml:space="preserve">
<style type="text/css">
	.st0{fill:#FFFFFF;}
</style>
<g>
	<path class="st0" d="M46.4,21l-15-12.9c-0.2-0.2-0.5-0.2-0.7,0L15.6,21c-0.1,0.1-0.2,0.3-0.2,0.4v13.8c0,1.1,0.9,2,2,2h9.1
		c0.3,0,0.6-0.3,0.6-0.6v-9.3c0-0.8,0.7-1.5,1.5-1.5h4.8c0.8,0,1.5,0.7,1.5,1.5v9.3c0,0.3,0.3,0.6,0.6,0.6h9.1c1.1,0,2-0.9,2-2V21.4
		C46.6,21.3,46.5,21.1,46.4,21z"/>
	<path class="st0" d="M50.3,16.9l-7-6V5.4c0-0.6-0.5-1.1-1.1-1.1h-2.5c-0.6,0-1.1,0.5-1.1,1.1v1.4l-6.5-5.6c-0.6-0.5-1.5-0.5-2.1,0
		L11.7,16.9c-0.7,0.6-0.8,1.6-0.2,2.3c0.3,0.4,0.8,0.6,1.2,0.6c0.4,0,0.8-0.1,1.1-0.4L30.8,4.9c0.1-0.1,0.3-0.1,0.5,0l16.9,14.5
		c0.3,0.3,0.7,0.4,1.1,0.4c0.5,0,0.9-0.2,1.2-0.6C51,18.5,51,17.5,50.3,16.9z"/>
</g>
</svg>
