<?xml version="1.0" encoding="utf-8"?>
<!-- Generator: Adobe Illustrator 27.9.0, SVG Export Plug-In . SVG Version: 6.00 Build 0)  -->
<svg version="1.1" id="Layer_1" xmlns="http://www.w3.org/2000/svg" xmlns:xlink="http://www.w3.org/1999/xlink" x="0px" y="0px"
	 viewBox="0 0 120 120" style="enable-background:new 0 0 120 120;" xml:space="preserve">
<style type="text/css">
	.st0{fill:#FFFFFF;}
</style>
<g>
	<g>
		<path class="st0" d="M111,50c2.7-8.1,1.8-17-2.6-24.3c-6.5-11.3-19.5-17.1-32.3-14.4c-7.1-8-18-11.6-28.5-9.4s-19,9.9-22.4,20.1
			c-8.4,1.7-15.6,7-19.8,14.4c-6.6,11.3-5.1,25.5,3.7,35.2c-2.7,8.1-1.8,17,2.5,24.3c6.5,11.3,19.5,17.1,32.3,14.4
			c5.7,6.4,13.8,10,22.3,10c13.1,0,24.6-8.4,28.6-20.8c8.4-1.7,15.6-7,19.8-14.4C121.2,73.8,119.7,59.6,111,50L111,50z M66.3,112.4
			c-5.2,0-10.3-1.8-14.3-5.2l0.7-0.4l23.7-13.7c1.2-0.7,1.9-2,1.9-3.4V56.4l10,5.8c0.1,0.1,0.2,0.1,0.2,0.3v27.7
			C88.5,102.5,78.5,112.4,66.3,112.4z M18.4,92c-2.6-4.5-3.6-9.8-2.6-14.9l0.7,0.4l23.7,13.7c1.2,0.7,2.7,0.7,3.9,0l29-16.7V86
			c0,0.1-0.1,0.2-0.2,0.3l-24,13.8C38.1,106.3,24.5,102.6,18.4,92z M12.1,40.4c2.6-4.5,6.8-8,11.7-9.8v28.1c0,1.4,0.7,2.7,1.9,3.4
			l28.8,16.6l-10,5.8c-0.1,0.1-0.2,0.1-0.4,0L20.3,70.7C9.7,64.6,6,51,12.1,40.3V40.4z M94.4,59.5L65.5,42.7l10-5.8
			c0.1-0.1,0.2-0.1,0.4,0l23.9,13.8c7.5,4.3,11.8,12.6,11.1,21.1c-0.7,8.6-6.3,16-14.4,19v-28C96.4,61.4,95.6,60.2,94.4,59.5z
			 M104.4,44.5l-0.7-0.4L80,30.3c-1.2-0.7-2.7-0.7-3.9,0L47.2,47V35.5c0-0.1,0-0.2,0.1-0.3l23.9-13.8c7.5-4.3,16.8-3.9,23.9,1
			S105.8,35.9,104.4,44.5L104.4,44.5z M41.7,65l-10-5.8c-0.1-0.1-0.2-0.2-0.2-0.3V31.4c0-8.6,5-16.5,12.8-20.2s17.1-2.5,23.7,3
			l-0.7,0.4L43.7,28.3c-1.2,0.7-1.9,2-1.9,3.4L41.7,65z M47.1,53.3L60,45.9l13,7.4v14.9l-12.9,7.4l-12.9-7.4L47.1,53.3z"/>
	</g>
	<g>
		<path class="st0" d="M106.6,117.1H101l-0.8,2.7h-5.1l6.1-16.1h5.4l6.1,16.1h-5.2L106.6,117.1z M105.6,113.6l-1.8-5.8l-1.8,5.8
			H105.6z"/>
		<path class="st0" d="M114.1,103.6h4.5v3h-4.5V103.6z M114.1,108.1h4.5v11.7h-4.5V108.1z"/>
	</g>
</g>
</svg>
