<?xml version="1.0" encoding="utf-8"?>
<!-- Generator: Adobe Illustrator 27.5.0, SVG Export Plug-In . SVG Version: 6.00 Build 0)  -->
<svg version="1.1" id="Layer_1" xmlns="http://www.w3.org/2000/svg" xmlns:xlink="http://www.w3.org/1999/xlink" x="0px" y="0px"
	 viewBox="0 0 120 120" style="enable-background:new 0 0 120 120;" xml:space="preserve">
<style type="text/css">
	.st0{fill:#003C71;}
</style>
<g>
	<rect x="80.1" y="66.8" class="st0" width="11.9" height="4.5"/>
	<path class="st0" d="M78,75.6c-1.2,0-2.2-1-2.2-2.2v-8.8c0-1.2,1-2.2,2.2-2.2h11.1V46.8c0-1.2-1-2.2-2.2-2.2H33.8
		c-2,0-2.3,0.5-2.3,2.4v39.6c0,1.2,1,2.2,2.2,2.2h53c1.2,0,2.2-1,2.2-2.2V75.6h-1.3H78z"/>
	<path class="st0" d="M80,33c0-0.8-0.4-1-1.1-0.8l-35.1,8.1H80V33z"/>
	<path class="st0" d="M105,0.5H15C7,0.5,0.5,7,0.5,15v90.1c0,7.9,6.4,14.4,14.4,14.4H105c7.9,0,14.4-6.4,14.4-14.4V15
		C119.5,7,113,0.5,105,0.5z M96.5,73.4c0,1.2-1,2.2-2.2,2.2h-0.9v13.3c0,2.4-2,4.5-4.5,4.5H31.5c-2.4,0-4.5-2-4.5-4.5V44.6
		c0-2.9,0.2-4.5,3.3-5.4L80,26.8c2-0.5,4.5,0.4,4.5,3.2v10.3l0,0H89c2.4,0,4.5,2,4.5,4.5v17.6h0.9c1.2,0,2.2,1,2.2,2.2V73.4z"/>
</g>
</svg>
