<?xml version="1.0" encoding="utf-8"?>
<!-- Generator: Adobe Illustrator 27.9.0, SVG Export Plug-In . SVG Version: 6.00 Build 0)  -->
<svg version="1.1" id="Layer_1" xmlns="http://www.w3.org/2000/svg" xmlns:xlink="http://www.w3.org/1999/xlink" x="0px" y="0px"
	 viewBox="0 0 120 120" style="enable-background:new 0 0 120 120;" xml:space="preserve">
<style type="text/css">
	.st0{fill:#FFFFFF;}
</style>
<path class="st0" d="M83.9,59.5l-5.3,9.2c-0.3,0.6-1.2,1.4-2,1.5c-0.3,0-0.5,0.2-0.8,0.2c-1.5,0-2.6-1.1-3-2.3l-3-11l-6.7,27.1
	c-0.3,1.2-1.2,2-2.1,2.3c-0.3,0-0.5,0.2-0.8,0.2c-1.5,0-2.6-1.1-3-2.3l-9.5-35.5l-3,8.6c-0.3,1.4-1.7,2.4-3,2.4H25.5
	c-1.7,0-3.2-1.5-3.2-3.2c0-1.7,1.5-3.2,3.2-3.2h13.8l5.4-17.7c0.3-1.4,1.7-2.3,3-2.3c0.3,0,0.5,0,0.8,0.2c1.2,0.3,2,1.2,2.1,2.3
	l9.5,35.4l6.7-27.1c0.3-1.4,1.7-2.3,3-2.3c0.3,0,0.5,0,0.8,0.2c1.2,0.3,2,1.2,2.1,2.3l3.9,15l2.4-4.2c0.5-1.1,1.7-1.5,2.6-1.5h36.6
	c8.4-31.9-31.2-63.8-57.2-27C25.2-15-24.6,36.9,15.4,72.3l39.9,35.4c3.3,2.9,8.3,2.9,11.6,0l39.9-35.4c4.2-4.1,7.3-8.4,9.3-12.8
	H83.9z"/>
</svg>
