<?xml version="1.0" encoding="utf-8"?>
<!-- Generator: Adobe Illustrator 27.7.0, SVG Export Plug-In . SVG Version: 6.00 Build 0)  -->
<svg version="1.1" id="Layer_1" xmlns="http://www.w3.org/2000/svg" xmlns:xlink="http://www.w3.org/1999/xlink" x="0px" y="0px"
	 viewBox="0 0 120 120" style="enable-background:new 0 0 120 120;" xml:space="preserve">
<style type="text/css">
	.st0{fill:#FFFFFF;}
	.st1{clip-path:url(#SVGID_00000062902915812266657210000013052219799156626819_);fill:#FFFFFF;}
</style>
<g>
	<g>
		<path id="SVGID_1_" class="st0" d="M85.2,11C78.5,4.3,69.5,0.6,60,0.6l0,0c-9.5,0-18.4,3.7-25.1,10.3s-10.4,15.5-10.5,25
			c-0.1,7.5,2.2,14.7,6.5,20.8c4.9,7,7.6,15.1,7.6,23.5v0.6c0,2.3,1.9,4.1,4.1,4.1h34.8c2.3,0,4.1-1.9,4.1-4.1v-0.5
			c0-8.5,2.6-16.6,7.4-23.4c4.4-6.1,6.7-13.2,6.7-20.7C95.6,26.7,91.9,17.8,85.2,11z M82.2,52.1c-2.9,4.1-5.2,8.6-6.7,13.4
			c-1.1,3.6-1.8,7.3-2.1,11.1H46.6c-0.6-8.8-3.7-17.3-9-24.7c-3.3-4.7-5-10.2-5-16C32.8,21,45.1,8.9,60,8.9
			c15.1,0,27.3,12.3,27.3,27.3C87.3,42,85.5,47.5,82.2,52.1z M81.5,93c0,2.3-1.9,4.1-4.1,4.1H42.6c-2.3,0-4.1-1.9-4.1-4.1
			s1.9-4.1,4.1-4.1h34.8C79.7,88.9,81.5,90.7,81.5,93z M75.6,103.4c0.7,1.2,0.8,2.8,0.1,4.1l-1.9,3.6c-2.1,3.9-5.6,6.8-9.7,7.8
			c-1.3,0.4-2.7,0.5-4,0.5c-1.6,0-3.3-0.3-4.8-0.8c-3.8-1.2-7-3.9-8.9-7.6l-1.9-3.6c-0.7-1.3-0.6-2.8,0.1-4.1c0.7-1.2,2.1-2,3.6-2
			h24C73.5,101.4,74.8,102.1,75.6,103.4z M64.1,17.8c0,2.3-1.9,4.1-4.1,4.1c-7.8,0-14.2,6.4-14.2,14.2c0,2.3-1.9,4.1-4.1,4.1
			c-2.3,0-4.1-1.9-4.1-4.1c0-12.4,10.1-22.5,22.5-22.5C62.3,13.7,64.1,15.6,64.1,17.8z"/>
	</g>
	<g>
		<defs>
			<path id="SVGID_00000119806712603121941630000009341985966202442112_" d="M85.2,11C78.5,4.3,69.5,0.6,60,0.6l0,0
				c-9.5,0-18.4,3.7-25.1,10.3s-10.4,15.5-10.5,25c-0.1,7.5,2.2,14.7,6.5,20.8c4.9,7,7.6,15.1,7.6,23.5v0.6c0,2.3,1.9,4.1,4.1,4.1
				h34.8c2.3,0,4.1-1.9,4.1-4.1v-0.5c0-8.5,2.6-16.6,7.4-23.4c4.4-6.1,6.7-13.2,6.7-20.7C95.6,26.7,91.9,17.8,85.2,11z M82.2,52.1
				c-2.9,4.1-5.2,8.6-6.7,13.4c-1.1,3.6-1.8,7.3-2.1,11.1H46.6c-0.6-8.8-3.7-17.3-9-24.7c-3.3-4.7-5-10.2-5-16
				C32.8,21,45.1,8.9,60,8.9c15.1,0,27.3,12.3,27.3,27.3C87.3,42,85.5,47.5,82.2,52.1z M81.5,93c0,2.3-1.9,4.1-4.1,4.1H42.6
				c-2.3,0-4.1-1.9-4.1-4.1s1.9-4.1,4.1-4.1h34.8C79.7,88.9,81.5,90.7,81.5,93z M75.6,103.4c0.7,1.2,0.8,2.8,0.1,4.1l-1.9,3.6
				c-2.1,3.9-5.6,6.8-9.7,7.8c-1.3,0.4-2.7,0.5-4,0.5c-1.6,0-3.3-0.3-4.8-0.8c-3.8-1.2-7-3.9-8.9-7.6l-1.9-3.6
				c-0.7-1.3-0.6-2.8,0.1-4.1c0.7-1.2,2.1-2,3.6-2h24C73.5,101.4,74.8,102.1,75.6,103.4z M64.1,17.8c0,2.3-1.9,4.1-4.1,4.1
				c-7.8,0-14.2,6.4-14.2,14.2c0,2.3-1.9,4.1-4.1,4.1c-2.3,0-4.1-1.9-4.1-4.1c0-12.4,10.1-22.5,22.5-22.5
				C62.3,13.7,64.1,15.6,64.1,17.8z"/>
		</defs>
		<use xlink:href="#SVGID_00000119806712603121941630000009341985966202442112_"  style="overflow:visible;fill:#FFFFFF;"/>
		<clipPath id="SVGID_00000060713675637545815140000009000633871220576137_">
			<use xlink:href="#SVGID_00000119806712603121941630000009341985966202442112_"  style="overflow:visible;"/>
		</clipPath>
		
			<rect x="-78.1" y="-78.1" style="clip-path:url(#SVGID_00000060713675637545815140000009000633871220576137_);fill:#FFFFFF;" width="276.3" height="276.3"/>
	</g>
</g>
</svg>
