<?xml version="1.0" encoding="utf-8"?>
<!-- Generator: Adobe Illustrator 28.0.0, SVG Export Plug-In . SVG Version: 6.00 Build 0)  -->
<svg version="1.1" id="Layer_1" xmlns="http://www.w3.org/2000/svg" xmlns:xlink="http://www.w3.org/1999/xlink" x="0px" y="0px"
	 viewBox="0 0 20 16" style="enable-background:new 0 0 20 16;" xml:space="preserve">
<style type="text/css">
	.st0{fill:#FFFFFF;}
</style>
<g>
	<g>
		<path class="st0" d="M19,3.1c-0.2,0.2-0.6,0.4-0.9,0.4H1.9c-0.7,0-1.3-0.6-1.3-1.3c0-0.4,0.1-0.7,0.4-0.9s0.6-0.4,0.9-0.4H18
			c0.7,0,1.3,0.6,1.3,1.3C19.4,2.6,19.2,2.9,19,3.1z"/>
	</g>
	<g>
		<path class="st0" d="M19,8.9c-0.2,0.2-0.6,0.4-0.9,0.4H1.9C1.2,9.3,0.6,8.7,0.6,8c0-0.4,0.1-0.7,0.4-0.9s0.6-0.4,0.9-0.4H18
			c0.7,0,1.3,0.6,1.3,1.3C19.4,8.4,19.2,8.7,19,8.9z"/>
	</g>
	<g>
		<path class="st0" d="M19,14.8c-0.2,0.2-0.6,0.4-0.9,0.4H1.9c-0.7,0-1.3-0.6-1.3-1.3c0-0.4,0.1-0.7,0.4-0.9s0.6-0.4,0.9-0.4H18
			c0.7,0,1.3,0.6,1.3,1.3C19.4,14.2,19.2,14.5,19,14.8z"/>
	</g>
</g>
</svg>
