<?xml version="1.0" encoding="utf-8"?>
<!-- Generator: Adobe Illustrator 27.9.0, SVG Export Plug-In . SVG Version: 6.00 Build 0)  -->
<svg version="1.1" id="Layer_1" xmlns="http://www.w3.org/2000/svg" xmlns:xlink="http://www.w3.org/1999/xlink" x="0px" y="0px"
	 viewBox="0 0 120 120" style="enable-background:new 0 0 120 120;" xml:space="preserve">
<style type="text/css">
	.st0{fill:#FFFFFF;}
	.st1{opacity:0.4;}
</style>
<g>
	<g>
		<path class="st0" d="M110.8,56c0.1,1.3,0.2,2.7,0.2,4c0,28.2-22.9,51-51,51c-20.9,0-38.9-12.6-46.8-30.6H4.5
			c8.3,22.6,30.1,38.8,55.5,38.8c32.6,0,59.1-26.5,59.1-59.1c0-4.2-0.5-8.3-1.3-12.2H92.4C87.5,34.7,74.8,25.4,60,25.4
			c-17.8,0-32.4,13.4-34.5,30.6h24.3v8.2H9.2c-0.1-1.3-0.2-2.7-0.2-4c0-28.2,22.9-51,51-51c20.9,0,38.9,12.6,46.8,30.6h8.8
			C107.3,17.1,85.4,0.9,60,0.9C27.4,0.9,0.9,27.3,0.9,60c0,4.2,0.5,8.3,1.3,12.2h25.4c5,13.1,17.6,22.4,32.4,22.4
			c17.8,0,32.4-13.4,34.5-30.6H70.1v-8.2L110.8,56L110.8,56z M65.1,85.2H54.9V34.8H65L65.1,85.2L65.1,85.2z"/>
	</g>
	<g class="st1">
		<path class="st0" d="M60,9C31.8,9,9,31.9,9,60c0,1.4,0.1,2.7,0.2,4h8.2c-0.1-1.3-0.2-2.7-0.2-4c0-23.6,19.2-42.8,42.8-42.8
			c16.3,0,30.4,9.1,37.7,22.4h9.1C98.9,21.6,80.9,9,60,9z"/>
		<path class="st0" d="M102.6,56c0.1,1.3,0.2,2.7,0.2,4c0,23.6-19.2,42.8-42.8,42.8c-16.3,0-30.4-9.1-37.7-22.4h-9.1
			C21.1,98.4,39,111,60,111c28.2,0,51-22.9,51-51c0-1.4-0.1-2.7-0.2-4H102.6L102.6,56z"/>
	</g>
</g>
</svg>
