<?xml version="1.0" encoding="utf-8"?>
<!-- Generator: Adobe Illustrator 27.9.0, SVG Export Plug-In . SVG Version: 6.00 Build 0)  -->
<svg version="1.1" id="Layer_1" xmlns="http://www.w3.org/2000/svg" xmlns:xlink="http://www.w3.org/1999/xlink" x="0px" y="0px"
	 viewBox="0 0 120 120" style="enable-background:new 0 0 120 120;" xml:space="preserve">
<style type="text/css">
	.st0{fill:#FFFFFF;}
</style>
<g>
	<path class="st0" d="M60,119.3c-15.8,0-30.7-6.2-41.9-17.4c-3.5-3.5-6.6-7.4-9.1-11.7L8.3,89l-7.5,7.5V65.1h31.4L18.6,78.7l0.3,0.7
		c2.2,4.7,5.2,9,8.9,12.7c8.6,8.6,20,13.3,32.1,13.3s23.5-4.7,32.1-13.3c7.3-7.3,11.9-16.8,13-27h14c-1.2,13.9-7.3,26.9-17.1,36.8
		C90.7,113.1,75.8,119.3,60,119.3z"/>
	<path class="st0" d="M60,38.1c6.5,0,11.8,5.3,11.8,11.8c0,5-3.1,9.2-7.4,10.9l0.9,3.2l5.3,17.9H60H49.4L54.7,64l0.9-3.2
		c-4.3-1.7-7.4-6-7.4-10.9C48.2,43.4,53.5,38.1,60,38.1z"/>
	<path class="st0" d="M60,0.7c15.8,0,30.7,6.2,41.9,17.4c3.5,3.5,6.6,7.4,9.1,11.7l0.7,1.2l7.5-7.5v31.4H87.8l13.6-13.6l-0.3-0.7
		c-2.2-4.7-5.2-9-8.9-12.7c-8.6-8.6-20-13.3-32.1-13.3S36.6,19.3,28,27.9c-7.3,7.3-11.9,16.8-13,27H1C2.1,41,8.2,28,18.1,18.1
		C29.3,6.9,44.2,0.7,60,0.7z"/>
</g>
</svg>
