<?xml version="1.0" encoding="utf-8"?>
<!-- Generator: Adobe Illustrator 27.7.0, SVG Export Plug-In . SVG Version: 6.00 Build 0)  -->
<svg version="1.1" id="Layer_1" xmlns="http://www.w3.org/2000/svg" xmlns:xlink="http://www.w3.org/1999/xlink" x="0px" y="0px"
	 viewBox="0 0 190 200" style="enable-background:new 0 0 190 200;" xml:space="preserve">
<style type="text/css">
	.st0{fill:#FFFFFF;}
	.st1{fill:#F16522;}
	.st2{fill:#8BC53F;}
</style>
<g>
	<g>
		<path class="st0" d="M13.5,166.1c-1.3,1.3-3,2-5.1,2s-3.8-0.7-5.1-2c-1.9-1.9-2-3.9-2-8.1c0-4.2,0.1-6.1,2-8.1c1.3-1.3,3-2,5.1-2
			s3.8,0.7,5.1,2c1.9,1.9,2,3.9,2,8.1C15.5,162.2,15.4,164.2,13.5,166.1z M11.3,151.9c-0.7-0.8-1.8-1.2-3-1.2s-2.2,0.4-3,1.2
			c-1,1.1-1.2,2.3-1.2,6.2c0,3.9,0.2,5.1,1.2,6.2c0.7,0.8,1.8,1.3,3,1.3s2.2-0.5,3-1.3c1-1,1.2-2.2,1.2-6.2
			C12.5,154.1,12.3,152.9,11.3,151.9z"/>
		<path class="st0" d="M21.3,168v-19.9h3V168H21.3z"/>
		<path class="st0" d="M36.2,168.2c-3,0-5.1-0.7-7-2.6l2-2c1.5,1.5,3.1,1.9,5.1,1.9c2.6,0,4.1-1.1,4.1-3.1c0-0.9-0.2-1.6-0.8-2.1
			c-0.5-0.4-1.2-0.7-2.2-0.8l-2.3-0.3c-1.6-0.2-2.9-0.7-3.7-1.6c-1-0.9-1.5-2.2-1.5-3.8c0-3.5,2.5-5.8,6.6-5.8
			c2.7,0,4.5,0.7,6.2,2.3l-1.9,1.9c-1.2-1.2-2.7-1.5-4.4-1.5c-2.3,0-3.6,1.3-3.6,3.1c0,0.7,0.2,1.4,0.7,1.8c0.5,0.4,1.1,0.7,2.2,0.9
			l2.4,0.4c1.8,0.3,2.8,0.7,3.7,1.5c1.1,1,1.6,2.3,1.6,4.1C43.3,166,40.4,168.2,36.2,168.2z"/>
		<path class="st0" d="M62.2,168.2c-3,0-5.1-0.7-7-2.6l2-2c1.5,1.5,3.1,1.9,5.1,1.9c2.6,0,4.1-1.1,4.1-3.1c0-0.9-0.2-1.6-0.8-2.1
			c-0.5-0.4-1.2-0.7-2.2-0.8l-2.3-0.3c-1.6-0.2-2.9-0.7-3.7-1.6c-1-0.9-1.5-2.2-1.5-3.8c0-3.5,2.5-5.8,6.6-5.8
			c2.7,0,4.5,0.7,6.2,2.3l-1.9,1.9c-1.2-1.2-2.7-1.5-4.4-1.5c-2.3,0-3.6,1.3-3.6,3.1c0,0.7,0.2,1.4,0.7,1.8c0.5,0.4,1.1,0.7,2.2,0.9
			l2.4,0.4c1.8,0.3,2.8,0.7,3.7,1.5c1.1,1,1.6,2.3,1.6,4.1C69.3,166,66.3,168.2,62.2,168.2z"/>
		<path class="st0" d="M74.8,168v-19.9h12.7v2.7h-9.7v5.8H86v2.7h-8.3v6h9.7v2.7H74.8z"/>
		<path class="st0" d="M104,168l-4.2-8.4H96v8.4h-3v-19.9h7.7c3.8,0,6.2,2.4,6.2,5.8c0,2.9-1.7,4.7-4,5.3l4.6,8.8L104,168L104,168z
			 M100.5,150.8H96v6.2h4.5c2,0,3.4-1.2,3.4-3.1C103.8,152,102.5,150.8,100.5,150.8z"/>
		<path class="st0" d="M118.9,168h-2.3l-6.5-19.9h3.1l4.6,14.5l4.6-14.5h3.2L118.9,168z"/>
		<path class="st0" d="M129.6,168v-19.9h3V168H129.6z"/>
		<path class="st0" d="M145.7,168.2c-2.2,0-3.8-0.7-5.1-2c-1.9-1.9-2-3.9-2-8.1c0-4.2,0.1-6.1,2-8.1c1.3-1.3,3-2,5.1-2
			c3.7,0,6.4,2.2,7.1,6.1h-3.1c-0.4-2-1.8-3.4-4-3.4c-1.2,0-2.2,0.4-2.9,1.2c-1,1.1-1.2,2.3-1.2,6.2c0,3.9,0.2,5.1,1.2,6.2
			c0.7,0.8,1.7,1.2,2.9,1.2c2.2,0,3.6-1.4,4.1-3.4h3C152.1,166,149.3,168.2,145.7,168.2z"/>
		<path class="st0" d="M158.2,168v-19.9h12.7v2.7h-9.7v5.8h8.3v2.7h-8.3v6h9.7v2.7H158.2z"/>
		<path class="st0" d="M181.7,168.2c-3,0-5.1-0.7-7-2.6l2-2c1.5,1.5,3.1,1.9,5.1,1.9c2.6,0,4.1-1.1,4.1-3.1c0-0.9-0.2-1.6-0.8-2.1
			c-0.5-0.4-1.2-0.7-2.2-0.8l-2.3-0.3c-1.6-0.2-2.9-0.7-3.7-1.6c-1-0.9-1.5-2.2-1.5-3.8c0-3.5,2.5-5.8,6.6-5.8
			c2.7,0,4.5,0.7,6.2,2.3l-1.9,1.9c-1.2-1.2-2.7-1.5-4.4-1.5c-2.3,0-3.6,1.3-3.6,3.1c0,0.7,0.2,1.4,0.7,1.8c0.5,0.4,1.1,0.7,2.2,0.9
			l2.4,0.4c1.8,0.3,2.8,0.7,3.7,1.5c1.1,1,1.6,2.3,1.6,4.1C188.8,166,185.9,168.2,181.7,168.2z"/>
		<path class="st0" d="M18.6,198.8c-1,0-1.7-0.3-2.3-0.9c-0.9-0.9-0.9-1.7-0.9-3.8s0.1-2.9,0.9-3.8c0.6-0.6,1.4-0.9,2.3-0.9
			c1.7,0,2.9,1,3.2,2.8h-1c-0.2-1.2-1-1.9-2.2-1.9c-0.6,0-1.2,0.2-1.6,0.6c-0.6,0.6-0.6,1.3-0.6,3.2s0.1,2.6,0.6,3.2
			c0.4,0.4,1,0.6,1.6,0.6c1.2,0,2-0.7,2.2-1.9h1C21.5,197.7,20.2,198.8,18.6,198.8z"/>
		<path class="st0" d="M29.7,197.9c-0.6,0.6-1.3,0.9-2.3,0.9c-1,0-1.7-0.3-2.3-0.9c-0.9-0.9-0.9-1.7-0.9-3.8s0.1-2.9,0.9-3.8
			c0.6-0.6,1.4-0.9,2.3-0.9c1,0,1.7,0.3,2.3,0.9c0.9,0.9,0.9,1.7,0.9,3.8C30.6,196.2,30.5,197,29.7,197.9z M29,190.9
			c-0.4-0.4-1-0.6-1.6-0.6s-1.2,0.2-1.6,0.6c-0.6,0.6-0.6,1.3-0.6,3.2s0.1,2.6,0.6,3.2c0.4,0.4,1,0.6,1.6,0.6s1.2-0.2,1.6-0.6
			c0.6-0.6,0.6-1.3,0.6-3.2S29.6,191.5,29,190.9z"/>
		<path class="st0" d="M40.5,198.7v-7l-2.5,5.6h-0.9l-2.6-5.6v7h-1v-9.3h1l3,6.6l2.9-6.6h1v9.3H40.5z"/>
		<path class="st0" d="M48.3,194.9h-2.5v3.8h-1v-9.3h3.4c1.7,0,2.9,1.1,2.9,2.7S50,194.9,48.3,194.9z M48.3,190.3h-2.4v3.7h2.4
			c1.2,0,1.9-0.6,1.9-1.8S49.4,190.3,48.3,190.3z"/>
		<path class="st0" d="M53.7,198.7v-9.3h1v8.4h4.7v0.9L53.7,198.7L53.7,198.7z"/>
		<path class="st0" d="M61.9,198.7v-9.3h5.8v0.9h-4.8v3.3h4.1v0.9h-4.1v3.3h4.8v0.9L61.9,198.7L61.9,198.7z"/>
		<path class="st0" d="M74.8,198.7l-2.2-3.9l-2.3,3.9h-1.1l2.8-4.8l-2.7-4.5h1.2l2.1,3.7l2.1-3.7h1.2l-2.7,4.5l2.9,4.8H74.8z"/>
		<path class="st0" d="M78.2,198.7v-9.3h1v9.3H78.2z"/>
		<path class="st0" d="M85.2,190.3v8.4h-1v-8.4h-2.7v-0.9h6.4v0.9H85.2z"/>
		<path class="st0" d="M92.9,194.9v3.8h-1v-3.8l-2.8-5.4h1.1l2.2,4.4l2.2-4.4h1.1L92.9,194.9z"/>
		<path class="st0" d="M104,198.8c-1.4,0-2.3-0.3-3.2-1.2l0.7-0.7c0.8,0.8,1.5,1,2.5,1c1.4,0,2.2-0.6,2.2-1.7c0-0.5-0.1-0.9-0.5-1.2
			c-0.3-0.3-0.5-0.3-1.2-0.5l-1.1-0.2c-0.7-0.1-1.3-0.3-1.7-0.7c-0.5-0.4-0.7-1-0.7-1.7c0-1.6,1.1-2.6,3-2.6c1.2,0,2,0.3,2.8,1
			l-0.6,0.6c-0.6-0.5-1.2-0.8-2.2-0.8c-1.3,0-2,0.7-2,1.7c0,0.5,0.1,0.8,0.4,1.1c0.3,0.2,0.7,0.4,1.2,0.5l1.1,0.2
			c0.9,0.1,1.3,0.3,1.7,0.7c0.5,0.4,0.8,1.1,0.8,1.8C107.2,197.8,106,198.8,104,198.8z"/>
		<path class="st0" d="M109.9,198.7v-9.3h1v9.3H109.9z"/>
		<path class="st0" d="M121.2,198.7v-7l-2.6,5.6h-0.9l-2.6-5.6v7h-1v-9.3h1l3,6.6l2.9-6.6h1v9.3H121.2z"/>
		<path class="st0" d="M129,194.9h-2.5v3.8h-1v-9.3h3.4c1.7,0,2.9,1.1,2.9,2.7S130.7,194.9,129,194.9z M128.9,190.3h-2.4v3.7h2.4
			c1.2,0,1.9-0.6,1.9-1.8S130.1,190.3,128.9,190.3z"/>
		<path class="st0" d="M134.4,198.7v-9.3h1v8.4h4.7v0.9L134.4,198.7L134.4,198.7z"/>
		<path class="st0" d="M142.5,198.7v-9.3h1v9.3H142.5z"/>
		<path class="st0" d="M147.8,190.3v3.4h4.1v0.9h-4.1v4.1h-1v-9.3h5.8v0.9L147.8,190.3L147.8,190.3z"/>
		<path class="st0" d="M155,198.7v-9.3h1v9.3H155z"/>
		<path class="st0" d="M159.4,198.7v-9.3h5.8v0.9h-4.8v3.3h4.1v0.9h-4.1v3.3h4.8v0.9L159.4,198.7L159.4,198.7z"/>
		<path class="st0" d="M173.4,197.7c-0.6,0.7-1.4,1-2.4,1h-3.2v-9.3h3.2c1,0,1.8,0.3,2.4,1c0.8,0.9,0.8,2.2,0.8,3.7
			S174.3,196.8,173.4,197.7z M172.7,191c-0.5-0.5-1.1-0.7-1.8-0.7h-2v7.5h2c0.7,0,1.4-0.2,1.8-0.7c0.6-0.6,0.6-1.8,0.6-3.1
			C173.3,192.8,173.3,191.6,172.7,191z"/>
	</g>
</g>
<g>
	<path class="st0" d="M156.5,51.3h-27.1c-5.3-14-18.8-23.9-34.6-23.9c-18.9,0-34.6,14.3-36.7,32.6H84v8.7H49.3
		c-0.1-1.4-0.2-2.9-0.2-4.4c0-25.2,20.5-45.7,45.7-45.7c17.3,0,32.4,9.7,40.2,23.9H154C145.1,18.5,122,1.2,94.8,1.2
		C60,1.2,31.7,29.5,31.7,64.3c0,4.5,0.5,8.8,1.4,13.1h27.1c5.3,14,18.8,23.9,34.6,23.9c18.9,0,34.6-14.3,36.7-32.6h-25.9V60h34.7
		c0.1,1.4,0.2,2.9,0.2,4.4c0,25.2-20.5,45.7-45.7,45.7c-17.3,0-32.4-9.7-40.2-23.9H35.6c8.8,24.1,32.1,41.3,59.2,41.3
		c34.8,0,63.1-28.3,63.1-63.1C157.9,59.8,157.4,55.5,156.5,51.3z"/>
	<g>
		<g>
			<path class="st1" d="M94.8,9.9c-30,0-54.4,24.3-54.4,54.4c0,1.5,0.1,2.9,0.2,4.4h8.7c-0.1-1.4-0.2-2.9-0.2-4.4
				c0-25.2,20.5-45.7,45.7-45.7c17.3,0,32.4,9.7,40.2,23.9h9.7C136.3,23.3,117.1,9.9,94.8,9.9z"/>
			<path class="st1" d="M140.3,60c0.1,1.4,0.2,2.9,0.2,4.4c0,25.2-20.5,45.7-45.7,45.7c-17.3,0-32.4-9.7-40.2-23.9H45
				c8.4,19.2,27.5,32.6,49.8,32.6c30,0,54.4-24.3,54.4-54.4c0-1.5-0.1-2.9-0.2-4.4H140.3z"/>
		</g>
	</g>
	<rect x="89.4" y="37.4" class="st2" width="10.8" height="53.8"/>
</g>
</svg>
