<?xml version="1.0" encoding="utf-8"?>
<!-- Generator: Adobe Illustrator 27.7.0, SVG Export Plug-In . SVG Version: 6.00 Build 0)  -->
<svg version="1.1" id="Layer_1" xmlns="http://www.w3.org/2000/svg" xmlns:xlink="http://www.w3.org/1999/xlink" x="0px" y="0px"
	 viewBox="0 0 190 190" style="enable-background:new 0 0 190 190;" xml:space="preserve">
<style type="text/css">
	.st0{fill:#FFFFFF;}
	.st1{opacity:0.4;}
</style>
<g>
	<g>
		<g>
			<path class="st0" d="M13,159.1c-1.3,1.3-3,2-5.2,2s-3.9-0.7-5.2-2c-2-2-2-3.9-2-8.1c0-4.2,0.1-6.2,2-8.1c1.3-1.3,3-2,5.2-2
				s3.9,0.7,5.2,2c2,2,2,3.9,2,8.1C15.1,155.2,15,157.2,13,159.1z M10.9,144.8c-0.8-0.8-1.8-1.2-3-1.2s-2.2,0.4-3,1.2
				c-1,1.1-1.2,2.3-1.2,6.2c0,3.9,0.2,5.1,1.2,6.2c0.8,0.8,1.8,1.3,3,1.3s2.2-0.5,3-1.3c1-1,1.2-2.2,1.2-6.2S11.9,145.8,10.9,144.8z
				"/>
			<path class="st0" d="M21,161v-20h3v20H21z"/>
			<path class="st0" d="M35.9,161.1c-3,0-5.1-0.7-7.1-2.6l2-2c1.5,1.5,3.1,1.9,5.1,1.9c2.6,0,4.1-1.1,4.1-3.1c0-0.9-0.2-1.6-0.8-2.1
				c-0.5-0.4-1.2-0.7-2.2-0.8l-2.4-0.3c-1.6-0.2-2.9-0.8-3.8-1.6c-1-0.9-1.5-2.2-1.5-3.8c0-3.5,2.5-5.8,6.7-5.8
				c2.7,0,4.5,0.7,6.2,2.3l-1.9,1.9c-1.2-1.2-2.7-1.5-4.4-1.5c-2.4,0-3.6,1.3-3.6,3.1c0,0.7,0.2,1.4,0.7,1.9
				c0.5,0.4,1.1,0.7,2.2,0.9l2.4,0.4c1.8,0.3,2.8,0.7,3.7,1.5c1.1,1,1.6,2.4,1.6,4.1C43.1,158.9,40.1,161.1,35.9,161.1z"/>
			<path class="st0" d="M62,161.1c-3,0-5.1-0.7-7.1-2.6l2-2c1.5,1.5,3.1,1.9,5.1,1.9c2.6,0,4.1-1.1,4.1-3.1c0-0.9-0.2-1.6-0.8-2.1
				c-0.5-0.4-1.2-0.7-2.2-0.8l-2.4-0.3c-1.6-0.2-2.9-0.8-3.8-1.6c-1-0.9-1.5-2.2-1.5-3.8c0-3.5,2.5-5.8,6.7-5.8
				c2.7,0,4.5,0.7,6.2,2.3l-1.9,1.9c-1.2-1.2-2.7-1.5-4.4-1.5c-2.4,0-3.6,1.3-3.6,3.1c0,0.7,0.2,1.4,0.7,1.9
				c0.5,0.4,1.1,0.7,2.2,0.9l2.4,0.4c1.8,0.3,2.8,0.7,3.7,1.5c1.1,1,1.6,2.4,1.6,4.1C69.2,158.9,66.2,161.1,62,161.1z"/>
			<path class="st0" d="M74.6,161v-20h12.8v2.7h-9.7v5.8H86v2.7h-8.3v6h9.7v2.7H74.6z"/>
			<path class="st0" d="M104,161l-4.2-8.4H96v8.4h-3v-20h7.7c3.8,0,6.2,2.4,6.2,5.8c0,2.9-1.7,4.7-4,5.3l4.6,8.8L104,161L104,161z
				 M100.5,143.7H96v6.2h4.5c2,0,3.4-1.2,3.4-3.1S102.5,143.7,100.5,143.7z"/>
			<path class="st0" d="M119.1,161h-2.4l-6.6-20h3.1l4.6,14.5l4.6-14.5h3.2L119.1,161z"/>
			<path class="st0" d="M129.8,161v-20h3v20H129.8z"/>
			<path class="st0" d="M145.9,161.1c-2.2,0-3.9-0.7-5.2-2c-1.9-2-2-3.9-2-8.1c0-4.2,0.1-6.2,2-8.1c1.3-1.3,3-2,5.2-2
				c3.7,0,6.4,2.2,7.1,6.1H150c-0.4-2.1-1.8-3.5-4-3.5c-1.2,0-2.2,0.4-3,1.2c-1,1.1-1.2,2.3-1.2,6.2c0,3.9,0.2,5.2,1.2,6.2
				c0.7,0.8,1.7,1.2,3,1.2c2.2,0,3.6-1.4,4.1-3.5h3C152.4,158.9,149.6,161.1,145.9,161.1z"/>
			<path class="st0" d="M158.5,161v-20h12.8v2.7h-9.7v5.8h8.3v2.7h-8.3v6h9.7v2.7H158.5z"/>
			<path class="st0" d="M182.1,161.1c-3,0-5.1-0.7-7.1-2.6l2-2c1.5,1.5,3.1,1.9,5.1,1.9c2.6,0,4.1-1.1,4.1-3.1
				c0-0.9-0.2-1.6-0.8-2.1c-0.5-0.4-1.2-0.7-2.2-0.8l-2.4-0.3c-1.6-0.2-2.9-0.8-3.8-1.6c-1-0.9-1.5-2.2-1.5-3.8
				c0-3.5,2.5-5.8,6.7-5.8c2.7,0,4.5,0.7,6.2,2.3l-1.9,1.9c-1.2-1.2-2.7-1.5-4.4-1.5c-2.4,0-3.6,1.3-3.6,3.1c0,0.7,0.2,1.4,0.7,1.9
				c0.5,0.4,1.1,0.7,2.2,0.9l2.4,0.4c1.8,0.3,2.8,0.7,3.7,1.5c1.1,1,1.6,2.4,1.6,4.1C189.3,158.9,186.3,161.1,182.1,161.1z"/>
			<path class="st0" d="M10.5,188.4c-1.1,0-1.9-0.4-2.6-1c-1-1-1-1.9-1-4.2c0-2.4,0.1-3.2,1-4.2c0.6-0.6,1.5-1,2.6-1
				c1.9,0,3.2,1.1,3.6,3h-1.1c-0.3-1.3-1.1-2.1-2.4-2.1c-0.7,0-1.3,0.2-1.8,0.7C8.1,180.3,8,181,8,183.2s0.1,2.8,0.7,3.5
				c0.5,0.5,1.1,0.7,1.8,0.7c1.3,0,2.2-0.8,2.5-2.1h1.1C13.7,187.3,12.3,188.4,10.5,188.4z"/>
			<path class="st0" d="M22.8,187.4c-0.6,0.6-1.5,1-2.6,1s-1.9-0.4-2.6-1c-1-1-1-1.9-1-4.2c0-2.4,0.1-3.2,1-4.2c0.6-0.6,1.5-1,2.6-1
				c1.1,0,1.9,0.4,2.6,1c1,1,1,1.9,1,4.2C23.8,185.5,23.8,186.4,22.8,187.4z M22,179.7c-0.5-0.5-1.1-0.7-1.8-0.7
				c-0.7,0-1.3,0.2-1.8,0.7c-0.6,0.7-0.7,1.4-0.7,3.5s0.1,2.8,0.7,3.5c0.5,0.5,1.1,0.7,1.8,0.7c0.7,0,1.3-0.2,1.8-0.7
				c0.6-0.7,0.7-1.4,0.7-3.5S22.7,180.3,22,179.7z"/>
			<path class="st0" d="M34.8,188.3v-7.8l-2.8,6.2h-0.9l-2.8-6.2v7.8h-1.1V178h1.1l3.3,7.3l3.2-7.3h1.1v10.3H34.8z"/>
			<path class="st0" d="M43.4,184.1h-2.7v4.2h-1.1V178h3.8c1.9,0,3.2,1.2,3.2,3S45.3,184.1,43.4,184.1z M43.3,179h-2.6v4.1h2.6
				c1.3,0,2.1-0.7,2.1-2S44.6,179,43.3,179z"/>
			<path class="st0" d="M49.4,188.3V178h1.1v9.3h5.2v1L49.4,188.3L49.4,188.3z"/>
			<path class="st0" d="M58.4,188.3V178h6.4v1h-5.3v3.6H64v1h-4.5v3.7h5.3v1L58.4,188.3L58.4,188.3z"/>
			<path class="st0" d="M72.7,188.3l-2.5-4.3l-2.5,4.3h-1.2l3.1-5.3l-2.9-5H68l2.3,4.1l2.3-4.1h1.3l-3,5l3.2,5.3H72.7z"/>
			<path class="st0" d="M76.4,188.3V178h1.1v10.3H76.4z"/>
			<path class="st0" d="M84.2,179v9.3h-1.1V179h-3v-1h7v1H84.2z"/>
			<path class="st0" d="M92.7,184.1v4.2h-1.1v-4.2l-3-6h1.2l2.4,4.9l2.4-4.9h1.2L92.7,184.1z"/>
			<path class="st0" d="M105,188.4c-1.5,0-2.6-0.4-3.5-1.3l0.7-0.7c0.9,0.9,1.6,1.1,2.8,1.1c1.5,0,2.4-0.7,2.4-1.9
				c0-0.5-0.2-1-0.5-1.3c-0.3-0.3-0.6-0.4-1.3-0.5l-1.2-0.2c-0.8-0.1-1.4-0.4-1.9-0.8c-0.5-0.5-0.8-1.1-0.8-1.9
				c0-1.7,1.3-2.9,3.3-2.9c1.3,0,2.2,0.3,3,1.1l-0.7,0.7c-0.6-0.6-1.3-0.9-2.4-0.9c-1.4,0-2.2,0.8-2.2,1.9c0,0.5,0.1,0.9,0.5,1.2
				c0.3,0.3,0.8,0.4,1.3,0.5l1.2,0.2c0.9,0.1,1.4,0.3,1.9,0.7c0.5,0.5,0.9,1.2,0.9,2C108.5,187.3,107.1,188.4,105,188.4z"/>
			<path class="st0" d="M111.5,188.3V178h1.1v10.3H111.5z"/>
			<path class="st0" d="M124,188.3v-7.8l-2.8,6.2h-0.9l-2.8-6.2v7.8h-1.1V178h1.1l3.3,7.3l3.2-7.3h1.1v10.3H124z"/>
			<path class="st0" d="M132.6,184.1h-2.7v4.2h-1.1V178h3.8c1.9,0,3.2,1.2,3.2,3S134.5,184.1,132.6,184.1z M132.5,179h-2.6v4.1h2.6
				c1.3,0,2.1-0.7,2.1-2S133.8,179,132.5,179z"/>
			<path class="st0" d="M138.6,188.3V178h1.1v9.3h5.2v1L138.6,188.3L138.6,188.3z"/>
			<path class="st0" d="M147.6,188.3V178h1.1v10.3H147.6z"/>
			<path class="st0" d="M153.4,179v3.8h4.5v1h-4.5v4.5h-1.1V178h6.4v1L153.4,179L153.4,179z"/>
			<path class="st0" d="M161.4,188.3V178h1.1v10.3H161.4z"/>
			<path class="st0" d="M166.2,188.3V178h6.4v1h-5.3v3.6h4.5v1h-4.5v3.7h5.3v1L166.2,188.3L166.2,188.3z"/>
			<path class="st0" d="M181.8,187.2c-0.7,0.7-1.5,1.1-2.7,1.1h-3.5V178h3.5c1.1,0,2,0.3,2.7,1.1c0.9,1,0.9,2.5,0.9,4.1
				C182.7,184.7,182.7,186.2,181.8,187.2z M180.9,179.8c-0.5-0.6-1.2-0.7-2-0.7h-2.2v8.3h2.2c0.8,0,1.5-0.2,2-0.7
				c0.7-0.7,0.7-2,0.7-3.4C181.6,181.7,181.6,180.5,180.9,179.8z"/>
		</g>
	</g>
</g>
<g>
	<path class="st0" d="M146.3,57.6c0.1,1.4,0.2,2.7,0.2,4.1c0,28.6-23.2,51.7-51.7,51.7c-21.2,0-39.4-12.8-47.4-31h-8.9
		c8.5,22.9,30.5,39.3,56.3,39.3c33.1,0,60-26.9,60-60c0-4.3-0.4-8.4-1.3-12.4h-25.8c-5-13.3-17.9-22.8-32.9-22.8
		c-18,0-32.9,13.6-34.9,31h24.7v8.3H43.2c-0.1-1.4-0.2-2.7-0.2-4.1c0-28.6,23.2-51.7,51.7-51.7c21.2,0,39.4,12.8,47.4,31h8.9
		c-8.5-22.9-30.5-39.3-56.3-39.3c-33.1,0-60,26.9-60,60c0,4.3,0.4,8.4,1.3,12.4h25.8C66.9,87.5,79.8,97,94.8,97
		c18,0,32.9-13.6,34.9-31H105v-8.3H146.3z M99.9,87.4H89.7V36.2h10.2V87.4z"/>
</g>
<g class="st1">
	<path class="st0" d="M94.8,10c-28.6,0-51.7,23.2-51.7,51.7c0,1.4,0.1,2.8,0.2,4.1h8.3c-0.1-1.4-0.2-2.7-0.2-4.1
		c0-24,19.5-43.4,43.4-43.4c16.5,0,30.8,9.2,38.2,22.8h9.2C134.2,22.8,116,10,94.8,10z"/>
	<path class="st0" d="M138.1,57.6c0.1,1.4,0.2,2.7,0.2,4.1c0,24-19.5,43.4-43.4,43.4c-16.5,0-30.8-9.2-38.2-22.8h-9.2
		c8,18.3,26.2,31.1,47.4,31.1c28.6,0,51.7-23.2,51.7-51.7c0-1.4-0.1-2.8-0.2-4.1L138.1,57.6L138.1,57.6z"/>
</g>
</svg>
