<?xml version="1.0" encoding="utf-8"?>
<!-- Generator: Adobe Illustrator 27.9.0, SVG Export Plug-In . SVG Version: 6.00 Build 0)  -->
<svg version="1.1" id="Layer_1" xmlns="http://www.w3.org/2000/svg" xmlns:xlink="http://www.w3.org/1999/xlink" x="0px" y="0px"
	 viewBox="0 0 200 200" style="enable-background:new 0 0 200 200;" xml:space="preserve">
<style type="text/css">
	.st0{fill:#FFFFFF;}
	.st1{opacity:0.4;}
</style>
<g>
	<g>
		<g>
			<g>
				<path class="st0" d="M18.1,166.1c-1.3,1.3-3,2-5.1,2s-3.8-0.7-5.1-2c-1.9-1.9-2-3.9-2-8.1c0-4.2,0.1-6.1,2-8.1
					c1.3-1.3,3-2,5.1-2s3.8,0.7,5.1,2c1.9,1.9,2,3.9,2,8.1C20.1,162.1,20.1,164.1,18.1,166.1z M15.9,151.8c-0.7-0.8-1.8-1.2-3-1.2
					s-2.2,0.4-3,1.2c-1,1.1-1.2,2.3-1.2,6.2c0,3.9,0.2,5.1,1.2,6.2c0.7,0.8,1.8,1.3,3,1.3s2.2-0.5,3-1.3c1-1,1.2-2.2,1.2-6.2
					S16.9,152.8,15.9,151.8z"/>
				<path class="st0" d="M26,167.9v-19.9h3v19.9H26z"/>
				<path class="st0" d="M40.9,168.1c-3,0-5.1-0.7-7-2.6l2-2c1.5,1.5,3.1,1.9,5.1,1.9c2.6,0,4.1-1.1,4.1-3.1c0-0.9-0.2-1.6-0.8-2.1
					c-0.5-0.4-1.2-0.7-2.2-0.8l-2.3-0.3c-1.6-0.2-2.9-0.7-3.7-1.6c-1-0.9-1.5-2.2-1.5-3.8c0-3.5,2.5-5.8,6.6-5.8
					c2.7,0,4.5,0.7,6.2,2.3l-1.9,1.9c-1.2-1.2-2.7-1.5-4.4-1.5c-2.3,0-3.6,1.3-3.6,3.1c0,0.7,0.2,1.4,0.7,1.8
					c0.5,0.4,1.1,0.7,2.2,0.9l2.4,0.4c1.8,0.3,2.8,0.7,3.7,1.5c1.1,1,1.6,2.3,1.6,4.1C48,165.9,45,168.1,40.9,168.1z"/>
				<path class="st0" d="M66.8,168.1c-3,0-5.1-0.7-7-2.6l2-2c1.5,1.5,3.1,1.9,5.1,1.9c2.6,0,4.1-1.1,4.1-3.1c0-0.9-0.2-1.6-0.8-2.1
					c-0.5-0.4-1.2-0.7-2.2-0.8l-2.3-0.3c-1.6-0.2-2.9-0.7-3.7-1.6c-1-0.9-1.5-2.2-1.5-3.8c0-3.5,2.5-5.8,6.6-5.8
					c2.7,0,4.5,0.7,6.2,2.3l-1.9,1.9c-1.2-1.2-2.7-1.5-4.4-1.5c-2.3,0-3.6,1.3-3.6,3.1c0,0.7,0.2,1.4,0.7,1.8
					c0.5,0.4,1.1,0.7,2.2,0.9l2.4,0.4c1.8,0.3,2.8,0.7,3.7,1.5c1.1,1,1.6,2.3,1.6,4.1C73.9,165.9,71,168.1,66.8,168.1z"/>
				<path class="st0" d="M79.4,167.9v-19.9h12.7v2.7h-9.7v5.8h8.3v2.7h-8.3v6h9.7v2.7H79.4z"/>
				<path class="st0" d="M108.6,167.9l-4.2-8.4h-3.8v8.4h-3v-19.9h7.7c3.8,0,6.2,2.4,6.2,5.8c0,2.9-1.7,4.7-4,5.3l4.6,8.8
					L108.6,167.9L108.6,167.9z M105.1,150.8h-4.5v6.2h4.5c2,0,3.4-1.2,3.4-3.1C108.5,151.9,107.1,150.8,105.1,150.8z"/>
				<path class="st0" d="M123.6,167.9h-2.3l-6.5-19.9h3.1l4.6,14.5l4.6-14.5h3.2L123.6,167.9z"/>
				<path class="st0" d="M134.3,167.9v-19.9h3v19.9H134.3z"/>
				<path class="st0" d="M150.3,168.1c-2.2,0-3.8-0.7-5.1-2c-1.9-1.9-2-3.9-2-8.1c0-4.2,0.1-6.1,2-8.1c1.3-1.3,3-2,5.1-2
					c3.7,0,6.4,2.2,7.1,6.1h-3.1c-0.4-2-1.8-3.4-4-3.4c-1.2,0-2.2,0.4-2.9,1.2c-1,1.1-1.2,2.3-1.2,6.2c0,3.9,0.2,5.1,1.2,6.2
					c0.7,0.8,1.7,1.2,2.9,1.2c2.2,0,3.6-1.4,4.1-3.4h3C156.7,165.9,153.9,168.1,150.3,168.1z"/>
				<path class="st0" d="M162.8,167.9v-19.9h12.7v2.7h-9.7v5.8h8.3v2.7h-8.3v6h9.7v2.7H162.8z"/>
				<path class="st0" d="M186.3,168.1c-3,0-5.1-0.7-7-2.6l2-2c1.5,1.5,3.1,1.9,5.1,1.9c2.6,0,4.1-1.1,4.1-3.1c0-0.9-0.2-1.6-0.8-2.1
					c-0.5-0.4-1.2-0.7-2.2-0.8l-2.3-0.3c-1.6-0.2-2.9-0.7-3.7-1.6c-1-0.9-1.5-2.2-1.5-3.8c0-3.5,2.5-5.8,6.6-5.8
					c2.7,0,4.5,0.7,6.2,2.3l-1.9,1.9c-1.2-1.2-2.7-1.5-4.4-1.5c-2.3,0-3.6,1.3-3.6,3.1c0,0.7,0.2,1.4,0.7,1.8
					c0.5,0.4,1.1,0.7,2.2,0.9l2.4,0.4c1.8,0.3,2.8,0.7,3.7,1.5c1.1,1,1.6,2.3,1.6,4.1C193.5,165.9,190.5,168.1,186.3,168.1z"/>
				<path class="st0" d="M23.2,198.7c-1,0-1.7-0.3-2.3-0.9c-0.9-0.9-0.9-1.7-0.9-3.8s0.1-2.9,0.9-3.8c0.6-0.6,1.4-0.9,2.3-0.9
					c1.7,0,2.9,1,3.2,2.8h-1c-0.2-1.2-1-1.9-2.2-1.9c-0.6,0-1.2,0.2-1.6,0.6c-0.6,0.6-0.6,1.3-0.6,3.2s0.1,2.6,0.6,3.2
					c0.4,0.4,1,0.6,1.6,0.6c1.2,0,2-0.7,2.2-1.9h1C26.1,197.7,24.9,198.7,23.2,198.7z"/>
				<path class="st0" d="M34.3,197.8c-0.6,0.6-1.3,0.9-2.3,0.9c-1,0-1.7-0.3-2.3-0.9c-0.9-0.9-0.9-1.7-0.9-3.8s0.1-2.9,0.9-3.8
					c0.6-0.6,1.4-0.9,2.3-0.9s1.7,0.3,2.3,0.9c0.9,0.9,0.9,1.7,0.9,3.8C35.3,196.1,35.2,196.9,34.3,197.8z M33.6,190.8
					c-0.4-0.4-1-0.6-1.6-0.6c-0.6,0-1.2,0.2-1.6,0.6c-0.6,0.6-0.6,1.3-0.6,3.2s0.1,2.6,0.6,3.2c0.4,0.4,1,0.6,1.6,0.6
					c0.6,0,1.2-0.2,1.6-0.6c0.6-0.6,0.6-1.3,0.6-3.2S34.2,191.4,33.6,190.8z"/>
				<path class="st0" d="M45.2,198.6v-7l-2.5,5.6h-0.9l-2.6-5.6v7h-1v-9.3h1l3,6.6l2.9-6.6h1v9.3H45.2z"/>
				<path class="st0" d="M53,194.8h-2.5v3.8h-1v-9.3h3.4c1.7,0,2.9,1.1,2.9,2.7S54.6,194.8,53,194.8z M52.9,190.3h-2.4v3.7h2.4
					c1.2,0,1.9-0.6,1.9-1.8C54.8,190.9,54.1,190.3,52.9,190.3z"/>
				<path class="st0" d="M58.4,198.6v-9.3h1v8.4h4.7v0.9L58.4,198.6L58.4,198.6z"/>
				<path class="st0" d="M66.5,198.6v-9.3h5.8v0.9h-4.8v3.3h4.1v0.9h-4.1v3.3h4.8v0.9L66.5,198.6L66.5,198.6z"/>
				<path class="st0" d="M79.4,198.6l-2.2-3.9l-2.3,3.9h-1.1l2.8-4.8l-2.7-4.5h1.2l2.1,3.7l2.1-3.7h1.2l-2.7,4.5l2.9,4.8H79.4z"/>
				<path class="st0" d="M82.8,198.6v-9.3h1v9.3H82.8z"/>
				<path class="st0" d="M89.8,190.3v8.4h-1v-8.4h-2.7v-0.9h6.4v0.9H89.8z"/>
				<path class="st0" d="M97.5,194.8v3.8h-1v-3.8l-2.8-5.4h1.1l2.2,4.4l2.2-4.4h1.1L97.5,194.8z"/>
				<path class="st0" d="M108.6,198.7c-1.4,0-2.3-0.3-3.2-1.2l0.7-0.7c0.8,0.8,1.5,1,2.5,1c1.4,0,2.2-0.6,2.2-1.7
					c0-0.5-0.1-0.9-0.5-1.2c-0.3-0.3-0.5-0.3-1.2-0.5l-1.1-0.2c-0.7-0.1-1.3-0.3-1.7-0.7c-0.5-0.4-0.7-1-0.7-1.7
					c0-1.6,1.1-2.6,3-2.6c1.2,0,2,0.3,2.8,1l-0.6,0.6c-0.6-0.5-1.2-0.8-2.2-0.8c-1.3,0-2,0.7-2,1.7c0,0.5,0.1,0.8,0.4,1.1
					c0.3,0.2,0.7,0.4,1.2,0.5l1.1,0.2c0.9,0.1,1.3,0.3,1.7,0.7c0.5,0.4,0.8,1.1,0.8,1.8C111.8,197.7,110.6,198.7,108.6,198.7z"/>
				<path class="st0" d="M114.6,198.6v-9.3h1v9.3H114.6z"/>
				<path class="st0" d="M125.9,198.6v-7l-2.6,5.6h-0.9l-2.6-5.6v7h-1v-9.3h1l3,6.6l2.9-6.6h1v9.3H125.9z"/>
				<path class="st0" d="M133.6,194.8h-2.5v3.8h-1v-9.3h3.4c1.7,0,2.9,1.1,2.9,2.7S135.3,194.8,133.6,194.8z M133.6,190.3h-2.4v3.7
					h2.4c1.2,0,1.9-0.6,1.9-1.8C135.5,190.9,134.7,190.3,133.6,190.3z"/>
				<path class="st0" d="M139,198.6v-9.3h1v8.4h4.7v0.9L139,198.6L139,198.6z"/>
				<path class="st0" d="M147.2,198.6v-9.3h1v9.3H147.2z"/>
				<path class="st0" d="M152.5,190.3v3.4h4.1v0.9h-4.1v4.1h-1v-9.3h5.8v0.9L152.5,190.3L152.5,190.3z"/>
				<path class="st0" d="M159.7,198.6v-9.3h1v9.3H159.7z"/>
				<path class="st0" d="M164,198.6v-9.3h5.8v0.9H165v3.3h4.1v0.9H165v3.3h4.8v0.9L164,198.6L164,198.6z"/>
				<path class="st0" d="M178.1,197.7c-0.6,0.7-1.4,1-2.4,1h-3.2v-9.3h3.2c1,0,1.8,0.3,2.4,1c0.8,0.9,0.8,2.2,0.8,3.7
					S178.9,196.8,178.1,197.7z M177.3,190.9c-0.5-0.5-1.1-0.7-1.8-0.7h-2v7.5h2c0.7,0,1.4-0.2,1.8-0.7c0.6-0.6,0.6-1.8,0.6-3.1
					C177.9,192.7,177.9,191.6,177.3,190.9z"/>
			</g>
		</g>
	</g>
	<g>
		<path class="st0" d="M153.4,59.9c0.1,1.4,0.2,2.9,0.2,4.3c0,29.9-24.3,54.2-54.2,54.2c-22.2,0-41.3-13.4-49.7-32.5h-9.3
			c8.8,24,32,41.2,59,41.2c34.6,0,62.8-28.2,62.8-62.8c0-4.5-0.5-8.8-1.4-13h-27c-5.3-13.9-18.7-23.8-34.4-23.8
			c-18.9,0-34.4,14.2-36.6,32.5h25.8v8.7H45.4c-0.1-1.4-0.2-2.9-0.2-4.3c0-29.9,24.3-54.2,54.2-54.2c22.2,0,41.3,13.4,49.7,32.5h9.3
			c-8.8-24-32-41.2-59-41.2c-34.6,0-62.8,28.2-62.8,62.9c0,4.5,0.5,8.8,1.4,13h27c5.3,13.9,18.7,23.8,34.4,23.8
			c18.9,0,34.4-14.2,36.6-32.5h-25.8v-8.7H153.4z M104.8,91.1H94.1V37.4h10.7V91.1z"/>
	</g>
	<g class="st1">
		<path class="st0" d="M99.4,10.1c-29.9,0-54.2,24.3-54.2,54.2c0,1.5,0.1,2.9,0.2,4.3h8.7c-0.1-1.4-0.2-2.9-0.2-4.3
			c0-25.1,20.4-45.5,45.5-45.5c17.3,0,32.3,9.7,40,23.8h9.7C140.7,23.5,121.7,10.1,99.4,10.1z"/>
		<path class="st0" d="M144.7,59.9c0.1,1.4,0.2,2.9,0.2,4.3c0,25.1-20.4,45.5-45.5,45.5c-17.3,0-32.3-9.7-40-23.8h-9.7
			c8.4,19.1,27.4,32.5,49.7,32.5c29.9,0,54.2-24.3,54.2-54.2c0-1.5-0.1-2.9-0.2-4.3L144.7,59.9L144.7,59.9z"/>
	</g>
</g>
</svg>
