<?xml version="1.0" encoding="utf-8"?>
<!-- Generator: Adobe Illustrator 27.7.0, SVG Export Plug-In . SVG Version: 6.00 Build 0)  -->
<svg version="1.1" id="Layer_1" xmlns="http://www.w3.org/2000/svg" xmlns:xlink="http://www.w3.org/1999/xlink" x="0px" y="0px"
	 viewBox="0 0 54 54" style="enable-background:new 0 0 54 54;" xml:space="preserve">
<style type="text/css">
	.st0{fill:#FFFFFF;}
</style>
<path class="st0" d="M27,6.6C15.7,6.6,6.6,15.7,6.6,27S15.7,47.4,27,47.4S47.4,38.3,47.4,27S38.3,6.6,27,6.6z M19.2,18.8
	c1.8,0,3.2,1.7,3.2,3.7s-1.4,3.7-3.2,3.7S16,24.5,16,22.5S17.4,18.8,19.2,18.8z M37.3,33.7c-2.2,3.3-6,5.4-10.3,5.4
	s-8.1-2.1-10.3-5.4c-0.7-1.1,0.6-2.3,1.6-1.5c2.3,1.8,5.3,2.9,8.7,2.9s6.4-1.1,8.7-2.9C36.6,31.5,37.9,32.7,37.3,33.7z M34.8,26.2
	c-1.8,0-3.2-1.7-3.2-3.7s1.4-3.7,3.2-3.7s3.2,1.7,3.2,3.7S36.5,26.2,34.8,26.2z"/>
</svg>
