<?xml version="1.0" encoding="utf-8"?>
<!-- Generator: Adobe Illustrator 27.8.0, SVG Export Plug-In . SVG Version: 6.00 Build 0)  -->
<svg version="1.1" id="Layer_1" xmlns="http://www.w3.org/2000/svg" xmlns:xlink="http://www.w3.org/1999/xlink" x="0px" y="0px"
	 viewBox="0 0 20 20" style="enable-background:new 0 0 20 20;" xml:space="preserve">
<style type="text/css">
	.st0{fill:#216BE9;}
</style>
<path id="XMLID_00000013878299436399857170000009402758497301372835_" class="st0" d="M19.2,6.1C18.7,4.9,18,3.9,17,3
	c-0.9-0.9-2-1.6-3.2-2.1C12.6,0.3,11.3,0,10,0C8.7,0,7.4,0.3,6.1,0.8C4.9,1.3,3.9,2,3,3C2,3.9,1.3,4.9,0.8,6.1C0.3,7.4,0,8.7,0,10
	c0,1.3,0.3,2.6,0.8,3.9C1.3,15.1,2,16.1,3,17c0.9,0.9,2,1.6,3.2,2.1C7.4,19.7,8.7,20,10,20c1.3,0,2.6-0.3,3.9-0.8
	c1.2-0.5,2.3-1.2,3.2-2.1c0.9-0.9,1.6-2,2.1-3.2c0.5-1.2,0.8-2.5,0.8-3.9C20,8.7,19.7,7.4,19.2,6.1z M10,1.9c4.5,0,8.1,3.6,8.1,8.1
	c0,0,0,0,0,0c-0.1,0-0.2,0-0.3-0.1c-0.1-0.1-0.3-0.1-0.4-0.2c0,0,0,0-0.1,0c0,0,0,0-0.1,0l0,0c0,0,0,0,0,0l-0.1-0.1c0,0,0,0,0,0
	l-0.1-0.1c0,0,0,0,0,0c0,0,0,0,0,0L17,9.3c-0.2-0.2-0.4-0.5-0.7-0.8C16,8.2,15.7,8,15.4,7.8c-0.4-0.2-0.7-0.4-1.1-0.4c0,0,0,0,0,0
	l-0.2,0c0,0-0.1,0-0.1,0h0c0,0,0,0,0,0l-0.1,0c0,0,0,0,0,0l-0.1,0c0,0,0,0,0,0l0,0c0,0,0,0,0,0l-0.2,0c0,0,0,0,0,0c0,0,0,0-0.1,0
	l0,0c-0.1,0-0.2,0-0.2,0.1c0,0,0,0,0,0c-0.4,0.1-0.8,0.3-1.1,0.6c-0.3,0.2-0.5,0.5-0.8,0.8l-0.2,0.2c0,0,0,0-0.1,0.1
	c0,0-0.1,0.1-0.1,0.1l-0.1,0.1l-0.1,0.1c0,0,0,0,0,0l0,0c0,0,0,0,0,0l0,0l-0.1,0.1l-0.1,0c0,0,0,0,0,0l-0.1,0l-0.1,0c0,0,0,0,0,0
	l-0.1,0c0,0,0,0,0,0C10.2,9.8,10,9.8,9.9,9.8c-0.1,0-0.3,0-0.4-0.1l-0.1,0c0,0,0,0,0,0l0,0c0,0,0,0-0.1,0c0,0,0,0,0,0c0,0,0,0,0,0
	c0,0,0,0-0.1,0c0,0,0,0,0,0c0,0,0,0,0,0c0,0,0,0-0.1,0c0,0,0,0,0,0c0,0,0,0,0,0c0,0,0,0-0.1-0.1c0,0,0,0,0,0c0,0,0,0,0,0L8.8,9.2
	L8.6,9C8.6,9,8.5,8.9,8.4,8.8C8.2,8.6,7.9,8.3,7.6,8.1c-0.3-0.3-0.7-0.5-1-0.6c0,0,0,0,0,0l-0.1,0c-0.1,0-0.1,0-0.1,0l0,0
	c0,0,0,0,0,0l-0.1,0c-0.1,0-0.1,0-0.1,0l0,0c0,0,0,0,0,0l-0.1,0c0,0,0,0,0,0c0,0,0,0-0.1,0c0,0,0,0,0,0l-0.1,0c0,0,0,0,0,0l0,0
	c-0.1,0-0.2,0-0.3,0l-0.1,0c0,0,0,0,0,0c0,0-0.1,0-0.1,0l0,0L5,7.5c0,0,0,0,0,0l0,0c0,0-0.1,0-0.2,0.1l-0.1,0c0,0,0,0,0,0l0,0
	c0,0-0.1,0-0.1,0.1L4.4,7.7c0,0-0.1,0-0.1,0.1C4,8,3.7,8.3,3.4,8.6C3.2,8.8,3.1,8.9,3,9.1C2.9,9.2,2.8,9.2,2.8,9.3c0,0,0,0,0,0
	c0,0,0,0.1-0.1,0.1c0,0,0,0-0.1,0.1c0,0,0,0-0.1,0.1c0,0,0,0-0.1,0.1L2.5,9.6c0,0,0,0-0.1,0.1L2.3,9.8l-0.1,0c0,0,0,0,0,0l0,0
	c0,0,0,0,0,0l-0.1,0c0,0,0,0,0,0L2,9.9c0,0,0,0,0,0c0,0,0,0-0.1,0C1.9,5.5,5.5,1.9,10,1.9z M10,18.1c-3.6,0-6.7-2.4-7.7-5.6
	c0,0,0,0,0,0l0,0c0,0,0.1,0,0.1,0c0,0,0,0,0,0l0.1-0.1c0.1,0,0.1,0,0.1-0.1l0,0c0,0,0,0,0,0l0.1,0c0,0,0.1,0,0.1-0.1L3,12.1
	c0,0,0,0,0,0l0.1,0c0,0,0.1-0.1,0.1-0.1c0,0,0,0,0,0l0.1-0.1c0,0,0,0,0,0c0,0,0,0,0-0.1c0,0,0.1-0.1,0.1-0.1c0,0,0,0,0,0
	c0,0,0,0,0,0c0,0,0.1-0.1,0.1-0.1c0.1-0.1,0.2-0.2,0.3-0.3C4,11,4.1,10.9,4.3,10.8c0.2-0.3,0.4-0.4,0.6-0.5c0,0,0,0,0,0c0,0,0,0,0,0
	L5,10.1c0,0,0,0,0,0c0,0,0,0,0,0c0,0,0,0,0,0l0.1,0c0,0,0,0,0,0c0,0,0,0,0,0l0.2,0c0,0,0,0,0,0l0.1,0c0,0,0,0,0,0c0,0,0.1,0,0.1,0
	l0.1,0l0.1,0c0,0,0,0,0,0c0,0,0,0,0,0l0.1,0c0,0,0,0,0,0c0,0,0,0,0,0l0.1,0c0.2,0.1,0.4,0.2,0.7,0.4c0.2,0.2,0.5,0.4,0.7,0.6
	c0.1,0.1,0.1,0.1,0.2,0.2L8,11.4c0,0,0,0,0,0c0,0,0,0,0,0l0.1,0.1c0.1,0.1,0.1,0.1,0.2,0.2c0,0,0,0,0,0c0.1,0.1,0.1,0.1,0.2,0.1
	c0,0,0,0,0,0c0.1,0.1,0.1,0.1,0.2,0.1c0,0,0,0,0,0c0.1,0,0.1,0.1,0.2,0.1c0,0,0,0,0,0c0,0,0,0,0,0l0,0c0,0,0,0,0,0c0,0,0,0,0.1,0
	l0,0c0,0,0,0,0,0l0.1,0c0,0,0,0,0,0c0.3,0.1,0.5,0.2,0.8,0.2c0.3,0,0.6,0,0.8-0.2l0,0c0,0,0.1,0,0.1,0l0.2-0.1c0,0,0,0,0.1,0
	l0.1-0.1c0,0,0,0,0.1,0c0,0,0,0,0,0l0.2-0.1c0,0,0,0,0,0l0.1-0.1c0,0,0,0,0,0l0.1-0.1c0,0,0,0,0,0l0.1-0.1c0,0,0.1-0.1,0.1-0.1
	c0,0,0,0,0.1-0.1c0,0,0,0,0,0l0.2-0.2c0.2-0.2,0.4-0.4,0.6-0.6c0.2-0.2,0.4-0.3,0.7-0.4c0.1,0,0.1,0,0.2,0l0.1,0l0.1,0l0.2,0
	c0,0,0,0,0,0l0.1,0c0.2,0,0.4,0.1,0.7,0.3c0.2,0.1,0.4,0.3,0.6,0.5c0.2,0.2,0.4,0.4,0.6,0.7l0.1,0.1c0,0,0,0,0,0.1l0.1,0.2
	c0,0,0,0,0,0c0,0,0,0,0.1,0.1c0,0,0,0,0,0l0.1,0.1c0,0,0,0,0.1,0.1l0,0c0,0,0,0,0.1,0c0,0,0.1,0,0.1,0.1c0,0,0,0,0,0
	c0.2,0.2,0.5,0.3,0.7,0.4c0.1,0,0.2,0.1,0.3,0.1C16.6,15.8,13.6,18.1,10,18.1z"/>
</svg>
