<?xml version="1.0" encoding="utf-8"?>
<!-- Generator: Adobe Illustrator 27.7.0, SVG Export Plug-In . SVG Version: 6.00 Build 0)  -->
<svg version="1.1" id="Layer_1" xmlns="http://www.w3.org/2000/svg" xmlns:xlink="http://www.w3.org/1999/xlink" x="0px" y="0px"
	 viewBox="0 0 44 44" style="enable-background:new 0 0 44 44;" xml:space="preserve">
<style type="text/css">
	.st0{fill:#FFFFFF;}
	.st1{fill:#04246B;}
	.st2{fill-rule:evenodd;clip-rule:evenodd;fill:#FFFFFF;}
</style>
<g>
	<g>
		<g>
			<g>
				<path class="st0" d="M22,43.6C10.1,43.6,0.4,33.9,0.4,22S10.1,0.4,22,0.4c11.9,0,21.6,9.7,21.6,21.6S33.9,43.6,22,43.6z"/>
			</g>
		</g>
		<path class="st1" d="M22,41.5C11.2,41.5,2.5,32.8,2.5,22S11.2,2.5,22,2.5S41.5,11.2,41.5,22S32.8,41.5,22,41.5z"/>
	</g>
</g>
<g>
	<g>
		<path class="st2" d="M17.3,11.7L17.3,11.7c1.3,0,2.4,1.1,2.4,2.4v15.7c0,1.3-1.1,2.4-2.4,2.4l0,0c-1.3,0-2.4-1.1-2.4-2.4V14.2
			C14.8,12.8,15.9,11.7,17.3,11.7L17.3,11.7z M26.7,11.7L26.7,11.7c1.3,0,2.4,1.1,2.4,2.4v15.7c0,1.3-1.1,2.4-2.4,2.4l0,0
			c-1.3,0-2.4-1.1-2.4-2.4V14.2C24.2,12.8,25.3,11.7,26.7,11.7z"/>
	</g>
</g>
</svg>
