<?xml version="1.0" encoding="utf-8"?>
<!-- Generator: Adobe Illustrator 28.3.0, SVG Export Plug-In . SVG Version: 6.00 Build 0)  -->
<svg version="1.1" id="Layer_1" xmlns="http://www.w3.org/2000/svg" xmlns:xlink="http://www.w3.org/1999/xlink" x="0px" y="0px"
	 viewBox="0 0 26 26" style="enable-background:new 0 0 26 26;" xml:space="preserve">
<style type="text/css">
	.st0{fill:#FFFFFF;}
</style>
<g>
	<path class="st0" d="M21.9,4.1c-2.4-2.4-5.5-3.7-8.9-3.7c-3.3,0-6.5,1.3-8.9,3.7C1.8,6.5,0.5,9.7,0.5,13c0,3.4,1.3,6.5,3.7,8.9
		c2.4,2.4,5.5,3.7,8.9,3.7c3.4,0,6.5-1.3,8.9-3.7c2.4-2.4,3.7-5.5,3.7-8.9C25.5,9.7,24.2,6.5,21.9,4.1z M8.8,8.6
		c0.9,0,1.6,1,1.6,2.2c0,1.2-0.7,2.2-1.6,2.2c-0.9,0-1.6-1-1.6-2.2C7.1,9.6,7.9,8.6,8.8,8.6z M18.1,19.7c-0.2,0.2-0.5,0.2-0.7,0
		c-1.2-1.3-2.7-1.9-4.4-1.9c-1.7,0-3.2,0.6-4.4,1.9c-0.2,0.2-0.5,0.2-0.7,0c-0.2-0.2-0.2-0.5,0-0.7c1.4-1.4,3.1-2.2,5.1-2.2
		c2,0,3.8,0.7,5.1,2.2C18.3,19.2,18.3,19.5,18.1,19.7z M16.9,12.9c-0.9,0-1.6-1-1.6-2.2c0-1.2,0.7-2.2,1.6-2.2c0.9,0,1.6,1,1.6,2.2
		C18.5,12,17.8,12.9,16.9,12.9z"/>
</g>
</svg>
