<?xml version="1.0" encoding="utf-8"?>
<!-- Generator: Adobe Illustrator 27.7.0, SVG Export Plug-In . SVG Version: 6.00 Build 0)  -->
<svg version="1.1" id="Layer_1" xmlns="http://www.w3.org/2000/svg" xmlns:xlink="http://www.w3.org/1999/xlink" x="0px" y="0px"
	 viewBox="0 0 54 54" style="enable-background:new 0 0 54 54;" xml:space="preserve">
<style type="text/css">
	.st0{fill:#FFFFFF;}
</style>
<path class="st0" d="M29.5,9.8c-6.6,0-12.2,4.6-13.6,10.8c-1.1-0.3-2.2-0.5-3.4-0.5c-6.6,0-12,5.4-12,12c0,6.6,5.4,12,12,12h0h31.8
	v0c5.2,0,9.3-4.2,9.3-9.4c0-5.2-4.2-9.4-9.4-9.4c-0.3,0-0.5,0-0.8,0c0.1-0.5,0.1-1,0.1-1.6C43.5,16.1,37.2,9.8,29.5,9.8z"/>
</svg>
