<?xml version="1.0" encoding="utf-8"?>
<!-- Generator: Adobe Illustrator 27.2.0, SVG Export Plug-In . SVG Version: 6.00 Build 0)  -->
<svg version="1.1" id="Layer_1" xmlns="http://www.w3.org/2000/svg" xmlns:xlink="http://www.w3.org/1999/xlink" x="0px" y="0px"
	 viewBox="0 0 80 70" style="enable-background:new 0 0 80 70;" xml:space="preserve">
<style type="text/css">
	.st0{fill:#FFFFFF;}
</style>
<g>
	<path class="st0" d="M28.1,10.9c-0.1-0.4-0.4-0.6-0.8-0.6H20c-0.4,0-0.7,0.3-0.8,0.6L1.9,58.1c-0.1,0.3,0,0.6,0.1,0.8
		c0.1,0.3,0.4,0.4,0.7,0.4h9.7c0.4,0,0.7-0.3,0.8-0.6l2.7-7.7h15.5l2.5,7.7c0.1,0.4,0.4,0.7,0.8,0.7h9.7c0.3,0,0.6-0.1,0.7-0.4
		c0.1-0.3,0.3-0.6,0.1-0.8L28.1,10.9z M19.1,41.4L23.8,28l4.5,13.4H19.1z"/>
	<path class="st0" d="M62.5,22.5c-6.2,0-9.7,1.4-13.2,5.2c-0.3,0.4-0.3,1,0,1.3l5.5,5.3c0.1,0.1,0.4,0.3,0.7,0.3l0,0
		c0.3,0,0.6-0.1,0.7-0.3c1.8-2,3.2-2.7,5.9-2.7c4.6,0,5.5,1.7,5.5,4.5V37h-7.1c-9.5,0-12.9,5.6-12.9,10.9c0,3.4,1.1,6.3,3.1,8.4
		c2.2,2.2,5.5,3.4,9.5,3.4c3.2,0,5.5-0.6,7.6-2.2v1c0,0.6,0.4,1,1,1h8.4c0.6,0,1-0.4,1-1V35.7C78.2,29.7,75.6,22.5,62.5,22.5z
		 M62.3,50.8c-2.8,0-4.3-1-4.3-2.9c0-1.3,0.4-3.1,4.2-3.1h5.6v1c0,2-0.3,3.1-1,3.8C65.5,50.5,64.2,50.8,62.3,50.8z"/>
</g>
</svg>
