<?xml version="1.0" encoding="utf-8"?>
<!-- Generator: Adobe Illustrator 27.6.1, SVG Export Plug-In . SVG Version: 6.00 Build 0)  -->
<svg version="1.1" id="Layer_1" xmlns="http://www.w3.org/2000/svg" xmlns:xlink="http://www.w3.org/1999/xlink" x="0px" y="0px"
	 viewBox="0 0 80 70" style="enable-background:new 0 0 80 70;" xml:space="preserve">
<style type="text/css">
	.st0{fill:#FFFFFF;}
</style>
<g>
	<path class="st0" d="M69.1,39.6c3-0.7,5.3-3.4,5.3-6.7c0-3.7-2.9-6.8-6.6-6.9l0,0H49.3c0,0,3.1-22-5.4-25.3
		c-1.6-0.6-3.3-0.4-4.7,0.7c-4.1,3.2-1.3,11.5-3.6,16.7c-3.7,7.7-7.5,10.1-8.9,10.8c-0.4,0.2-0.6,0.6-0.6,1v34.5c0,1,0.8,2,1.9,2.9
		c2,1.7,4.6,2.6,7.2,2.6h24.7l0,0c2.5-0.1,4.5-2.1,4.5-4.7c0-1.3-0.5-2.5-1.4-3.4c3.2-0.2,5.7-2.8,5.7-6.1c0-1.7-0.7-3.3-1.9-4.4
		c0.1,0,0.2,0,0.3,0c3.2,0,5.7-2.7,5.7-6C72.7,42.7,71.2,40.5,69.1,39.6z"/>
	<path class="st0" d="M20.2,69.8H7.8c-1.2,0-2.2-1-2.2-2.2V28.3c0-1.2,1-2.2,2.2-2.2h12.4c1.2,0,2.2,1,2.2,2.2v39.3
		C22.3,68.9,21.4,69.8,20.2,69.8z"/>
</g>
</svg>
