<?xml version="1.0" encoding="utf-8"?>
<!-- Generator: Adobe Illustrator 27.2.0, SVG Export Plug-In . SVG Version: 6.00 Build 0)  -->
<svg version="1.1" id="Layer_1" xmlns="http://www.w3.org/2000/svg" xmlns:xlink="http://www.w3.org/1999/xlink" x="0px" y="0px"
	 viewBox="0 0 80 70" style="enable-background:new 0 0 80 70;" xml:space="preserve">
<style type="text/css">
	.st0{fill:#FFFFFF;}
</style>
<path class="st0" d="M40,0C20.7,0,5,15.7,5,35s15.6,35,35,35s35-15.6,35-35S59.3,0,40,0z M49.4,14c3.8,0,6.9,3.1,6.9,6.9
	s-3.1,6.9-6.9,6.9s-6.9-3.1-6.9-6.9S45.6,14,49.4,14z M30.8,14c3.8,0,6.9,3.1,6.9,6.9s-3.1,6.9-6.9,6.9c-3.8,0-6.9-3.1-6.9-6.9
	S27,14,30.8,14z M23.9,44.3c-3.2-3.4-3.2-8.8,0.2-12.1c3.4-3.4,8.9-3.4,12.3,0l3.6,3.6l3.4-3.6c1.5-1.5,4-1.5,5.5,0
	c1.5,1.5,1.5,4,0,5.5l-8.9,9l-6.2-6.1c-2.3-2.3-5.9-2.3-8.2,0C24.6,41.5,24,42.9,23.9,44.3z M55.9,44.5L42.8,57.6
	c-1.5,1.5-4,1.5-5.5,0L27,47.3c-1.5-1.5-1.5-4,0-5.5c1.5-1.5,4-1.5,5.5,0l7.6,7.7L50.4,39c2.3-2.3,2.3-5.9,0-8.2
	c-0.5-0.5-1.1-0.9-1.7-1.2c2.6-0.3,5.2,0.5,7.2,2.5C59.3,35.5,59.3,41.1,55.9,44.5z"/>
</svg>
