<?xml version="1.0" encoding="utf-8"?>
<!-- Generator: Adobe Illustrator 27.1.1, SVG Export Plug-In . SVG Version: 6.00 Build 0)  -->
<svg version="1.1" id="Layer_1" xmlns="http://www.w3.org/2000/svg" xmlns:xlink="http://www.w3.org/1999/xlink" x="0px" y="0px" viewBox="0 0 80 70" style="enable-background:new 0 0 80 70;" xml:space="preserve">
<style type="text/css">
	.st0{fill:#FFFFFF;}
</style>
<g>
	<g id="XMLID_830_">
		<g>
			<g>
				<path class="st0" d="M74.9,33.5H57.8c-1.6,0-3,1.3-3,3v10.9c0,1.6,1.3,3,3,3h17.2c1.6,0,3-1.3,3-3V36.4
					C77.9,34.8,76.6,33.5,74.9,33.5z M63.7,46.2c-2.4,0-4.3-1.9-4.3-4.3s1.9-4.3,4.3-4.3c2.4,0,4.3,1.9,4.3,4.3
					C68,44.3,66,46.2,63.7,46.2z"/>
				<path class="st0" d="M61.3,4.6c-1.1-3.4-4.8-5.3-8.3-4.2L27.2,8.9h35.5L61.3,4.6z"/>
			</g>
		</g>
	</g>
	<path class="st0" d="M57.5,55c-4.2,0-7.6-3.4-7.6-7.6V36.4c0-4.2,3.4-7.6,7.6-7.6h17.8V19c0-2.8-2.3-5.1-5.1-5.1h-63
		c-2.8,0-5.1,2.3-5.1,5.1v45.9c0,2.8,2.3,5.1,5.1,5.1h63c2.8,0,5.1-2.3,5.1-5.1V55H57.5z"/>
</g>
</svg>
