<?xml version="1.0" encoding="utf-8"?>
<!-- Generator: Adobe Illustrator 27.5.0, SVG Export Plug-In . SVG Version: 6.00 Build 0)  -->
<svg version="1.1" id="Layer_1" xmlns="http://www.w3.org/2000/svg" xmlns:xlink="http://www.w3.org/1999/xlink" x="0px" y="0px"
	 viewBox="0 0 640 460" style="enable-background:new 0 0 640 460;" xml:space="preserve">
<style type="text/css">
	.st0{opacity:0.3;fill:#1F1990;}
	.st1{opacity:0.4;fill:#1F1990;}
</style>
<path class="st0" d="M2,154.4c0,84,83.8,152.1,187.2,152.1c27.1,0,52.9-4.7,76.1-13.1c8.7,6.4,22.9,15.1,39.7,22.4
	c17.5,7.6,38.7,14.1,59.7,14.1c4.8,0,9-2.9,10.8-7.2s0.8-9.4-2.5-12.7l0,0l0,0l0,0l0,0l-0.2-0.2c-0.2-0.2-0.5-0.5-1-1
	c-0.8-0.9-2-2.3-3.6-4.2c-3-3.7-7-9.1-11.1-15.8c-7.3-12.1-14.3-28.1-15.6-46c21.9-24.9,34.9-55.4,34.9-88.3
	c0-84-83.8-152.1-187.2-152.1S2,70.4,2,154.4z"/>
<path class="st1" d="M638,238.3c0,105-104.7,190.1-234,190.1c-33.9,0-66.1-5.8-95.2-16.4c-10.9,8-28.6,18.8-49.6,28
	c-21.9,9.5-48.4,17.6-74.6,17.6c-5.9,0-11.2-3.6-13.5-9s-1-11.7,3.1-15.9l0,0l0,0l0,0l0,0l0.3-0.3c0.3-0.3,0.6-0.6,1.2-1.3
	c1-1.1,2.6-2.8,4.5-5.2c3.7-4.6,8.8-11.3,13.9-19.7c9.1-15.2,17.8-35.1,19.6-57.5c-27.4-31.1-43.6-69.2-43.6-110.4
	c0-105,104.7-190.1,234-190.1S638,133.3,638,238.3z"/>
</svg>
