<?xml version="1.0" encoding="utf-8"?>
<!-- Generator: Adobe Illustrator 27.5.0, SVG Export Plug-In . SVG Version: 6.00 Build 0)  -->
<svg version="1.1" id="Layer_1" xmlns="http://www.w3.org/2000/svg" xmlns:xlink="http://www.w3.org/1999/xlink" x="0px" y="0px"
	 viewBox="0 0 62 62" style="enable-background:new 0 0 62 62;" xml:space="preserve">
<style type="text/css">
	.st0{fill:#FFFFFF;}
</style>
<path class="st0" d="M54.3,0.2H7.7c-4.2,0-7.5,3.3-7.5,7.5v46.6c0,4.1,3.3,7.4,7.4,7.4h46.6c4.1,0,7.4-3.3,7.4-7.4V7.7
	C61.8,3.6,58.4,0.2,54.3,0.2z M25.2,11.3c2.2-1.5,4.1-2,6.6-2c2.3,0,4.2,0.6,6.1,1.9c0.6,0.3,0.5,0.9-0.2,0.7
	c-3.7-1-8.6-0.8-12.3,0.1C24.7,12.3,24.8,11.6,25.2,11.3z M20.5,16.2c0.1-0.2,0.2-0.2,0.3-0.3l0,0c4.6-2.4,9.9-3.2,15.1-2.3
	c2.3,0.4,4.5,1.1,6.6,2.1c0.1,0.1,0.1,0.1,0.2,0.2c0.2,0.3,0.2,0.8-0.1,1.2c-0.3,0.3-0.7,0.5-1.1,0.2c-1.9-0.9-3.8-1.5-5.9-1.9
	c-4.7-0.8-9.6-0.1-13.9,2.1c-0.4,0.2-0.8,0.1-1.2-0.2C20.3,17,20.3,16.5,20.5,16.2z M17.5,23L17.5,23c0.8-0.8,1.7-1.5,2.6-2.2
	c4.4-3.1,9.9-4.3,15.2-3.4c3.9,0.7,7.4,2.4,10.3,5c1.2,1.1-0.3,2.4-1.2,1.5c-2.6-2.4-5.9-4.1-9.4-4.6c-4.8-0.8-9.7,0.3-13.7,3.1
	c-0.8,0.6-1.6,1.2-2.4,2c-0.3,0.3-0.8,0.4-1.2,0.2C17.2,24.2,17.1,23.5,17.5,23z M23,48.9L23,48.9c1.3-0.8,2.4-1.7,3.4-2.9
	c1.1-1.2,2.1-2.6,2.8-4.1c0.7-1.5,1.2-3,1.6-4.7l0,0c0.1-0.3,0.2-0.5,0.5-0.7c0.2-0.2,0.5-0.2,0.8-0.2l0,0c0.3,0.1,0.5,0.2,0.7,0.5
	c0.2,0.2,0.2,0.5,0.2,0.8c-0.3,1.9-0.9,3.7-1.7,5.3c-0.8,1.7-1.9,3.2-3.2,4.6c-1.1,1.2-2.4,2.3-3.8,3.2C23.1,51.3,21.9,49.6,23,48.9
	z M26.3,51.5c1.1-0.8,2.1-1.7,3-2.7c1.4-1.5,2.6-3.2,3.5-5.1c0.9-1.8,1.6-3.8,1.9-5.9c0.1-0.8-0.1-1.6-0.5-2.2s-1.1-1.1-1.9-1.2
	c-0.8-0.1-1.6,0.1-2.2,0.5c-0.6,0.5-1.1,1.1-1.2,1.9c-0.3,1.5-0.7,2.9-1.4,4.2c-0.7,1.4-1.5,2.6-2.5,3.7c-1.1,1.1-2.3,2.1-3.6,2.9
	c-1.1,0.6-2.1-1-1-1.6l0,0c1.2-0.7,2.3-1.5,3.2-2.5c0.9-1,1.6-2,2.2-3.2c0.6-1.2,1-2.4,1.2-3.7c0.2-1.3,1-2.4,2-3.2
	c1.1-0.7,2.4-1.1,3.7-0.8c1.3,0.2,2.4,1,3.2,2c0.7,1.1,1.1,2.4,0.8,3.7c-0.4,2.2-1.1,4.3-2.1,6.4c-1,2-2.3,3.9-3.8,5.5
	c-1,1.1-2.1,2-3.2,2.9C26.4,53.9,25.4,52.2,26.3,51.5z M32.1,54.2c-0.8,0.7-2.3-0.6-1.2-1.5c0.5-0.5,1-0.9,1.4-1.4
	c1.6-1.8,3-3.8,4.1-6c1.1-2.2,1.9-4.5,2.3-6.9c0.3-1.8-0.1-3.6-1.2-5.1c-1.1-1.5-2.6-2.5-4.4-2.8c-1.8-0.3-3.6,0.1-5.1,1.2
	s-2.5,2.6-2.8,4.4c-0.2,1.1-0.6,2.1-1,3.2c-0.5,1-1.1,1.9-1.9,2.8c-0.7,0.8-1.6,1.5-2.6,2.1c-1,0.6-1.9-1.1-1-1.7l0,0
	c0.8-0.5,1.5-1.1,2.1-1.7c0.6-0.7,1.2-1.5,1.6-2.3c0.4-0.8,0.7-1.7,0.8-2.6c0.4-2.3,1.7-4.3,3.5-5.6c1.9-1.4,4.2-1.9,6.5-1.5
	c2.3,0.4,4.3,1.7,5.6,3.5c1.4,1.9,1.9,4.2,1.5,6.5C40,41.5,39.2,44,38,46.3c-1.2,2.4-2.6,4.5-4.4,6.4C33.1,53.2,32.6,53.8,32.1,54.2
	z M44.3,39.5c-0.5,2.9-1.5,5.8-2.8,8.4c-0.6,1.1-1.2,2.2-1.9,3.3c-0.1,0.1-0.1,0.1-0.1,0.1c-0.4,0.3-0.9,0.3-1.2,0
	c-0.3-0.3-0.5-0.8-0.2-1.2c0.6-1,1.2-1.9,1.7-2.9c1.2-2.5,2.1-5.2,2.6-7.9c0.5-2.8-0.2-5.7-1.8-8c-1.6-2.3-4.1-3.9-6.9-4.3
	c-2.8-0.5-5.6,0.2-8,1.8c-2.3,1.6-3.9,4.1-4.3,6.9c-0.1,0.7-0.3,1.5-0.7,2.1c-0.3,0.7-0.7,1.3-1.2,1.8c-0.3,0.3-0.6,0.6-1,0.9
	c-1,0.8-1.9-1-1.1-1.6l0,0c0.2-0.2,0.5-0.4,0.6-0.6c0.4-0.4,0.7-0.8,1-1.4c0.2-0.5,0.4-1,0.5-1.6c0.6-3.3,2.4-6.2,5.1-8.1
	s6.1-2.7,9.4-2.1c3.3,0.6,6.2,2.4,8.2,5.1C44.1,32.8,44.9,36.2,44.3,39.5z M45.3,31.8c-0.4-1-1-1.9-1.6-2.8
	c-2.3-3.2-5.6-5.2-9.4-5.9s-7.7,0.2-10.9,2.5c-3,2.1-5.1,5.4-5.9,9c-0.2,1.1-2.1,1.3-1.8-0.6c0.1-0.6,0.3-1.5,0.6-2.1l0,0
	c1.1-3.2,3.2-5.9,6-7.8c3.5-2.5,8-3.5,12.3-2.8c4.3,0.7,8.1,3.2,10.6,6.7c0.5,0.7,1.5,2.3,1.8,3.3C47.4,32.4,45.7,32.8,45.3,31.8z"
	/>
</svg>
