<?xml version="1.0" encoding="utf-8"?>
<!-- Generator: Adobe Illustrator 27.5.0, SVG Export Plug-In . SVG Version: 6.00 Build 0)  -->
<svg version="1.1" id="Layer_1" xmlns="http://www.w3.org/2000/svg" xmlns:xlink="http://www.w3.org/1999/xlink" x="0px" y="0px"
	 viewBox="0 0 62 62" style="enable-background:new 0 0 62 62;" xml:space="preserve">
<style type="text/css">
	.st0{fill:#FFFFFF;}
</style>
<path class="st0" d="M54.3,0.2H7.7c-4.2,0-7.5,3.3-7.5,7.5v46.6c0,4.1,3.3,7.4,7.4,7.4h46.6c4.1,0,7.4-3.3,7.4-7.4V7.7
	C61.8,3.6,58.4,0.2,54.3,0.2z M46.3,36c-0.8,1.1-1.7,2.3-2.9,3.4c-2.9,2.9-6.1,5.6-11,9.6c-0.4,0.3-0.9,0.5-1.4,0.5
	c-0.5,0-1-0.2-1.4-0.5c-4.9-4-8.1-6.7-11-9.6c-6.1-6-6.2-11.8-6.1-12.9c0-0.1,0-0.2,0-0.3c0-5.8,5-10.7,10.8-10.7
	c2.9,0,5.7,1.3,7.8,3.4c2-2.1,4.8-3.4,7.8-3.4c5.9,0,10.8,4.9,10.8,10.7c0,1.9-2.2,1.7-2.2,0c0-4.6-3.8-8.5-8.6-8.5
	c-3.4,0-6.4,2.3-7.8,5.1l0,0c-1.4-2.8-4.3-5.1-7.8-5.1c-4.7,0-8.6,3.9-8.6,8.5c0,0.1,0,0.2,0,0.3l0,0c0,0-0.5,5.4,5.5,11.3
	c2.7,2.8,5.8,5.4,10.8,9.5c5-4.1,8.1-6.7,10.8-9.5c1.1-1,1.9-2,2.5-3C45.4,33.4,47.3,34.5,46.3,36z M53.8,31.8H39.1l-1.8,3.2
	c-0.1,0.2-0.4,0.5-0.7,0.5c-0.1,0-0.2,0.1-0.3,0.1c-0.5,0-0.9-0.3-1-0.8l-1-3.8l-2.3,9.2c-0.1,0.4-0.4,0.7-0.7,0.8
	c-0.1,0-0.2,0.1-0.3,0.1c-0.5,0-0.9-0.3-1-0.8l-3.3-12.2l-1,2.9c-0.1,0.5-0.6,0.8-1,0.8h-5.6c-0.6,0-1.1-0.5-1.1-1.1
	s0.5-1.1,1.1-1.1h4.7l1.9-6c0.1-0.5,0.6-0.8,1-0.8c0.1,0,0.2,0,0.3,0.1c0.4,0.1,0.7,0.4,0.7,0.8l3.3,12.1l2.3-9.2
	c0.1-0.5,0.6-0.8,1-0.8c0.1,0,0.2,0,0.3,0.1c0.4,0.1,0.7,0.4,0.7,0.8l1.4,5.1l0.8-1.5c0.2-0.3,0.6-0.5,0.9-0.5h15.3
	c0.6,0,1.1,0.5,1.1,1.1C54.9,31.3,54.4,31.8,53.8,31.8z"/>
</svg>
