<?xml version="1.0" encoding="utf-8"?>
<!-- Generator: Adobe Illustrator 27.9.0, SVG Export Plug-In . SVG Version: 6.00 Build 0)  -->
<svg version="1.1" id="Layer_1" xmlns="http://www.w3.org/2000/svg" xmlns:xlink="http://www.w3.org/1999/xlink" x="0px" y="0px"
	 viewBox="0 0 48 48" style="enable-background:new 0 0 48 48;" xml:space="preserve">
<style type="text/css">
	.st0{fill:#FFFFFF;}
	.st1{opacity:0.5;}
</style>
<g>
	<g>
		<g>
			<g>
				<g>
					<path class="st0" d="M44.4,22.4c0,0.5,0.1,1.1,0.1,1.6c0,11.3-9.1,20.4-20.4,20.4c-8.4,0-15.6-5-18.7-12.3H1.8
						c3.3,9.1,12,15.5,22.2,15.5c13.1,0,23.7-10.6,23.7-23.7c0-1.7-0.2-3.3-0.5-4.9H37c-2-5.2-7.1-9-13-9c-7.1,0-13,5.4-13.8,12.3
						H20v3.3H3.6c0-0.5-0.1-1.1-0.1-1.6C3.6,12.7,12.7,3.6,24,3.6c8.4,0,15.6,5,18.7,12.3h3.5c-3.3-9-12-15.5-22.2-15.5
						C10.9,0.3,0.3,10.9,0.3,24c0,1.7,0.2,3.3,0.5,4.9H11c2,5.2,7.1,9,13,9c7.1,0,13-5.4,13.8-12.3H28v-3.3L44.4,22.4L44.4,22.4z
						 M26,34.1h-4V13.9h4V34.1z"/>
				</g>
			</g>
		</g>
	</g>
	<g class="st1">
		<g>
			<path class="st0" d="M24,3.6C12.7,3.6,3.6,12.7,3.6,24c0,0.6,0,1.1,0.1,1.6h3.3c-0.1-0.5-0.1-1.1-0.1-1.6
				c0-9.5,7.7-17.2,17.2-17.2c6.5,0,12.2,3.6,15.1,9h3.6C39.6,8.6,32.4,3.6,24,3.6z"/>
			<path class="st0" d="M41.1,22.4c0.1,0.5,0.1,1.1,0.1,1.6c0,9.5-7.7,17.2-17.2,17.2c-6.5,0-12.2-3.6-15.1-9H5.3
				C8.4,39.4,15.6,44.4,24,44.4c11.3,0,20.4-9.1,20.4-20.4c0-0.6,0-1.1-0.1-1.6L41.1,22.4L41.1,22.4z"/>
		</g>
	</g>
</g>
</svg>
