<?xml version="1.0" encoding="utf-8"?>
<!-- Generator: Adobe Illustrator 28.0.0, SVG Export Plug-In . SVG Version: 6.00 Build 0)  -->
<svg version="1.1" id="Layer_1" xmlns="http://www.w3.org/2000/svg" xmlns:xlink="http://www.w3.org/1999/xlink" x="0px" y="0px"
	 viewBox="0 0 46 42" style="enable-background:new 0 0 46 42;" xml:space="preserve">
<style type="text/css">
	.st0{fill:#FFFFFF;}
</style>
<g>
	<g>
		<path class="st0" d="M11.3,1.9c-0.3-0.3-0.7-0.5-1.1-0.5C9.3,1.4,8.5,2.1,8.5,3v0.8v6.2c0,0.4,0.2,0.8,0.5,1.1
			c0.3,0.3,0.7,0.5,1.1,0.5c0.9,0,1.6-0.7,1.6-1.6V3.7V3C11.7,2.5,11.5,2.1,11.3,1.9z"/>
		<path class="st0" d="M37.1,1.9c-0.3-0.3-0.7-0.5-1.1-0.5c-0.9,0-1.6,0.7-1.6,1.6v0.8v6.2c0,0.4,0.2,0.8,0.5,1.1
			c0.3,0.3,0.7,0.5,1.1,0.5c0.9,0,1.6-0.7,1.6-1.6V3.7V3C37.5,2.5,37.4,2.1,37.1,1.9z"/>
	</g>
	<path class="st0" d="M40.4,5.7v4.2c0,2.4-2,4.4-4.5,4.4c-1.2,0-2.3-0.5-3.1-1.3c-0.8-0.8-1.3-2-1.3-3.1V5.4H14.6v4.5
		c0,2.4-2,4.4-4.5,4.4c-1.2,0-2.3-0.5-3.1-1.3c-0.8-0.8-1.3-2-1.3-3.1V5.7C3,6.5,1.1,9,1.1,11.9v22.3c0,0.1,0,0.2,0,0.2
		c0.1,3.4,2.9,6.2,6.4,6.2h31c3.5,0,6.4-2.9,6.4-6.4V11.9C44.9,9,43,6.6,40.4,5.7z M34.9,31.7H11c-0.9,0-1.6-0.7-1.6-1.6
		c0-0.9,0.7-1.6,1.6-1.6h23.9c0.9,0,1.6,0.7,1.6,1.6C36.5,30.9,35.8,31.7,34.9,31.7z M34.9,24.7H11c-0.9,0-1.6-0.7-1.6-1.6
		c0-0.9,0.7-1.6,1.6-1.6h23.9c0.9,0,1.6,0.7,1.6,1.6C36.5,24,35.8,24.7,34.9,24.7z"/>
</g>
</svg>
