<?xml version="1.0" encoding="utf-8"?>
<!-- Generator: Adobe Illustrator 28.1.0, SVG Export Plug-In . SVG Version: 6.00 Build 0)  -->
<svg version="1.1" id="Layer_1" xmlns="http://www.w3.org/2000/svg" xmlns:xlink="http://www.w3.org/1999/xlink" x="0px" y="0px"
	 viewBox="0 0 25 24" style="enable-background:new 0 0 25 24;" xml:space="preserve">
<style type="text/css">
	.st0{fill:#003366;}
</style>
<g>
	<path class="st0" d="M23.2,10.6c-0.9-2.9-3.6-4.8-6.7-4.8h-1.3C14.7,5.3,13.8,5,13,4.9V2.7c0.5-0.2,0.9-0.7,0.9-1.3
		c0-0.7-0.6-1.3-1.3-1.3s-1.3,0.6-1.3,1.3c0,0.6,0.4,1,0.9,1.3v2.2c-1,0.1-1.9,0.5-2.4,0.9H8.5c-3.1,0-5.8,1.9-6.7,4.8
		c-0.9,0.3-1.6,1.1-1.6,2.8c0,1.6,0.6,2.4,1.5,2.8c0.7,3.1,3.5,5.2,6.8,5.2l0,0l0,0h1.3l0,0l0,0v2.5c0,0,2.7-0.7,6.7-2.1
		c4-1.3,6.3-2.8,6.9-5.7c0.9-0.4,1.5-1.2,1.5-2.7C24.8,11.8,24.1,11,23.2,10.6z M21.4,13.7c-0.1,2.5-2.1,4.5-4.6,4.5H8.2
		c-2.6,0-4.6-2.1-4.6-4.6C3.6,11,5.7,9,8.2,9l0,0l0,0h8.6l0,0c2.5,0,4.6,2,4.6,4.5V13.7L21.4,13.7z"/>
	<g>
		<path class="st0" d="M15,13.6c0-0.8,0.6-1.4,1.4-1.4s1.4,0.6,1.4,1.4c0,0.8-0.6,1.4-1.4,1.4S15,14.4,15,13.6z"/>
		<path class="st0" d="M7.3,13.6c0-0.8,0.6-1.4,1.4-1.4s1.4,0.6,1.4,1.4c0,0.8-0.6,1.4-1.4,1.4S7.3,14.4,7.3,13.6z"/>
	</g>
</g>
</svg>
