<?xml version="1.0" encoding="utf-8"?>
<!-- Generator: Adobe Illustrator 28.0.0, SVG Export Plug-In . SVG Version: 6.00 Build 0)  -->
<svg version="1.1" id="Layer_1" xmlns="http://www.w3.org/2000/svg" xmlns:xlink="http://www.w3.org/1999/xlink" x="0px" y="0px"
	 viewBox="0 0 46 42" style="enable-background:new 0 0 46 42;" xml:space="preserve">
<style type="text/css">
	.st0{fill:#FFFFFF;}
</style>
<path class="st0" d="M39.6,5.9H6.4c-2.9,0-5.3,2.4-5.3,5.3v19.7c0,2.9,2.4,5.3,5.3,5.3h33.3c2.9,0,5.3-2.4,5.3-5.3V11.2
	C44.9,8.3,42.5,5.9,39.6,5.9z M39.3,15.1L23.8,26.9c-0.2,0.2-0.6,0.4-1,0.4c-0.3,0-0.7-0.1-1-0.3L6.6,15.1C6.3,14.8,6.1,14.4,6,14
	c0-0.4,0.1-0.8,0.4-1.1c0.3-0.4,0.8-0.6,1.2-0.6c0.4,0,0.7,0.1,1,0.4l14.2,11l14.5-11c0.3-0.2,0.6-0.4,1-0.4c0.5,0,0.9,0.2,1.2,0.6
	C40.1,13.5,40,14.5,39.3,15.1z"/>
</svg>
