<?xml version="1.0" encoding="utf-8"?>
<!-- Generator: Adobe Illustrator 28.1.0, SVG Export Plug-In . SVG Version: 6.00 Build 0)  -->
<svg version="1.1" id="Layer_1" xmlns="http://www.w3.org/2000/svg" xmlns:xlink="http://www.w3.org/1999/xlink" x="0px" y="0px"
	 viewBox="0 0 32 32" style="enable-background:new 0 0 32 32;" xml:space="preserve">
<style type="text/css">
	.st0{fill:#003366;}
	.st1{fill:#FFFFFF;}
</style>
<g>
	<path class="st0" d="M16,31.9C7.3,31.9,0.1,24.7,0.1,16S7.3,0.1,16,0.1S31.9,7.4,31.9,16S24.7,31.9,16,31.9z"/>
</g>
<path class="st1" d="M18,16l5.2-5.2c0.3-0.3,0.4-0.6,0.4-1s-0.1-0.7-0.4-1c-0.6-0.6-1.5-0.6-2,0L16,14l-5.2-5.2
	c-0.6-0.6-1.4-0.6-2,0c-0.3,0.3-0.4,0.6-0.4,1s0.1,0.7,0.4,1L14,16l-5.2,5.2c-0.3,0.3-0.4,0.6-0.4,1c0,0.4,0.1,0.7,0.4,1
	c0.6,0.6,1.5,0.6,2,0L16,18l5.2,5.2c0.6,0.6,1.4,0.6,2,0c0.3-0.3,0.4-0.6,0.4-1c0-0.4-0.1-0.7-0.4-1L18,16z"/>
</svg>
