<?xml version="1.0" encoding="utf-8"?>
<!-- Generator: Adobe Illustrator 28.0.0, SVG Export Plug-In . SVG Version: 6.00 Build 0)  -->
<svg version="1.1" id="Layer_1" xmlns="http://www.w3.org/2000/svg" xmlns:xlink="http://www.w3.org/1999/xlink" x="0px" y="0px"
	 viewBox="0 0 50 50" style="enable-background:new 0 0 50 50;" xml:space="preserve">
<style type="text/css">
	.st0{fill:#FFFFFF;}
	.st1{fill:#F16522;}
	.st2{fill:#8BC53F;}
</style>
<g>
	<path class="st0" d="M49.2,19.9H38.5c-2.1-5.5-7.4-9.4-13.6-9.4c-7.4,0-13.5,5.6-14.4,12.8h10.2v3.4H7.2c-0.1-0.6-0.1-1.1-0.1-1.7
		c0-9.9,8-17.9,17.9-17.9c6.8,0,12.7,3.8,15.7,9.4h7.5C44.7,7,35.6,0.3,25,0.3C11.4,0.3,0.3,11.4,0.3,25c0,1.8,0.2,3.5,0.5,5.1h10.6
		c2.1,5.5,7.4,9.4,13.6,9.4c7.4,0,13.5-5.6,14.4-12.8H29.2v-3.4h13.6c0.1,0.6,0.1,1.1,0.1,1.7c0,9.9-8,17.9-17.9,17.9
		c-6.8,0-12.7-3.8-15.7-9.4H1.8C5.3,43,14.4,49.7,25,49.7c13.6,0,24.7-11.1,24.7-24.7C49.7,23.2,49.5,21.5,49.2,19.9z"/>
	<g>
		<g>
			<path class="st1" d="M25,3.7C13.2,3.7,3.7,13.2,3.7,25c0,0.6,0,1.1,0.1,1.7h3.4c-0.1-0.6-0.1-1.1-0.1-1.7c0-9.9,8-17.9,17.9-17.9
				c6.8,0,12.7,3.8,15.7,9.4h3.8C41.2,8.9,33.7,3.7,25,3.7z"/>
			<path class="st1" d="M42.8,23.3c0.1,0.6,0.1,1.1,0.1,1.7c0,9.9-8,17.9-17.9,17.9c-6.8,0-12.7-3.8-15.7-9.4H5.5
				C8.7,41,16.3,46.3,25,46.3c11.8,0,21.3-9.5,21.3-21.3c0-0.6,0-1.1-0.1-1.7L42.8,23.3L42.8,23.3z"/>
		</g>
	</g>
	<rect x="22.9" y="14.4" class="st2" width="4.2" height="21.1"/>
</g>
</svg>
