<?xml version="1.0" encoding="utf-8"?>
<!-- Generator: Adobe Illustrator 27.5.0, SVG Export Plug-In . SVG Version: 6.00 Build 0)  -->
<svg version="1.1" id="Layer_1" xmlns="http://www.w3.org/2000/svg" xmlns:xlink="http://www.w3.org/1999/xlink" x="0px" y="0px"
	 viewBox="0 0 28 28" style="enable-background:new 0 0 28 28;" xml:space="preserve">
<style type="text/css">
	.st0{fill:#FFFFFF;}
</style>
<path class="st0" d="M27.7,7.46c0-3.92-3.23-7.16-7.16-7.16H7.46C3.53,0.3,0.3,3.53,0.3,7.46v13.08c0,3.96,3.23,7.16,7.16,7.16
	h13.08c3.96,0,7.16-3.23,7.16-7.16V7.46z M10.92,19.96H8.27v-8.5h2.65V19.96z M9.58,10.27c-0.85,0-1.54-0.69-1.54-1.54
	c0-0.85,0.69-1.54,1.54-1.54c0.85,0,1.54,0.69,1.54,1.54C11.11,9.58,10.42,10.27,9.58,10.27z M20.85,19.96h-2.65v-4.12
	c0-1-0.04-2.27-1.39-2.27c-1.39,0-1.58,1.08-1.58,2.19V20h-2.65v-8.54h2.54v1.15h0.04c0.35-0.65,1.23-1.39,2.5-1.39
	c2.69,0,3.19,1.77,3.19,4.08V19.96z"/>
</svg>
