<?xml version="1.0" encoding="utf-8"?>
<!-- Generator: Adobe Illustrator 27.5.0, SVG Export Plug-In . SVG Version: 6.00 Build 0)  -->
<svg version="1.1" id="Layer_1" xmlns="http://www.w3.org/2000/svg" xmlns:xlink="http://www.w3.org/1999/xlink" x="0px" y="0px"
	 viewBox="0 0 28 28" style="enable-background:new 0 0 28 28;" xml:space="preserve">
<style type="text/css">
	.st0{fill:#FFFFFF;}
</style>
<g>
	<path class="st0" d="M14.08,11.46c-1.39,0-2.54,1.15-2.54,2.54s1.15,2.54,2.54,2.54c1.39,0,2.54-1.15,2.54-2.54
		S15.46,11.46,14.08,11.46z"/>
	<path class="st0" d="M17.19,7.46h-6.39c-1.85,0-3.31,1.5-3.31,3.31v6.43c0,1.85,1.5,3.31,3.31,3.31h6.43c1.85,0,3.31-1.5,3.31-3.31
		v-6.39C20.54,8.96,19.04,7.46,17.19,7.46z M14.08,17.96c-2.19,0-3.96-1.77-3.96-3.96s1.77-3.96,3.96-3.96s3.96,1.77,3.96,3.96
		S16.23,17.96,14.08,17.96z M18.27,10.73c-0.54,0-0.92-0.42-0.92-0.92c0-0.54,0.42-0.92,0.92-0.92c0.54,0,0.92,0.42,0.92,0.92
		C19.19,10.31,18.77,10.73,18.27,10.73z"/>
	<path class="st0" d="M20.54,0.3H7.46C3.53,0.3,0.3,3.53,0.3,7.46v13.08c0,3.96,3.23,7.16,7.16,7.16h13.08
		c3.96,0,7.16-3.23,7.16-7.16V7.46C27.7,3.53,24.47,0.3,20.54,0.3z M22.04,17.19c0,2.65-2.15,4.85-4.85,4.85h-6.39
		c-2.65,0-4.85-2.15-4.85-4.85v-6.39c0-2.65,2.15-4.85,4.85-4.85h6.43c2.65,0,4.85,2.15,4.85,4.85v6.39H22.04z"/>
</g>
</svg>
