<?xml version="1.0" encoding="utf-8"?>
<!-- Generator: Adobe Illustrator 27.5.0, SVG Export Plug-In . SVG Version: 6.00 Build 0)  -->
<svg version="1.1" id="Layer_1" xmlns="http://www.w3.org/2000/svg" xmlns:xlink="http://www.w3.org/1999/xlink" x="0px" y="0px"
	 viewBox="0 0 28 28" style="enable-background:new 0 0 28 28;" xml:space="preserve">
<style type="text/css">
	.st0{fill:#FFFFFF;}
</style>
<path class="st0" d="M20.5,0.3h-13c-3.9,0-7.2,3.2-7.2,7.2v13.1c0,4,3.2,7.2,7.2,7.2h13.1c4,0,7.2-3.2,7.2-7.2V7.5
	C27.7,3.5,24.5,0.3,20.5,0.3z M20.8,10.4C20.8,10.5,20.8,10.5,20.8,10.4c0,9.1-9.1,13-15.4,9c2,0.2,3.7-0.4,5.2-1.5
	c-1.7-0.2-2.8-1-3.3-2.4c0.6,0.1,1.1,0.1,1.6-0.1C7,14.9,6.1,13.7,6,12c0.5,0.3,1,0.4,1.6,0.4c-1.8-1.3-2-2.9-1.2-4.8
	c1.8,2.2,4.2,3.5,7.4,3.7c-0.1-0.3-0.1-0.5-0.1-0.8c0-2,1.6-3.5,3.5-3.5c1,0,1.9,0.4,2.5,1.1C20.4,8,21.1,7.7,22,7.3
	c-0.3,0.8-0.8,1.5-1.5,1.9c0.6,0,1.3-0.2,2-0.5C22,9.4,21.4,10,20.8,10.4z"/>
</svg>
