<?xml version="1.0" encoding="utf-8"?>
<!-- Generator: Adobe Illustrator 28.0.0, SVG Export Plug-In . SVG Version: 6.00 Build 0)  -->
<svg version="1.1" id="Layer_1" xmlns="http://www.w3.org/2000/svg" xmlns:xlink="http://www.w3.org/1999/xlink" x="0px" y="0px"
	 viewBox="0 0 50 50" style="enable-background:new 0 0 50 50;" xml:space="preserve">
<style type="text/css">
	.st0{fill:#FFFFFF;}
	.st1{opacity:0.4;}
</style>
<g>
	<g>
		<path class="st0" d="M46.1,23.3c0,0.6,0.1,1.1,0.1,1.7c0,11.7-9.5,21.2-21.2,21.2c-8.7,0-16.2-5.2-19.5-12.7H1.9
			C5.3,42.9,14.4,49.6,25,49.6c13.6,0,24.6-11,24.6-24.6c0-1.7-0.2-3.5-0.5-5.1H38.5c-2.1-5.5-7.3-9.3-13.5-9.3
			c-7.4,0-13.5,5.6-14.3,12.7h10.1v3.4h-17c0-0.6-0.1-1.1-0.1-1.7C3.7,13.2,13.2,3.7,25,3.7c8.7,0,16.2,5.2,19.5,12.7h3.7
			C44.6,7.1,35.6,0.3,25,0.3C11.4,0.3,0.3,11.4,0.3,25c0,1.7,0.2,3.5,0.5,5.1h10.6c2.1,5.5,7.3,9.3,13.5,9.3
			c7.4,0,13.5-5.6,14.3-12.7H29.2v-3.4H46.1z M27.1,35.5h-4.2v-21h4.2V35.5z"/>
	</g>
	<g class="st1">
		<path class="st0" d="M25,3.7C13.2,3.7,3.7,13.2,3.7,25c0,0.6,0,1.1,0.1,1.7h3.4c-0.1-0.6-0.1-1.1-0.1-1.7c0-9.8,8-17.8,17.8-17.8
			c6.8,0,12.7,3.8,15.7,9.3h3.8C41.1,9,33.7,3.7,25,3.7z"/>
		<path class="st0" d="M42.7,23.3c0.1,0.6,0.1,1.1,0.1,1.7c0,9.8-8,17.8-17.8,17.8c-6.8,0-12.7-3.8-15.7-9.3H5.5
			C8.8,41,16.3,46.2,25,46.2c11.7,0,21.2-9.5,21.2-21.2c0-0.6,0-1.1-0.1-1.7L42.7,23.3L42.7,23.3z"/>
	</g>
</g>
</svg>
