<?xml version="1.0" encoding="utf-8"?>
<!-- Generator: Adobe Illustrator 27.5.0, SVG Export Plug-In . SVG Version: 6.00 Build 0)  -->
<svg version="1.1" id="Layer_1" xmlns="http://www.w3.org/2000/svg" xmlns:xlink="http://www.w3.org/1999/xlink" x="0px" y="0px"
	 viewBox="0 0 46 46" style="enable-background:new 0 0 46 46;" xml:space="preserve">
<style type="text/css">
	.st0{fill:#FFFFFF;}
	.st1{fill:#F16522;}
	.st2{fill:#8BC53F;}
</style>
<g>
	<path class="st0" d="M45.44,18.26h-9.86c-1.92-5.08-6.83-8.7-12.58-8.7c-6.88,0-12.56,5.2-13.35,11.87h9.43v3.16H6.47
		c-0.05-0.52-0.08-1.04-0.08-1.58C6.39,13.85,13.84,6.4,23,6.4c6.3,0,11.79,3.52,14.6,8.7h6.93C41.3,6.33,32.87,0.06,23,0.06
		C10.35,0.06,0.06,10.35,0.06,23c0,1.63,0.17,3.22,0.5,4.74h9.86c1.92,5.08,6.83,8.7,12.58,8.7c6.88,0,12.56-5.2,13.35-11.87h-9.43
		v-3.16h12.62c0.05,0.52,0.08,1.04,0.08,1.58c0,9.16-7.45,16.61-16.61,16.61c-6.3,0-11.79-3.52-14.6-8.7H1.47
		C4.7,39.67,13.13,45.94,23,45.94c12.65,0,22.94-10.29,22.94-22.94C45.94,21.37,45.76,19.78,45.44,18.26z"/>
	<g>
		<g>
			<path class="st1" d="M23,3.23C12.08,3.23,3.23,12.08,3.23,23c0,0.53,0.02,1.06,0.07,1.58h3.18C6.42,24.06,6.39,23.53,6.39,23
				c0-9.16,7.45-16.61,16.61-16.61c6.3,0,11.79,3.52,14.6,8.7h3.52C38.07,8.11,31.11,3.23,23,3.23z"/>
			<path class="st1" d="M39.53,21.42c0.05,0.52,0.08,1.04,0.08,1.58c0,9.16-7.45,16.61-16.61,16.61c-6.3,0-11.79-3.52-14.6-8.7H4.87
				C7.93,37.89,14.89,42.77,23,42.77c10.92,0,19.77-8.85,19.77-19.77c0-0.53-0.02-1.06-0.07-1.58L39.53,21.42L39.53,21.42z"/>
		</g>
	</g>
	<rect x="21.04" y="13.21" class="st2" width="3.92" height="19.58"/>
</g>
</svg>
