<?xml version="1.0" encoding="utf-8"?>
<!-- Generator: Adobe Illustrator 27.5.0, SVG Export Plug-In . SVG Version: 6.00 Build 0)  -->
<svg version="1.1" id="Layer_1" xmlns="http://www.w3.org/2000/svg" xmlns:xlink="http://www.w3.org/1999/xlink" x="0px" y="0px"
	 viewBox="0 0 28 28" style="enable-background:new 0 0 28 28;" xml:space="preserve">
<style type="text/css">
	.st0{fill:#FFFFFF;}
</style>
<path class="st0" d="M27.7,7.44c0-3.92-3.23-7.16-7.16-7.16H7.46c-3.92,0-7.16,3.23-7.16,7.16v13.08c0,3.96,3.23,7.16,7.16,7.16
	h4.39v-9.27H8.38v-3.96h3.46V11.4c0-3.42,2.04-5.35,5.19-5.35c1.5,0,3.08,0.27,3.08,0.27v3.39h-1.73c-1.69,0-2.23,1.04-2.23,2.15
	v2.58h3.81l-0.62,3.96h-3.19v9.31h4.39c3.96,0,7.16-3.23,7.16-7.16V7.44z"/>
</svg>
