<?xml version="1.0" encoding="utf-8"?>
<!-- Generator: Adobe Illustrator 27.5.0, SVG Export Plug-In . SVG Version: 6.00 Build 0)  -->
<svg version="1.1" id="Layer_1" xmlns="http://www.w3.org/2000/svg" xmlns:xlink="http://www.w3.org/1999/xlink" x="0px" y="0px"
	 viewBox="0 0 28 28" style="enable-background:new 0 0 28 28;" xml:space="preserve">
<style type="text/css">
	.st0{fill:#FFFFFF;}
</style>
<path class="st0" d="M27.7,7.46c0-3.92-3.23-7.16-7.16-7.16H7.46C3.53,0.3,0.3,3.53,0.3,7.46v13.08c0,3.96,3.23,7.16,7.16,7.16
	h13.08c3.96,0,7.16-3.23,7.16-7.16V7.46z M18.96,16.35c-1.73,2.12-4.46,2.27-5.73,0.96c-0.12-0.12-0.19-0.23-0.27-0.35
	c0,0.04-0.04,0.08-0.04,0.12c-0.62,2.39-0.69,2.92-1.31,4.04c-0.31,0.54-0.65,1.04-1,1.5c-0.04,0.04-0.08,0.12-0.15,0.12
	c-0.08-0.04-0.12-0.12-0.12-0.19c-0.12-0.73-0.15-1.46-0.12-2.19c0.04-0.96,0.15-1.27,1.39-6.46c0-0.08,0-0.15-0.04-0.23
	c-0.31-0.81-0.35-1.62-0.08-2.42c0.58-1.77,2.58-1.92,2.92-0.46c0.23,0.88-0.35,2.08-0.81,3.85c-0.35,1.42,1.35,2.46,2.77,1.42
	c1.35-0.96,1.85-3.31,1.77-4.92c-0.19-3.27-3.81-4-6.08-2.92c-2.62,1.19-3.23,4.46-2.04,5.96c0.15,0.19,0.27,0.31,0.23,0.5
	c-0.08,0.31-0.15,0.62-0.23,0.88c-0.08,0.23-0.23,0.31-0.46,0.19c-0.42-0.19-0.81-0.46-1.08-0.81c-1-1.23-1.31-3.69,0.04-5.77
	c1.46-2.31,4.19-3.23,6.69-2.96c3,0.35,4.89,2.39,5.23,4.69C20.54,11.92,20.43,14.54,18.96,16.35z"/>
</svg>
