<?xml version="1.0" encoding="utf-8"?>
<!-- Generator: Adobe Illustrator 27.5.0, SVG Export Plug-In . SVG Version: 6.00 Build 0)  -->
<svg version="1.1" id="Layer_1" xmlns="http://www.w3.org/2000/svg" xmlns:xlink="http://www.w3.org/1999/xlink" x="0px" y="0px"
	 viewBox="0 0 240 250" style="enable-background:new 0 0 240 250;" xml:space="preserve">
<style type="text/css">
	.st0{fill:#FFFFFF;}
	.st1{fill:#F16522;}
	.st2{fill:#8BC53F;}
</style>
<g>
	<g>
		<path class="st0" d="M19.2,206.6c-1.6,1.6-3.7,2.5-6.4,2.5s-4.8-0.9-6.3-2.5c-2.4-2.4-2.5-4.9-2.5-10s0.1-7.6,2.5-10
			c1.6-1.6,3.6-2.5,6.3-2.5s4.8,0.9,6.4,2.5c2.4,2.4,2.5,4.9,2.5,10C21.7,201.7,21.6,204.1,19.2,206.6z M16.5,188.9
			c-0.9-1-2.2-1.5-3.7-1.5s-2.7,0.6-3.6,1.5c-1.2,1.3-1.5,2.8-1.5,7.6s0.2,6.3,1.4,7.6c0.9,1,2.2,1.6,3.7,1.6s2.7-0.6,3.7-1.6
			c1.2-1.3,1.4-2.8,1.4-7.6S17.8,190.2,16.5,188.9z"/>
		<path class="st0" d="M28.9,208.8v-24.5h3.7v24.5H28.9z"/>
		<path class="st0" d="M47.3,209c-3.7,0-6.3-0.9-8.7-3.2l2.5-2.4c1.8,1.8,3.8,2.4,6.3,2.4c3.2,0,5.1-1.4,5.1-3.8c0-1.1-0.3-2-1-2.6
			c-0.6-0.6-1.5-0.9-2.7-1l-2.9-0.4c-2-0.3-3.5-0.9-4.6-2c-1.2-1.1-1.8-2.7-1.8-4.7c0-4.3,3.1-7.2,8.2-7.2c3.3,0,5.5,0.8,7.6,2.8
			l-2.3,2.4c-1.5-1.4-3.3-1.9-5.4-1.9c-2.9,0-4.5,1.6-4.5,3.8c0,0.9,0.2,1.7,0.9,2.3c0.6,0.6,1.3,0.9,2.7,1.1l2.9,0.4
			c2.2,0.4,3.5,0.9,4.5,1.8c1.3,1.2,2,2.9,2,5C56.1,206.3,52.5,209,47.3,209z"/>
		<path class="st0" d="M79.3,209c-3.7,0-6.3-0.9-8.7-3.2l2.4-2.4c1.8,1.8,3.8,2.4,6.3,2.4c3.2,0,5.1-1.4,5.1-3.8c0-1.1-0.3-2-1-2.6
			c-0.6-0.6-1.4-0.9-2.7-1l-2.9-0.4c-2-0.3-3.6-0.9-4.6-2c-1.2-1.1-1.8-2.7-1.8-4.7c0-4.3,3.1-7.2,8.2-7.2c3.3,0,5.5,0.8,7.6,2.8
			l-2.3,2.4c-1.5-1.4-3.3-1.9-5.4-1.9c-2.9,0-4.4,1.6-4.4,3.8c0,0.9,0.2,1.7,0.9,2.3c0.6,0.6,1.3,0.9,2.7,1.1l2.9,0.5
			c2.2,0.4,3.5,0.9,4.6,1.8c1.3,1.2,2,2.9,2,5C88.2,206.3,84.5,209,79.3,209z"/>
		<path class="st0" d="M94.9,208.8v-24.5h15.7v3.4h-12v7.2h10.2v3.3H98.6v7.3h11.9v3.4L94.9,208.8L94.9,208.8z"/>
		<path class="st0" d="M130.9,208.8l-5.2-10.4H121v10.4h-3.7v-24.5h9.5c4.7,0,7.6,3,7.6,7.2c0,3.5-2.1,5.8-4.9,6.5l5.7,10.9
			L130.9,208.8L130.9,208.8z M126.6,187.6h-5.5v7.7h5.5c2.5,0,4.2-1.4,4.2-3.8S129.1,187.6,126.6,187.6z"/>
		<path class="st0" d="M149.4,208.8h-2.9l-8.1-24.5h3.9l5.6,17.9l5.6-17.9h3.9L149.4,208.8z"/>
		<path class="st0" d="M162.7,208.8v-24.5h3.7v24.5H162.7z"/>
		<path class="st0" d="M182.4,209c-2.7,0-4.8-0.9-6.4-2.5c-2.4-2.4-2.5-4.9-2.5-10s0.1-7.6,2.5-10c1.6-1.6,3.6-2.5,6.4-2.5
			c4.5,0,7.9,2.7,8.8,7.6h-3.8c-0.6-2.5-2.2-4.2-4.9-4.2c-1.5,0-2.7,0.6-3.6,1.5c-1.2,1.3-1.5,2.8-1.5,7.6s0.2,6.4,1.5,7.6
			c0.9,1,2.1,1.5,3.6,1.5c2.7,0,4.4-1.7,5-4.2h3.7C190.3,206.3,186.9,209,182.4,209z"/>
		<path class="st0" d="M197.9,208.8v-24.5h15.7v3.4h-11.9v7.2h10.2v3.3h-10.2v7.3h11.9v3.4L197.9,208.8L197.9,208.8z"/>
		<path class="st0" d="M226.9,209c-3.7,0-6.3-0.9-8.7-3.2l2.4-2.4c1.8,1.8,3.8,2.4,6.3,2.4c3.2,0,5.1-1.4,5.1-3.8c0-1.1-0.3-2-1-2.6
			c-0.6-0.6-1.4-0.9-2.7-1l-2.9-0.4c-2-0.3-3.6-0.9-4.6-2c-1.2-1.1-1.8-2.7-1.8-4.7c0-4.3,3.1-7.2,8.2-7.2c3.3,0,5.5,0.8,7.6,2.8
			l-2.4,2.4c-1.5-1.4-3.3-1.9-5.4-1.9c-2.9,0-4.4,1.6-4.4,3.8c0,0.9,0.2,1.7,0.9,2.3c0.6,0.6,1.4,0.9,2.7,1.1l2.9,0.4
			c2.2,0.4,3.5,0.9,4.6,1.8c1.3,1.2,2,2.9,2,5C235.7,206.3,232.1,209,226.9,209z"/>
		<path class="st0" d="M25.5,246.8c-1.2,0-2.1-0.4-2.9-1.1c-1.1-1.1-1.1-2.1-1.1-4.7s0.1-3.6,1.1-4.7c0.7-0.7,1.7-1.1,2.9-1.1
			c2.1,0,3.6,1.3,4,3.4h-1.2c-0.3-1.4-1.3-2.3-2.7-2.3c-0.8,0-1.5,0.3-2,0.8c-0.7,0.8-0.8,1.6-0.8,3.9s0.1,3.2,0.8,3.9
			c0.5,0.5,1.2,0.8,2,0.8c1.4,0,2.5-0.9,2.8-2.3h1.2C29.1,245.6,27.6,246.8,25.5,246.8z"/>
		<path class="st0" d="M39.2,245.7c-0.7,0.7-1.7,1.1-2.8,1.1c-1.2,0-2.2-0.4-2.9-1.1c-1.1-1.1-1.2-2.1-1.2-4.7s0.1-3.6,1.2-4.7
			c0.7-0.7,1.7-1.1,2.9-1.1s2.2,0.4,2.8,1.1c1.1,1.1,1.2,2.1,1.2,4.7C40.4,243.6,40.3,244.6,39.2,245.7z M38.4,237.1
			c-0.5-0.5-1.2-0.8-2-0.8s-1.5,0.3-2,0.8c-0.7,0.8-0.8,1.6-0.8,3.9s0.1,3.2,0.8,3.9c0.5,0.5,1.2,0.8,2,0.8s1.5-0.3,2-0.8
			c0.7-0.8,0.8-1.6,0.8-3.9S39.1,237.8,38.4,237.1z"/>
		<path class="st0" d="M52.7,246.7V238l-3.1,6.9h-1l-3.2-6.9v8.7h-1.2v-11.4h1.2l3.7,8.1l3.6-8.1h1.2v11.4H52.7z"/>
		<path class="st0" d="M62.3,242h-3v4.7H58v-11.4h4.2c2.1,0,3.5,1.3,3.5,3.4S64.3,242,62.3,242z M62.2,236.4h-3v4.6h3
			c1.4,0,2.4-0.8,2.4-2.3S63.6,236.4,62.2,236.4z"/>
		<path class="st0" d="M68.9,246.7v-11.4h1.2v10.4H76v1.1L68.9,246.7L68.9,246.7z"/>
		<path class="st0" d="M79,246.7v-11.4h7.1v1.1h-5.9v4h5v1.1h-5v4.1h5.9v1.1L79,246.7L79,246.7z"/>
		<path class="st0" d="M95,246.7l-2.8-4.8l-2.8,4.8H88l3.5-5.9l-3.3-5.6h1.4l2.6,4.5l2.6-4.5h1.4l-3.3,5.6l3.6,5.9H95z"/>
		<path class="st0" d="M99.1,246.7v-11.4h1.2v11.4H99.1z"/>
		<path class="st0" d="M107.8,236.4v10.4h-1.2v-10.4h-3.3v-1.1h7.8v1.1H107.8z"/>
		<path class="st0" d="M117.3,242v4.7h-1.2V242l-3.4-6.7h1.3l2.7,5.5l2.7-5.5h1.3L117.3,242z"/>
		<path class="st0" d="M131,246.8c-1.7,0-2.9-0.4-3.9-1.5l0.8-0.8c0.9,0.9,1.8,1.2,3.1,1.2c1.7,0,2.7-0.8,2.7-2.1
			c0-0.6-0.2-1.1-0.6-1.4c-0.4-0.3-0.7-0.4-1.5-0.6l-1.3-0.2c-0.9-0.1-1.6-0.4-2.1-0.9c-0.6-0.5-0.9-1.2-0.9-2.1
			c0-1.9,1.4-3.2,3.7-3.2c1.5,0,2.4,0.4,3.4,1.2l-0.8,0.8c-0.7-0.6-1.5-1-2.7-1c-1.6,0-2.4,0.9-2.4,2.1c0,0.6,0.1,1,0.5,1.3
			s0.9,0.5,1.5,0.6l1.3,0.2c1.1,0.1,1.6,0.4,2.1,0.8c0.6,0.5,1,1.3,1,2.2C135,245.6,133.4,246.8,131,246.8z"/>
		<path class="st0" d="M138.3,246.7v-11.4h1.2v11.4H138.3z"/>
		<path class="st0" d="M152.3,246.7V238l-3.1,6.9h-1.1l-3.2-6.9v8.7h-1.2v-11.4h1.2l3.7,8.1l3.6-8.1h1.2v11.4H152.3z"/>
		<path class="st0" d="M161.9,242h-3.1v4.7h-1.2v-11.4h4.2c2.1,0,3.6,1.3,3.6,3.4S163.9,242,161.9,242z M161.8,236.4h-2.9v4.6h2.9
			c1.4,0,2.4-0.8,2.4-2.3S163.2,236.4,161.8,236.4z"/>
		<path class="st0" d="M168.5,246.7v-11.4h1.2v10.4h5.8v1.1L168.5,246.7L168.5,246.7z"/>
		<path class="st0" d="M178.6,246.7v-11.4h1.2v11.4H178.6z"/>
		<path class="st0" d="M185.1,236.4v4.2h5v1.1h-5v5h-1.2v-11.4h7.1v1.1L185.1,236.4L185.1,236.4z"/>
		<path class="st0" d="M194,246.7v-11.4h1.2v11.4H194z"/>
		<path class="st0" d="M199.4,246.7v-11.4h7.1v1.1h-5.9v4h5v1.1h-5v4.1h5.9v1.1L199.4,246.7L199.4,246.7z"/>
		<path class="st0" d="M216.7,245.5c-0.8,0.8-1.7,1.2-3,1.2h-3.9v-11.4h3.9c1.3,0,2.2,0.4,3,1.2c1,1.1,1,2.8,1,4.5
			S217.8,244.4,216.7,245.5z M215.8,237.2c-0.6-0.6-1.4-0.8-2.2-0.8H211v9.3h2.5c0.9,0,1.7-0.2,2.2-0.8c0.8-0.8,0.8-2.2,0.8-3.8
			C216.5,239.4,216.5,238,215.8,237.2z"/>
	</g>
</g>
<g>
	<path class="st0" d="M195.8,64.7h-33.5c-6.5-17.3-23.2-29.6-42.7-29.6c-23.3,0-42.7,17.6-45.3,40.3h32v10.8H63.5
		c-0.2-1.8-0.3-3.6-0.3-5.4c0-31.1,25.3-56.4,56.4-56.4c21.4,0,40,11.9,49.6,29.5h23.5c-10.9-29.8-39.6-51-73.1-51
		c-43,0-77.9,34.9-77.9,77.9c0,5.5,0.6,10.9,1.7,16.1h33.5c6.5,17.2,23.2,29.5,42.7,29.5c23.4,0,42.7-17.6,45.3-40.3h-32V75.5h42.8
		c0.2,1.8,0.3,3.6,0.3,5.4c0,31.1-25.3,56.4-56.4,56.4c-21.4,0-40-11.9-49.6-29.5H46.6c10.9,29.8,39.6,51,73.1,51
		c43,0,77.9-34.9,77.9-77.9C197.5,75.3,196.9,69.9,195.8,64.7z"/>
	<g>
		<g>
			<path class="st1" d="M119.6,13.7c-37.1,0-67.1,30-67.1,67.2c0,1.8,0.1,3.6,0.2,5.4h10.8c-0.2-1.8-0.3-3.6-0.3-5.4
				c0-31.1,25.3-56.4,56.4-56.4c21.4,0,40,11.9,49.6,29.5h12C170.8,30.3,147.2,13.7,119.6,13.7z"/>
			<path class="st1" d="M175.8,75.5c0.2,1.8,0.3,3.6,0.3,5.4c0,31.1-25.3,56.4-56.4,56.4c-21.4,0-40-11.9-49.6-29.5h-12
				c10.3,23.7,34,40.3,61.5,40.3c37.1,0,67.2-30,67.2-67.1c0-1.8-0.1-3.6-0.2-5.4h-10.8V75.5z"/>
		</g>
	</g>
	<rect x="113" y="47.6" class="st2" width="13.3" height="66.5"/>
</g>
</svg>
