<?xml version="1.0" encoding="utf-8"?>
<!-- Generator: Adobe Illustrator 27.5.0, SVG Export Plug-In . SVG Version: 6.00 Build 0)  -->
<svg version="1.1" id="Layer_1" xmlns="http://www.w3.org/2000/svg" xmlns:xlink="http://www.w3.org/1999/xlink" x="0px" y="0px"
	 viewBox="0 0 62 62" style="enable-background:new 0 0 62 62;" xml:space="preserve">
<style type="text/css">
	.st0{fill:#FFFFFF;}
</style>
<g>
	<rect x="41.4" y="34.5" class="st0" width="6.1" height="2.3"/>
	<path class="st0" d="M40.3,39.1c-0.6,0-1.1-0.5-1.1-1.1v-4.6c0-0.6,0.5-1.1,1.1-1.1H46v-8.1c0-0.6-0.5-1.1-1.1-1.1H17.4
		c-1,0-1.2,0.3-1.2,1.2v20.5c0,0.6,0.5,1.1,1.1,1.1h27.4c0.6,0,1.1-0.5,1.1-1.1v-5.7h-0.7H40.3z"/>
	<path class="st0" d="M41.4,17c0-0.4-0.2-0.5-0.6-0.4l-18.1,4.2h18.7V17z"/>
	<path class="st0" d="M54.3,0.2H7.7c-4.2,0-7.5,3.3-7.5,7.5v46.6c0,4.1,3.3,7.4,7.4,7.4h46.6c4.1,0,7.4-3.3,7.4-7.4V7.7
		C61.8,3.6,58.4,0.2,54.3,0.2z M49.9,37.9c0,0.6-0.5,1.1-1.1,1.1h-0.5v6.9c0,1.2-1,2.3-2.3,2.3H16.2c-1.2,0-2.3-1-2.3-2.3V23.1
		c0-1.5,0.1-2.3,1.7-2.8l25.7-6.4c1-0.3,2.3,0.2,2.3,1.6v5.4l0,0H46c1.2,0,2.3,1,2.3,2.3v9.1h0.5c0.6,0,1.1,0.5,1.1,1.1V37.9z"/>
</g>
</svg>
