<?xml version="1.0" encoding="utf-8"?>
<!-- Generator: Adobe Illustrator 27.9.0, SVG Export Plug-In . SVG Version: 6.00 Build 0)  -->
<svg version="1.1" id="Layer_1" xmlns="http://www.w3.org/2000/svg" xmlns:xlink="http://www.w3.org/1999/xlink" x="0px" y="0px"
	 viewBox="0 0 44 44" style="enable-background:new 0 0 44 44;" xml:space="preserve">
<style type="text/css">
	.st0{fill:#FFFFFF;}
	.st1{opacity:0.3;}
</style>
<g>
	<g>
		<g>
			<g>
				<g>
					<path class="st0" d="M40.7,20.5c0,0.5,0.1,1,0.1,1.5c0,10.3-8.4,18.7-18.7,18.7c-7.7,0-14.3-4.6-17.2-11.2H1.6
						c3.1,8.3,11,14.2,20.4,14.2c12,0,21.7-9.7,21.7-21.7c0-1.5-0.2-3-0.5-4.5h-9.3c-1.8-4.8-6.5-8.2-11.9-8.2
						c-6.5,0-11.9,4.9-12.6,11.2h8.9v3h-15c0-0.5-0.1-1-0.1-1.5C3.3,11.7,11.7,3.3,22,3.3c7.7,0,14.3,4.6,17.2,11.2h3.2
						C39.3,6.2,31.3,0.3,22,0.3C10,0.3,0.3,10,0.3,22c0,1.5,0.2,3,0.5,4.5h9.3c1.8,4.8,6.5,8.2,11.9,8.2c6.5,0,11.9-4.9,12.6-11.2
						h-8.9v-3L40.7,20.5L40.7,20.5z M23.9,31.3h-3.7V12.7h3.7V31.3z"/>
				</g>
			</g>
		</g>
	</g>
	<g class="st1">
		<g>
			<path class="st0" d="M22,3.3C11.7,3.3,3.3,11.7,3.3,22c0,0.5,0,1,0.1,1.5h3c0-0.5-0.1-1-0.1-1.5c0-8.7,7.1-15.7,15.7-15.7
				c6,0,11.2,3.3,13.8,8.2h3.3C36.3,7.9,29.7,3.3,22,3.3z"/>
			<path class="st0" d="M37.7,20.5c0,0.5,0.1,1,0.1,1.5c0,8.7-7.1,15.7-15.7,15.7c-6,0-11.2-3.3-13.8-8.2H4.8
				c2.9,6.6,9.5,11.2,17.2,11.2c10.3,0,18.7-8.4,18.7-18.7c0-0.5,0-1-0.1-1.5L37.7,20.5L37.7,20.5z"/>
		</g>
	</g>
</g>
</svg>
