<?xml version="1.0" encoding="utf-8"?>
<!-- Generator: Adobe Illustrator 27.5.0, SVG Export Plug-In . SVG Version: 6.00 Build 0)  -->
<svg version="1.1" id="Layer_1" xmlns="http://www.w3.org/2000/svg" xmlns:xlink="http://www.w3.org/1999/xlink" x="0px" y="0px"
	 viewBox="0 0 62 62" style="enable-background:new 0 0 62 62;" xml:space="preserve">
<style type="text/css">
	.st0{fill:#FFFFFF;}
</style>
<g>
	<polygon class="st0" points="25.5,45.9 31.6,42.2 36.7,50.5 44.6,45.7 39.6,37.3 45.6,33.6 26.8,25.5 	"/>
	<path class="st0" d="M54.3,0.2H7.7c-4.2,0-7.5,3.3-7.5,7.5v46.6c0,4.1,3.3,7.4,7.4,7.4h46.6c4.1,0,7.4-3.3,7.4-7.4V7.7
		C61.8,3.6,58.4,0.2,54.3,0.2z M21.1,33.6c-2.6-1.1-4.8-3.3-5.9-6.1c-2.4-5.8,0.6-12.5,6.5-14.7c5.5-2,11.7,0.6,14.1,5.9
		c0.7,1.4,1,2.9,1,4.4c0,0.6-0.5,1.1-1.1,1c-0.5-0.1-0.8-0.5-0.8-0.9c0-1.2-0.3-2.4-0.8-3.6c-2-4.4-7.3-6.6-11.8-4.8
		c-4.8,1.9-7.2,7.3-5.2,12.1c1,2.3,2.8,4.1,4.8,5c0.2,0.1,0.5,0.3,0.5,0.5C22.8,33.1,21.9,33.9,21.1,33.6z M21.4,24.3
		c0.2,0.7,0.5,1.3,0.8,1.7c0.4,0.5,0.2,1.2-0.3,1.5l-0.1,0.1c-0.4,0.2-0.8,0.1-1.1-0.3c-0.6-0.7-1-1.5-1.2-2.5
		c-0.6-2.5,0.5-5.3,2.7-6.7c3.4-2.3,7.9-0.7,9.3,2.9c0.2,0.4,0.3,0.8,0.3,1.2c0.1,0.7-0.5,1.2-1.1,1.1c-0.5-0.1-0.7-0.4-0.8-0.8
		c-0.1-0.3-0.1-0.6-0.2-0.8c-1-2.5-4.2-3.6-6.5-2C21.7,20.7,21,22.6,21.4,24.3z M46.7,35.3L42.3,38l4.1,6.7c0.6,0.9,0.3,2.1-0.7,2.7
		l-7.9,4.8c-0.9,0.6-2.1,0.3-2.7-0.7l-4.1-6.7l-4.4,2.7c-0.6,0.4-1.4,0.4-2,0c-0.6-0.4-1-1.1-1-1.8l1.4-20.4c0.1-0.6,0.4-1.2,1-1.5
		c0.6-0.3,1.2-0.4,1.8-0.1l18.8,8.1c0.7,0.3,1.1,1,1.2,1.7C47.6,34.2,47.3,34.9,46.7,35.3z"/>
</g>
</svg>
