<?xml version="1.0" encoding="utf-8"?>
<!-- Generator: Adobe Illustrator 28.1.0, SVG Export Plug-In . SVG Version: 6.00 Build 0)  -->
<svg version="1.1" id="Layer_1" xmlns="http://www.w3.org/2000/svg" xmlns:xlink="http://www.w3.org/1999/xlink" x="0px" y="0px"
	 viewBox="0 0 114 60" style="enable-background:new 0 0 114 60;" xml:space="preserve">
<style type="text/css">
	.st0{fill:#009B2D;}
	.st1{fill:#FFDF00;}
	.st2{fill:#002279;}
	.st3{fill:#FFFFFF;}
</style>
<g>
	<rect x="0" y="-0.1" class="st0" width="113.9" height="60.1"/>
	<polygon class="st1" points="22,30.3 57.1,7.6 92.4,30.2 57.2,53.1 	"/>
	<ellipse class="st2" cx="57.2" cy="30.2" rx="14.9" ry="15.1"/>
	<path class="st3" d="M55.9,24.3C66,26.5,72,32.5,72,32.5c-0.2,1.2-0.5,2.4-0.5,2.4c-6.5-6.3-14.7-8-14.7-8
		c-7.3-1.8-13.8-0.5-13.8-0.5c0.2-0.8,0.8-2.3,0.8-2.3S48.6,23.2,55.9,24.3z"/>
	<polygon class="st3" points="45.1,26.9 45.2,27.4 45.7,27.4 45.3,27.6 45.5,28.1 45.1,27.8 44.7,28.1 44.9,27.6 44.5,27.4 
		44.9,27.4 	"/>
	<polygon class="st3" points="51.5,30.3 51.7,30.7 52.1,30.7 51.8,31 51.9,31.3 51.5,31.1 51.2,31.3 51.3,31 51,30.7 51.4,30.7 	"/>
	<polygon class="st3" points="47.9,32.6 48,32.8 48.2,32.8 48,33 48.1,33.2 47.9,33.1 47.7,33.2 47.8,33 47.6,32.8 47.8,32.8 	"/>
	<polygon class="st3" points="46.4,33.2 46.6,33.7 47.1,33.7 46.7,34 46.8,34.5 46.4,34.2 46,34.5 46.1,34 45.7,33.7 46.2,33.7 	"/>
	<polygon class="st3" points="44.6,34.7 44.7,35.1 45.1,35.1 44.7,35.3 44.9,35.7 44.6,35.5 44.3,35.7 44.4,35.3 44.1,35.1 
		44.4,35.1 	"/>
	<polygon class="st3" points="49.5,34.9 49.6,35.2 50,35.2 49.7,35.5 49.8,35.8 49.5,35.6 49.2,35.8 49.3,35.5 49,35.2 49.4,35.2 	
		"/>
	<polygon class="st3" points="49,36.4 49.2,36.7 49.5,36.7 49.2,37 49.4,37.3 49,37.1 48.7,37.3 48.9,37 48.6,36.7 48.9,36.7 	"/>
	<polygon class="st3" points="51.2,37.7 51.4,38.1 51.8,38.1 51.5,38.3 51.6,38.7 51.2,38.5 50.9,38.7 51,38.3 50.7,38.1 51.1,38.1 
			"/>
	<polygon class="st3" points="57.2,36.5 57.3,36.9 57.8,36.9 57.4,37.1 57.5,37.5 57.2,37.3 56.9,37.5 57,37.1 56.6,36.9 57.1,36.9 
			"/>
	<polygon class="st3" points="58.9,33.5 59.1,33.9 59.5,33.9 59.1,34.1 59.3,34.5 58.9,34.3 58.6,34.5 58.7,34.1 58.4,33.9 
		58.8,33.9 	"/>
	<polygon class="st3" points="57.2,32.1 57.3,32.5 57.7,32.5 57.4,32.7 57.5,33.1 57.2,32.9 56.9,33.1 57,32.7 56.7,32.5 57.1,32.5 
			"/>
	<polygon class="st3" points="55.7,33.5 55.8,33.8 56.2,33.8 55.9,34.1 56,34.4 55.7,34.2 55.4,34.4 55.5,34.1 55.2,33.8 55.6,33.8 
			"/>
	<polygon class="st3" points="56.4,34.7 56.5,35 56.8,35 56.6,35.1 56.7,35.4 56.4,35.2 56.2,35.4 56.3,35.1 56.1,35 56.4,35 	"/>
	<polygon class="st3" points="61.3,29.2 61.3,29.4 61.6,29.4 61.4,29.6 61.5,29.8 61.3,29.7 61,29.8 61.1,29.6 60.9,29.4 61.2,29.4 
			"/>
	<polygon class="st3" points="61.8,24.9 62,25.4 62.5,25.4 62.1,25.7 62.2,26.1 61.8,25.8 61.4,26.1 61.6,25.7 61.2,25.4 61.7,25.4 
			"/>
	<polygon class="st3" points="67.6,34.9 67.8,35.4 68.2,35.4 67.9,35.6 68,36.1 67.6,35.8 67.2,36.1 67.4,35.6 67,35.4 67.5,35.4 	
		"/>
	<polygon class="st3" points="67.3,37.5 67.4,37.9 67.8,37.9 67.5,38.1 67.6,38.5 67.3,38.3 67,38.5 67.1,38.1 66.8,37.9 67.2,37.9 
			"/>
	<polygon class="st3" points="68.2,36.4 68.4,36.7 68.8,36.7 68.4,37 68.6,37.4 68.2,37.1 67.9,37.4 68,37 67.7,36.7 68.1,36.7 	"/>
	<polygon class="st3" points="69.7,35.2 69.8,35.5 70.1,35.5 69.8,35.7 69.9,36 69.7,35.8 69.4,36 69.5,35.7 69.3,35.5 69.6,35.5 	
		"/>
	<polygon class="st3" points="66.1,38.4 66.2,38.7 66.5,38.7 66.3,38.9 66.4,39.2 66.1,39 65.9,39.2 66,38.9 65.7,38.7 66,38.7 	"/>
	<polygon class="st3" points="64.7,39.5 64.8,39.9 65.1,39.9 64.8,40.1 64.9,40.4 64.7,40.2 64.4,40.4 64.5,40.1 64.2,39.9 
		64.5,39.9 	"/>
	<polygon class="st3" points="64.6,38.1 64.6,38.4 64.9,38.4 64.7,38.6 64.8,38.9 64.6,38.7 64.3,38.9 64.4,38.6 64.2,38.4 
		64.5,38.4 	"/>
	<polygon class="st3" points="62.9,38.7 63,39 63.3,39 63.1,39.1 63.2,39.4 62.9,39.2 62.7,39.4 62.8,39.1 62.6,39 62.9,39 	"/>
	<polygon class="st3" points="60.5,38.3 60.6,38.6 60.9,38.6 60.6,38.7 60.7,39 60.5,38.8 60.3,39 60.3,38.7 60.1,38.6 60.4,38.6 	
		"/>
	<polygon class="st3" points="64.6,41.2 64.7,41.5 65,41.5 64.8,41.6 64.9,41.9 64.6,41.7 64.4,41.9 64.5,41.6 64.3,41.5 64.6,41.5 
			"/>
	<polygon class="st3" points="61.7,39.9 61.8,40.3 62.1,40.3 61.9,40.5 62,40.8 61.7,40.6 61.4,40.8 61.5,40.5 61.2,40.3 61.6,40.3 
			"/>
	<polygon class="st3" points="57.2,41.8 57.3,42 57.5,42 57.3,42.1 57.4,42.2 57.2,42.1 57.1,42.2 57.2,42.1 57,42 57.2,42 	"/>
	<g>
		<path class="st0" d="M45,25c0.1,0.4-0.2,0.7-0.5,0.7c-0.4,0.1-0.7-0.2-0.8-0.5c-0.1-0.4,0.1-0.7,0.5-0.8
			C44.6,24.4,44.9,24.6,45,25z M43.9,25.2c0.1,0.3,0.3,0.5,0.6,0.4c0.3,0,0.4-0.3,0.3-0.6c0-0.2-0.3-0.5-0.6-0.4
			C43.9,24.6,43.8,24.9,43.9,25.2z"/>
		<path class="st0" d="M45.7,24.3c0.1,0,0.2,0,0.4-0.1c0.2,0,0.3,0,0.4,0.1c0.1,0.1,0.1,0.1,0.1,0.2c0,0.2-0.1,0.3-0.2,0.3
			c0,0,0,0,0,0c0.1,0,0.2,0.1,0.2,0.2c0.1,0.2,0.1,0.3,0.2,0.3c-0.1,0-0.1,0-0.2,0c0,0-0.1-0.1-0.1-0.3C46.5,25,46.4,25,46.2,25
			c-0.1,0-0.1,0-0.2,0c0,0.2,0.1,0.4,0.1,0.5c-0.1,0-0.1,0-0.2,0C45.9,25.1,45.8,24.7,45.7,24.3z M46,24.9c0.1,0,0.1,0,0.2,0
			c0.2,0,0.3-0.1,0.3-0.3c0-0.2-0.2-0.2-0.4-0.2c-0.1,0-0.2,0-0.2,0C46,24.6,46,24.7,46,24.9z"/>
		<path class="st0" d="M47.6,24.2c0.1,0,0.2,0,0.4,0c0.3,0,0.5,0,0.6,0.1c0.1,0.1,0.2,0.2,0.2,0.5c0,0.2,0,0.4-0.2,0.5
			c-0.1,0.1-0.3,0.2-0.6,0.2c-0.1,0-0.2,0-0.3,0C47.6,25,47.6,24.6,47.6,24.2z M47.9,25.3c0,0,0.1,0,0.2,0c0.4,0,0.6-0.2,0.6-0.5
			c0-0.3-0.2-0.5-0.6-0.5c-0.1,0-0.2,0-0.2,0C47.8,24.6,47.8,25,47.9,25.3z"/>
		<path class="st0" d="M50.4,24.8c-0.2,0-0.4,0-0.6,0c0,0.2,0,0.3,0,0.5c0.2,0,0.4,0,0.6,0c0,0,0,0.1,0,0.1c-0.3,0-0.5,0-0.8,0
			c0-0.4,0-0.8,0-1.3c0.3,0,0.5,0,0.8,0c0,0,0,0.1,0,0.1c-0.2,0-0.4,0-0.6,0c0,0.1,0,0.3,0,0.4c0.2,0,0.4,0,0.6,0
			C50.4,24.7,50.4,24.8,50.4,24.8z"/>
		<path class="st0" d="M52.6,25c0-0.2,0-0.4,0-0.5c0,0,0,0,0,0c-0.1,0.1-0.1,0.3-0.2,0.5c-0.1,0.2-0.2,0.4-0.3,0.6c0,0-0.1,0-0.1,0
			c-0.1-0.2-0.1-0.4-0.2-0.6c-0.1-0.2-0.1-0.3-0.1-0.5c0,0,0,0,0,0c0,0.2,0,0.4,0,0.6c0,0.2,0,0.4-0.1,0.5c-0.1,0-0.1,0-0.2,0
			c0-0.4,0.1-0.8,0.1-1.2c0.1,0,0.2,0,0.2,0c0.1,0.2,0.1,0.4,0.2,0.6c0.1,0.2,0.1,0.3,0.1,0.4c0,0,0,0,0,0c0-0.1,0.1-0.3,0.2-0.4
			c0.1-0.2,0.2-0.4,0.3-0.6c0.1,0,0.2,0,0.2,0c0,0.4,0,0.8,0,1.3c-0.1,0-0.1,0-0.2,0C52.5,25.4,52.5,25.2,52.6,25z"/>
		<path class="st0" d="M55.5,25.5c-0.2,0-0.4-0.1-0.5-0.1c0,0.1,0,0.3-0.1,0.4c0.2,0,0.4,0.1,0.6,0.1c0,0,0,0.1,0,0.1
			c-0.3-0.1-0.5-0.1-0.8-0.1c0.1-0.4,0.1-0.8,0.2-1.2c0.3,0,0.5,0.1,0.8,0.1c0,0,0,0.1,0,0.1c-0.2,0-0.4-0.1-0.6-0.1
			c0,0.1,0,0.3-0.1,0.4c0.2,0,0.4,0.1,0.5,0.1C55.5,25.4,55.5,25.4,55.5,25.5z"/>
		<path class="st0" d="M57.6,25.3c0.1,0,0.2,0,0.4,0.1c0.2,0,0.3,0.1,0.4,0.2c0.1,0.1,0.1,0.2,0.1,0.3c0,0.1-0.1,0.2-0.2,0.2
			c-0.1,0.1-0.3,0.1-0.5,0c-0.1,0-0.1,0-0.1,0c0,0.2-0.1,0.3-0.1,0.5c-0.1,0-0.1,0-0.2,0C57.4,26.1,57.5,25.7,57.6,25.3z M57.6,25.9
			c0,0,0.1,0,0.1,0.1c0.2,0.1,0.4,0,0.4-0.2c0-0.2-0.1-0.3-0.3-0.3c-0.1,0-0.1,0-0.2,0C57.7,25.6,57.7,25.8,57.6,25.9z"/>
		<path class="st0" d="M59.3,25.8c0.1,0,0.2,0,0.4,0.1C59.9,26,60,26,60,26.1c0.1,0.1,0.1,0.2,0,0.3c-0.1,0.2-0.2,0.2-0.4,0.2
			c0,0,0,0,0,0c0.1,0.1,0.1,0.2,0.1,0.3c0,0.2,0,0.3,0,0.4c-0.1,0-0.1,0-0.2-0.1c0,0,0-0.2,0-0.3c0-0.2,0-0.3-0.2-0.3
			c-0.1,0-0.1,0-0.2-0.1c-0.1,0.2-0.1,0.3-0.2,0.5C59.1,27,59,27,59,27C59.1,26.6,59.2,26.2,59.3,25.8z M59.3,26.4
			c0.1,0,0.1,0,0.2,0.1c0.2,0.1,0.3,0,0.4-0.1c0.1-0.2-0.1-0.3-0.2-0.3c-0.1,0-0.1,0-0.2,0C59.4,26.1,59.4,26.3,59.3,26.4z"/>
		<path class="st0" d="M62,27.4c-0.2,0.4-0.5,0.5-0.9,0.4c-0.3-0.1-0.5-0.5-0.4-0.8c0.1-0.4,0.5-0.5,0.9-0.4
			C62,26.7,62.1,27.1,62,27.4z M60.9,27c-0.1,0.2,0,0.5,0.2,0.6c0.3,0.1,0.5,0,0.6-0.3c0.1-0.2,0.1-0.5-0.2-0.6
			C61.3,26.6,61,26.8,60.9,27z"/>
		<path class="st0" d="M63.5,28.8c-0.1,0-0.2,0-0.4-0.1c-0.2-0.1-0.3-0.2-0.4-0.4c-0.1-0.1-0.1-0.3,0-0.5c0.2-0.3,0.6-0.5,1-0.2
			c0.2,0.1,0.3,0.2,0.3,0.2c0,0-0.1,0.1-0.1,0.1c-0.1-0.1-0.1-0.1-0.3-0.2c-0.3-0.2-0.6-0.1-0.7,0.2c-0.1,0.3,0,0.5,0.3,0.7
			c0.1,0.1,0.2,0.1,0.2,0.1c0.1-0.1,0.1-0.2,0.2-0.3c-0.1,0-0.2-0.1-0.3-0.1c0,0,0-0.1,0.1-0.1c0.1,0.1,0.3,0.1,0.4,0.2
			C63.7,28.4,63.6,28.6,63.5,28.8z"/>
		<path class="st0" d="M64.9,28.2c0.1,0,0.2,0.1,0.3,0.2c0.2,0.1,0.3,0.2,0.3,0.3c0,0.1,0,0.2,0,0.3C65.4,29,65.2,29,65.1,29
			c0,0,0,0,0,0c0.1,0.1,0.1,0.2,0.1,0.3c-0.1,0.2-0.1,0.3-0.1,0.3c-0.1,0-0.1-0.1-0.2-0.1c0,0,0-0.1,0.1-0.3c0.1-0.2,0-0.3-0.1-0.3
			c-0.1,0-0.1-0.1-0.2-0.1c-0.1,0.2-0.2,0.3-0.3,0.5c-0.1,0-0.1-0.1-0.2-0.1C64.5,28.9,64.7,28.5,64.9,28.2z M64.7,28.7
			c0.1,0,0.1,0.1,0.2,0.1c0.2,0.1,0.3,0.1,0.4,0c0.1-0.1,0-0.3-0.2-0.4c-0.1,0-0.1-0.1-0.2-0.1C64.9,28.5,64.8,28.6,64.7,28.7z"/>
		<path class="st0" d="M66.7,30c-0.2-0.1-0.3-0.2-0.5-0.3c-0.1,0.1-0.2,0.3-0.3,0.4c0.2,0.1,0.3,0.2,0.5,0.3c0,0-0.1,0.1-0.1,0.1
			c-0.2-0.1-0.4-0.3-0.7-0.4c0.2-0.3,0.5-0.7,0.7-1c0.2,0.1,0.5,0.3,0.7,0.4c0,0-0.1,0.1-0.1,0.1c-0.2-0.1-0.3-0.2-0.5-0.3
			c-0.1,0.1-0.1,0.2-0.2,0.3c0.2,0.1,0.3,0.2,0.5,0.3C66.8,29.9,66.7,30,66.7,30z"/>
		<path class="st0" d="M67.3,30.8c0,0.1,0.1,0.2,0.2,0.3c0.2,0.1,0.3,0.1,0.4,0c0.1-0.1,0.1-0.2-0.1-0.4c-0.1-0.2-0.2-0.4-0.1-0.5
			c0.1-0.2,0.4-0.2,0.6,0c0.1,0.1,0.2,0.2,0.2,0.2c0,0-0.1,0-0.1,0.1c0,0-0.1-0.1-0.2-0.2c-0.2-0.1-0.3-0.1-0.3,0
			c-0.1,0.1,0,0.2,0.1,0.4c0.1,0.2,0.2,0.4,0.1,0.5c-0.1,0.2-0.4,0.2-0.6,0c-0.1-0.1-0.2-0.2-0.2-0.3C67.2,30.9,67.2,30.8,67.3,30.8
			z"/>
		<path class="st0" d="M68.6,31.8c0,0.1,0.1,0.2,0.2,0.3c0.1,0.1,0.3,0.1,0.4,0c0.1-0.1,0.1-0.2,0-0.4c-0.1-0.2-0.2-0.4-0.1-0.5
			c0.1-0.2,0.4-0.1,0.6,0c0.1,0.1,0.2,0.2,0.2,0.2c0,0-0.1,0-0.1,0.1c0,0-0.1-0.1-0.2-0.2c-0.2-0.1-0.3-0.1-0.3,0
			c-0.1,0.1,0,0.2,0.1,0.4c0.1,0.2,0.2,0.4,0,0.5c-0.1,0.1-0.4,0.2-0.6,0c-0.1-0.1-0.2-0.2-0.2-0.3C68.5,31.8,68.6,31.8,68.6,31.8z"
			/>
		<path class="st0" d="M71.2,33.3c-0.3,0.3-0.7,0.3-1,0c-0.3-0.2-0.3-0.6,0-0.9c0.3-0.3,0.7-0.3,1,0C71.4,32.7,71.4,33.1,71.2,33.3z
			 M70.3,32.6c-0.2,0.2-0.2,0.5,0,0.7c0.2,0.2,0.5,0.1,0.7-0.1c0.2-0.2,0.3-0.5,0-0.7C70.8,32.3,70.5,32.4,70.3,32.6z"/>
	</g>
</g>
</svg>
