<?xml version="1.0" encoding="utf-8"?>
<!-- Generator: Adobe Illustrator 28.1.0, SVG Export Plug-In . SVG Version: 6.00 Build 0)  -->
<svg version="1.1" id="Layer_1" xmlns="http://www.w3.org/2000/svg" xmlns:xlink="http://www.w3.org/1999/xlink" x="0px" y="0px"
	 viewBox="0 0 114 60" style="enable-background:new 0 0 114 60;" xml:space="preserve">
<style type="text/css">
	.st0{fill-rule:evenodd;clip-rule:evenodd;fill:#FF161F;}
	.st1{fill-rule:evenodd;clip-rule:evenodd;fill:#FFFFFF;}
</style>
<g>
	<g>
		<polygon class="st0" points="0,-0.1 0,60.1 28.5,60.1 28.5,-0.1 0,-0.1 		"/>
		<polygon class="st1" points="28.5,-0.1 28.5,60.1 85.5,60.1 85.5,-0.1 28.5,-0.1 		"/>
		<polygon class="st0" points="114,-0.1 85.5,-0.1 85.5,60.1 114,60.1 114,-0.1 		"/>
	</g>
	<path class="st0" d="M57,48.8h0.7L57.5,40l0.6-0.5c2.8,0.3,5.3,0.6,8.1,1l-0.7-2.4c-0.1-0.4,0-0.9,0.4-1.1l8.2-6.8l-1.7-0.8
		c-0.7-0.3-0.5-0.7-0.3-1.7l1.2-4.6l-4.7,1c-0.5,0.1-0.8-0.2-0.8-0.5l-0.6-2.2l-3.8,4.3c-0.5,0.7-1.6,0.7-1.3-0.9l1.6-8.7l-2.1,1.1
		c-0.6,0.3-1.2,0.4-1.5-0.2l-3-5.7l-3,5.7c-0.3,0.6-0.9,0.6-1.5,0.2l-2.1-1.1l1.6,8.7c0.3,1.6-0.7,1.6-1.3,0.9l-3.8-4.3l-0.6,2.2
		c-0.1,0.3-0.4,0.6-0.8,0.5l-4.7-1l1.2,4.6c0.3,1,0.5,1.5-0.3,1.7L40,30.1l8.2,6.8c0.3,0.3,0.5,0.7,0.4,1.1l-0.7,2.4
		c2.8-0.3,5.3-0.6,8.1-1l0.6,0.5l-0.2,8.8H57L57,48.8z"/>
</g>
</svg>
