<?xml version="1.0" encoding="utf-8"?>
<!-- Generator: Adobe Illustrator 28.1.0, SVG Export Plug-In . SVG Version: 6.00 Build 0)  -->
<svg version="1.1" id="Layer_1" xmlns="http://www.w3.org/2000/svg" xmlns:xlink="http://www.w3.org/1999/xlink" x="0px" y="0px"
	 viewBox="0 0 114 60" style="enable-background:new 0 0 114 60;" xml:space="preserve">
<style type="text/css">
	.st0{fill:#FF2405;}
	.st1{fill:#FFDE00;}
</style>
<g>
	<rect x="0" y="-0.1" class="st0" width="113.9" height="60.1"/>
	<polygon class="st1" points="15.1,5.6 17.2,12 23.9,12 18.5,16 20.6,22.4 15.1,18.4 9.6,22.4 11.7,16 6.3,12 13,12 	"/>
	<polygon class="st1" points="31.3,3.2 31.1,5.3 33.1,6.2 31,6.6 30.8,8.8 29.7,6.9 27.6,7.4 29,5.8 27.9,3.9 29.9,4.8 	"/>
	<polygon class="st1" points="38.3,9.9 37.3,11.8 38.8,13.3 36.7,13 35.7,14.9 35.4,12.7 33.3,12.4 35.2,11.4 34.9,9.3 36.4,10.8 	
		"/>
	<polygon class="st1" points="36.1,18 36.9,20.1 39,20 37.3,21.3 38,23.3 36.3,22.1 34.6,23.5 35.2,21.4 33.4,20.2 35.5,20.1 	"/>
	<polygon class="st1" points="31.2,24.2 31.1,26.4 33.1,27.1 31,27.7 30.9,29.8 29.7,28 27.6,28.6 29,26.9 27.8,25.1 29.9,25.9 	"/>
</g>
</svg>
