<?xml version="1.0" encoding="utf-8"?>
<!-- Generator: Adobe Illustrator 28.1.0, SVG Export Plug-In . SVG Version: 6.00 Build 0)  -->
<svg version="1.1" id="Layer_1" xmlns="http://www.w3.org/2000/svg" xmlns:xlink="http://www.w3.org/1999/xlink" x="0px" y="0px"
	 viewBox="0 0 114 60" style="enable-background:new 0 0 114 60;" xml:space="preserve">
<style type="text/css">
	.st0{fill:#FFFFFF;}
	.st1{fill:#FCAD2E;}
	.st2{fill:#589488;}
</style>
<g>
	<g>
		<rect x="0" class="st0" width="113.9" height="60"/>
	</g>
	<path class="st1" d="M75.1,15.7c-1.2,0.7-0.9,1.7-1.8,2.3c-0.9,0.6-1.5,0.3-2.3,0.9l0,0c-1.4,1.1-1.6,3.1-0.5,4.5l2.6,3.4
		c0.2,0.3,0.1,0.8-0.2,0.9l0,0c-0.2,0.1-0.3,0.1-0.5,0c-1.3-0.5-2.2-0.3-2.2-0.3c-0.2,0.2-0.5,0.4-0.7,0.5c-0.3,0.1-0.6,0.1-0.9-0.1
		c-0.5-0.4-1.5-0.9-2.5-0.4c-0.9,0.4-1.4,1.4-1.6,2.2c-0.5,1.4-1.5,2.6-2.8,3.2c-2.3,1.1-5.6,2-8.5,2c-1.9,0-2.3,1.6-2.3,2.6
		c0,0.5-0.4,0.9-0.9,0.9l0,0c-0.4,0-0.7-0.2-0.9-0.6c-0.4-0.8-1.1-2.3-1.9-2.4c-1.1-0.1-1.9,0.8-3.4,0.8c-1.6,0-5.5-2-6-2.9
		c-0.5-0.9-0.1-0.9-0.6-2c-0.4-0.7-0.8-0.6-1.1-3.3c-0.1-0.8-0.6-2.1-0.9-2.9c-0.1-0.3,0-0.7,0.3-0.8l0,0c0.3-0.2,0.7-0.1,0.8,0.2
		c0.4,0.6,1.1,1.5,2.1,1.4c1.4-0.2,3-3.9,5.1-3.9c2,0,2.4,1.3,4.1,1.3c1.5,0,2-3.6,1.8-5.5c0-0.3,0.1-0.6,0.4-0.7l0,0
		c0.2-0.1,0.4-0.1,0.7,0c0.8,0.3,3.1,1.1,8.4,1.1c6.7,0,6.3-1,9.4-1.9c4.1-1.2,5.3-2.1,6.2-3c0.7-0.6,1.4-1,2.2-1.4l7.4-3.2
		c0.1,0,0.2,0.1,0.1,0.2L78.3,14c-0.2,0.2-0.4,0.3-0.6,0.4L75.1,15.7z"/>
	<path class="st2" d="M44.1,43.6c-3-0.6-3.6-3-3.6-3S43.5,40.7,44.1,43.6z"/>
	<path class="st2" d="M45.4,44c-2-2.1-1-4.3-1-4.3S46.6,41.5,45.4,44z"/>
	<path class="st2" d="M47.4,45.5c-1.8-1.9-0.9-3.9-0.9-3.9S48.5,43.2,47.4,45.5z"/>
	<path class="st2" d="M49.7,46.9C47.9,45,48.8,43,48.8,43S50.8,44.7,49.7,46.9z"/>
	<path class="st2" d="M54.5,48.6C52.4,47,53,44.9,53,44.9S55.3,46.2,54.5,48.6z"/>
	<path class="st2" d="M54.3,49.8c0,0-1.2,2.3-3.7,1.7C52.2,49.3,54.3,49.8,54.3,49.8z"/>
	<path class="st2" d="M52,49c0,0-1.6,2.1-3.9,1C50,48.2,52,49,52,49z"/>
	<path class="st2" d="M49.7,47.7c0,0-1.6,2.1-3.9,1C47.7,46.9,49.7,47.7,49.7,47.7z"/>
	<path class="st2" d="M45.4,45.4c0,0-2.6,1.2-4.3-0.9C43.9,43.6,45.4,45.4,45.4,45.4z"/>
	<path class="st2" d="M47.3,46.8c0,0-2.1,1.6-4,0.1C45.6,45.5,47.3,46.8,47.3,46.8z"/>
	<path class="st2" d="M52,48c-2-1.8-1.3-3.9-1.3-3.9S53,45.6,52,48z"/>
	<path class="st2" d="M70.6,43.6c3-0.6,3.6-3,3.6-3S71.2,40.7,70.6,43.6z"/>
	<path class="st2" d="M69.2,44c2-2.1,1-4.3,1-4.3S68,41.5,69.2,44z"/>
	<path class="st2" d="M67.3,45.5c1.8-1.9,0.9-3.9,0.9-3.9S66.2,43.2,67.3,45.5z"/>
	<path class="st2" d="M65,46.9c1.8-1.9,0.9-3.9,0.9-3.9S63.9,44.7,65,46.9z"/>
	<path class="st2" d="M60.1,48.6c2.1-1.6,1.5-3.7,1.5-3.7S59.4,46.2,60.1,48.6z"/>
	<path class="st2" d="M60.4,49.8c0,0,1.2,2.3,3.7,1.7C62.5,49.3,60.4,49.8,60.4,49.8z"/>
	<path class="st2" d="M62.7,49c0,0,1.6,2.1,3.9,1C64.7,48.2,62.7,49,62.7,49z"/>
	<path class="st2" d="M65,47.7c0,0,1.6,2.1,3.9,1C67,46.9,65,47.7,65,47.7z"/>
	<path class="st2" d="M69.3,45.4c0,0,2.6,1.2,4.3-0.9C70.8,43.6,69.3,45.4,69.3,45.4z"/>
	<path class="st2" d="M67.4,46.8c0,0,2.1,1.6,4,0.1C69.1,45.5,67.4,46.8,67.4,46.8z"/>
	<path class="st2" d="M62.7,48c2-1.8,1.3-3.9,1.3-3.9S61.7,45.6,62.7,48z"/>
	<path class="st2" d="M53.8,49.2l6.2,1.9C60,51.1,57.1,49.5,53.8,49.2z"/>
	<path class="st2" d="M60.8,49.2l-6.2,1.9C54.6,51.1,57.5,49.5,60.8,49.2z"/>
</g>
</svg>
