<?xml version="1.0" encoding="utf-8"?>
<!-- Generator: Adobe Illustrator 28.1.0, SVG Export Plug-In . SVG Version: 6.00 Build 0)  -->
<svg version="1.1" id="Layer_1" xmlns="http://www.w3.org/2000/svg" xmlns:xlink="http://www.w3.org/1999/xlink" x="0px" y="0px"
	 viewBox="0 0 114 60" style="enable-background:new 0 0 114 60;" xml:space="preserve">
<style type="text/css">
	.st0{fill:#ED1028;}
	.st1{fill:#FFFFFF;}
	.st2{fill:#FFFFFF;stroke:#CE9200;stroke-width:5.675120e-02;stroke-miterlimit:10;}
	.st3{fill:#CE9200;}
	.st4{fill:#FFFFFF;stroke:#CE9200;stroke-width:0.1135;stroke-miterlimit:10;}
</style>
<g>
	<rect x="0" y="-0.1" class="st0" width="113.9" height="20.4"/>
	<path class="st1" d="M56.3,33.5L56.3,33.5l-0.2,1c0,0,0,0,0,0L56.3,33.5z"/>
	<path class="st1" d="M52.4,36.8C52.4,36.8,52.3,36.8,52.4,36.8c-0.1,0-0.2,0.1-0.2,0.2C52.2,36.9,52.3,36.9,52.4,36.8
		C52.4,36.8,52.4,36.8,52.4,36.8C52.4,36.8,52.4,36.8,52.4,36.8z"/>
	<path class="st1" d="M57.8,36.5l-0.4-0.2c0,0-0.2-2.4-0.2-2.4c0,0-0.1,0-0.1,0l0,2.5l-0.3,0.4c0,0-0.3-0.4-0.3-0.4
		c0,0,0.1-2.4,0.1-2.5c0-0.1-0.1,0-0.1,0l-0.3,2.4c0,0-0.3,0.3-0.3,0.3c0,0-0.2-0.3-0.2-0.3l0.3-1.8c0,0,0,0,0,0l-0.4,2.2
		c0.1,0,0.1,0,0.2,0c0.3,0,0.5-0.1,0.5,0.2c0.1,0,0.3,0.1,0.4,0.3c0,0,0,0,0,0.1c0,0,0,0,0,0c0.1,0,0.1,0,0.2,0c0,0,0-0.1,0-0.1
		c0.1-0.2,0.3-0.3,0.4-0.3C57.5,36.5,57.6,36.6,57.8,36.5c0.1,0.1,0.2,0.1,0.3,0.1l-0.7-4.1l0.7,3.7L57.8,36.5z"/>
	<path class="st1" d="M61.7,36.9c-0.1-0.1-0.1-0.1-0.2-0.1c0,0,0,0,0,0c0,0,0,0,0,0c0,0-0.1,0.1-0.2,0.1c0.1,0,0.1,0,0.1,0
		C61.5,36.9,61.6,36.9,61.7,36.9z"/>
	<polygon class="st1" points="56.5,32.5 56.3,33.5 56.3,33.5 	"/>
	<path class="st1" d="M0,40.1H114V20.3H0V40.1z M50.7,25.3C50.7,25.3,50.8,25.3,50.7,25.3c0.1-0.1,0.1-0.1,0.1-0.2
		c0.2-1.1,0.5-1.1,1.1-1.2c0.6,0,1.6,0.6,2.1,0.9c0.5,0.3,1.2,0.2,1.2,0.2c0.7-1,0.9-2.3,0.9-2.5c0-0.2,0-0.4-0.1-0.7
		c0-0.1-0.1-0.2-0.2-0.3c0,0,0,0,0,0c0,0,0,0-0.1-0.1c-0.2-0.2-0.4-0.1-0.5,0c0,0,0,0,0,0c0,0,0,0,0,0c0,0-0.1,0.1-0.1,0.1
		c-0.1-0.1-0.1-0.4,0-0.7c0.1-0.2,0.4-0.2,0.7-0.2c0.2,0,0.4,0.1,0.4,0.1c0-0.1,0.1-0.1,0.1-0.1c0,0,0.1-0.1,0.1,0c0,0,0,0,0.1,0
		c0.1,0,0.2,0,0.4,0.1c1.3,0.3,1,1.7,1,1.7c0,1.4,0.3,2.2,0.5,2.6c1.4,0.1,1.8-0.6,2.8-1c1-0.3,1.7,0.2,1.7,0.8c0,0,0,0.2,0,0.4
		c0,0,0,0,0,0L63.5,37l-0.1-0.1c0,0,0,0.1,0,0.1L60,33.5l0,0l0,0l0,0l0.7,2.8c0.2,0,0.3-0.1,0.5-0.1c0.1,0,0.2,0,0.2,0.1
		c0,0,0,0,0,0c0,0,0.3,0,0.4,0.2c0.2,0.2,0,0.4,0,0.5c0,0.1,0,0.1,0,0.2c0,0,0,0.1,0.1,0.1c0.1,0,0.2,0.1,0.4,0.3
		c0.2,0.2,0.3,0.3,0.3,0.3c-0.1,0-0.2,0.2-0.2,0.4c-0.1,0.2-0.3,0.3-0.3,0.3c0.1,0.2,0.1,0.5-0.4,0.7c-0.5,0.2-1,0.4-4.7,0.4
		c-3.7,0-4.8-0.4-5.1-0.5c-0.3-0.1-0.2-0.5-0.2-0.5c-0.2,0-0.3-0.5-0.4-0.6c-0.1-0.1-0.2-0.3-0.2-0.3c0.1,0,0.3-0.1,0.5-0.3
		c0.1-0.2,0.4-0.2,0.4-0.2c0,0,0,0,0,0c0-0.1,0-0.2,0-0.3c0-0.2-0.1-0.3,0-0.5c0.2-0.2,0.4-0.2,0.4-0.2c0,0,0,0,0,0
		c0-0.1,0.1-0.1,0.2-0.1c0.2,0,0.3,0.1,0.5,0.1l0.1-0.1l0.7-2.8l-0.3,0.3L53.3,34l0,0l-2.9,3c0,0,0,0,0-0.1L50.3,37L50.7,25.3z"/>
	<rect x="0" y="40.6" width="113.9" height="19.5"/>
	<rect x="0" y="40.1" width="113.9" height="0.5"/>
	<path class="st1" d="M54.1,35.8l-0.5,0.6c0.3,0,0.5,0.1,0.7,0.1L54.1,35.8z"/>
	<path class="st1" d="M59.4,29.2l0.1,2.8l0.3,0.9l-0.2-4.6C59.6,28.7,59.5,28.9,59.4,29.2z"/>
	<path class="st1" d="M59.7,35.8l-0.2,0.7c0.2,0,0.4-0.1,0.7-0.1L59.7,35.8z"/>
	<path class="st1" d="M58.9,36l-0.2,0.6c0.2,0,0.3,0,0.5-0.1L58.9,36z"/>
	<path class="st1" d="M56.5,32.5c-0.1-0.1-0.2-0.2-0.3-0.3c0,0-0.4,0.3-0.4,0.3c0,0,0-0.7,0-0.7s-0.1,0.7,0,0.7c0,0,0.4-0.3,0.4-0.3
		c-0.6-0.7-1-1.4-1.4-2l0.1,0.1c-0.1,0-0.5,1.2-0.6,1.7l0.2,0.7l0.7-0.8l-0.1-1.2l0.1,1.2l0.4-0.4l-0.4,0.4l0.1,1.3l0.5-0.6l0.2,1
		l0.3-0.1L56.5,32.5L56.5,32.5z"/>
	<path class="st1" d="M59.9,33.4l0.1,0.8l-0.7-0.8l-0.3,1l-0.6-0.8l-0.2,1.3l-0.6-1l0.6,1l0.2-1.3l0.6,0.8l0.3-1l0.7,0.8L59.9,33.4
		L59.9,33.4L59.8,33L59.5,32l0,0.1c0,0,0,0,0-0.1l-0.2,0.6l-0.8-0.8l-0.1,1.3c0,0-0.5-0.8-0.5-0.8c0,0-0.4,1.3-0.4,1.3
		s0.3-1.3,0.4-1.3l-0.3-0.2c-0.1,0.1-0.2,0.2-0.3,0.3l0,0l0.7,4.1c0.2,0,0.4,0,0.6,0l0.2-0.6l0.3,0.5c0.1,0,0.1,0,0.2,0l0.2-0.7
		l0.4,0.6c0.2,0,0.4-0.1,0.6-0.1L59.9,33.4L59.9,33.4L59.9,33.4L59.9,33.4z M60.4,35.1l-0.3-0.8l-0.4,1.5l-0.5-0.9l-0.3,1l-0.6-0.9
		L58,36l0.2-1.1l0.6,0.9l0.3-1l0.5,0.9l0.4-1.5L60.4,35.1z"/>
	<path class="st1" d="M57.6,32.2l0.3,0.2l0-0.6l0,0.6c0,0,0.5,0.8,0.5,0.8l0.1-1.3l-0.4-0.3l0.4,0.3l0.1-1.2
		C58.3,31.3,57.9,31.8,57.6,32.2z"/>
	<path class="st1" d="M59,30.5l0.3,1C59.3,31.1,59.1,30.7,59,30.5z"/>
	<path class="st1" d="M54.9,36.1l-0.5,0.5c0.3,0,0.5,0.1,0.7,0.1L54.9,36.1z"/>
	<path class="st1" d="M54.2,27.8L54,33.1l0.3-1l0.1-3.1C54.3,28.5,54.2,28.2,54.2,27.8z"/>
	<path class="st1" d="M59,30.5c0-0.1-0.1-0.1-0.1-0.2c-0.1,0.1-0.2,0.3-0.2,0.4l-0.1,1.2l0.8,0.8l0.2-0.6c0-0.1-0.1-0.3-0.2-0.6
		L59,30.5z"/>
	<path class="st1" d="M51.1,36.1l-0.7,0.8c0,0,0,0.1,0,0.1l2.9-3l0.3-7.4l0.5,0.3c0-0.1,0-0.2,0-0.2c1.6,0.2,2.8-0.9,2.8-0.9
		c0.3,0.5,1.5,0.9,2.8,0.9c0,0,0,0.1,0,0.1l0.4-0.3l0.3,7.5L60,33.4l0,0l3.5,3.5c0,0,0,0,0-0.1l-0.8-0.8c0,0-0.4-11.3-0.3-11.3
		c0.1,0,0.5,0.3,0.7,0.4c0-0.2,0-0.3,0-0.4c0-0.6-0.7-1.1-1.7-0.8c-0.9,0.3-1.4,1-2.8,1c0.1,0.2,0.2,0.3,0.2,0.3
		c-0.4,0.1-0.7-0.1-0.7-0.1l0,0.3c-0.5,0.1-0.7-0.5-0.8-0.4c-0.1,0.1-0.4,0.5-0.4,0.5l-0.4-0.6c-0.2,0.3-0.8,0.6-0.8,0.6l0-0.6
		c-0.5,0.4-0.8,0.3-0.8,0.3c0.1-0.1,0.2-0.2,0.3-0.3c0,0-0.7,0.1-1.2-0.2c-0.6-0.3-1.5-1-2.1-0.9c-0.6,0-0.9,0.1-1.1,1.2
		c0,0,0,0.1,0,0.1c0.2-0.1,0.5-0.4,0.6-0.4C51.5,24.8,51.1,36.1,51.1,36.1z M62,24.9l0.4,11l-0.7-0.7l-0.3-9.5L62,24.9z M61,25.8
		l0.3,9l-0.6-0.6l-0.2-7.9L61,25.8z M52.8,25.9l0.5,0.5l-0.2,7.9l-0.6,0.6L52.8,25.9z M52.5,25.6l-0.3,9.5l-0.7,0.7l0.4-11
		L52.5,25.6z"/>
	<path class="st1" d="M54.1,35.8l0.2,0.7c0,0,0.1,0,0.1,0l0.5-0.5l0.2,0.6c0.3,0,0.5,0,0.6,0l0.4-2.2c0-0.1,0-0.5,0-0.5
		c0,0-0.5,0.8-0.5,0.8l-0.3-1.3l-0.6,0.7l-0.2-0.9l-0.8,0.9l0.8-0.9l0.2,0.9l0.6-0.7l0.3,1.3c0,0,0.6-0.9,0.5-0.8c0,0,0,0.4,0,0.5
		l0.2-1L56,33.6l-0.2-1l-0.5,0.6l-0.1-1.3l-0.7,0.8L54.3,32c0,0.1-0.1,0.2-0.1,0.2l0-0.1l-0.3,1l0,0.2l-0.1,0.1l0,0l0,0l-0.3,0.3
		l0.3-0.3l-0.7,2.8l-0.1,0.1c0.2,0,0.3,0.1,0.5,0.1L54.1,35.8z M53.8,34.4l0.3,1.3l0.5-0.9l0.3,1l0.6-0.9l0.3,1.1l-0.3-1.1l-0.6,0.9
		l-0.3-1l-0.5,0.9L53.8,34.4l-0.3,0.3L53.8,34.4z"/>
	<path class="st2" d="M56.5,20.6c-0.1,0-0.1,0.1-0.1,0.1c0,0,0,0,0,0S56.4,20.7,56.5,20.6z"/>
	<path class="st2" d="M55.3,21.5C55.3,21.5,55.3,21.5,55.3,21.5C55.3,21.5,55.3,21.5,55.3,21.5z"/>
	<path class="st2" d="M55.3,21.5c0.1-0.1,0.3-0.2,0.5,0c0,0,0,0,0.1,0.1C55.6,21.2,55.4,21.4,55.3,21.5z"/>
	<path class="st2" d="M55.9,25c0.5-0.6,0.7-2.1,0.7-2.1S56.4,24.5,55.9,25l0.7,0c0.2-0.5,0.3-2.1,0.3-2.1s-0.1,1.7-0.3,2.1l0.7,0
		c-0.1-0.5,0-2.1,0-2.1s0,1.6,0,2.1l0.7,0c-0.4-0.6-0.3-2.1-0.3-2.1s-0.1,1.4,0.3,2.1l0.4,0c0.1,0,0.2,0,0.2,0
		c-0.2-0.4-0.5-1.2-0.5-2.6c0,0,0.3-1.4-1-1.7c-0.2,0-0.3-0.1-0.4-0.1c0.2,0,0.8,0.1,1.1,0.4c0.3,0.4,0.2,0.4,0.2,0.4
		s-0.4-0.4-0.8-0.1c-0.4,0.2-0.4,0.3-0.5,0.2c-0.1-0.1-0.4-0.4-0.6-0.5c-0.3-0.1-0.7-0.3-0.9,0.1c0,0,0,0.2-0.1,0.2
		c0,0-0.1-0.6,0.3-0.6c0.1,0,0.3,0,0.4,0c-0.3,0-0.6,0-0.7,0.2c-0.1,0.3-0.1,0.6,0,0.7c0-0.4,0.2-0.5,0.4-0.5c0.4,0,0.9,0.8,0.9,0.8
		s-0.3,0-0.4,0c0,0-0.1,0.3-0.1,0.3c0,0,0-0.1-0.1-0.2c0.1,0.2,0.1,0.5,0.1,0.7c0,0.3-0.2,1.6-0.9,2.5c0,0,0,0,0,0L55.9,25z"/>
	<path class="st2" d="M56.6,25C56.6,25,56.5,25.1,56.6,25l0.3,0.6c0,0,0.3-0.4,0.4-0.5c0,0,0-0.1,0-0.1L56.6,25z"/>
	<path class="st2" d="M57.9,25l-0.7,0c0,0,0,0.1,0,0.1c0.1-0.1,0.3,0.5,0.8,0.4l0-0.3C58,25.1,58,25.1,57.9,25z"/>
	<path class="st2" d="M55.8,25.1l0,0.6c0,0,0.6-0.3,0.8-0.6c0,0,0,0,0,0L55.8,25.1C55.9,25.1,55.8,25.1,55.8,25.1
		C55.8,25.1,55.9,25.1,55.8,25.1L55.3,25c0,0,0,0,0,0c-0.1,0.1-0.2,0.2-0.3,0.3C55,25.4,55.3,25.5,55.8,25.1z"/>
	<path class="st2" d="M57.9,25c0,0.1,0.1,0.1,0.1,0.2c0,0,0.3,0.2,0.7,0.1c0,0-0.1-0.1-0.2-0.3c-0.1,0-0.1,0-0.2,0L57.9,25z"/>
	<path class="st3" d="M55.3,21.5C55.2,21.6,55.2,21.6,55.3,21.5C55.2,21.6,55.2,21.6,55.3,21.5z"/>
	<path class="st3" d="M55.3,21.5C55.3,21.5,55.3,21.5,55.3,21.5C55.3,21.5,55.3,21.5,55.3,21.5z"/>
	<path class="st3" d="M55.9,21.6c0.1,0.1,0.1,0.2,0.2,0.3C56,21.8,55.9,21.6,55.9,21.6C55.9,21.6,55.9,21.6,55.9,21.6z"/>
	<path class="st3" d="M56.2,21.9c0,0,0.4,0,0.4,0s-0.5-0.8-0.9-0.8c-0.2,0-0.5,0.1-0.4,0.5c0,0,0,0,0.1-0.1c0,0,0,0,0,0c0,0,0,0,0,0
		c0.1-0.1,0.4-0.3,0.6,0c0.1,0.1,0.1,0.2,0.2,0.3c0.1,0.2,0.1,0.2,0.1,0.2C56.1,22.2,56.2,21.9,56.2,21.9z"/>
	<path class="st3" d="M56.3,20.8c0,0-0.2-0.1-0.4-0.1C56.2,20.7,56.3,20.8,56.3,20.8C56.3,20.8,56.3,20.8,56.3,20.8z"/>
	<path class="st3" d="M56.7,20.6C56.6,20.6,56.6,20.6,56.7,20.6c-0.1,0-0.2,0-0.2,0C56.5,20.6,56.6,20.6,56.7,20.6z"/>
	<path class="st3" d="M55.5,20.7c-0.4,0.1-0.3,0.6-0.3,0.6c0,0,0.1-0.2,0.1-0.2c0.2-0.5,0.6-0.3,0.9-0.1c0.3,0.1,0.5,0.4,0.6,0.5
		c0.1,0.1,0.1,0,0.5-0.2c0.4-0.2,0.8,0.1,0.8,0.1s0,0-0.2-0.4c-0.2-0.3-0.9-0.4-1.1-0.4c-0.1,0-0.2,0-0.2,0
		c-0.1,0.1-0.1,0.1-0.1,0.1s0,0,0,0c0,0,0,0,0,0c0,0-0.2-0.1-0.4-0.1C55.8,20.7,55.6,20.7,55.5,20.7z M56.7,21.2
		c0-0.1,0-0.1,0.1-0.1c0.1,0,0.1,0.1,0.1,0.1v0c0,0.1,0,0.1-0.1,0.1C56.8,21.3,56.7,21.3,56.7,21.2L56.7,21.2z"/>
	<path class="st1" d="M56.8,21.3c0.1,0,0.1-0.1,0.1-0.1v0c0-0.1,0-0.1-0.1-0.1c-0.1,0-0.1,0.1-0.1,0.1v0
		C56.7,21.3,56.8,21.3,56.8,21.3z"/>
	<path class="st3" d="M50.8,25.2C50.8,25.3,50.7,25.3,50.8,25.2L50.3,37l0.1-0.1C50.4,36.1,50.8,26.8,50.8,25.2z"/>
	<path class="st3" d="M51.1,36.1c0,0,0.4-11.3,0.3-11.3c-0.1,0-0.4,0.3-0.6,0.4c0,1.5-0.4,10.9-0.5,11.7L51.1,36.1z"/>
	<polygon class="st3" points="52.1,35.1 52.5,25.6 51.8,24.9 51.4,35.9 	"/>
	<polygon class="st3" points="53.3,26.3 52.8,25.9 52.5,34.8 53.1,34.2 	"/>
	<polygon class="st3" points="53.3,34 53.5,33.7 53.3,34 	"/>
	<polygon class="st3" points="53.9,33.3 54,33.1 53.9,33.4 	"/>
	<path class="st3" d="M54,33.1l0.2-5.3c-0.1-0.4,0-0.8,0-1l-0.5-0.3L53.3,34l0.3-0.3l0.3-0.3L54,33.1z"/>
	<path class="st3" d="M54.9,30.3l-0.1-0.1c-0.2-0.4-0.4-0.8-0.5-1.2l-0.1,3.1l0.1-0.2l-0.1,0.2l0,0.1c0,0,0-0.1,0.1-0.2l0,0l0,0
		C54.4,31.5,54.7,30.3,54.9,30.3z"/>
	<path class="st3" d="M63.5,37l-0.4-11.7c0,0,0,0,0,0C63.1,27.2,63.4,36.1,63.5,37L63.5,37z"/>
	<path class="st3" d="M62.7,36.1l0.8,0.8c0-0.8-0.4-9.7-0.4-11.7c-0.1-0.1-0.6-0.4-0.7-0.4C62.3,24.8,62.7,36.1,62.7,36.1z"/>
	<polygon class="st3" points="62.4,35.8 62,24.9 61.3,25.6 61.7,35.1 	"/>
	<polygon class="st3" points="61.3,34.8 61,25.8 60.5,26.3 60.7,34.1 	"/>
	<polygon class="st3" points="59.9,33.4 60,33.4 59.9,33.2 	"/>
	<polygon class="st3" points="59.8,33 59.9,33.3 59.9,33.4 59.9,33.2 	"/>
	<path class="st3" d="M59.7,28.4l0.2,4.6l0.1,0.3l0-0.1l0,0.1l0.1,0.2l0.5,0.6l-0.3-7.5l-0.4,0.3C59.8,27.3,59.8,27.9,59.7,28.4z"/>
	<path class="st3" d="M59,30.2C59,30.3,59,30.3,59,30.2c0,0.1,0,0.1,0.1,0.2L59,30.2z"/>
	<path class="st3" d="M59,30.2l0.1,0.2c0.1,0.3,0.2,0.7,0.3,1l0.2,0.5l-0.1-2.8C59.3,29.6,59.1,29.9,59,30.2z"/>
	<path class="st3" d="M59.5,32.1L59.5,32.1L59.5,32.1C59.5,32.2,59.5,32.2,59.5,32.1L59.5,32.1l-0.2-0.6
		C59.4,31.8,59.5,32,59.5,32.1z"/>
	<path class="st3" d="M57,32.9c-0.1,0.1-0.2,0-0.2,0c-0.1-0.1-0.2-0.2-0.3-0.3l-0.1,0l-0.2,1l0,0l0,0l-0.2,1c0,0,0,0,0,0s0,0,0,0
		l-0.3,1.8c0,0,0.2,0.3,0.2,0.3c0,0,0.3-0.3,0.3-0.3l0.3-2.4c0,0,0.1,0,0.1,0c0,0.1-0.1,2.4-0.1,2.5c0,0,0.3,0.4,0.3,0.4l0.3-0.4
		l0-2.5c0,0,0,0,0.1,0c0,0,0.2,2.4,0.2,2.4l0.4,0.2l0.2-0.3l-0.7-3.7l0,0C57.2,32.7,57,32.8,57,32.9z"/>
	<path class="st2" d="M54.2,27.8c0,0.3,0.1,0.7,0.2,1.1l0-0.1l0.5,1.3c0.3,0.6,0.7,1.3,1.4,2c0,0,0,0,0,0s0,0,0,0
		c0.1,0.1,0.2,0.2,0.3,0.3l0.8,0c0.1-0.1,0.2-0.2,0.3-0.3l0,0l0,0c0.3-0.4,0.7-0.9,1.1-1.5l0,0l0,0c0.1-0.1,0.2-0.3,0.2-0.4
		c0,0,0,0,0,0l0.5-1.4l0,0.4c0.1-0.3,0.2-0.6,0.2-0.9l-0.1-1.5l0.1-0.1c0,0,0-0.1,0-0.1c-1.2,0-2.4-0.4-2.8-0.9c0,0-1.3,1.1-2.8,0.9
		c0,0,0,0.1,0,0.2l0.1,0L54.2,27.8z M54.4,26.9c0,0,0.4,0,0.9,0c1-0.2,1.7-0.8,1.7-0.8c0.3,0.4,1.4,0.8,2.5,0.8c0.1,0.5,0,0.9,0,1.4
		c0,0.2-0.1,0.3-0.1,0.5c-0.1,0.4-0.3,0.8-0.5,1.2c-0.1,0.3-0.3,0.5-0.4,0.7c-0.7,1-1.4,1.7-1.4,1.8c-0.1,0.1-0.1,0-0.1,0
		c-0.4-0.3-0.7-0.7-0.9-1c0,0-0.1-0.2-0.3-0.4c-0.9-1.3-1.2-2.6-1.3-3.3c0-0.1,0-0.1,0-0.2C54.4,27.5,54.4,26.9,54.4,26.9z"/>
	<path class="st2" d="M54.2,27.8l0-0.9l-0.1,0C54.1,27.1,54.1,27.4,54.2,27.8z"/>
	<path class="st2" d="M54.4,28.8l0,0.1c0.1,0.4,0.3,0.8,0.5,1.2L54.4,28.8z"/>
	<path class="st2" d="M59.7,28.4c0.1-0.5,0.1-1,0.1-1.6l-0.1,0.1L59.7,28.4z"/>
	<path class="st2" d="M59,30.2L59,30.2c0.2-0.3,0.3-0.6,0.5-1l0-0.4L59,30.2C58.9,30.3,58.9,30.3,59,30.2C59,30.3,59,30.3,59,30.2
		L59,30.2z"/>
	<path class="st2" d="M56.9,32.9c0,0,0.1,0,0.2,0c0,0,0.1-0.1,0.3-0.3l-0.8,0C56.6,32.6,56.7,32.8,56.9,32.9z"/>
	<path class="st2" d="M56,31.5C56,31.5,55.9,31.5,56,31.5c0.2,0.3,0.6,0.7,0.9,1c0,0,0.1,0,0.1,0c0,0,0.8-0.7,1.4-1.8
		c-0.3,0.5-0.7,0.9-0.7,0.9v-4.9c1.1,0.3,1.7,0.3,1.7,0.3c-1.1,0-2.2-0.4-2.5-0.8c0,0-0.7,0.6-1.7,0.8c0.2,0,0.5-0.1,0.7-0.2V31.5z"
		/>
	<path class="st2" d="M59.4,28.3c0.1-0.5,0.1-0.9,0-1.4C59.5,27.5,59.5,28,59.4,28.3z"/>
	<path class="st2" d="M58.8,30c0.2-0.4,0.3-0.8,0.5-1.2c-0.1,0.3-0.2,0.6-0.4,1C58.9,29.9,58.9,29.9,58.8,30z"/>
	<path class="st2" d="M55.7,31.1c-0.4-0.6-1.1-1.8-1.3-3.3C54.5,28.5,54.7,29.8,55.7,31.1z"/>
	<path class="st3" d="M55.9,31.5c-0.1-0.1-0.2-0.2-0.3-0.4C55.8,31.3,55.9,31.4,55.9,31.5z"/>
	<path class="st3" d="M55.3,26.9c-0.4,0.1-0.8,0-0.9,0C54.7,27,55,27,55.3,26.9z"/>
	<path class="st3" d="M54.4,27.8c0-0.5,0-0.8,0-0.8c-0.1,0,0,0.6,0,0.6C54.4,27.6,54.4,27.7,54.4,27.8z"/>
	<path class="st3" d="M54.4,27.8c0.2,1.5,0.9,2.8,1.3,3.3c0.1,0.1,0.2,0.2,0.3,0.4c0,0,0,0,0,0v-4.8c-0.2,0.1-0.5,0.2-0.7,0.2
		c-0.3,0-0.6,0.1-0.9,0C54.4,26.9,54.4,27.2,54.4,27.8z"/>
	<path class="st3" d="M58.8,30c-0.1,0.3-0.3,0.5-0.4,0.7C58.6,30.5,58.7,30.3,58.8,30z"/>
	<path class="st3" d="M59.4,28.3c0,0.2-0.1,0.3-0.1,0.5C59.3,28.7,59.4,28.5,59.4,28.3z"/>
	<path class="st3" d="M57.8,26.7v4.9c0,0,0.3-0.4,0.7-0.9c0.1-0.2,0.3-0.5,0.4-0.7c0-0.1,0.1-0.2,0.1-0.2c0.1-0.4,0.3-0.7,0.4-1
		c0-0.2,0.1-0.3,0.1-0.5c0.1-0.4,0.1-0.8,0-1.4C59.4,26.9,58.9,27,57.8,26.7z"/>
	<path class="st4" d="M53.9,38.1c0,0,0,0.1,0,0.2c0,0,0,0,0,0C53.9,38.3,54,38.1,53.9,38.1z"/>
	<path class="st4" d="M61.4,38.1v0.1c0,0,0.1,0,0.1,0c0,0,0.1-0.1,0.1-0.1C61.5,38.1,61.4,38.1,61.4,38.1z"/>
	<path class="st4" d="M52.7,38.1C52.7,38.1,52.7,38.1,52.7,38.1C52.7,38.1,52.7,38.1,52.7,38.1C52.7,38.1,52.7,38.1,52.7,38.1z"/>
	<path class="st4" d="M61.7,36.9c-0.1,0-0.2-0.1-0.3-0.1c0,0-0.1,0-0.1,0c-0.3,0.1-1,0.2-1.4,0.3c0,0-0.1,0-0.1,0c0,0,0,0,0,0
		c0,0.3-0.2,0.6-0.2,0.6s-0.3-0.3-0.4-0.5c-0.5,0.1-1.2,0.2-1.6,0.1c0,0,0,0,0,0c0,0.1,0,0.1-0.1,0.2c-0.2,0.1-0.3,0.4-0.3,0.4
		S57,37.5,57,37.2c-0.1,0-0.1,0-0.2,0c0,0,0,0,0,0c0,0.2-0.1,0.7-0.1,0.7s-0.1-0.2-0.3-0.4c-0.1-0.1-0.1-0.1-0.1-0.2c0,0,0,0,0,0
		c-0.4,0.1-1,0-1.6-0.1c-0.1,0.2-0.4,0.5-0.4,0.5s-0.1-0.4-0.2-0.6c0,0,0,0,0,0c-0.1,0-0.1,0-0.1,0c-0.5-0.1-1.4-0.2-1.5-0.3
		c-0.1,0-0.2,0.1-0.2,0.2c-0.1,0.2-0.2,0.4-0.2,0.4s0,0,0,0c0,0,0,0,0,0c0,0-0.2,0-0.4,0.2c-0.1,0.2-0.3,0.3-0.5,0.3
		c0,0,0.1,0.2,0.2,0.3c0.1,0.1,0.2,0.6,0.4,0.6c0,0,0,0.5,0.2,0.5c0.3,0.1,1.4,0.5,5.1,0.5c3.7,0,4.2-0.2,4.7-0.4
		c0.5-0.2,0.5-0.5,0.4-0.7c0,0,0.2-0.1,0.3-0.3c0.1-0.2,0.1-0.4,0.2-0.4c0,0-0.2-0.1-0.3-0.3c-0.2-0.2-0.2-0.3-0.4-0.3
		c0,0,0,0-0.1-0.1c0,0.1,0,0.1,0,0.1S61.8,37.1,61.7,36.9z M52.5,38.5C52.5,38.5,52.4,38.4,52.5,38.5C52.6,38.4,52.5,38.5,52.5,38.5
		z M52.8,38.6c0,0,0-0.1,0-0.1S52.9,38.6,52.8,38.6z M53,38.3h-0.3c0,0,0-0.1,0-0.1c0,0-0.1,0-0.3,0c-0.2,0,0.2-0.3,0.3-0.3
		c0,0,0,0,0,0c0-0.1,0-0.1,0-0.1c0,0,0,0,0,0.1c0.1,0,0.1,0,0.1,0v-0.5c-0.1,0-0.1,0-0.2,0c-0.1,0-0.1,0.2-0.1,0.2s-0.1-0.2,0.1-0.2
		c0.1,0,0.1,0,0.2,0c0.1,0,0.2,0,0.2,0s-0.1,0-0.2,0v0.5c0,0,0,0-0.1,0c0,0.1,0,0.1,0,0.2c0,0,0,0.1,0,0.1s0,0,0,0
		c0,0.1,0,0.1,0,0.1H53v-0.4l0.1,0c0-0.1,0-0.1,0-0.2c0,0,0,0.2,0,0.2l0,0c0,0,0,0.1,0,0.1s0,0,0-0.1l-0.1,0V38.3z M53.2,38.7
		c0,0-0.1-0.1,0-0.1c0,0,0.1,0,0.2,0C53.3,38.7,53.2,38.7,53.2,38.7z M53.4,38.4l-0.4,0l0-0.5l0,0.5L53.4,38.4c0,0,0-0.4,0-0.4
		c0,0,0.1,0,0.1,0s-0.1,0-0.1,0C53.4,38.1,53.4,38.4,53.4,38.4z M53.8,38.7c0,0.2-0.3,0.1-0.3,0.1C53.5,38.8,53.8,38.9,53.8,38.7
		c0-0.2,0-0.3,0-0.3S53.8,38.5,53.8,38.7z M55.4,37.9c-0.1,0,0-0.1,0-0.1c0,0,0,1-0.1,1c-0.1,0-0.1-0.9-0.1-1c0-0.1-0.1,0-0.1,0
		s0,0.7,0,0.7c0,0-0.1,0-0.1,0.1c0,0.1,0,0.3,0,0.3c0,0-0.2,0-0.2,0s0.1-0.1,0-0.1c0,0-0.1-0.1-0.1-0.2c0-0.1-0.1-0.2-0.1-0.2
		l-0.2,0c0-0.1,0-0.1,0-0.1c0,0,0,0,0,0v0.2l-0.4,0c0,0,0-0.2,0-0.3c0,0-0.1,0-0.1,0s0.1,0,0.1,0c0-0.1,0-0.2,0-0.2c0,0,0,0.2,0,0.2
		c0,0,0,0,0,0c0,0.2,0,0.3,0,0.3l0.4,0v-0.2c0,0,0,0,0,0c0-0.1-0.1-0.1-0.2-0.1c-0.1,0,0.5-0.3,0.5-0.3s0.2,0.3,0.2,0.3
		c0,0,0,0.1-0.1,0.1c-0.1,0-0.2,0-0.3,0c0,0,0,0.1,0,0.1l0.2,0c0,0,0.1,0.1,0.1,0.2c0,0.1,0.1,0.2,0.1,0.2c0,0,0,0.1,0,0.1
		s0.2,0,0.2,0c0,0,0-0.3,0-0.3c0-0.1,0.1,0,0.1-0.1c0,0,0-0.7,0-0.7s0.1-0.1,0.1,0c0,0.1,0,1,0.1,1c0.1,0,0.1-1,0.1-1
		C55.4,37.8,55.3,37.9,55.4,37.9S55.5,37.9,55.4,37.9C55.5,37.9,55.5,37.9,55.4,37.9z M57.5,38.9l-0.3,0l0,0.1l0-0.1l-0.3,0
		c0,0,0,0.1,0,0.1c0,0.1,0,0.1,0,0.1c0,0-0.1,0.1-0.1,0.1s0-0.1-0.1-0.1c-0.1,0,0-0.2,0-0.2h-0.9c0,0-0.1,0.2-0.2,0.2
		c-0.1,0.1,0.1-0.2,0.2-0.3c0-0.1,0-0.4,0-0.4s-0.1,0.1-0.2,0.1c0,0,0.2-0.1,0.2-0.1s0,0.2,0,0.4c0,0.1-0.2,0.3-0.2,0.3
		c0.1-0.1,0.2-0.2,0.2-0.2h0.9c0,0,0,0.2,0,0.2c0.1,0,0.1,0.1,0.1,0.1s0.1-0.1,0.1-0.1c0,0,0-0.1,0-0.1c0,0,0-0.1,0-0.1l-0.1,0
		l0.1,0c0-0.1,0-0.3,0-0.3h-0.7v-0.3H56v0.6v-0.6h0.1v0.3h0.7c0,0,0,0.2,0,0.3l0.3,0l0-0.2c0,0,0,0,0.1,0c0.1,0,0-0.1,0.1-0.1
		c0,0,0.1,0,0.1,0V38.9z M57.9,38c0,0-0.1,0.1-0.2,0C57.7,38,57.9,38,57.9,38z M57.7,38.3c0,0,0.2,0,0.2,0
		C57.9,38.3,57.7,38.4,57.7,38.3z M58,39.2c0-0.1,0-0.1,0-0.1C58,39.1,58.1,39.2,58,39.2C58.1,39.3,58,39.2,58,39.2z M58.2,39.2
		c0,0,0-0.2,0-0.2S58.3,39.1,58.2,39.2C58.3,39.3,58.2,39.2,58.2,39.2z M58.5,38.9h-0.7v-0.2H58v-0.7v0.7h-0.2v0.2H58.5l0-0.5
		L58.5,38.9z M58.9,38.8c0,0.1-0.1,0.2-0.2,0.2c-0.1,0-0.1,0.1-0.1,0.1s0-0.1,0.1-0.1C58.9,39,58.9,38.9,58.9,38.8
		c0-0.1,0-0.2-0.1-0.2c-0.1,0-0.1-0.1-0.1-0.1s0,0.1,0.1,0.1C58.9,38.6,59,38.7,58.9,38.8z M61.5,38.3
		C61.5,38.3,61.4,38.3,61.5,38.3L61.5,38.3l-0.3,0.1c0,0,0,0.1,0,0.1c0.1,0,0.2,0,0.2,0l0,0.2c0,0-0.1,0-0.1,0c0,0,0-0.1,0-0.2
		c0,0-0.1,0-0.1,0c-0.1,0-0.2,0-0.2,0c0,0.1,0,0.2-0.1,0.2c-0.1,0-0.2,0-0.2-0.1h-0.2c0,0,0,0,0,0.1c0.1,0.2-0.1,0.3-0.2,0.3
		c-0.1,0-0.1-0.3-0.1-0.3s-0.3,0-0.4,0c0,0.1,0,0.1,0,0.1h-0.2c-0.1,0.1-0.2,0.3-0.2,0.3c-0.1,0,0.2-0.3,0.2-0.3s-0.1,0-0.2-0.1
		c-0.1-0.1,0.1-0.3,0.1-0.3s0.1,0,0.1,0c0,0,0,0.4,0,0.4h0.1c0,0,0,0,0,0c0-0.1,0.1-0.1,0.2-0.1c0,0,0,0,0,0c0-0.1,0-0.3,0-0.3
		c0,0,0.1-0.1,0.1-0.1c0,0,0-0.3,0-0.3s0.1,0.1,0.1,0.2c0,0.1,0.1,0.1,0.2,0.1c0,0,0.1,0.1,0.1,0.1s0,0.1,0,0.2c0,0.1,0,0,0.1,0
		l0-0.1h0.2c0,0-0.1-0.2,0-0.2c0.1,0,0.3,0,0.3,0s-0.1,0.1,0.1,0.1c0.2,0,0.2,0,0.2,0s0,0-0.2,0c-0.2,0-0.1-0.1-0.1-0.1
		s-0.1,0-0.3,0c-0.1,0,0,0.2,0,0.2h-0.2l0,0.1c0,0,0,0,0,0h0.2c0,0.1,0.1,0.1,0.2,0.1c0.1,0,0.1-0.1,0.1-0.2c0-0.1,0.1,0,0.2,0
		c0,0,0.1,0,0.1,0c0-0.1,0-0.1,0-0.1L61.5,38.3L61.5,38.3c-0.1,0-0.3,0-0.4,0c-0.1,0-0.1-0.1-0.1-0.1c0,0-0.1-0.2-0.1-0.3
		c0-0.1,0-0.2-0.1-0.4c-0.1-0.1-0.3,0.1-0.3,0.1s0.3-0.2,0.3-0.1c0.1,0.1,0.1,0.3,0.1,0.4c0,0.1,0,0.2,0.1,0.3c0,0,0,0.1,0.1,0.1
		C61.2,38.3,61.3,38.3,61.5,38.3l-0.1-0.1c0,0,0.1,0,0.2,0C61.6,38.2,61.5,38.3,61.5,38.3z M60.8,37.7c0,0,0,0.1-0.2,0
		C60.5,37.6,60.8,37.7,60.8,37.7z"/>
	<path class="st4" d="M57.3,38.6c-0.1,0-0.1,0-0.1,0l0,0.2l0.3,0v-0.4c0,0-0.1,0-0.1,0C57.3,38.5,57.3,38.6,57.3,38.6z"/>
	<path class="st4" d="M52.7,37.9C52.7,37.9,52.7,37.9,52.7,37.9c-0.1,0-0.5,0.3-0.3,0.3c0.2,0,0.3,0,0.3,0c0,0,0,0,0-0.1
		C52.7,38,52.7,38,52.7,37.9z"/>
	<path class="st4" d="M54.6,38.4c0.1,0,0.1-0.1,0.1-0.1c0,0-0.2-0.3-0.2-0.3s-0.6,0.3-0.5,0.3c0.1,0,0.2,0,0.2,0.1
		C54.4,38.4,54.5,38.4,54.6,38.4z"/>
	<path class="st4" d="M61.2,38.6c0.1,0,0.1,0,0.1,0l0-0.2c0,0-0.1,0-0.2,0C61.2,38.5,61.2,38.6,61.2,38.6z"/>
	<path class="st4" d="M53.1,37.8c0,0,0,0.1,0,0.2l0,0C53.1,37.9,53.2,37.7,53.1,37.8z"/>
	<path class="st4" d="M52.7,37.8c0,0,0,0,0,0.1c0,0,0,0,0,0C52.7,37.8,52.7,37.8,52.7,37.8z"/>
	<path class="st4" d="M52.7,37.9C52.7,37.9,52.7,37.9,52.7,37.9c0,0.1,0,0.2,0,0.2C52.7,38,52.7,37.9,52.7,37.9z"/>
	<path class="st2" d="M52.1,37c0.1-0.1,0.1-0.1,0.2-0.2c0,0,0,0,0,0c-0.1-0.1-0.1-0.4,0-0.5c0,0,0,0,0,0c0,0-0.3,0-0.4,0.2
		c-0.2,0.2,0,0.4,0,0.5c0,0.1,0,0.2,0,0.3C51.9,37.2,52,37.1,52.1,37z"/>
	<path class="st2" d="M52.1,37c-0.1,0.1-0.2,0.2-0.2,0.3c0,0,0,0,0,0S52,37.2,52.1,37z"/>
	<path class="st2" d="M56.4,36.9c0,0.1,0,0.3-0.1,0.3c0.2,0,0.3,0,0.5,0c0,0,0-0.1,0-0.1C56.7,37,56.5,36.9,56.4,36.9z"/>
	<path class="st2" d="M56.2,37.3c0,0.1,0,0.1,0.1,0.2c0.2,0.1,0.3,0.4,0.3,0.4s0.1-0.4,0.1-0.7c-0.1,0-0.3,0-0.5,0
		C56.3,37.3,56.2,37.3,56.2,37.3z"/>
	<polygon class="st2" points="54.3,36.6 54.3,36.6 54.3,36.6 	"/>
	<path class="st2" d="M52.4,36.8C52.4,36.8,52.4,36.8,52.4,36.8C52.4,36.8,52.4,36.8,52.4,36.8c0.1,0,0.2,0,0.2,0
		c0.2,0,0.7,0.1,1.2,0.1c0,0,0,0,0,0c0-0.1-0.1,0-0.2,0c-0.1,0-0.1,0-0.1,0c0,0,0-0.1,0-0.1c0,0-0.1,0-0.1,0c-0.1,0,0-0.1,0-0.1
		c0.1,0,0.2,0,0.2,0.1c0,0.1,0.1,0,0.1,0c0.1,0,0.2,0,0.2,0c0,0,0,0.2,0,0.2c0,0,0,0,0,0c0.1,0,0.2,0,0.2,0c0.1-0.2,0.2-0.3,0.2-0.3
		c0.1,0,0.2,0.2,0.2,0.3c0,0,0.1,0,0.1,0c0,0,0,0,0,0c0,0,0.1-0.1,0.1-0.1c0.1,0,0.1,0,0.1,0c0,0,0.2-0.1,0.3-0.1
		c0.1,0,0.1,0.1,0.1,0.1c0,0.1-0.1,0.2-0.1,0.1c0-0.1-0.1-0.1-0.1-0.1c0,0-0.1,0.1-0.1,0.1c0.2,0,0.4,0,0.6,0.1c0,0,0,0,0,0
		c0,0,0-0.1,0-0.2c0,0,0.1,0,0.2,0c0.1,0,0.2,0,0.2,0c0.1,0,0.2,0,0.2,0c0,0,0,0.1-0.1,0.1c0,0-0.1,0-0.2,0c-0.1,0-0.1,0-0.1,0
		c0,0,0,0.1-0.1,0.1c0,0,0,0,0,0c0.2,0,0.4,0,0.5,0c0-0.1,0.2-0.3,0.2-0.3c-0.1-0.3-0.2-0.2-0.5-0.2c0,0-0.1,0-0.2,0l0,0
		c-0.4,0.1-0.9,0-1.4,0l0,0l0,0c-0.3,0-0.6-0.1-0.8-0.1l0,0l0,0c-0.3-0.1-0.5-0.1-0.5-0.1l0-0.1c-0.2,0-0.3-0.1-0.5-0.1
		c-0.1,0-0.2,0-0.2,0.1C52.4,36.4,52.6,36.7,52.4,36.8z M52.8,36.4c0,0,0.1,0.1,0.1,0.1c0,0,0.1,0,0.1,0c0.1,0,0,0.2,0,0.2
		s0-0.1,0-0.1c0,0-0.1,0.1-0.1,0.1c0,0-0.1-0.1-0.1-0.1c0,0-0.1,0-0.2,0c-0.1,0-0.1-0.1-0.1-0.1C52.6,36.4,52.8,36.4,52.8,36.4z"/>
	<path class="st2" d="M54.3,36.5L54.3,36.5C54.3,36.6,54.3,36.6,54.3,36.5l0.1,0C54.4,36.6,54.3,36.6,54.3,36.5z"/>
	<path class="st2" d="M53.6,36.4L53.6,36.4c0.2,0.1,0.4,0.2,0.7,0.2l0-0.1C54.1,36.5,53.9,36.5,53.6,36.4z"/>
	<path class="st2" d="M53.5,36.5L53.5,36.5c-0.1-0.1-0.3-0.1-0.4-0.2l0,0.1C53.1,36.4,53.3,36.4,53.5,36.5z"/>
	<path class="st2" d="M55.1,36.7L55.1,36.7c-0.2-0.1-0.4-0.1-0.7-0.1l-0.1,0.1c0.4,0.1,0.9,0.1,1.4,0l0,0
		C55.6,36.7,55.4,36.7,55.1,36.7L55.1,36.7z"/>
	<path class="st2" d="M54.1,37c-0.1,0-0.2,0-0.2,0c0,0,0,0-0.1,0c0,0,0,0,0,0c-0.5-0.1-0.9-0.1-1.2-0.1c-0.1,0-0.1,0-0.2,0.1
		c0.1,0.1,1.1,0.3,1.5,0.3c0,0,0.1,0,0.1,0C54.1,37.1,54.1,37,54.1,37z"/>
	<path class="st2" d="M56.2,37.2C56.2,37.2,56.2,37.2,56.2,37.2c-0.2,0-0.3-0.1-0.5-0.1c0,0-0.1,0-0.1,0c-0.2,0-0.4,0-0.6-0.1
		c0,0,0,0-0.1,0c-0.1,0-0.2,0-0.2-0.1c0,0-0.1,0-0.1,0c0,0.1,0,0.1,0,0.2c0,0,0,0.1,0,0.1c0.5,0.1,1.2,0.2,1.6,0.1c0,0,0,0,0,0
		C56.2,37.3,56.2,37.2,56.2,37.2z"/>
	<path class="st2" d="M52.4,36.8c0.2-0.1,0-0.4,0-0.5C52.3,36.4,52.3,36.7,52.4,36.8z"/>
	<path class="st2" d="M56.4,36.9c-0.1,0-0.2,0.2-0.2,0.3c0,0,0.1,0,0.1,0C56.4,37.1,56.5,37,56.4,36.9z"/>
	<path class="st2" d="M56.3,37.2c0,0-0.1,0-0.1,0c0,0,0,0,0,0s0,0,0,0.1C56.2,37.3,56.3,37.3,56.3,37.2z"/>
	<path class="st2" d="M54.1,37.2c0,0.3,0.2,0.6,0.2,0.6s0.3-0.3,0.4-0.5C54.4,37.3,54.2,37.2,54.1,37.2
		C54.1,37.2,54.1,37.2,54.1,37.2z"/>
	<path class="st2" d="M54.4,36.7c0,0-0.2,0.1-0.2,0.3c0.2,0,0.3,0,0.5,0.1C54.5,36.9,54.4,36.7,54.4,36.7z"/>
	<path class="st2" d="M54.6,37c-0.2,0-0.3,0-0.5-0.1c0,0.1-0.1,0.2-0.1,0.2c0.1,0,0.3,0.1,0.5,0.1c0,0,0-0.1,0-0.1
		C54.6,37.1,54.6,37.1,54.6,37z"/>
	<path class="st3" d="M52.6,36.6c0.1,0,0.2,0,0.2,0c0,0,0.1,0.1,0.1,0.1c0,0,0.1-0.1,0.1-0.1c0,0,0,0.1,0,0.1s0-0.2,0-0.2
		c-0.1,0-0.1,0.1-0.1,0c0,0-0.1-0.1-0.1-0.1c0,0-0.2,0-0.2,0C52.6,36.5,52.6,36.6,52.6,36.6z"/>
	<path class="st3" d="M53.9,36.9c0,0,0-0.1,0-0.2c0,0-0.1,0-0.2,0c-0.1,0-0.1,0-0.1,0c0-0.1-0.2-0.1-0.2-0.1c0,0-0.1,0.1,0,0.1
		c0.1,0,0.1,0,0.1,0c0,0,0,0.1,0,0.1c0,0,0.1,0,0.1,0c0.1,0,0.1,0,0.2,0c0,0,0,0,0,0C53.8,36.9,53.8,36.9,53.9,36.9
		C53.9,36.9,53.9,36.9,53.9,36.9z"/>
	<path class="st3" d="M53.8,36.9C53.8,37,53.9,36.9,53.8,36.9C53.8,36.9,53.8,36.9,53.8,36.9C53.8,36.9,53.8,36.9,53.8,36.9z"/>
	<path class="st3" d="M55.1,37c0.1-0.1,0.1,0,0.1,0.1c0,0.1,0.1,0,0.1-0.1c0-0.1,0-0.1-0.1-0.1C55.2,36.9,55,36.9,55.1,37
		c-0.1,0-0.2,0-0.2-0.1c-0.1,0-0.2,0-0.1,0.1c0,0,0,0,0,0C54.8,37.1,54.9,37.1,55.1,37C55,37.1,55.1,37,55.1,37z"/>
	<path class="st3" d="M54.9,37.1C55,37.1,55,37.1,54.9,37.1c0,0-0.1-0.1-0.2-0.1C54.7,37.1,54.9,37.1,54.9,37.1z"/>
	<path class="st3" d="M55.7,37.2C55.7,37.1,55.7,37.1,55.7,37.2c0.1-0.1,0.1-0.1,0.2-0.1c0.1,0,0.2,0,0.2,0c0,0,0.1-0.1,0.1-0.1
		c0,0-0.1,0-0.2,0c-0.1,0-0.2,0-0.2,0c-0.1,0-0.2-0.1-0.2,0c0,0,0,0.2,0,0.2c0,0,0,0,0,0C55.6,37.2,55.6,37.2,55.7,37.2
		C55.7,37.2,55.7,37.2,55.7,37.2z"/>
	<path class="st3" d="M55.7,37.2c0,0-0.1,0-0.1,0C55.6,37.2,55.6,37.2,55.7,37.2z"/>
	<path class="st2" d="M61.4,36.8C61.5,36.8,61.5,36.8,61.4,36.8c0.1,0,0.2,0.1,0.2,0.2c0.1,0.1,0.2,0.2,0.2,0.3c0-0.1,0-0.1,0-0.2
		c0-0.2,0.1-0.3,0-0.5c-0.2-0.2-0.4-0.2-0.4-0.2c0,0,0,0,0,0C61.5,36.4,61.5,36.7,61.4,36.8z"/>
	<path class="st2" d="M61.7,36.9c0.1,0.2,0.2,0.4,0.2,0.4s0,0,0-0.1C61.9,37.2,61.8,37,61.7,36.9z"/>
	<path class="st2" d="M57.4,36.8c-0.1,0-0.3,0.1-0.4,0.3c0,0,0,0.1,0,0.1c0.2,0,0.3,0,0.5,0C57.4,37.1,57.3,37,57.4,36.8z"/>
	<path class="st2" d="M57,37.2c0,0.2,0.1,0.6,0.1,0.6s0.1-0.2,0.3-0.4c0.1-0.1,0.1-0.1,0.1-0.2c0,0-0.1,0-0.1-0.1
		C57.3,37.2,57.2,37.2,57,37.2z"/>
	<path class="st2" d="M59.5,36.7c0.1,0.1,0.2,0.2,0.3,0.3c0.7-0.1,1.3-0.1,1.5-0.2c0.1,0,0.2-0.1,0.2-0.1c0,0,0,0,0,0
		c-0.2-0.1,0-0.4,0-0.5c0-0.1-0.1-0.1-0.2-0.1c-0.2,0-0.3,0.1-0.5,0.1l0,0C60.3,36.5,59.9,36.7,59.5,36.7z M60.5,36.7
		c-0.1,0-0.1,0-0.1,0c0,0,0,0.1,0,0.1c0,0-0.1,0-0.1,0c-0.1,0-0.1,0-0.2,0c0,0.1,0,0.1-0.1,0.1c0,0-0.1,0-0.1,0c0,0,0-0.1,0-0.2
		c0,0,0.1,0,0.2,0c0.1,0,0.1,0,0.1,0C60.3,36.6,60.4,36.5,60.5,36.7C60.5,36.6,60.5,36.7,60.5,36.7z M60.8,36.5c0.1,0,0.1,0.1,0.1,0
		c0,0,0.1-0.1,0.1-0.1c0,0,0.2,0,0.2,0c0,0,0,0.1-0.1,0.1c-0.1,0-0.2,0-0.2,0c0,0-0.1,0.1-0.1,0.1C60.8,36.7,60.8,36.6,60.8,36.5
		c0,0.1,0,0.2,0,0.2S60.7,36.5,60.8,36.5z"/>
	<path class="st2" d="M57.9,36.6c-0.3,0-0.5-0.1-0.5,0.2c0.1,0,0.2,0.4,0.2,0.4s0,0,0,0c0.5,0,1-0.1,1.6-0.1c0-0.1,0.1-0.3,0.2-0.4
		c-0.7,0.1-1.3-0.1-1.3-0.1l0,0C58,36.6,58,36.6,57.9,36.6z M58.6,36.8c0.1,0,0.2,0,0.3,0.1c0,0,0.1,0,0.1,0c0.1,0,0.2,0,0.1,0.1
		c0,0.1-0.2,0.1-0.2,0.1c-0.1,0-0.1-0.1-0.2-0.1c-0.1-0.1-0.1,0-0.1,0.1c0,0.1-0.1,0-0.1-0.1C58.5,36.9,58.5,36.8,58.6,36.8z
		 M58.3,36.9c0,0,0,0.2,0,0.2c0,0-0.1,0-0.1,0c0,0,0-0.1-0.1-0.1c0,0-0.1,0-0.1,0c-0.1,0-0.2,0-0.2,0c0,0-0.1-0.1-0.1-0.1
		c0,0,0.1,0,0.2,0c0.1,0,0.2,0,0.2,0C58.1,36.9,58.2,36.9,58.3,36.9z"/>
	<path class="st2" d="M60.2,36.5l-0.1-0.1c-0.2,0-0.5,0.1-0.7,0.1l-0.1,0.2c0,0,0,0,0,0c0,0,0,0,0,0c0.4,0,0.9-0.2,1.2-0.4l0,0
		c-0.2,0-0.4,0.1-0.6,0.1L60.2,36.5z"/>
	<path class="st2" d="M59.4,36.7C59.4,36.7,59.4,36.7,59.4,36.7l0.1-0.2c-0.1,0-0.1,0-0.2,0L59.4,36.7l-0.1-0.2
		c-0.2,0-0.4,0-0.5,0.1l0,0.1l0-0.1c-0.3,0-0.5,0-0.6,0l0,0C58.1,36.6,58.7,36.8,59.4,36.7z"/>
	<path class="st2" d="M59.7,37.2c0.1,0,0.1,0,0.1,0c0.4,0,1.1-0.2,1.4-0.3c-0.3,0-0.9,0.1-1.5,0.2C59.7,37.1,59.7,37.1,59.7,37.2z"
		/>
	<path class="st2" d="M59.2,37.1c-0.5,0-1.1,0.1-1.6,0.1c0,0,0,0.1,0,0.1c0,0,0,0,0,0c0.4,0.1,1,0,1.6-0.1
		C59.2,37.2,59.2,37.2,59.2,37.1C59.2,37.1,59.2,37.1,59.2,37.1z"/>
	<path class="st2" d="M61.4,36.8c0.1-0.1,0.1-0.4,0-0.5C61.4,36.4,61.3,36.7,61.4,36.8z"/>
	<path class="st2" d="M57.5,37.2c0,0,0.1,0,0.1,0c0,0,0,0,0,0s-0.2-0.3-0.2-0.4C57.3,37,57.4,37.1,57.5,37.2z"/>
	<path class="st2" d="M57.6,37.2c0,0-0.1,0-0.1,0C57.6,37.3,57.6,37.3,57.6,37.2C57.6,37.3,57.6,37.2,57.6,37.2z"/>
	<path class="st2" d="M59.6,37.8c0,0,0.1-0.4,0.2-0.6c0,0,0,0,0,0c-0.1,0-0.3,0.1-0.5,0.1C59.3,37.4,59.6,37.8,59.6,37.8z"/>
	<path class="st2" d="M59.4,36.7L59.4,36.7C59.4,36.7,59.4,36.7,59.4,36.7c-0.1,0.1-0.2,0.2-0.2,0.4c0.2,0,0.4,0,0.6-0.1
		C59.7,36.9,59.5,36.7,59.4,36.7C59.5,36.7,59.4,36.7,59.4,36.7L59.4,36.7z"/>
	<path class="st2" d="M59.4,36.7L59.4,36.7C59.4,36.7,59.4,36.7,59.4,36.7C59.4,36.7,59.4,36.7,59.4,36.7z"/>
	<path class="st2" d="M59.5,36.7C59.5,36.7,59.4,36.7,59.5,36.7C59.4,36.7,59.4,36.7,59.5,36.7L59.5,36.7
		C59.4,36.7,59.5,36.7,59.5,36.7z"/>
	<path class="st2" d="M59.2,37.2C59.2,37.2,59.2,37.2,59.2,37.2c0.2,0.1,0.4,0,0.6,0c0,0,0-0.1,0-0.1C59.6,37.1,59.4,37.1,59.2,37.2
		C59.2,37.1,59.2,37.1,59.2,37.2z"/>
	<path class="st3" d="M60.8,36.6c0,0,0.1,0.1,0.1,0.1c0,0,0.1-0.1,0.1-0.1c0,0,0.1,0,0.2,0c0.1,0,0.1-0.1,0.1-0.1c0,0-0.2,0-0.2,0
		c0,0-0.1,0.1-0.1,0.1C60.9,36.5,60.8,36.5,60.8,36.6c-0.1-0.1,0,0.1,0,0.1S60.8,36.6,60.8,36.6z"/>
	<path class="st3" d="M60.5,36.6c-0.1,0-0.2,0-0.2,0.1c0,0.1-0.1,0-0.1,0c-0.1,0-0.2,0-0.2,0c0,0,0,0.2,0,0.2c0,0,0,0,0.1,0
		c0,0,0,0,0.1-0.1c0-0.1,0.1,0,0.2,0c0.1,0,0.1,0,0.1,0c0,0,0-0.1,0-0.1C60.4,36.7,60.4,36.7,60.5,36.6
		C60.5,36.7,60.5,36.6,60.5,36.6z"/>
	<path class="st3" d="M58.6,37c0-0.1,0.1-0.1,0.1-0.1c0.1,0.1,0.1,0.1,0.2,0.1c0.1,0,0.2,0,0.2-0.1c0,0-0.1-0.1-0.1-0.1
		c-0.1,0-0.1,0-0.1,0c0,0-0.2-0.1-0.3-0.1C58.5,36.8,58.5,36.9,58.6,37C58.5,37,58.5,37.1,58.6,37z"/>
	<path class="st3" d="M57.7,36.9C57.7,36.9,57.7,37,57.7,36.9c0.1,0.1,0.2,0.1,0.3,0.1c0.1,0,0.1,0,0.1,0c0,0,0,0.1,0.1,0.1
		c0,0,0.1,0,0.1,0c0,0,0-0.1,0-0.2c0,0-0.1,0-0.2,0c-0.1,0-0.2,0-0.2,0C57.8,37,57.7,36.9,57.7,36.9z"/>
	<path class="st4" d="M52.5,38.4C52.4,38.4,52.5,38.5,52.5,38.4C52.5,38.5,52.6,38.4,52.5,38.4z"/>
	<path class="st4" d="M52.8,38.6c0,0,0-0.1,0-0.1S52.8,38.6,52.8,38.6z"/>
	<path class="st4" d="M53.1,38.6c0,0,0,0.1,0,0.1c0,0,0.1-0.1,0.1-0.1C53.3,38.6,53.1,38.6,53.1,38.6z"/>
	<path class="st4" d="M58,39.2C58,39.2,58.1,39.3,58,39.2c0.1,0,0-0.1,0-0.1C58,39.1,58,39.1,58,39.2z"/>
	<path class="st4" d="M58.2,39.2C58.2,39.2,58.3,39.3,58.2,39.2c0.1-0.1,0-0.2,0-0.2S58.1,39.2,58.2,39.2z"/>
	<path class="st4" d="M57.9,38.3c0,0-0.2,0-0.2,0C57.7,38.4,57.9,38.3,57.9,38.3z"/>
	<path class="st4" d="M57.9,38c0,0-0.2,0-0.2,0C57.8,38.1,57.8,38,57.9,38z"/>
	<path class="st4" d="M60.3,38.5C60.3,38.4,60.3,38.5,60.3,38.5c-0.1-0.1-0.1-0.2-0.1-0.2s-0.1-0.1-0.1-0.1c0,0-0.1-0.1-0.2-0.1
		c0-0.1-0.1-0.2-0.1-0.2s0,0.2,0,0.3c0,0-0.1,0.1-0.1,0.1c0,0,0,0.2,0,0.3c0.1,0,0.4,0,0.4,0s0,0.3,0.1,0.3
		C60.3,38.9,60.5,38.8,60.3,38.5C60.4,38.5,60.3,38.5,60.3,38.5L60.3,38.5L60.3,38.5z"/>
	<polygon class="st4" points="60.3,38.5 60.3,38.5 60.3,38.5 	"/>
	<path class="st4" d="M59.4,38.4c0,0-0.1,0-0.1,0s-0.3,0.3-0.1,0.3c0.1,0.1,0.2,0.1,0.2,0.1S59.2,39,59.3,39c0,0,0.2-0.2,0.2-0.3
		h-0.1C59.4,38.8,59.5,38.4,59.4,38.4z"/>
	<path class="st4" d="M59.5,38.7C59.5,38.7,59.5,38.7,59.5,38.7l0.2,0c0,0,0-0.1,0-0.1c0,0,0,0,0,0C59.7,38.6,59.6,38.7,59.5,38.7z"
		/>
	<path class="st4" d="M60.8,37.7c0,0-0.3-0.1-0.2,0C60.7,37.8,60.8,37.7,60.8,37.7z"/>
</g>
</svg>
