<?xml version="1.0" encoding="utf-8"?>
<!-- Generator: Adobe Illustrator 28.1.0, SVG Export Plug-In . SVG Version: 6.00 Build 0)  -->
<svg version="1.1" id="Layer_1" xmlns="http://www.w3.org/2000/svg" xmlns:xlink="http://www.w3.org/1999/xlink" x="0px" y="0px"
	 viewBox="0 0 114 60" style="enable-background:new 0 0 114 60;" xml:space="preserve">
<style type="text/css">
	.st0{fill:#FF0310;}
	.st1{fill:#FFFFFF;}
</style>
<g>
	<rect x="-0.1" y="-0.1" class="st0" width="114.1" height="60.2"/>
	<g>
		<g>
			<path class="st1" d="M60,13L60,13c-9-0.5-9.3,8.9-9.3,8.9c-0.1,6,4.8,8.3,4.8,8.3c-2.2-2.6-2.1-3.4-2.3-5.2
				c-0.2-1.8,0.9-3.9,0.9-3.9c0.2-0.2,0.2,0.1,0.2,0.1c-0.4,0.6-1.4,2.9-0.7,5.4c0.6,2.6,2.1,3.4,2.1,3.4c-0.8-0.8-0.9-1.9-0.9-2.5
				c0-0.6,0.3-2.6,2.2-3.6c1.9-1,1.9-2.1,2.3-3.6c0.4-1.5-0.5-2.7-0.7-3.2c-0.3-0.5-0.4-1.3-0.3-2.2C58.6,13.9,60,13,60,13z
				 M55.6,20.5l-0.6,1.1l-0.2-1.3l-1.2-0.2l1.1-0.6l-0.2-1.3l0.8,0.9l1.1-0.6L56,19.8l0.8,0.9L55.6,20.5z"/>
		</g>
		<g>
			<path class="st1" d="M72.5,28.8L72.5,28.8c-2.5-9.5-10.7-6.7-10.7-6.7c-5.2,1.9-5.6,7.7-5.6,7.7c1.5-3.1,2.3-3.3,3.8-4.1
				c1.5-0.8,3.6-0.3,3.6-0.3c0.2,0.1,0,0.3,0,0.3c-0.7-0.2-2.9-0.5-4.9,1c-2,1.5-2.2,3.3-2.2,3.3c0.4-1.1,1.3-1.6,1.8-1.8
				c0.5-0.2,2.3-0.5,3.8,1.1c1.5,1.6,2.4,1.3,3.8,1.2c1.4-0.1,2.2-1.4,2.6-1.8c0.4-0.4,1-0.9,1.8-1C71.2,27.7,72.5,28.8,72.5,28.8z
				 M64.6,26.8l-1.2-0.2l1.1-0.6l-0.2-1.3l0.8,0.9l1.1-0.6l-0.5,1.2l0.8,0.9l-1.2-0.2l-0.5,1.2L64.6,26.8z"/>
		</g>
		<g>
			<path class="st1" d="M62.5,47L62.5,47c7.5-5.4,2.7-13.3,2.7-13.3c-3.2-4.9-8.4-3.5-8.4-3.5c3.2,0.6,3.5,1.4,4.6,2.7
				c1.1,1.4,1.3,3.7,1.3,3.7c0,0.3-0.3,0-0.3,0c0-0.8-0.5-3.2-2.4-4.9c-1.9-1.6-3.5-1.4-3.5-1.4c1,0.1,1.7,0.9,2.1,1.4
				c0.3,0.5,1.2,2.3,0.2,4.3c-1,2.1-0.4,2.9,0.1,4.4c0.5,1.5,1.8,1.9,2.3,2.1c0.5,0.3,1,0.8,1.4,1.6C63.1,45.3,62.5,47,62.5,47z
				 M61.9,38.1l-0.2-1.3l0.8,0.9l1.1-0.6l-0.6,1.1l0.8,0.9l-1.2-0.2l-0.6,1.1L62,38.9l-1.2-0.2L61.9,38.1z"/>
		</g>
		<g>
			<path class="st1" d="M43.6,42.3L43.6,42.3C50.6,48.4,56,41,56,41c3.2-4.8,0.5-9.8,0.5-9.8c0.4,3.5-0.1,4.1-1,5.7
				c-0.8,1.6-2.8,2.5-2.8,2.5c-0.3,0.1-0.1-0.3-0.1-0.3c0.7-0.2,2.6-1.5,3.5-4c0.8-2.5,0.1-4.1,0.1-4.1c0.2,1.1-0.3,2.1-0.6,2.6
				c-0.3,0.5-1.6,1.9-3.7,1.5c-2.1-0.4-2.7,0.4-3.8,1.4c-1.1,1-1.1,2.5-1.1,3.1c-0.1,0.6-0.3,1.3-1,2C45.3,42.4,43.6,42.3,43.6,42.3
				z M51.2,38.9l1.1-0.6l-0.6,1.1l0.8,0.9l-1.2-0.2l-0.6,1.1l-0.2-1.3l-1.2-0.2l1.1-0.6L50.4,38L51.2,38.9z"/>
		</g>
		<g>
			<path class="st1" d="M42.3,20.9L42.3,20.9C38.9,30.1,47,33.5,47,33.5c5.1,2,8.7-2.3,8.7-2.3c-2.9,1.5-3.6,1-5.2,0.6
				c-1.6-0.4-3-2.2-3-2.2c-0.1-0.2,0.2-0.2,0.2-0.2c0.4,0.6,2,2.3,4.5,2.5c2.4,0.2,3.6-1.1,3.6-1.1c-0.9,0.6-1.9,0.3-2.4,0.1
				c-0.5-0.2-2.1-1.1-2.4-3.5c-0.3-2.3-1.1-2.7-2.3-3.6c-1.2-0.9-2.5-0.4-3-0.3c-0.5,0.1-1.2,0-2-0.5C42.7,22.7,42.3,20.9,42.3,20.9
				z M47.4,27.9l0.8,0.9L47,28.6l-0.6,1.1l-0.1-1.3l-1.2-0.3l1.1-0.5l-0.1-1.3l0.8,1l1.1-0.5L47.4,27.9z"/>
		</g>
	</g>
</g>
</svg>
