<?xml version="1.0" encoding="utf-8"?>
<!-- Generator: Adobe Illustrator 28.1.0, SVG Export Plug-In . SVG Version: 6.00 Build 0)  -->
<svg version="1.1" id="Layer_1" xmlns="http://www.w3.org/2000/svg" xmlns:xlink="http://www.w3.org/1999/xlink" x="0px" y="0px"
	 viewBox="0 0 114 60" style="enable-background:new 0 0 114 60;" xml:space="preserve">
<style type="text/css">
	.st0{fill:#FF9922;}
	.st1{fill:#FFFFFF;}
	.st2{fill:#008800;}
	.st3{fill:#00008B;}
</style>
<g>
	<g>
		<rect x="0.1" y="0" class="st0" width="113.8" height="19.6"/>
		<rect x="0.1" y="19.6" class="st1" width="113.8" height="20.8"/>
		<rect x="0.1" y="40.4" class="st2" width="113.8" height="19.6"/>
	</g>
	<g>
		<path class="st3" d="M57,21.9c-4.4,0-8,3.6-8,8.1c0,4.4,3.6,8.1,8,8.1c4.4,0,8-3.6,8-8.1C65,25.6,61.4,21.9,57,21.9z M61.6,35.4
			c0-0.1-0.2-0.2-0.3-0.2c-0.2,0-0.4,0.2-0.4,0.4c0,0.1,0.1,0.2,0.2,0.3c-0.3,0.2-0.7,0.4-1,0.6c0-0.2-0.2-0.3-0.3-0.3
			c-0.2,0-0.4,0.2-0.4,0.4c0,0.1,0,0.2,0.1,0.2c-0.4,0.1-0.7,0.2-1.1,0.3c0,0,0,0,0-0.1c0-0.2-0.2-0.4-0.4-0.4
			c-0.2,0-0.4,0.2-0.4,0.4c0,0.1,0,0.1,0,0.2c-0.2,0-0.4,0-0.6,0c-0.2,0-0.4,0-0.6,0c0-0.1,0-0.1,0-0.2c0-0.2-0.2-0.4-0.4-0.4
			c-0.2,0-0.4,0.2-0.4,0.4c0,0,0,0.1,0,0.1c-0.4-0.1-0.8-0.2-1.2-0.3c0.1-0.1,0.1-0.2,0.1-0.3c0-0.2-0.2-0.4-0.4-0.4
			c-0.2,0-0.4,0.2-0.4,0.4c0,0,0,0,0,0c-0.4-0.2-0.7-0.4-1-0.6c0.1,0,0.2-0.2,0.2-0.3c0-0.2-0.2-0.4-0.4-0.4c-0.2,0-0.3,0.1-0.3,0.3
			c-0.3-0.3-0.6-0.6-0.9-0.9c0.2,0,0.3-0.2,0.3-0.4c0-0.2-0.2-0.4-0.4-0.4c-0.2,0-0.3,0.1-0.3,0.2c-0.2-0.3-0.4-0.7-0.6-1.1
			c0,0,0,0,0,0c0.2,0,0.4-0.2,0.4-0.4c0-0.2-0.2-0.4-0.4-0.4c-0.1,0-0.2,0-0.3,0.1c-0.1-0.4-0.3-0.8-0.3-1.2c0,0,0.1,0,0.1,0
			c0.2,0,0.4-0.2,0.4-0.4c0-0.2-0.2-0.4-0.4-0.4c-0.1,0-0.2,0-0.2,0.1c0-0.2,0-0.4,0-0.6c0-0.2,0-0.4,0-0.6c0.1,0,0.1,0.1,0.2,0.1
			c0.2,0,0.4-0.2,0.4-0.4c0-0.2-0.2-0.4-0.4-0.4c0,0-0.1,0-0.1,0c0.1-0.4,0.2-0.8,0.3-1.2c0.1,0.1,0.2,0.1,0.3,0.1
			c0.2,0,0.4-0.2,0.4-0.4c0-0.2-0.2-0.4-0.4-0.4c0,0,0,0,0,0c0.2-0.4,0.4-0.7,0.6-1.1c0.1,0.1,0.2,0.2,0.3,0.2
			c0.2,0,0.4-0.2,0.4-0.4c0-0.2-0.1-0.3-0.3-0.3c0.3-0.3,0.5-0.6,0.8-0.8c0,0.2,0.2,0.3,0.3,0.3c0.2,0,0.4-0.2,0.4-0.4
			c0-0.1-0.1-0.3-0.2-0.3c0.3-0.2,0.7-0.5,1.1-0.6c0,0,0,0,0,0.1c0,0.2,0.2,0.4,0.4,0.4c0.2,0,0.4-0.2,0.4-0.4
			c0-0.1-0.1-0.2-0.2-0.3c0.4-0.1,0.8-0.2,1.2-0.3c0,0,0,0,0,0c0,0.2,0.2,0.4,0.4,0.4c0.2,0,0.4-0.2,0.4-0.4c0,0,0-0.1,0-0.1
			c0.2,0,0.4,0,0.6,0c0.2,0,0.4,0,0.6,0c0,0,0,0.1,0,0.1c0,0.2,0.2,0.4,0.4,0.4s0.4-0.2,0.4-0.4c0,0,0,0,0,0
			c0.4,0.1,0.8,0.2,1.2,0.3c-0.1,0.1-0.1,0.1-0.1,0.2c0,0.2,0.2,0.4,0.4,0.4c0.2,0,0.3-0.1,0.3-0.3c0.4,0.2,0.7,0.4,1,0.6
			c-0.1,0.1-0.2,0.2-0.2,0.3c0,0.2,0.2,0.4,0.4,0.4c0.2,0,0.3-0.1,0.3-0.3c0.3,0.3,0.6,0.5,0.8,0.8c-0.1,0-0.2,0.2-0.2,0.3
			c0,0.2,0.2,0.4,0.4,0.4c0.1,0,0.2-0.1,0.3-0.2c0.2,0.3,0.4,0.7,0.6,1c0,0,0,0,0,0c-0.2,0-0.4,0.2-0.4,0.4c0,0.2,0.2,0.4,0.4,0.4
			c0.1,0,0.2,0,0.3-0.1c0.1,0.4,0.2,0.8,0.3,1.2c0,0-0.1,0-0.1,0c-0.2,0-0.4,0.2-0.4,0.4c0,0.2,0.2,0.4,0.4,0.4c0.1,0,0.1,0,0.2-0.1
			c0,0.2,0,0.4,0,0.6c0,0.2,0,0.4,0,0.6c-0.1,0-0.1,0-0.2,0c-0.2,0-0.4,0.2-0.4,0.4c0,0.2,0.2,0.4,0.4,0.4c0,0,0.1,0,0.1,0
			c-0.1,0.4-0.2,0.8-0.3,1.2c-0.1-0.1-0.2-0.1-0.3-0.1c-0.2,0-0.4,0.2-0.4,0.4c0,0.2,0.2,0.4,0.4,0.4c0,0,0,0,0,0
			c-0.2,0.4-0.4,0.7-0.6,1c-0.1-0.1-0.2-0.2-0.3-0.2c-0.2,0-0.4,0.2-0.4,0.4c0,0.2,0.1,0.3,0.2,0.3C62.1,34.9,61.9,35.1,61.6,35.4z"
			/>
		<path class="st3" d="M57,28.6c-0.8,0-1.4,0.6-1.4,1.4c0,0.8,0.6,1.4,1.4,1.4c0.8,0,1.4-0.6,1.4-1.4C58.4,29.2,57.8,28.6,57,28.6z"
			/>
		<polygon class="st3" points="57.3,27.2 57,23.1 57,23.1 56.7,27.2 57,28.6 57,28.6 57,28.6 57,28.6 57,28.6 		"/>
		<polygon class="st3" points="54.2,29.7 50.2,30 50.2,30 54.2,30.3 55.6,30 55.6,30 55.6,30 55.6,30 55.6,30 		"/>
		<polygon class="st3" points="55.3,27.8 52.2,25.1 52.2,25.1 54.8,28.2 56,29 56,29 56,29 56,29 56,29 		"/>
		<polygon class="st3" points="54.8,28.3 51.1,26.6 51.1,26.6 54.5,28.9 55.8,29.3 55.9,29.3 55.9,29.3 55.9,29.3 55.8,29.3 		"/>
		<polygon class="st3" points="54.4,29 50.4,28.2 50.4,28.2 54.2,29.6 55.6,29.6 55.7,29.6 55.6,29.6 55.7,29.6 55.6,29.6 		"/>
		<polygon class="st3" points="55.9,27.4 53.5,24.1 53.5,24.1 55.3,27.8 56.3,28.8 56.3,28.8 56.3,28.8 56.3,28.8 56.3,28.8 		"/>
		<polygon class="st3" points="56.6,27.2 55.3,23.3 55.3,23.3 56,27.4 56.6,28.6 56.6,28.7 56.6,28.6 56.6,28.7 56.6,28.6 		"/>
		<polygon class="st3" points="59.8,29.7 63.9,30 63.9,30 59.8,30.4 58.4,30 58.4,30 58.4,30 58.4,30 58.4,30 		"/>
		<polygon class="st3" points="58.8,27.8 61.9,25.1 61.9,25.1 59.2,28.2 58,29 58,29 58,29 58,29 58,29 		"/>
		<polygon class="st3" points="59.2,28.3 62.9,26.6 62.9,26.6 59.6,28.9 58.2,29.3 58.2,29.3 58.2,29.3 58.2,29.3 58.2,29.3 		"/>
		<polygon class="st3" points="59.7,29 63.6,28.2 63.6,28.2 59.8,29.6 58.4,29.6 58.4,29.6 58.4,29.6 58.4,29.6 58.4,29.6 		"/>
		<polygon class="st3" points="58.1,27.4 60.5,24.1 60.5,24.1 58.7,27.8 57.7,28.8 57.7,28.8 57.7,28.8 57.7,28.8 57.7,28.8 		"/>
		<polygon class="st3" points="57.4,27.2 58.7,23.3 58.7,23.3 58.1,27.4 57.4,28.6 57.4,28.7 57.4,28.6 57.4,28.7 57.4,28.6 		"/>
		<polygon class="st3" points="57.3,32.8 57,36.9 57,36.9 56.7,32.8 57,31.4 57,31.4 57,31.4 57,31.4 57,31.4 		"/>
		<polygon class="st3" points="55.3,32.2 52.2,34.9 52.2,34.9 54.8,31.8 56,31 56,31 56,31 56,31 56,31 		"/>
		<polygon class="st3" points="54.8,31.7 51.1,33.4 51.1,33.4 54.5,31.1 55.8,30.7 55.9,30.7 55.9,30.7 55.9,30.7 55.8,30.7 		"/>
		<polygon class="st3" points="54.4,31.1 50.4,31.8 50.4,31.8 54.2,30.4 55.6,30.4 55.7,30.4 55.6,30.4 55.7,30.4 55.6,30.4 		"/>
		<polygon class="st3" points="55.9,32.6 53.5,35.9 53.5,35.9 55.3,32.2 56.3,31.2 56.3,31.2 56.3,31.2 56.3,31.2 56.3,31.2 		"/>
		<polygon class="st3" points="56.6,32.8 55.3,36.7 55.3,36.7 56,32.7 56.6,31.4 56.6,31.4 56.6,31.4 56.6,31.4 56.6,31.4 		"/>
		<polygon class="st3" points="58.8,32.2 61.9,34.9 61.9,34.9 59.2,31.8 58,31 58,31 58,31 58,31 58,31 		"/>
		<polygon class="st3" points="59.2,31.7 62.9,33.4 62.9,33.4 59.6,31.1 58.2,30.7 58.2,30.7 58.2,30.7 58.2,30.7 58.2,30.7 		"/>
		<polygon class="st3" points="59.7,31.1 63.6,31.8 63.6,31.8 59.8,30.4 58.4,30.4 58.4,30.4 58.4,30.4 58.4,30.4 58.4,30.4 		"/>
		<polygon class="st3" points="58.1,32.6 60.5,35.9 60.5,35.9 58.7,32.2 57.7,31.2 57.7,31.2 57.7,31.2 57.7,31.2 57.7,31.2 		"/>
		<polygon class="st3" points="57.4,32.8 58.7,36.7 58.7,36.7 58.1,32.7 57.4,31.4 57.4,31.4 57.4,31.4 57.4,31.4 57.4,31.4 		"/>
	</g>
</g>
</svg>
