<?xml version="1.0" encoding="utf-8"?>
<!-- Generator: Adobe Illustrator 28.1.0, SVG Export Plug-In . SVG Version: 6.00 Build 0)  -->
<svg version="1.1" id="Layer_1" xmlns="http://www.w3.org/2000/svg" xmlns:xlink="http://www.w3.org/1999/xlink" x="0px" y="0px"
	 viewBox="0 0 114 60" style="enable-background:new 0 0 114 60;" xml:space="preserve">
<style type="text/css">
	.st0{fill:#308B43;}
	.st1{fill:#F9D905;}
</style>
<g>
	<rect x="0.1" y="0" class="st0" width="113.9" height="60.1"/>
	<g>
		<g>
			<polygon class="st1" points="113.9,56.6 113.9,60 102.3,60 56.9,36.6 47.8,31.9 47.6,31.8 0.1,7.2 0.1,0 4.3,0 57.1,27.2 
				57.1,27.2 66.4,32 113.9,56.6 113.9,56.6 			"/>
			<polygon class="st1" points="113.9,0 113.9,8.8 66.6,31.9 66.4,32 56.9,36.6 9,60 0.1,60 0.1,55 32.8,39 32.8,39 47.6,31.8 
				57.1,27.2 57.1,27.2 112.8,0 			"/>
		</g>
		<polygon points="113.9,8.8 66.4,32 113.9,56.6 		"/>
		<polygon points="0.1,7.2 0.1,55 47.8,31.9 		"/>
	</g>
</g>
</svg>
