<?xml version="1.0" encoding="utf-8"?>
<!-- Generator: Adobe Illustrator 28.1.0, SVG Export Plug-In . SVG Version: 6.00 Build 0)  -->
<svg version="1.1" id="Layer_1" xmlns="http://www.w3.org/2000/svg" xmlns:xlink="http://www.w3.org/1999/xlink" x="0px" y="0px"
	 viewBox="0 0 114 60" style="enable-background:new 0 0 114 60;" xml:space="preserve">
<style type="text/css">
	.st0{fill:#ED1C24;}
	.st1{fill:#FFFFFF;}
	.st2{fill:#00A651;}
</style>
<g>
	<g>
		<rect y="0" class="st0" width="114" height="15"/>
		<rect y="44.2" class="st0" width="114" height="15.9"/>
		<rect y="15" class="st1" width="114" height="29.1"/>
	</g>
	<g>
		<g>
			<path class="st2" d="M48.6,42.9c0.5-0.4,1.1-0.8,1.6-1.2c1.4-0.1,2.1-1.1,2.7-2.1c0.3-0.5,0.5-1.1,0.7-1.7c0.2-1-0.6-1.9-1.6-1.6
				c-0.9,0.2-1.7,0.6-2.5,0.9c-0.9,0.3-1.8,0.5-2.7,0.6c-0.6,0.1-1.2-0.1-1.7-0.4c0,0,0-0.1,0-0.1c0.3,0,0.6-0.1,0.9-0.1
				c1,0,1.9-0.3,2.6-0.9c0.2-0.2,0.5-0.2,0.7-0.3c0.3-0.2,0.7-0.4,1-0.7c0.3-0.3,0.2-0.6-0.2-0.7c-0.2,0-0.4-0.1-0.6,0
				c-0.6,0.1-1.3,0.3-1.8,0.8c-0.6,0.6-1.3,0.7-2.1,0.8c-0.5,0.1-0.9,0-1.4-0.1c-0.2,0-0.3-0.2-0.5-0.3c0,0,0-0.1,0-0.1
				c0.3,0,0.5-0.1,0.8-0.1c0.4,0,0.7-0.2,1-0.4c0.5-0.5,0.9-1,1.4-1.5c0.2-0.2,0.4-0.3,0.7-0.3c0.7,0,1.2-0.5,1.6-1
				c0.2-0.2,0.1-0.5-0.1-0.8c-0.3-0.2-0.5-0.6-0.9-0.4c-0.4,0.2-0.8,0.4-1.2,0.6c-0.2,0.1-0.5,0-0.8,0c-0.2,0-0.2-0.2-0.1-0.3
				c0.1-0.1,0.2-0.2,0.3-0.3c0.4-0.4,0.9-0.8,1.3-1.1c0.4-0.3,0.8-0.5,1.3-0.6c0.3-0.1,0.5-0.2,0.7-0.4c0.2-0.2,0.4-0.4,0.6-0.5
				c0.3-0.3,0.4-0.6,0.3-1c0-0.1-0.1-0.2-0.1-0.3c-0.3-0.6-0.5-0.7-1.1-0.5c-0.3,0.1-0.6,0.2-0.9,0.2c-0.2,0-0.4,0-0.7,0
				c0.1-0.1,0.1-0.2,0.1-0.2c0.8-0.5,1.6-1.1,2.5-1.6c0.4-0.2,0.7-0.4,0.9-0.8c0.2-0.4,0.5-0.6,0.9-0.7c0.3,0,0.6-0.1,0.6-0.5
				c0.1-0.3,0.3-0.2,0.6-0.2c0.5,0,0.7-0.1,0.8-0.5c0.1-0.3,0-0.5-0.3-0.6c-0.2-0.1-0.6,0.2-0.6,0.4c0,0.1,0,0.2,0,0.3
				c-0.1,0.2-0.2,0.3-0.4,0.1c-0.2-0.2-0.4-0.2-0.6-0.1c-0.2,0.1-0.4,0.1-0.6,0.1c0.3-0.5,0.8-0.9,1.2-1.2c0.4-0.3,0.9-0.5,1.3-0.7
				c0.1,0,0.2-0.1,0.3-0.2c0.1-0.1,0.2-0.3,0.3-0.4c-0.2,0-0.4-0.1-0.6-0.1c-0.3,0.1-0.7,0.2-1,0.3c0,0,0-0.1-0.1-0.1
				c0.1-0.1,0.2-0.1,0.3-0.2c0.5-0.4,1-0.7,1.5-1.1c0.5-0.4,0.9-0.9,1.2-1.6c0.1-0.2,0.2-0.4,0.3-0.6c0.2,0.2,0.3,0.4,0.4,0.5
				c0.3,0.5,0.6,0.9,0.9,1.4c0.4,0.7,1,1,1.7,1c0.8,0,1.5,0.3,2.2,0.8c0.4,0.3,0.9,0.5,1.3,0.7c0.2,0.1,0.6,0.3,0.5,0.6
				c-0.1,0.3-0.5,0.2-0.8,0.1c-0.2,0-0.5-0.1-0.7-0.2c-0.1,0-0.2,0-0.4,0c0.8,1,2,1.5,3,2c-1,0.2-1.9-0.1-2.7-0.6
				c-0.3-0.2-0.8-0.1-0.9,0.3c0,0.1,0.1,0.3,0.2,0.4c0.4,0.3,0.8,0.5,1.1,0.8c1.1,0.9,2.2,1.8,3.4,2.4c0.6,0.3,1.2,0.7,1.8,1.1
				c-0.6,0.1-1.1,0.2-1.6,0c-0.4-0.1-0.8-0.3-1.2-0.5c-0.3-0.1-0.6,0-0.9,0.2c-0.3,0.3-0.3,0.4,0,0.6c0.6,0.3,1.2,0.5,1.9,0.6
				c0.6,0.1,1.3,0.2,1.9,0.4c0.1,0,0.3,0.1,0.5,0.2C68,30,67.9,30,67.8,30c-0.8,0.1-1.6,0.1-2.3,0.2c-0.5,0-1,0-1.4,0
				c-0.1,0-0.3,0.1-0.3,0.1c0,0.1,0,0.3,0.1,0.4c0.5,0.4,1,0.8,1.7,0.6c0.3-0.1,0.5,0,0.7,0.2c0.6,0.6,1.2,1.2,1.8,1.8
				c0.2,0.2,0.5,0.3,0.7,0.5c0.1,0.1,0.3,0.2,0.5,0.3c-0.5,0.2-1,0.2-1.5,0c-0.4-0.2-0.8-0.4-1.3-0.6c-0.3-0.2-0.6-0.2-0.9,0.1
				c-0.2,0.2-0.5,0.5-0.7,0.7c0.2,0.1,0.3,0.3,0.5,0.4c0.9,0.5,1.8,1,2.6,1.6c0.7,0.5,1.4,1.1,2.1,1.6c0.1,0.1,0.1,0.3,0.2,0.4
				c-0.2,0-0.3,0.1-0.5,0c-1-0.2-1.9-0.6-2.8-1.1c-0.7-0.4-1.5-0.6-2.4-0.6c-0.5,0-1,0-1.5-0.1c-0.4-0.1-0.9-0.2-1.3-0.5
				c-1-0.6-1.9-0.3-2.1,0.8c-0.2,1.2-0.1,2.3,0.4,3.4c0.4,0.8,1.1,1.3,1.8,1.8c0.3,0.3,0.7,0.6,1,0.8c0.1,0,0.1,0.1,0.1,0.2
				c0,0,0,0.1-0.1,0.1c-0.3-0.2-0.7-0.3-1-0.5c-0.5-0.4-1-0.7-1.7-0.8c-0.2,0-0.4-0.2-0.5-0.3c-0.3-0.2-0.7-0.2-1-0.2
				c-0.3,0-0.3,0.2-0.2,0.4c0.2,0.3,0.4,0.5,0.6,0.8c0.1,0.1,0.1,0.2,0.1,0.4c-0.6-0.6-1.5-0.7-1.9-1.5c-0.2-0.4-0.7-0.8-1.2-1
				c0,0.2-0.1,0.4-0.1,0.6c-0.2-0.1-0.4-0.3-0.6-0.4c-0.3-0.2-0.7-0.3-1-0.1c-0.7,0.3-1.3,0.7-1.9,1.1c-0.4,0.2-0.7,0.5-1.2,0.4
				c-0.9,0-1.6,0.4-2.3,0.9c-0.1,0-0.1,0.1-0.2,0.1C48.7,43,48.7,43,48.6,42.9z M61.6,33.4c0.6,0,1.4-0.5,1.5-0.9c0-0.1,0-0.1,0-0.2
				c-0.1-0.3-0.9-0.7-1.2-0.5c-0.4,0.2-0.7,0.5-1.1,0.8c-0.1,0.1-0.1,0.3,0,0.3C61.1,33.1,61.4,33.3,61.6,33.4z M64.6,34
				C64.6,34,64.6,34,64.6,34c0.1-0.1,0.1-0.1,0.2-0.1c0.4-0.2,0.7-0.6,0.8-1c0-0.1-0.1-0.2-0.2-0.3c-0.3-0.1-0.6-0.2-0.8-0.2
				c-0.6-0.1-1,0.1-1.3,0.7c-0.1,0.2-0.1,0.4,0.1,0.4C63.8,33.7,64.2,33.9,64.6,34z M49.9,30.3c-0.4,0-0.6,0.1-0.6,0.4
				c0.1,0.5,0.7,1,1.1,0.9c0.5-0.1,1-0.3,1.4-0.6c0.2-0.1,0.4-0.3,0.5-0.5c-0.2,0-0.5-0.1-0.7-0.1c-0.4,0-0.8,0-1.1,0
				C50.3,30.4,50.1,30.3,49.9,30.3z M60.6,26.7c0,0,0,0.1,0.1,0.1c0.2-0.1,0.4-0.3,0.5-0.5c0.1-0.1-0.1-0.4-0.2-0.5
				c-0.3-0.3-0.5-0.6-1-0.5c-0.5,0.1-0.7,0.4-0.8,0.9c0,0.3,0.1,0.4,0.3,0.4C59.9,26.7,60.3,26.7,60.6,26.7z M53.7,24.9
				c0.3,0,0.5-0.1,0.7-0.4c0.2-0.2,0.3-0.4,0.5-0.5c0.3-0.2,0.3-0.5,0-0.8c-0.2-0.3-0.4-0.2-0.6,0c-0.4,0.4-0.9,0.9-1.3,1.3
				c0,0,0.1,0.3,0.2,0.3C53.3,24.9,53.5,24.9,53.7,24.9z M51.6,27.3c0.2-0.1,0.5-0.2,0.7-0.4c0.2-0.4-0.3-0.6-0.4-0.9
				c-0.1-0.1-0.3-0.2-0.4-0.2c-0.2,0-0.4,0.1-0.7,0.2c-0.1,0-0.2,0.1-0.2,0.2C50.6,26.6,51.1,27.3,51.6,27.3z M63,27.9
				c0-0.4-0.1-0.5-0.8-0.5c-0.3,0-0.7,0.5-0.7,0.8c0,0.3,0.4,0.5,0.7,0.5C62.8,28.7,63,28.5,63,27.9z M57.6,30.6
				c0.5-0.5,0.3-1.5-0.2-1.8c-0.1,0-0.2-0.1-0.3,0c-0.2,0.1-0.4,0.2-0.4,0.4c-0.1,0.3,0,0.7,0.2,0.9C57.1,30.3,57.3,30.4,57.6,30.6z
				 M55.4,23c0,0.5,0.3,0.7,0.6,0.5c0.3-0.2,0.6-0.4,1-0.4c0.2,0,0.4-0.2,0.3-0.5c-0.2-0.3-0.5-0.5-0.8-0.4
				c-0.3,0.2-0.6,0.3-0.8,0.5C55.5,22.8,55.5,22.9,55.4,23z M53.8,34c0-0.1-0.1-0.2-0.2-0.4c-0.1-0.2-0.3-0.4-0.4-0.6
				c-0.1-0.1-0.2-0.3-0.2-0.2c-0.1,0-0.3,0.2-0.3,0.3c0,0.2,0,0.3,0,0.5c0.1,0.2,0.2,0.5,0.3,0.7c0.1,0.2,0.2,0.5,0.5,0.4
				c0.2-0.1,0.2-0.4,0.4-0.6C53.8,34.1,53.8,34.1,53.8,34z M57.3,34.1c0-0.4-0.1-0.5-0.4-0.5c-0.1,0-0.3-0.1-0.3-0.2
				c-0.1-0.2-0.3-0.2-0.4-0.1C56,33.4,56,33.6,56,33.7c0,0.2,0.1,0.4,0.1,0.6c0.1,0.3,0.3,0.4,0.6,0.4C57,34.7,57.3,34.3,57.3,34.1z
				 M53.2,25.6c-0.1,0-0.2,0-0.3,0c-0.4,0.1-0.5,0.2-0.4,0.6c0.2,0.6,0.5,0.7,1,0.2c0.1-0.1,0.1-0.1,0.2-0.2
				c0.2-0.3,0.2-0.5-0.2-0.6C53.4,25.6,53.2,25.6,53.2,25.6z M58.2,26.3c0.2-0.2,0.5-0.3,0.6-0.5c0.2-0.2,0.1-0.5-0.1-0.7
				c-0.1-0.1-0.3-0.2-0.4-0.2c-0.3,0-0.4,0.3-0.4,0.5c0,0.1-0.1,0.3-0.1,0.4C57.7,26.1,57.8,26.2,58.2,26.3z M57.3,24.9
				c-0.6,0.2-1.1,0.4-1.6,0.7c0.3,0.4,0.7,0.5,1.1,0.3C57.1,25.7,57.3,25.4,57.3,24.9z M55.2,34.5c-0.1-0.2-0.1-0.4-0.1-0.5
				c-0.1-0.2-0.2-0.4-0.2-0.6c-0.1-0.2-0.2-0.3-0.3-0.1c-0.1,0.1-0.2,0.3-0.2,0.5c0,0.3,0.1,0.5,0.2,0.8c0.1,0.2,0.2,0.4,0.4,0.3
				C55.1,34.8,55.2,34.6,55.2,34.5z M59,30.4c-0.1-0.3-0.3-0.7-0.4-1c0-0.1-0.2-0.2-0.2-0.2c-0.1,0-0.2,0.2-0.2,0.3
				c-0.1,0.3,0.1,0.9,0.4,1.1c0.1,0,0.2,0.1,0.3,0C58.9,30.6,58.9,30.5,59,30.4z M56.5,28.6c0-0.2-0.1-0.4-0.4-0.4
				c-0.2,0-0.5,0.3-0.5,0.6c0,0.2,0.2,0.5,0.5,0.5C56.3,29.3,56.5,29,56.5,28.6z M59.2,22.5c0,0.1-0.2,0.2-0.2,0.3
				c0,0.3,0.3,0.6,0.5,0.6c0.2,0,0.4-0.2,0.4-0.3C60,22.8,59.6,22.5,59.2,22.5z M57.8,22.5c0,0.3,0.2,0.6,0.5,0.6
				c0.1,0,0.3-0.2,0.3-0.3c0-0.4-0.1-0.7-0.4-0.7C57.8,22.1,57.7,22.3,57.8,22.5z M54.4,29.6c0.4,0,0.5-0.1,0.4-0.4
				c-0.1-0.2-0.3-0.3-0.4-0.5c-0.2-0.2-0.4-0.1-0.5,0.1c-0.1,0.2-0.1,0.3,0.1,0.4C54.1,29.4,54.3,29.5,54.4,29.6z"/>
		</g>
	</g>
</g>
</svg>
