<?xml version="1.0" encoding="utf-8"?>
<!-- Generator: Adobe Illustrator 28.1.0, SVG Export Plug-In . SVG Version: 6.00 Build 0)  -->
<svg version="1.1" id="Layer_1" xmlns="http://www.w3.org/2000/svg" xmlns:xlink="http://www.w3.org/1999/xlink" x="0px" y="0px"
	 viewBox="0 0 114 60" style="enable-background:new 0 0 114 60;" xml:space="preserve">
<style type="text/css">
	.st0{fill-rule:evenodd;clip-rule:evenodd;fill:#C1272D;}
	.st1{fill-rule:evenodd;clip-rule:evenodd;fill:#006233;}
	.st2{fill-rule:evenodd;clip-rule:evenodd;fill:#BF272D;}
</style>
<g>
	<path class="st0" d="M39.8,24.4l13.2,0l4-12.4l4.1,12.3l13.1,0.1c-0.1,0.2-9.7,7.3-10.6,7.7l4,12.6l-7.9-5.7
		c-0.8-0.6-1.8-1.4-2.8-1.9l-8,5.7c-0.9,0.6-1.8,1.4-2.7,1.9c0.3-2.2,3.9-11,3.9-12.5l-7.9-5.8C41.8,25.9,40.1,24.8,39.8,24.4
		L39.8,24.4z M2.3,60H114V0H0v60H2.3z"/>
	<path class="st1" d="M62.1,33.3l2.2,6.8l-5.9-4.2C58.8,35.6,61.7,33.5,62.1,33.3L62.1,33.3z M51.9,33.3c0.7,0.3,2.7,2,3.6,2.6
		c-0.4,0.5-5,3.7-5.9,4.3L51.9,33.3L51.9,33.3z M54.1,26.1l5.7,0l1.7,5.3c-0.2,0.2-0.3,0.3-0.6,0.5l-4,2.8c-0.3-0.2-4.1-2.8-4.6-3.3
		L54.1,26.1L54.1,26.1z M61.7,26.1l7.2,0c-0.7,0.7-2,1.5-2.9,2.2c-0.7,0.5-2.3,1.8-3,2.1L61.7,26.1L61.7,26.1z M51,30.4
		c-0.6-0.3-2.3-1.6-3-2.1c-0.9-0.6-2.2-1.5-2.9-2.2l7.2,0L51,30.4L51,30.4z M57.1,17.6l2.2,6.8l-4.5,0L57.1,17.6L57.1,17.6z
		 M39.8,24.4c0.3,0.4,2,1.5,2.6,2l7.9,5.8c-0.1,1.5-3.6,10.3-3.9,12.5c0.9-0.5,1.8-1.3,2.7-1.9l8-5.7c0.9,0.5,1.9,1.3,2.8,1.9
		l7.9,5.7l-4-12.6c0.9-0.4,10.5-7.5,10.6-7.7l-13.1-0.1L56.9,12l-4,12.4L39.8,24.4L39.8,24.4z"/>
	<path class="st2" d="M52.4,31.4c0.5,0.5,4.2,3.2,4.6,3.3l4-2.8c0.3-0.3,0.4-0.3,0.6-0.5l-1.7-5.3l-5.7,0L52.4,31.4L52.4,31.4z"/>
	<path class="st2" d="M63,30.4c0.7-0.3,2.3-1.6,3-2.1c0.9-0.6,2.2-1.5,2.9-2.2l-7.2,0L63,30.4L63,30.4z"/>
	<path class="st2" d="M51,30.4l1.3-4.2l-7.2,0c0.7,0.7,2,1.5,2.9,2.2C48.7,28.8,50.4,30.1,51,30.4L51,30.4z"/>
	<path class="st2" d="M49.6,40.1c0.9-0.6,5.5-3.8,5.9-4.3c-0.9-0.6-2.9-2.2-3.6-2.6L49.6,40.1L49.6,40.1z"/>
	<path class="st2" d="M62.1,33.3c-0.5,0.2-3.3,2.3-3.6,2.7l5.9,4.2L62.1,33.3L62.1,33.3z"/>
	<polygon class="st2" points="54.7,24.4 59.2,24.4 57.1,17.6 54.7,24.4 	"/>
</g>
</svg>
