<?xml version="1.0" encoding="utf-8"?>
<!-- Generator: Adobe Illustrator 28.1.0, SVG Export Plug-In . SVG Version: 6.00 Build 0)  -->
<svg version="1.1" id="Layer_1" xmlns="http://www.w3.org/2000/svg" xmlns:xlink="http://www.w3.org/1999/xlink" x="0px" y="0px"
	 viewBox="0 0 114 60" style="enable-background:new 0 0 114 60;" xml:space="preserve">
<style type="text/css">
	.st0{fill:#003E15;}
	.st1{fill:#FFFFFF;}
</style>
<g>
	<rect x="27.9" y="0" class="st0" width="86" height="60"/>
	<rect x="0.1" y="0" class="st1" width="28.3" height="60.1"/>
	<path class="st1" d="M75.7,42.3c-8.9,0-16.1-7.3-16.1-16.2c0-5.1,2.4-9.7,6.1-12.7c-6.8,2.4-11.7,9-11.7,16.7
		c0,9.8,7.9,17.7,17.6,17.7c7.3,0,13.6-4.5,16.3-11C84.8,40.2,80.5,42.3,75.7,42.3z"/>
	<polygon class="st1" points="85.3,25.2 81,24.2 78.9,28.1 78.4,23.7 74.1,22.8 78.2,21 77.6,16.6 80.6,19.9 84.6,18.1 82.3,21.9 	
		"/>
</g>
</svg>
