<?xml version="1.0" encoding="utf-8"?>
<!-- Generator: Adobe Illustrator 28.1.0, SVG Export Plug-In . SVG Version: 6.00 Build 0)  -->
<svg version="1.1" id="Layer_1" xmlns="http://www.w3.org/2000/svg" xmlns:xlink="http://www.w3.org/1999/xlink" x="0px" y="0px"
	 viewBox="0 0 114 60" style="enable-background:new 0 0 114 60;" xml:space="preserve">
<style type="text/css">
	.st0{fill:#006500;}
	.st1{fill:#FF0515;}
	.st2{fill:#FFFC00;}
	.st3{fill:#6B3606;}
	.st4{fill:#FFFFFF;}
	.st5{fill:#FF0A1C;}
	.st6{fill:#003499;}
</style>
<g>
	<g>
		<rect x="0.1" y="0" class="st0" width="48.4" height="60.1"/>
	</g>
	<g>
		<rect x="48.5" y="0" class="st1" width="65.4" height="60.1"/>
	</g>
	<g>
		<g>
			<g>
				<path class="st2" d="M40.3,31.4c0,0-3.8-0.8-4.2-1v1.3c0,0,3.4,1,4.2,0.9L40.3,31.4z"/>
				<path class="st3" d="M40.1,32.6L40.1,32.6c-1,0-3.9-0.9-4.1-0.9l0,0v-1.4l0.1,0.1c0.3,0.2,2.9,0.7,4.2,1l0,0l0,1.3l0,0
					C40.2,32.6,40.2,32.6,40.1,32.6z M36.1,31.6c0.4,0.1,3.1,0.9,4,0.9l0,0c0,0,0.1,0,0.1,0l0-1.1c-0.4-0.1-3.5-0.7-4.1-1V31.6z"/>
			</g>
			<g>
				<path class="st2" d="M36,30.1c0,0,1.8,0.6,4.3,1v0.3c0,0-3.8-0.7-4.2-0.9L36,30.1z"/>
				<path class="st3" d="M40.3,31.5L40.3,31.5c-0.2,0-3.9-0.7-4.3-0.9l0,0L35.9,30l0.1,0c0,0,1.8,0.6,4.3,1l0,0V31.5z M36.1,30.5
					c0.5,0.2,3.6,0.8,4.1,0.9v-0.1c-2.2-0.4-3.8-0.9-4.2-1L36.1,30.5z"/>
			</g>
			<g>
				<path class="st2" d="M36,31.5c0.1,0.1,2.3,0.7,4.3,0.9l0,0.3c0,0-3.7-0.6-4.2-0.9L36,31.5z"/>
				<path class="st3" d="M40.3,32.8L40.3,32.8c-0.2,0-3.7-0.6-4.3-0.9l0,0L36,31.4l0.1,0.1c0.1,0,2.3,0.7,4.2,0.9l0.1,0L40.3,32.8z
					 M36.1,31.8c0.5,0.3,3.6,0.8,4.1,0.9l0-0.2c-1.7-0.2-3.7-0.7-4.1-0.9L36.1,31.8z"/>
			</g>
		</g>
		<g>
			<g>
				<path class="st2" d="M39.3,39.1c3.5,0.6,4.8,0.9,7.2,1.1l0.8,0.3c0,0-2.8,0.1-7.8-1L39.3,39.1z"/>
				<path class="st3" d="M47.2,40.6c-0.7,0-3.4-0.1-7.7-1l0,0L39.2,39l0.1,0c3.5,0.7,4.8,0.9,7.2,1.1l1.1,0.4l-0.3,0
					C47.4,40.6,47.3,40.6,47.2,40.6z M39.6,39.4c4,0.9,6.5,1,7.5,1l-0.5-0.2c-2.4-0.3-3.7-0.5-7.1-1.1L39.6,39.4z"/>
			</g>
			<g>
				<path class="st2" d="M38.5,37.9c0,0,3.6,0.8,6,1l2.1,1.3c0,0-5.7-0.6-7.4-1.1L38.5,37.9z"/>
				<path class="st3" d="M46.9,40.3l-0.3,0c-0.1,0-5.7-0.6-7.5-1.1l0,0l-0.8-1.3l0.1,0c0,0,3.6,0.8,6,1l0,0L46.9,40.3z M39.3,39
					c1.5,0.5,6,1,7.2,1.1L44.5,39c-2.1-0.2-5.2-0.9-5.9-1L39.3,39z"/>
			</g>
			<g>
				<path class="st2" d="M38.2,37.6c0,0,3.6,0.8,6,1l0,0.4c0,0-4.2-0.5-5.9-1L38.2,37.6z"/>
				<path class="st3" d="M44.4,39.1L44.4,39.1c-0.1,0-4.3-0.5-6-1l0,0l-0.2-0.5l0.1,0c0,0,3.6,0.8,6,1l0,0L44.4,39.1z M38.5,37.9
					c1.6,0.5,5.3,0.9,5.8,1l0-0.2c-2.2-0.2-5.3-0.9-5.9-1L38.5,37.9z"/>
			</g>
		</g>
		<g>
			<g>
				<path class="st2" d="M37.5,23.9c0,0-0.7,1.5-0.7,1.6c0,0.2,2.7,2.1,2.7,2.1s1.5-0.2,1.5-0.2c0,0,0-1.2,0-1.3
					C40.9,26.1,37.5,23.9,37.5,23.9z"/>
				<path class="st3" d="M39.5,27.7L39.5,27.7c-1.2-0.9-2.7-2-2.7-2.1c0-0.2,0.6-1.4,0.7-1.6l0-0.1l0,0C41,26,41,26.1,41,26.1
					c0,0,0.1,1.2,0,1.3C41,27.4,41,27.5,39.5,27.7L39.5,27.7z M37.6,24c-0.3,0.6-0.7,1.4-0.7,1.5c0.1,0.1,1.6,1.3,2.6,2
					c0.5-0.1,1.3-0.2,1.4-0.2c0-0.2,0-1,0-1.2C40.7,26,38.8,24.8,37.6,24z"/>
			</g>
			<g>
				<path class="st2" d="M36.7,25.9c0,0,1.7,1.6,2.4,1.9l0.6-0.2c0,0-2.2-1.5-2.8-2.2L36.7,25.9z"/>
				<path class="st3" d="M39.1,27.9L39.1,27.9c-0.7-0.4-2.3-1.9-2.4-2l0,0l0.2-0.5l0.1,0.1c0.6,0.6,2.8,2.1,2.8,2.2l0.1,0.1
					L39.1,27.9z M36.8,25.9c0.2,0.2,1.7,1.6,2.3,1.9l0.4-0.1c-0.4-0.3-2.1-1.4-2.7-2L36.8,25.9z"/>
			</g>
		</g>
	</g>
	<g>
		<g>
			<g>
				<path class="st2" d="M36.2,37.2l0.6,1c0,0,1.2-1.4,4.9-1.9l-0.6-1C41.2,35.2,38.4,35.3,36.2,37.2z"/>
				<path class="st3" d="M36.8,38.3l-0.6-1.1l0,0c2.2-1.9,4.9-2,5-2l0,0l0.6,1.2l-0.1,0C38.1,36.8,36.9,38.2,36.8,38.3L36.8,38.3z
					 M36.3,37.2l0.5,0.9c0.3-0.3,1.6-1.4,4.8-1.8l-0.5-0.9C40.8,35.3,38.3,35.5,36.3,37.2z"/>
			</g>
			<g>
				<path class="st2" d="M36,37l0.2,0.3c0,0,1.5-1.5,5.1-1.9L41,35.1C41,35.1,38.1,35.3,36,37z"/>
				<path class="st3" d="M36.1,37.4L35.9,37l0,0C38.1,35.2,41,35,41,35l0,0l0.2,0.4l-0.1,0C37.7,35.9,36.2,37.3,36.1,37.4L36.1,37.4
					z M36.1,37l0.1,0.2c0.3-0.3,1.8-1.5,5-1.9L41,35.2C40.7,35.2,38.1,35.5,36.1,37z"/>
			</g>
			<g>
				<path class="st2" d="M36.6,38.1l0.2,0.3c0,0,1.4-1.5,5.1-1.9l-0.2-0.3C41.7,36.2,38.8,36.3,36.6,38.1z"/>
				<path class="st3" d="M36.8,38.5l-0.2-0.4l0,0c2.2-1.8,5.1-1.9,5.1-1.9l0,0l0.2,0.4l-0.1,0C38.2,37,36.8,38.4,36.8,38.5
					L36.8,38.5z M36.7,38.1l0.1,0.2c0.3-0.3,1.7-1.5,5-1.9l-0.1-0.2C41.3,36.3,38.7,36.5,36.7,38.1z"/>
			</g>
		</g>
		<g>
			<g>
				<path class="st2" d="M34.6,29.4v1.2c0,0,1.7-1.1,5.7-1.9v-1.2C40.3,27.5,37.8,27.7,34.6,29.4z"/>
				<path class="st3" d="M34.6,30.7v-1.4l0,0c3.2-1.6,5.7-1.9,5.7-1.9l0.1,0v1.3l0,0C36.4,29.5,34.7,30.6,34.6,30.7L34.6,30.7z
					 M34.7,29.4v1.1c0.4-0.2,2.1-1.1,5.6-1.9v-1C39.8,27.6,37.6,27.9,34.7,29.4z"/>
			</g>
			<g>
				<path class="st2" d="M34.5,29.2v0.4c0,0,2.2-1.6,5.7-2l0-0.4C40.3,27.2,36.8,27.7,34.5,29.2z"/>
				<path class="st3" d="M34.5,29.7v-0.5l0,0c2.3-1.6,5.7-2,5.8-2l0.1,0l0,0.5l0,0C36.8,28.1,34.6,29.6,34.5,29.7L34.5,29.7z
					 M34.6,29.3v0.2c0.4-0.3,2.6-1.6,5.6-2l0-0.2C39.7,27.3,36.7,27.8,34.6,29.3z"/>
			</g>
			<g>
				<path class="st2" d="M34.5,30.6V31c0,0,2.2-1.6,5.7-2l0-0.4C40.3,28.6,36.8,29,34.5,30.6z"/>
				<path class="st3" d="M34.5,31.1v-0.5l0,0c2.3-1.6,5.7-2,5.8-2l0.1,0l0,0.5l0,0C36.8,29.4,34.6,31,34.5,31.1L34.5,31.1z
					 M34.6,30.6v0.2c0.4-0.3,2.5-1.6,5.6-1.9l0-0.3C39.7,28.7,36.7,29.2,34.6,30.6z"/>
			</g>
		</g>
		<g>
			<g>
				<path class="st2" d="M35.6,24.6c0,0,0-0.5,0.1-0.7c0.1-0.2,0.1-0.2,0.1-0.2s1.4-0.2,4.4,1.5l0,0.4c0,0-3.2-1.6-4.4-1.5
					L35.6,24.6z"/>
				<path class="st3" d="M40.2,25.7L40.2,25.7c-0.1,0-3.2-1.5-4.4-1.5L35.6,25v-0.4c0,0,0-0.5,0.1-0.7c0.1-0.2,0.1-0.2,0.2-0.3l0,0
					c0,0,0,0,0.1,0c0.4,0,1.8,0.1,4.3,1.5l0,0L40.2,25.7z M35.8,24c1.1,0,3.9,1.3,4.3,1.5l0-0.2c-2.5-1.4-3.8-1.5-4.2-1.5
					c-0.1,0-0.1,0-0.1,0C35.9,23.8,35.8,23.8,35.8,24c-0.1,0-0.1,0.1-0.1,0.1L35.8,24L35.8,24z"/>
			</g>
			<g>
				<path class="st2" d="M36.9,21.9l-1,1.8c0,0,2.5,0.4,4.4,1.6l-0.1-2.6C40.2,22.8,37.6,21.9,36.9,21.9z"/>
				<path class="st3" d="M40.3,25.5L40.3,25.5c-1.9-1.3-4.4-1.7-4.4-1.7l-0.1,0l1-1.9l0,0c0,0,0,0,0.1,0c0.8,0,3.2,0.8,3.3,0.8l0,0
					L40.3,25.5z M36,23.7c0.4,0.1,2.5,0.5,4.2,1.5l-0.1-2.5c-0.3-0.1-2.5-0.8-3.2-0.8c0,0,0,0,0,0L36,23.7z"/>
			</g>
			<g>
				<path class="st2" d="M36.8,21.6c0,0-0.2,0.3-0.2,0.4c0,0.1,0,0.6,0,0.6l0.3-0.6c0,0,1.1,0.1,3.3,0.9l0-0.3
					C40.2,22.5,38.2,21.7,36.8,21.6z"/>
				<path class="st3" d="M40.2,22.9L40.2,22.9c-2-0.8-3.1-0.9-3.3-0.9l-0.4,0.8l0-0.2c0-0.1,0-0.5,0-0.6c0-0.1,0.2-0.3,0.2-0.4l0,0
					l0,0c1.4,0.1,3.4,0.9,3.4,0.9l0,0L40.2,22.9z M36.9,21.9L36.9,21.9c0,0,1.1,0.1,3.3,0.9l0-0.2c-0.3-0.1-2-0.8-3.3-0.9
					c-0.1,0.1-0.2,0.3-0.2,0.3c0,0,0,0.1,0,0.3L36.9,21.9z"/>
			</g>
		</g>
	</g>
	<g>
		<g>
			<g>
				<path class="st2" d="M56.8,31.4c0,0,3.8-0.8,4.2-1v1.3c0,0-3.4,1-4.2,0.9L56.8,31.4z"/>
				<path class="st3" d="M56.9,32.6c-0.1,0-0.1,0-0.1,0l0,0l0-1.3l0,0c1.3-0.3,3.9-0.8,4.2-1l0.1-0.1v1.4l0,0
					C60.9,31.8,58,32.6,56.9,32.6z M56.9,32.5c0.8,0.1,3.7-0.8,4.1-0.9v-1.2c-0.6,0.3-3.7,0.9-4.1,1L56.9,32.5z"/>
			</g>
			<g>
				<path class="st2" d="M61.1,30.1c0,0-1.8,0.6-4.3,1v0.3c0,0,3.8-0.7,4.2-0.9L61.1,30.1z"/>
				<path class="st3" d="M56.7,31.5v-0.4l0,0c2.5-0.4,4.3-1,4.3-1l0.1,0l-0.1,0.5l0,0C60.6,30.8,56.9,31.4,56.7,31.5L56.7,31.5z
					 M56.8,31.2v0.1c0.5-0.1,3.6-0.7,4.1-0.9l0-0.3C60.6,30.3,59,30.8,56.8,31.2z"/>
			</g>
			<g>
				<path class="st2" d="M61,31.5c-0.1,0.1-2.3,0.7-4.3,0.9l0,0.3c0,0,3.7-0.6,4.2-0.9L61,31.5z"/>
				<path class="st3" d="M56.8,32.8l0-0.4l0.1,0c2-0.2,4.1-0.8,4.2-0.9l0.1-0.1L61,31.9l0,0C60.5,32.2,57,32.8,56.8,32.8L56.8,32.8z
					 M56.8,32.5l0,0.2c0.5-0.1,3.5-0.6,4.1-0.9l0-0.2C60.5,31.8,58.6,32.3,56.8,32.5z"/>
			</g>
		</g>
		<g>
			<g>
				<path class="st2" d="M57.8,39.1c-3.5,0.6-4.8,0.9-7.2,1.1l-0.8,0.3c0,0,2.8,0.1,7.8-1L57.8,39.1z"/>
				<path class="st3" d="M49.8,40.6L49.8,40.6c-0.1,0-0.2,0-0.2,0l-0.3,0l1.1-0.4c2.4-0.3,3.7-0.5,7.3-1.1l0.1,0l-0.3,0.5l0,0
					C53.2,40.5,50.6,40.6,49.8,40.6z M57.6,39.2c-3.5,0.6-4.7,0.9-7.1,1.1L50,40.5c0.9,0,3.5-0.1,7.5-1L57.6,39.2z"/>
			</g>
			<g>
				<path class="st2" d="M58.6,37.9c0,0-3.6,0.8-6,1l-2.1,1.3c0,0,5.7-0.6,7.4-1.1L58.6,37.9z"/>
				<path class="st3" d="M50.2,40.3l2.4-1.4c2.4-0.3,6-1,6-1l0.1,0l-0.8,1.3l0,0c-1.7,0.5-7.4,1.1-7.5,1.1L50.2,40.3z M52.5,39
					l-1.9,1.2c1.1-0.1,5.6-0.6,7.2-1.1l0.6-1.1C57.8,38.1,54.7,38.8,52.5,39z"/>
			</g>
			<g>
				<path class="st2" d="M58.8,37.6c0,0-3.6,0.8-6,1l0,0.4c0,0,4.2-0.5,5.9-1L58.8,37.6z"/>
				<path class="st3" d="M52.7,39.1l0.1-0.5l0,0c2.4-0.3,6-1,6-1l0.1,0L58.7,38l0,0C57,38.6,52.8,39,52.7,39.1L52.7,39.1z
					 M52.8,38.7l0,0.2c0.6-0.1,4.2-0.5,5.8-1l0.1-0.2C58.1,37.8,55,38.5,52.8,38.7z"/>
			</g>
		</g>
		<g>
			<g>
				<path class="st2" d="M59.5,23.9c0,0,0.7,1.5,0.7,1.6c0,0.2-2.7,2.1-2.7,2.1s-1.5-0.2-1.5-0.2c0,0,0-1.2,0-1.3
					C56.2,26.1,59.5,23.9,59.5,23.9z"/>
				<path class="st3" d="M57.6,27.7L57.6,27.7c-1.5-0.2-1.5-0.2-1.5-0.3c0-0.1,0-1.3,0-1.3c0,0,0-0.1,3.4-2.2l0,0l0,0.1
					c0.1,0.2,0.7,1.5,0.7,1.6C60.3,25.7,58.9,26.8,57.6,27.7L57.6,27.7z M56.2,27.3c0.2,0,0.9,0.1,1.4,0.2c1-0.7,2.5-1.9,2.6-2
					c0-0.1-0.4-1-0.7-1.5c-1.3,0.8-3.1,2-3.3,2.1C56.2,26.3,56.2,27.2,56.2,27.3z"/>
			</g>
			<g>
				<path class="st2" d="M60.4,25.9c0,0-1.7,1.6-2.4,1.9l-0.6-0.2c0,0,2.2-1.5,2.8-2.2L60.4,25.9z"/>
				<path class="st3" d="M58,27.9l-0.7-0.2l0.1-0.1c0,0,2.2-1.5,2.8-2.2l0.1-0.1l0.2,0.5l0,0C60.3,26,58.7,27.5,58,27.9L58,27.9z
					 M57.6,27.6l0.4,0.1c0.6-0.3,2.1-1.7,2.3-1.9l-0.1-0.3C59.6,26.2,58,27.3,57.6,27.6z"/>
			</g>
		</g>
	</g>
	<g>
		<g>
			<path class="st2" d="M48.6,15.2c-7.6,0-13.8,6.7-13.8,14.9c0,8.2,6.2,14.9,13.8,14.9c7.6,0,13.8-6.7,13.8-14.9
				C62.4,21.9,56.2,15.2,48.6,15.2z M48.6,43.4c-6.8,0-12.3-5.9-12.3-13.3c0-7.3,5.5-13.3,12.3-13.3s12.3,5.9,12.3,13.3
				C60.9,37.5,55.4,43.4,48.6,43.4z"/>
			<path class="st3" d="M48.6,45.1c-7.7,0-13.9-6.7-13.9-14.9c0-8.2,6.2-14.9,13.9-14.9c7.7,0,13.9,6.7,13.9,14.9
				C62.5,38.4,56.2,45.1,48.6,45.1z M48.6,15.3c-7.6,0-13.8,6.7-13.8,14.8C34.8,38.3,41,45,48.6,45c7.6,0,13.8-6.7,13.8-14.8
				C62.4,22,56.2,15.3,48.6,15.3z M48.6,43.5c-6.8,0-12.4-6-12.4-13.3c0-7.4,5.6-13.3,12.4-13.3S61,22.8,61,30.1
				C61,37.5,55.4,43.5,48.6,43.5z M48.6,16.9c-6.8,0-12.3,5.9-12.3,13.2c0,7.3,5.5,13.2,12.3,13.2s12.3-5.9,12.3-13.2
				C60.9,22.8,55.3,16.9,48.6,16.9z"/>
		</g>
		<g>
			<path class="st2" d="M48.6,15.6c-7.4,0-13.5,6.5-13.5,14.5s6,14.5,13.5,14.5C56,44.6,62,38.1,62,30.1S56,15.6,48.6,15.6z
				 M48.6,43.7c-7,0-12.6-6.1-12.6-13.6c0-7.5,5.7-13.6,12.6-13.6c7,0,12.6,6.1,12.6,13.6C61.2,37.6,55.6,43.7,48.6,43.7z"/>
			<path class="st3" d="M48.6,44.7c-7.5,0-13.5-6.5-13.5-14.5c0-8,6.1-14.5,13.5-14.5s13.5,6.5,13.5,14.5
				C62.1,38.2,56,44.7,48.6,44.7z M48.6,15.7c-7.4,0-13.4,6.5-13.4,14.4c0,8,6,14.4,13.4,14.4C56,44.6,62,38.1,62,30.1
				C62,22.2,56,15.7,48.6,15.7z M48.6,43.8c-7,0-12.7-6.1-12.7-13.6c0-7.5,5.7-13.6,12.7-13.6s12.7,6.1,12.7,13.6
				C61.3,37.7,55.6,43.8,48.6,43.8z M48.6,16.6c-6.9,0-12.6,6.1-12.6,13.5c0,7.5,5.6,13.5,12.6,13.5s12.6-6.1,12.6-13.5
				C61.2,22.7,55.5,16.6,48.6,16.6z"/>
		</g>
	</g>
	<g>
		<g>
			<g>
				<path class="st2" d="M36.2,37.2l0.6,1c0,0,1.2-1.4,4.9-1.9l-0.6-1C41.2,35.2,38.4,35.3,36.2,37.2z"/>
				<path class="st3" d="M36.8,38.3l-0.6-1.1l0,0c2.2-1.9,4.9-2,5-2l0,0l0.6,1.2l-0.1,0C38.1,36.8,36.9,38.2,36.8,38.3L36.8,38.3z
					 M36.3,37.2l0.5,0.9c0.3-0.3,1.6-1.4,4.8-1.8l-0.5-0.9C40.8,35.3,38.3,35.5,36.3,37.2z"/>
			</g>
			<g>
				<path class="st2" d="M36,37l0.2,0.3c0,0,1.5-1.5,5.1-1.9L41,35.1C41,35.1,38.1,35.3,36,37z"/>
				<path class="st3" d="M36.1,37.4L35.9,37l0,0C38.1,35.2,41,35,41,35l0,0l0.2,0.4l-0.1,0C37.7,35.9,36.2,37.3,36.1,37.4L36.1,37.4
					z M36.1,37l0.1,0.2c0.3-0.3,1.8-1.5,5-1.9L41,35.2C40.7,35.2,38.1,35.5,36.1,37z"/>
			</g>
			<g>
				<path class="st2" d="M36.6,38.1l0.2,0.3c0,0,1.4-1.5,5.1-1.9l-0.2-0.3C41.7,36.2,38.8,36.3,36.6,38.1z"/>
				<path class="st3" d="M36.8,38.5l-0.2-0.4l0,0c2.2-1.8,5.1-1.9,5.1-1.9l0,0l0.2,0.4l-0.1,0C38.2,37,36.8,38.4,36.8,38.5
					L36.8,38.5z M36.7,38.1l0.1,0.2c0.3-0.3,1.7-1.5,5-1.9l-0.1-0.2C41.3,36.3,38.7,36.5,36.7,38.1z"/>
			</g>
		</g>
		<g>
			<g>
				<path class="st2" d="M34.6,29.4v1.2c0,0,1.7-1.1,5.7-1.9v-1.2C40.3,27.5,37.8,27.7,34.6,29.4z"/>
				<path class="st3" d="M34.6,30.7v-1.4l0,0c3.2-1.6,5.7-1.9,5.7-1.9l0.1,0v1.3l0,0C36.4,29.5,34.7,30.6,34.6,30.7L34.6,30.7z
					 M34.7,29.4v1.1c0.4-0.2,2.1-1.1,5.6-1.9v-1C39.8,27.6,37.6,27.9,34.7,29.4z"/>
			</g>
			<g>
				<path class="st2" d="M34.5,29.2v0.4c0,0,2.2-1.6,5.7-2l0-0.4C40.3,27.2,36.8,27.7,34.5,29.2z"/>
				<path class="st3" d="M34.5,29.7v-0.5l0,0c2.3-1.6,5.7-2,5.8-2l0.1,0l0,0.5l0,0C36.8,28.1,34.6,29.6,34.5,29.7L34.5,29.7z
					 M34.6,29.3v0.2c0.4-0.3,2.6-1.6,5.6-2l0-0.2C39.7,27.3,36.7,27.8,34.6,29.3z"/>
			</g>
			<g>
				<path class="st2" d="M34.5,30.6V31c0,0,2.2-1.6,5.7-2l0-0.4C40.3,28.6,36.8,29,34.5,30.6z"/>
				<path class="st3" d="M34.5,31.1v-0.5l0,0c2.3-1.6,5.7-2,5.8-2l0.1,0l0,0.5l0,0C36.8,29.4,34.6,31,34.5,31.1L34.5,31.1z
					 M34.6,30.6v0.2c0.4-0.3,2.5-1.6,5.6-1.9l0-0.3C39.7,28.7,36.7,29.2,34.6,30.6z"/>
			</g>
		</g>
		<g>
			<g>
				<path class="st2" d="M35.6,24.6c0,0,0-0.5,0.1-0.7c0.1-0.2,0.1-0.2,0.1-0.2s1.4-0.2,4.4,1.5l0,0.4c0,0-3.2-1.6-4.4-1.5
					L35.6,24.6z"/>
				<path class="st3" d="M40.2,25.7L40.2,25.7c-0.1,0-3.2-1.5-4.4-1.5L35.6,25v-0.4c0,0,0-0.5,0.1-0.7c0.1-0.2,0.1-0.2,0.2-0.3l0,0
					c0,0,0,0,0.1,0c0.4,0,1.8,0.1,4.3,1.5l0,0L40.2,25.7z M35.8,24c1.1,0,3.9,1.3,4.3,1.5l0-0.2c-2.5-1.4-3.8-1.5-4.2-1.5
					c-0.1,0-0.1,0-0.1,0C35.9,23.8,35.8,23.8,35.8,24c-0.1,0-0.1,0.1-0.1,0.1L35.8,24L35.8,24z"/>
			</g>
			<g>
				<path class="st2" d="M36.9,21.9l-1,1.8c0,0,2.5,0.4,4.4,1.6l-0.1-2.6C40.2,22.8,37.6,21.9,36.9,21.9z"/>
				<path class="st3" d="M40.3,25.5L40.3,25.5c-1.9-1.3-4.4-1.7-4.4-1.7l-0.1,0l1-1.9l0,0c0,0,0,0,0.1,0c0.8,0,3.2,0.8,3.3,0.8l0,0
					L40.3,25.5z M36,23.7c0.4,0.1,2.5,0.5,4.2,1.5l-0.1-2.5c-0.3-0.1-2.5-0.8-3.2-0.8c0,0,0,0,0,0L36,23.7z"/>
			</g>
			<g>
				<path class="st2" d="M36.8,21.6c0,0-0.2,0.3-0.2,0.4c0,0.1,0,0.6,0,0.6l0.3-0.6c0,0,1.1,0.1,3.3,0.9l0-0.3
					C40.2,22.5,38.2,21.7,36.8,21.6z"/>
				<path class="st3" d="M40.2,22.9L40.2,22.9c-2-0.8-3.1-0.9-3.3-0.9l-0.4,0.8l0-0.2c0-0.1,0-0.5,0-0.6c0-0.1,0.2-0.3,0.2-0.4l0,0
					l0,0c1.4,0.1,3.4,0.9,3.4,0.9l0,0L40.2,22.9z M36.9,21.9L36.9,21.9c0,0,1.1,0.1,3.3,0.9l0-0.2c-0.3-0.1-2-0.8-3.3-0.9
					c-0.1,0.1-0.2,0.3-0.2,0.3c0,0,0,0.1,0,0.3L36.9,21.9z"/>
			</g>
		</g>
	</g>
	<g>
		<g>
			<g>
				<path class="st2" d="M60.8,37.2l-0.6,1c0,0-1.2-1.4-4.9-1.9l0.6-1C55.9,35.2,58.6,35.3,60.8,37.2z"/>
				<path class="st3" d="M60.3,38.2L60.3,38.2c-0.1-0.1-1.3-1.5-4.9-1.9l-0.1,0l0.6-1.2l0,0c0,0,2.8,0.1,5,2l0,0L60.3,38.2z
					 M55.4,36.2c3.2,0.4,4.6,1.6,4.8,1.8l0.5-0.9c-2-1.7-4.5-1.9-4.8-1.9L55.4,36.2z"/>
			</g>
			<g>
				<path class="st2" d="M61.1,37l-0.2,0.3c0,0-1.5-1.5-5.1-1.9l0.2-0.3C56,35.1,58.9,35.3,61.1,37z"/>
				<path class="st3" d="M60.9,37.4L60.9,37.4c-0.1-0.1-1.6-1.5-5.1-2l-0.1,0L56,35l0,0c0,0,2.9,0.2,5.1,1.9l0,0L60.9,37.4z
					 M55.9,35.3c3.1,0.4,4.7,1.6,5,1.9L61,37c-2-1.6-4.6-1.8-5-1.9L55.9,35.3z"/>
			</g>
			<g>
				<path class="st2" d="M60.4,38.1l-0.2,0.3c0,0-1.4-1.5-5.1-1.9l0.2-0.3C55.4,36.2,58.3,36.3,60.4,38.1z"/>
				<path class="st3" d="M60.3,38.5L60.3,38.5c-0.1-0.1-1.5-1.5-5.1-1.9l-0.1,0l0.2-0.4l0,0c0,0,2.9,0.1,5.1,1.9l0,0L60.3,38.5z
					 M55.3,36.4c1.9,0.2,3.1,0.7,3.8,1.1c0.6,0.3,1,0.6,1.1,0.7l0.1-0.2c-2-1.6-4.6-1.8-5-1.9L55.3,36.4z"/>
			</g>
		</g>
		<g>
			<g>
				<path class="st2" d="M62.4,29.4v1.2c0,0-1.7-1.1-5.7-1.9v-1.2C56.8,27.5,59.2,27.7,62.4,29.4z"/>
				<path class="st3" d="M62.5,30.7L62.5,30.7c-0.1-0.1-1.8-1.1-5.7-2l0,0v-1.3l0.1,0c0,0,2.5,0.3,5.7,1.9l0,0V30.7z M56.8,28.6
					c3.5,0.7,5.2,1.6,5.6,1.9v-1.1c-2.9-1.5-5.2-1.8-5.6-1.8V28.6z"/>
			</g>
			<g>
				<path class="st2" d="M62.5,29.2v0.4c0,0-2.2-1.6-5.7-2l0-0.4C56.8,27.2,60.2,27.6,62.5,29.2z"/>
				<path class="st3" d="M62.6,29.7L62.6,29.7c-0.1-0.1-2.3-1.6-5.8-2.1l0,0l0-0.5l0.1,0c0,0,3.5,0.5,5.8,2l0,0V29.7z M56.9,27.5
					c3.1,0.4,5.2,1.7,5.6,2v-0.2c-2.1-1.4-5.2-1.9-5.6-2L56.9,27.5z"/>
			</g>
			<g>
				<path class="st2" d="M62.5,30.6V31c0,0-2.2-1.6-5.7-2l0-0.4C56.8,28.6,60.2,29,62.5,30.6z"/>
				<path class="st3" d="M62.6,31.1L62.6,31.1c-0.1-0.1-2.3-1.7-5.8-2l0,0l0-0.5l0.1,0c0,0,3.5,0.5,5.8,2l0,0V31.1z M56.9,28.9
					c3.1,0.3,5.2,1.6,5.6,1.9v-0.2c-2.1-1.4-5.1-1.9-5.6-2L56.9,28.9z"/>
			</g>
		</g>
		<g>
			<g>
				<path class="st2" d="M61.4,24.6c0,0,0-0.5-0.1-0.7c-0.1-0.2-0.1-0.2-0.1-0.2s-1.4-0.2-4.5,1.5l0,0.4c0,0,3.3-1.6,4.5-1.5
					L61.4,24.6z"/>
				<path class="st3" d="M56.7,25.7l-0.1-0.5l0,0c2.6-1.4,4-1.5,4.4-1.5c0.1,0,0.1,0,0.1,0l0,0c0,0,0.1,0.1,0.2,0.3
					c0.1,0.2,0.1,0.7,0.1,0.7V25l-0.3-0.8C60,24.1,56.8,25.6,56.7,25.7L56.7,25.7z M56.8,25.3l0,0.2c0.5-0.2,3.3-1.5,4.4-1.5l0.1,0
					l0,0.1c0-0.1,0-0.1,0-0.2c-0.1-0.1-0.1-0.2-0.1-0.2c0,0-0.1,0-0.1,0C60.7,23.8,59.3,23.9,56.8,25.3z"/>
			</g>
			<g>
				<path class="st2" d="M60.2,21.9l1,1.8c0,0-2.5,0.4-4.5,1.6l0.1-2.6C56.7,22.7,59.4,21.9,60.2,21.9z"/>
				<path class="st3" d="M56.6,25.5l0.1-2.8l0,0c0.1,0,2.7-0.9,3.4-0.8l0,0l1,1.9l-0.1,0C61.1,23.8,58.6,24.2,56.6,25.5L56.6,25.5z
					 M56.8,22.8l-0.1,2.5c1.7-1.1,3.9-1.5,4.3-1.6L60.1,22C59.4,21.9,57.1,22.7,56.8,22.8z"/>
			</g>
			<g>
				<path class="st2" d="M60.2,21.6c0,0,0.2,0.3,0.2,0.4c0,0.1,0,0.6,0,0.6l-0.3-0.6c0,0-1.1,0.1-3.4,0.9l0-0.3
					C56.8,22.5,58.8,21.7,60.2,21.6z"/>
				<path class="st3" d="M56.7,22.9l0-0.5l0,0c0,0,2-0.8,3.5-0.9l0,0l0,0c0.1,0.1,0.2,0.3,0.2,0.4c0,0.1,0,0.5,0,0.6l0,0.2L60.1,22
					C59.9,22,58.8,22.1,56.7,22.9L56.7,22.9z M56.8,22.5l0,0.2c2.2-0.8,3.3-0.9,3.3-0.9l0,0l0.2,0.4c0-0.2,0-0.3,0-0.3
					c0,0-0.1-0.2-0.2-0.3C58.9,21.7,57.1,22.4,56.8,22.5z"/>
			</g>
		</g>
	</g>
	<g>
		<g>
			<rect x="47.7" y="15.2" class="st2" width="1.6" height="5.9"/>
			<path class="st3" d="M49.4,21.1h-1.7v-6h1.7V21.1z M47.8,21h1.5v-5.8h-1.5V21z"/>
		</g>
		<g>
			<rect x="47.7" y="15" class="st2" width="0.4" height="6.2"/>
			<path class="st3" d="M48.1,21.2h-0.5v-6.3h0.5V21.2z M47.8,21.1H48V15h-0.2V21.1z"/>
		</g>
		<g>
			<rect x="49" y="15" class="st2" width="0.4" height="6.2"/>
			<path class="st3" d="M49.4,21.2h-0.5v-6.3h0.5V21.2z M49,21.1h0.2V15H49V21.1z"/>
		</g>
	</g>
	<g>
		<g>
			<rect x="47.7" y="39.3" class="st2" width="1.6" height="5.9"/>
			<path class="st3" d="M49.4,45.2h-1.7v-6h1.7V45.2z M47.8,45.1h1.5v-5.8h-1.5V45.1z"/>
		</g>
		<g>
			<rect x="47.7" y="39.1" class="st2" width="0.4" height="6.2"/>
			<path class="st3" d="M48.1,45.3h-0.5V39h0.5V45.3z M47.8,45.2H48v-6.1h-0.2V45.2z"/>
		</g>
		<g>
			<rect x="49" y="39.1" class="st2" width="0.4" height="6.2"/>
			<path class="st3" d="M49.4,45.3h-0.5V39h0.5V45.3z M49,45.2h0.2v-6.1H49V45.2z"/>
		</g>
	</g>
	<g>
		<path class="st4" d="M40.2,19.8h16.6v13.4c0,0-0.4,2.3-1.4,3.6c-2.8,3.9-6.9,3.9-6.9,3.9s-4.4,0.1-6.8-3.9
			c-1.2-1.6-1.5-3.7-1.5-3.7L40.2,19.8z"/>
		<path class="st3" d="M48.5,40.8c-0.2,0-4.4,0-6.8-3.9c-1.2-1.6-1.5-3.7-1.5-3.7l-0.1-13.3h16.7v13.4c0,0-0.4,2.3-1.4,3.6
			C52.5,40.7,48.5,40.8,48.5,40.8L48.5,40.8z M40.2,19.9l0.1,13.3c0,0,0.3,2,1.5,3.7c2.3,3.9,6.6,3.9,6.7,3.9h0c0,0,4,0,6.8-3.9
			c1-1.3,1.4-3.6,1.4-3.6l0-13.3H40.2z"/>
	</g>
	<g>
		<path class="st5" d="M40.5,20.2h15.9V33c0,0-0.4,2.2-1.4,3.5c-2.7,3.8-6.6,3.8-6.6,3.8s-4.2,0-6.5-3.8c-1.1-1.6-1.4-3.5-1.4-3.5
			L40.5,20.2z"/>
		<path class="st3" d="M48.5,40.3c-0.2,0-4.3,0-6.5-3.8c-1.1-1.6-1.4-3.5-1.4-3.5l-0.1-12.8h16V33c0,0-0.4,2.2-1.4,3.5
			C52.4,40.2,48.5,40.3,48.5,40.3L48.5,40.3z M40.5,20.2L40.6,33c0,0,0.3,2,1.4,3.5c2.2,3.7,6.3,3.8,6.4,3.8h0c0,0,3.9,0,6.5-3.8
			c0.9-1.2,1.3-3.4,1.3-3.5l0-12.8H40.5z"/>
	</g>
	<g>
		<path class="st4" d="M43.7,23.7h9.5v8.4c0,0-0.2,1.5-0.8,2.3c-1.6,2.5-3.9,2.5-3.9,2.5s-2.5,0-3.9-2.5c-0.7-1-0.9-2.3-0.9-2.3
			L43.7,23.7z"/>
		<path class="st3" d="M48.5,36.9c-0.1,0-2.6,0-3.9-2.5c-0.7-1-0.9-2.3-0.9-2.3l-0.1-8.4h9.6v8.4c0,0-0.3,1.5-0.8,2.3
			C50.8,36.9,48.5,36.9,48.5,36.9L48.5,36.9z M43.7,23.7l0.1,8.4c0,0,0.2,1.3,0.8,2.3c1.3,2.4,3.8,2.5,3.9,2.5v0l0,0
			c0,0,2.3,0,3.9-2.5c0.6-0.8,0.8-2.3,0.8-2.3l0-8.4H43.7z"/>
	</g>
	<g>
		<g>
			<rect x="47.4" y="22" class="st2" width="2.2" height="1.2"/>
			<path class="st3" d="M49.6,23.3h-2.2V22h2.2V23.3z M47.4,23.2h2.1V22h-2.1V23.2z"/>
		</g>
		<g>
			<rect x="47.4" y="21.2" class="st2" width="0.6" height="0.9"/>
			<path class="st3" d="M48.1,22.1h-0.7v-0.9h0.7V22.1z M47.4,22.1H48v-0.8h-0.6V22.1z"/>
		</g>
		<g>
			<rect x="47.2" y="23.2" class="st2" width="2.5" height="0.3"/>
			<path class="st3" d="M49.8,23.5h-2.5v-0.4h2.5V23.5z M47.3,23.5h2.4v-0.3h-2.4V23.5z"/>
		</g>
		<g>
			<rect x="48.2" y="20.9" class="st2" width="0.6" height="1.2"/>
			<path class="st3" d="M48.8,22.1h-0.7v-1.3h0.7V22.1z M48.2,22.1h0.6v-1.2h-0.6V22.1z"/>
		</g>
		<g>
			<rect x="48.9" y="21.3" class="st2" width="0.6" height="0.8"/>
			<path class="st3" d="M49.6,22.1h-0.7v-0.9h0.7V22.1z M49,22.1h0.6v-0.8H49V22.1z"/>
		</g>
		<g>
			<rect x="47.2" y="21.9" class="st2" width="2.5" height="0.2"/>
			<path class="st3" d="M49.8,22.2h-2.5v-0.3h2.5V22.2z M47.3,22.1h2.4v-0.2h-2.4V22.1z"/>
		</g>
		<g>
			<path class="st2" d="M49.1,23.1c0-0.4-0.3-0.7-0.6-0.7c-0.3,0-0.6,0.3-0.6,0.7c0,0,0,0.1,0,0.1L49.1,23.1
				C49.1,23.1,49.1,23.1,49.1,23.1z"/>
			<path class="st3" d="M49.1,23.2h-1.3l0,0c0,0,0-0.1,0-0.1c0-0.4,0.3-0.7,0.6-0.7c0.4,0,0.6,0.3,0.6,0.7
				C49.1,23.1,49.1,23.1,49.1,23.2L49.1,23.2z M47.9,23.1h1.2c0,0,0,0,0-0.1c0-0.3-0.3-0.6-0.6-0.6C48.2,22.4,47.9,22.7,47.9,23.1
				C47.9,23.1,47.9,23.1,47.9,23.1z"/>
		</g>
		<g>
			<path class="st2" d="M48.9,23.1c0-0.3-0.2-0.5-0.5-0.5c-0.3,0-0.5,0.2-0.5,0.5c0,0,0,0.1,0,0.1L48.9,23.1
				C48.9,23.1,48.9,23.1,48.9,23.1z"/>
			<path class="st3" d="M49,23.2h-1l0,0c0,0,0-0.1,0-0.1c0-0.3,0.2-0.5,0.5-0.5c0.3,0,0.5,0.2,0.5,0.5C49,23.1,49,23.1,49,23.2
				L49,23.2z M48,23.1h0.9c0,0,0,0,0-0.1c0-0.3-0.2-0.5-0.4-0.5C48.2,22.6,48,22.8,48,23.1C48,23.1,48,23.1,48,23.1z"/>
		</g>
		<g>
			<polygon class="st2" points="48.1,21.2 48.1,21 47.9,21 47.9,20.8 47.8,20.8 47.8,20.9 47.7,20.9 47.7,20.8 47.5,20.8 47.5,20.9 
				47.3,20.9 47.3,21.2 			"/>
			<path class="st3" d="M48.2,21.3l-0.9,0v-0.3h0.2v-0.2h0.2v0.2h0.1v-0.2H48v0.2h0.2V21.3z M47.3,21.2l0.8,0V21h-0.2v-0.2h-0.1V21
				h-0.2v-0.2h-0.1V21h-0.2V21.2z"/>
		</g>
		<g>
			<polygon class="st2" points="48.9,20.9 48.9,20.6 48.7,20.6 48.7,20.4 48.6,20.4 48.6,20.6 48.4,20.6 48.4,20.4 48.3,20.4 
				48.3,20.6 48.1,20.6 48.1,20.9 			"/>
			<path class="st3" d="M48.9,20.9l-0.9,0v-0.3h0.2v-0.2h0.2v0.2h0.1v-0.2h0.2v0.2h0.2V20.9z M48.1,20.8l0.8,0v-0.2h-0.2v-0.2h-0.1
				v0.2h-0.2v-0.2h-0.1v0.2h-0.2V20.8z"/>
		</g>
		<g>
			<polygon class="st2" points="49.7,21.3 49.7,21 49.5,21 49.5,20.8 49.3,20.8 49.3,21 49.2,21 49.2,20.8 49,20.8 49,21 48.8,21 
				48.8,21.3 			"/>
			<path class="st3" d="M49.7,21.3l-0.9,0v-0.3H49v-0.2h0.2v0.2h0.1v-0.2h0.2v0.2h0.2V21.3z M48.9,21.2l0.8,0V21h-0.2v-0.2h-0.1V21
				h-0.2v-0.2h-0.1V21h-0.2V21.2z"/>
		</g>
		<g>
			<rect x="47.7" y="21.4" class="st2" width="0.1" height="0.3"/>
			<path class="st3" d="M47.8,21.7h-0.2v-0.4h0.2V21.7z M47.7,21.7L47.7,21.7l0-0.2h0V21.7z"/>
		</g>
		<g>
			<rect x="48.4" y="21.1" class="st2" width="0.2" height="0.2"/>
			<path class="st3" d="M48.6,21.4h-0.3v-0.3h0.3V21.4z M48.4,21.3h0.2v-0.2h-0.2V21.3z"/>
		</g>
		<g>
			<rect x="49.2" y="21.4" class="st2" width="0.1" height="0.3"/>
			<path class="st3" d="M49.3,21.7h-0.2v-0.4h0.2V21.7z M49.2,21.7L49.2,21.7l0.1-0.2h-0.1V21.7z"/>
		</g>
	</g>
	<g>
		<g>
			<rect x="41" y="22" class="st2" width="2.2" height="1.2"/>
			<path class="st3" d="M43.2,23.3h-2.2V22h2.2V23.3z M41,23.2h2.1V22H41V23.2z"/>
		</g>
		<g>
			<rect x="41" y="21.2" class="st2" width="0.6" height="0.9"/>
			<path class="st3" d="M41.6,22.1h-0.7v-0.9h0.7V22.1z M41,22.1h0.6v-0.8H41V22.1z"/>
		</g>
		<g>
			<rect x="40.8" y="23.2" class="st2" width="2.5" height="0.3"/>
			<path class="st3" d="M43.3,23.5h-2.5v-0.4h2.5V23.5z M40.8,23.5h2.4v-0.3h-2.4V23.5z"/>
		</g>
		<g>
			<rect x="41.7" y="20.9" class="st2" width="0.6" height="1.2"/>
			<path class="st3" d="M42.4,22.1h-0.7v-1.3h0.7V22.1z M41.8,22.1h0.6v-1.2h-0.6V22.1z"/>
		</g>
		<g>
			<rect x="42.5" y="21.3" class="st2" width="0.6" height="0.8"/>
			<path class="st3" d="M43.2,22.1h-0.7v-0.9h0.7V22.1z M42.5,22.1h0.6v-0.8h-0.6V22.1z"/>
		</g>
		<g>
			<rect x="40.8" y="21.9" class="st2" width="2.5" height="0.2"/>
			<path class="st3" d="M43.3,22.2h-2.5v-0.3h2.5V22.2z M40.8,22.1h2.4v-0.2h-2.4V22.1z"/>
		</g>
		<g>
			<path class="st2" d="M42.7,23.1c0-0.4-0.3-0.7-0.6-0.7c-0.3,0-0.6,0.3-0.6,0.7c0,0,0,0.1,0,0.1L42.7,23.1
				C42.7,23.1,42.7,23.1,42.7,23.1z"/>
			<path class="st3" d="M42.7,23.2h-1.3l0,0c0,0,0-0.1,0-0.1c0-0.4,0.3-0.7,0.6-0.7c0.4,0,0.6,0.3,0.6,0.7
				C42.7,23.1,42.7,23.1,42.7,23.2L42.7,23.2z M41.5,23.1h1.2c0,0,0,0,0-0.1c0-0.3-0.3-0.6-0.6-0.6C41.7,22.4,41.5,22.7,41.5,23.1
				C41.5,23.1,41.5,23.1,41.5,23.1z"/>
		</g>
		<g>
			<path class="st2" d="M42.5,23.1c0-0.3-0.2-0.5-0.5-0.5c-0.3,0-0.5,0.2-0.5,0.5c0,0,0,0.1,0,0.1L42.5,23.1
				C42.5,23.1,42.5,23.1,42.5,23.1z"/>
			<path class="st3" d="M42.5,23.2h-1l0,0c0,0,0-0.1,0-0.1c0-0.3,0.2-0.5,0.5-0.5c0.3,0,0.5,0.2,0.5,0.5
				C42.5,23.1,42.5,23.1,42.5,23.2L42.5,23.2z M41.6,23.1h0.9c0,0,0,0,0-0.1c0-0.3-0.2-0.5-0.4-0.5C41.8,22.6,41.6,22.8,41.6,23.1
				C41.6,23.1,41.6,23.1,41.6,23.1z"/>
		</g>
		<g>
			<polygon class="st2" points="41.7,21.2 41.7,21 41.5,21 41.5,20.8 41.4,20.8 41.4,20.9 41.2,20.9 41.2,20.8 41.1,20.8 41.1,20.9 
				40.9,20.9 40.9,21.2 			"/>
			<path class="st3" d="M41.7,21.3l-0.9,0v-0.3h0.2v-0.2h0.2v0.2h0.1v-0.2h0.2v0.2h0.2V21.3z M40.9,21.2l0.8,0V21h-0.2v-0.2h-0.1V21
				h-0.2v-0.2h-0.1V21h-0.2V21.2z"/>
		</g>
		<g>
			<polygon class="st2" points="42.5,20.9 42.5,20.6 42.3,20.6 42.3,20.4 42.1,20.4 42.1,20.6 42,20.6 42,20.4 41.9,20.4 41.9,20.6 
				41.6,20.6 41.6,20.9 			"/>
			<path class="st3" d="M42.5,20.9l-0.9,0v-0.3h0.2v-0.2H42v0.2h0.1v-0.2h0.2v0.2h0.2V20.9z M41.7,20.8l0.8,0v-0.2h-0.2v-0.2h-0.1
				v0.2H42v-0.2h-0.1v0.2h-0.2V20.8z"/>
		</g>
		<g>
			<polygon class="st2" points="43.2,21.3 43.2,21 43,21 43,20.8 42.9,20.8 42.9,21 42.8,21 42.8,20.8 42.6,20.8 42.6,21 42.4,21 
				42.4,21.3 			"/>
			<path class="st3" d="M43.3,21.3l-0.9,0v-0.3h0.2v-0.2h0.2v0.2h0.1v-0.2h0.2v0.2h0.2V21.3z M42.4,21.2l0.8,0V21H43v-0.2h-0.1V21
				h-0.2v-0.2h-0.1V21h-0.2V21.2z"/>
		</g>
		<g>
			<rect x="41.2" y="21.4" class="st2" width="0.1" height="0.3"/>
			<path class="st3" d="M41.4,21.7h-0.2v-0.4h0.2V21.7z M41.3,21.7L41.3,21.7l0-0.2h0V21.7z"/>
		</g>
		<g>
			<rect x="41.9" y="21.1" class="st2" width="0.2" height="0.2"/>
			<path class="st3" d="M42.2,21.4h-0.3v-0.3h0.3V21.4z M42,21.3h0.2v-0.2H42V21.3z"/>
		</g>
		<g>
			<rect x="42.8" y="21.4" class="st2" width="0.1" height="0.3"/>
			<path class="st3" d="M42.9,21.7h-0.2v-0.4h0.2V21.7z M42.8,21.7L42.8,21.7l0.1-0.2h-0.1V21.7z"/>
		</g>
	</g>
	<g>
		<g>
			<rect x="41" y="29" class="st2" width="2.2" height="1.2"/>
			<path class="st3" d="M43.2,30.2h-2.2v-1.3h2.2V30.2z M41,30.2h2.1V29H41V30.2z"/>
		</g>
		<g>
			<rect x="41" y="28.2" class="st2" width="0.6" height="0.9"/>
			<path class="st3" d="M41.6,29.1h-0.7v-0.9h0.7V29.1z M41,29h0.6v-0.8H41V29z"/>
		</g>
		<g>
			<rect x="40.8" y="30.1" class="st2" width="2.5" height="0.3"/>
			<path class="st3" d="M43.3,30.5h-2.5v-0.4h2.5V30.5z M40.8,30.4h2.4v-0.3h-2.4V30.4z"/>
		</g>
		<g>
			<rect x="41.7" y="27.8" class="st2" width="0.6" height="1.2"/>
			<path class="st3" d="M42.4,29.1h-0.7v-1.3h0.7V29.1z M41.8,29h0.6v-1.2h-0.6V29z"/>
		</g>
		<g>
			<rect x="42.5" y="28.2" class="st2" width="0.6" height="0.8"/>
			<path class="st3" d="M43.2,29.1h-0.7v-0.9h0.7V29.1z M42.5,29h0.6v-0.8h-0.6V29z"/>
		</g>
		<g>
			<rect x="40.8" y="28.8" class="st2" width="2.5" height="0.2"/>
			<path class="st3" d="M43.3,29.1h-2.5v-0.3h2.5V29.1z M40.8,29h2.4v-0.2h-2.4V29z"/>
		</g>
		<g>
			<path class="st2" d="M42.7,30c0-0.4-0.3-0.7-0.6-0.7c-0.3,0-0.6,0.3-0.6,0.7c0,0,0,0.1,0,0.1L42.7,30
				C42.7,30.1,42.7,30.1,42.7,30z"/>
			<path class="st3" d="M42.7,30.1h-1.3l0,0c0,0,0-0.1,0-0.1c0-0.4,0.3-0.7,0.6-0.7c0.4,0,0.6,0.3,0.6,0.7
				C42.7,30.1,42.7,30.1,42.7,30.1L42.7,30.1z M41.5,30.1h1.2c0,0,0,0,0-0.1c0-0.3-0.3-0.6-0.6-0.6C41.7,29.4,41.5,29.7,41.5,30.1
				C41.5,30,41.5,30.1,41.5,30.1z"/>
		</g>
		<g>
			<path class="st2" d="M42.5,30c0-0.3-0.2-0.5-0.5-0.5c-0.3,0-0.5,0.2-0.5,0.5c0,0,0,0.1,0,0.1L42.5,30
				C42.5,30.1,42.5,30.1,42.5,30z"/>
			<path class="st3" d="M42.5,30.1h-1l0,0c0,0,0-0.1,0-0.1c0-0.3,0.2-0.5,0.5-0.5c0.3,0,0.5,0.2,0.5,0.5
				C42.5,30.1,42.5,30.1,42.5,30.1L42.5,30.1z M41.6,30.1h0.9c0,0,0,0,0-0.1c0-0.3-0.2-0.5-0.4-0.5C41.8,29.5,41.6,29.8,41.6,30.1
				C41.6,30,41.6,30.1,41.6,30.1z"/>
		</g>
		<g>
			<polygon class="st2" points="41.7,28.2 41.7,27.9 41.5,27.9 41.5,27.7 41.4,27.7 41.4,27.9 41.2,27.9 41.2,27.7 41.1,27.7 
				41.1,27.9 40.9,27.9 40.9,28.2 			"/>
			<path class="st3" d="M41.7,28.2l-0.9,0v-0.3h0.2v-0.2h0.2v0.2h0.1v-0.2h0.2v0.2h0.2V28.2z M40.9,28.2l0.8,0v-0.2h-0.2v-0.2h-0.1
				v0.2h-0.2v-0.2h-0.1v0.2h-0.2V28.2z"/>
		</g>
		<g>
			<polygon class="st2" points="42.5,27.8 42.5,27.5 42.3,27.5 42.3,27.4 42.1,27.4 42.1,27.5 42,27.5 42,27.4 41.9,27.4 41.9,27.5 
				41.6,27.5 41.6,27.8 			"/>
			<path class="st3" d="M42.5,27.8l-0.9,0v-0.3h0.2v-0.2H42v0.2h0.1v-0.2h0.2v0.2h0.2V27.8z M41.7,27.8l0.8,0v-0.2h-0.2v-0.2h-0.1
				v0.2H42v-0.2h-0.1v0.2h-0.2V27.8z"/>
		</g>
		<g>
			<polygon class="st2" points="43.2,28.2 43.2,27.9 43,27.9 43,27.8 42.9,27.8 42.9,27.9 42.8,27.9 42.8,27.8 42.6,27.8 42.6,27.9 
				42.4,27.9 42.4,28.2 			"/>
			<path class="st3" d="M43.3,28.2l-0.9,0v-0.3h0.2v-0.2h0.2v0.2h0.1v-0.2h0.2v0.2h0.2V28.2z M42.4,28.2l0.8,0V28H43v-0.2h-0.1v0.2
				h-0.2v-0.2h-0.1v0.2h-0.2V28.2z"/>
		</g>
		<g>
			<rect x="41.2" y="28.3" class="st2" width="0.1" height="0.3"/>
			<path class="st3" d="M41.4,28.7h-0.2v-0.4h0.2V28.7z M41.3,28.6L41.3,28.6l0-0.2h0V28.6z"/>
		</g>
		<g>
			<rect x="41.9" y="28.1" class="st2" width="0.2" height="0.2"/>
			<path class="st3" d="M42.2,28.3h-0.3V28h0.3V28.3z M42,28.3h0.2v-0.2H42V28.3z"/>
		</g>
		<g>
			<rect x="42.8" y="28.3" class="st2" width="0.1" height="0.3"/>
			<path class="st3" d="M42.9,28.7h-0.2v-0.4h0.2V28.7z M42.8,28.6L42.8,28.6l0.1-0.2h-0.1V28.6z"/>
		</g>
	</g>
	<g>
		<g>
			<rect x="53.8" y="22" class="st2" width="2.2" height="1.2"/>
			<path class="st3" d="M56,23.3h-2.2V22H56V23.3z M53.8,23.2h2.1V22h-2.1V23.2z"/>
		</g>
		<g>
			<rect x="53.7" y="21.2" class="st2" width="0.6" height="0.9"/>
			<path class="st3" d="M54.4,22.1h-0.7v-0.9h0.7V22.1z M53.8,22.1h0.6v-0.8h-0.6V22.1z"/>
		</g>
		<g>
			<rect x="53.6" y="23.2" class="st2" width="2.5" height="0.3"/>
			<path class="st3" d="M56.1,23.5h-2.5v-0.4h2.5V23.5z M53.6,23.5H56v-0.3h-2.4V23.5z"/>
		</g>
		<g>
			<rect x="54.5" y="20.9" class="st2" width="0.6" height="1.2"/>
			<path class="st3" d="M55.2,22.1h-0.7v-1.3h0.7V22.1z M54.6,22.1h0.6v-1.2h-0.6V22.1z"/>
		</g>
		<g>
			<rect x="55.3" y="21.3" class="st2" width="0.6" height="0.8"/>
			<path class="st3" d="M55.9,22.1h-0.7v-0.9h0.7V22.1z M55.3,22.1h0.6v-0.8h-0.6V22.1z"/>
		</g>
		<g>
			<rect x="53.6" y="21.9" class="st2" width="2.5" height="0.2"/>
			<path class="st3" d="M56.1,22.2h-2.5v-0.3h2.5V22.2z M53.6,22.1H56v-0.2h-2.4V22.1z"/>
		</g>
		<g>
			<path class="st2" d="M55.4,23.1c0-0.4-0.3-0.7-0.6-0.7c-0.3,0-0.6,0.3-0.6,0.7c0,0,0,0.1,0,0.1L55.4,23.1
				C55.4,23.1,55.4,23.1,55.4,23.1z"/>
			<path class="st3" d="M55.5,23.2h-1.3l0,0c0,0,0-0.1,0-0.1c0-0.4,0.3-0.7,0.6-0.7c0.4,0,0.6,0.3,0.6,0.7
				C55.5,23.1,55.5,23.1,55.5,23.2L55.5,23.2z M54.3,23.1h1.2c0,0,0,0,0-0.1c0-0.3-0.3-0.6-0.6-0.6C54.5,22.4,54.2,22.7,54.3,23.1
				C54.2,23.1,54.2,23.1,54.3,23.1z"/>
		</g>
		<g>
			<path class="st2" d="M55.3,23.1c0-0.3-0.2-0.5-0.5-0.5c-0.3,0-0.5,0.2-0.5,0.5c0,0,0,0.1,0,0.1L55.3,23.1
				C55.3,23.1,55.3,23.1,55.3,23.1z"/>
			<path class="st3" d="M55.3,23.2h-1l0,0c0,0,0-0.1,0-0.1c0-0.3,0.2-0.5,0.5-0.5c0.3,0,0.5,0.2,0.5,0.5
				C55.3,23.1,55.3,23.1,55.3,23.2L55.3,23.2z M54.4,23.1h0.9c0,0,0,0,0-0.1c0-0.3-0.2-0.5-0.4-0.5C54.6,22.6,54.4,22.8,54.4,23.1
				C54.4,23.1,54.4,23.1,54.4,23.1z"/>
		</g>
		<g>
			<polygon class="st2" points="54.5,21.2 54.5,21 54.3,21 54.3,20.8 54.1,20.8 54.1,20.9 54,20.9 54,20.8 53.9,20.8 53.9,20.9 
				53.7,20.9 53.7,21.2 			"/>
			<path class="st3" d="M54.5,21.3l-0.9,0v-0.3h0.2v-0.2H54v0.2h0.1v-0.2h0.2v0.2h0.2V21.3z M53.7,21.2l0.8,0V21h-0.2v-0.2h-0.1V21
				H54v-0.2h-0.1V21h-0.2V21.2z"/>
		</g>
		<g>
			<polygon class="st2" points="55.3,20.9 55.3,20.6 55.1,20.6 55.1,20.4 54.9,20.4 54.9,20.6 54.8,20.6 54.8,20.4 54.6,20.4 
				54.6,20.6 54.4,20.6 54.4,20.9 			"/>
			<path class="st3" d="M55.3,20.9l-0.9,0v-0.3h0.2v-0.2h0.2v0.2h0.1v-0.2h0.2v0.2h0.2V20.9z M54.5,20.8l0.8,0v-0.2H55v-0.2h-0.1
				v0.2h-0.2v-0.2h-0.1v0.2h-0.2V20.8z"/>
		</g>
		<g>
			<polygon class="st2" points="56,21.3 56,21 55.8,21 55.8,20.8 55.7,20.8 55.7,21 55.5,21 55.5,20.8 55.4,20.8 55.4,21 55.2,21 
				55.2,21.3 			"/>
			<path class="st3" d="M56,21.3l-0.9,0v-0.3h0.2v-0.2h0.2v0.2h0.1v-0.2h0.2v0.2H56V21.3z M55.2,21.2l0.8,0V21h-0.2v-0.2h-0.1V21
				h-0.2v-0.2h-0.1V21h-0.2V21.2z"/>
		</g>
		<g>
			<rect x="54" y="21.4" class="st2" width="0.1" height="0.3"/>
			<path class="st3" d="M54.1,21.7H54v-0.4h0.2V21.7z M54,21.7L54,21.7l0-0.2h0V21.7z"/>
		</g>
		<g>
			<rect x="54.7" y="21.1" class="st2" width="0.2" height="0.2"/>
			<path class="st3" d="M55,21.4h-0.3v-0.3H55V21.4z M54.8,21.3h0.2v-0.2h-0.2V21.3z"/>
		</g>
		<g>
			<rect x="55.5" y="21.4" class="st2" width="0.1" height="0.3"/>
			<path class="st3" d="M55.7,21.7h-0.2v-0.4h0.2V21.7z M55.6,21.7L55.6,21.7l0.1-0.2h-0.1V21.7z"/>
		</g>
	</g>
	<g>
		<g>
			<rect x="53.8" y="29" class="st2" width="2.2" height="1.2"/>
			<path class="st3" d="M56,30.2h-2.2v-1.3H56V30.2z M53.8,30.2h2.1V29h-2.1V30.2z"/>
		</g>
		<g>
			<rect x="53.7" y="28.2" class="st2" width="0.6" height="0.9"/>
			<path class="st3" d="M54.4,29.1h-0.7v-0.9h0.7V29.1z M53.8,29h0.6v-0.8h-0.6V29z"/>
		</g>
		<g>
			<rect x="53.6" y="30.1" class="st2" width="2.5" height="0.3"/>
			<path class="st3" d="M56.1,30.5h-2.5v-0.4h2.5V30.5z M53.6,30.4H56v-0.3h-2.4V30.4z"/>
		</g>
		<g>
			<rect x="54.5" y="27.8" class="st2" width="0.6" height="1.2"/>
			<path class="st3" d="M55.2,29.1h-0.7v-1.3h0.7V29.1z M54.6,29h0.6v-1.2h-0.6V29z"/>
		</g>
		<g>
			<rect x="55.3" y="28.2" class="st2" width="0.6" height="0.8"/>
			<path class="st3" d="M55.9,29.1h-0.7v-0.9h0.7V29.1z M55.3,29h0.6v-0.8h-0.6V29z"/>
		</g>
		<g>
			<rect x="53.6" y="28.8" class="st2" width="2.5" height="0.2"/>
			<path class="st3" d="M56.1,29.1h-2.5v-0.3h2.5V29.1z M53.6,29H56v-0.2h-2.4V29z"/>
		</g>
		<g>
			<path class="st2" d="M55.4,30c0-0.4-0.3-0.7-0.6-0.7c-0.3,0-0.6,0.3-0.6,0.7c0,0,0,0.1,0,0.1L55.4,30
				C55.4,30.1,55.4,30.1,55.4,30z"/>
			<path class="st3" d="M55.5,30.1h-1.3l0,0c0,0,0-0.1,0-0.1c0-0.4,0.3-0.7,0.6-0.7c0.4,0,0.6,0.3,0.6,0.7
				C55.5,30.1,55.5,30.1,55.5,30.1L55.5,30.1z M54.3,30.1h1.2c0,0,0,0,0-0.1c0-0.3-0.3-0.6-0.6-0.6C54.5,29.4,54.2,29.7,54.3,30.1
				C54.2,30,54.2,30.1,54.3,30.1z"/>
		</g>
		<g>
			<path class="st2" d="M55.3,30c0-0.3-0.2-0.5-0.5-0.5c-0.3,0-0.5,0.2-0.5,0.5c0,0,0,0.1,0,0.1L55.3,30
				C55.3,30.1,55.3,30.1,55.3,30z"/>
			<path class="st3" d="M55.3,30.1h-1l0,0c0,0,0-0.1,0-0.1c0-0.3,0.2-0.5,0.5-0.5c0.3,0,0.5,0.2,0.5,0.5
				C55.3,30.1,55.3,30.1,55.3,30.1L55.3,30.1z M54.4,30.1h0.9c0,0,0,0,0-0.1c0-0.3-0.2-0.5-0.4-0.5C54.6,29.5,54.4,29.8,54.4,30.1
				C54.4,30,54.4,30.1,54.4,30.1z"/>
		</g>
		<g>
			<polygon class="st2" points="54.5,28.2 54.5,27.9 54.3,27.9 54.3,27.7 54.1,27.7 54.1,27.9 54,27.9 54,27.7 53.9,27.7 53.9,27.9 
				53.7,27.9 53.7,28.2 			"/>
			<path class="st3" d="M54.5,28.2l-0.9,0v-0.3h0.2v-0.2H54v0.2h0.1v-0.2h0.2v0.2h0.2V28.2z M53.7,28.2l0.8,0v-0.2h-0.2v-0.2h-0.1
				v0.2H54v-0.2h-0.1v0.2h-0.2V28.2z"/>
		</g>
		<g>
			<polygon class="st2" points="55.3,27.8 55.3,27.5 55.1,27.5 55.1,27.4 54.9,27.4 54.9,27.5 54.8,27.5 54.8,27.4 54.6,27.4 
				54.6,27.5 54.4,27.5 54.4,27.8 			"/>
			<path class="st3" d="M55.3,27.8l-0.9,0v-0.3h0.2v-0.2h0.2v0.2h0.1v-0.2h0.2v0.2h0.2V27.8z M54.5,27.8l0.8,0v-0.2H55v-0.2h-0.1
				v0.2h-0.2v-0.2h-0.1v0.2h-0.2V27.8z"/>
		</g>
		<g>
			<polygon class="st2" points="56,28.2 56,27.9 55.8,27.9 55.8,27.8 55.7,27.8 55.7,27.9 55.5,27.9 55.5,27.8 55.4,27.8 55.4,27.9 
				55.2,27.9 55.2,28.2 			"/>
			<path class="st3" d="M56,28.2l-0.9,0v-0.3h0.2v-0.2h0.2v0.2h0.1v-0.2h0.2v0.2H56V28.2z M55.2,28.2l0.8,0V28h-0.2v-0.2h-0.1v0.2
				h-0.2v-0.2h-0.1v0.2h-0.2V28.2z"/>
		</g>
		<g>
			<rect x="54" y="28.3" class="st2" width="0.1" height="0.3"/>
			<path class="st3" d="M54.1,28.7H54v-0.4h0.2V28.7z M54,28.6L54,28.6l0-0.2h0V28.6z"/>
		</g>
		<g>
			<rect x="54.7" y="28.1" class="st2" width="0.2" height="0.2"/>
			<path class="st3" d="M55,28.3h-0.3V28H55V28.3z M54.8,28.3h0.2v-0.2h-0.2V28.3z"/>
		</g>
		<g>
			<rect x="55.5" y="28.3" class="st2" width="0.1" height="0.3"/>
			<path class="st3" d="M55.7,28.7h-0.2v-0.4h0.2V28.7z M55.6,28.6L55.6,28.6l0.1-0.2h-0.1V28.6z"/>
		</g>
	</g>
	<g>
		<g>
			<polygon class="st2" points="53.3,37.9 51.7,36.2 52.6,35.4 54.1,37 			"/>
			<path class="st3" d="M53.3,37.9L53.3,37.9l-1.6-1.7l0.8-0.9l0,0l1.6,1.7l0,0L53.3,37.9z M51.8,36.2l1.5,1.6l0.8-0.8l-1.5-1.6
				L51.8,36.2z"/>
		</g>
		<g>
			<polygon class="st2" points="53,35.9 52.5,35.4 53.1,34.8 53.5,35.3 			"/>
			<path class="st3" d="M53,35.9l-0.5-0.5l0.6-0.7l0.5,0.5L53,35.9z M52.5,35.4l0.4,0.4l0.5-0.6l-0.4-0.4L52.5,35.4z"/>
		</g>
		<g>
			<polygon class="st2" points="53.2,38.2 51.5,36.3 51.7,36.1 53.4,37.9 			"/>
			<path class="st3" d="M53.2,38.2L53.2,38.2l-1.8-1.9l0.2-0.3l0,0l1.8,1.9L53.2,38.2z M51.5,36.3l1.7,1.8l0.2-0.2l-1.7-1.8
				L51.5,36.3z"/>
		</g>
		<g>
			<polygon class="st2" points="53.5,36.5 53.1,36 53.9,35.1 54.3,35.6 			"/>
			<path class="st3" d="M53.5,36.5L53.5,36.5L53,36l0.8-0.9l0.5,0.5L53.5,36.5z M53.1,36l0.4,0.4l0.8-0.8l-0.4-0.4L53.1,36z"/>
		</g>
		<g>
			<polygon class="st2" points="54,37.1 53.6,36.6 54.1,36 54.6,36.5 			"/>
			<path class="st3" d="M54,37.1L54,37.1l-0.5-0.5l0.6-0.6l0.5,0.5l0,0L54,37.1z M53.6,36.6L54,37l0.5-0.5L54.1,36L53.6,36.6z"/>
		</g>
		<g>
			<polygon class="st2" points="54.1,37.2 52.4,35.3 52.5,35.1 54.3,37 			"/>
			<path class="st3" d="M54.1,37.2L54.1,37.2l-1.8-1.9l0.2-0.2l0,0l1.8,1.9L54.1,37.2z M52.4,35.3l1.7,1.8l0.1-0.1l-1.7-1.8
				L52.4,35.3z"/>
		</g>
		<g>
			<path class="st2" d="M53.1,37.4c0.2-0.3,0.2-0.7,0-0.9c-0.2-0.3-0.6-0.3-0.9,0c0,0,0,0-0.1,0.1L53.1,37.4
				C53,37.4,53,37.4,53.1,37.4z"/>
			<path class="st3" d="M53,37.5L53,37.5l-0.9-1l0,0c0,0,0,0,0.1-0.1c0.1-0.1,0.3-0.2,0.5-0.2c0.2,0,0.3,0.1,0.5,0.2
				C53.3,36.7,53.3,37.2,53,37.5C53.1,37.4,53,37.5,53,37.5L53,37.5z M52.2,36.5l0.8,0.9c0,0,0,0,0,0c0.2-0.2,0.2-0.6,0-0.9
				c-0.1-0.1-0.3-0.2-0.4-0.2C52.5,36.3,52.3,36.4,52.2,36.5C52.2,36.5,52.2,36.5,52.2,36.5z"/>
		</g>
		<g>
			<path class="st2" d="M53,37.3c0.2-0.2,0.2-0.5,0-0.7c-0.2-0.2-0.5-0.2-0.7,0c0,0,0,0-0.1,0.1L53,37.3
				C52.9,37.3,52.9,37.3,53,37.3z"/>
			<path class="st3" d="M52.9,37.4l-0.7-0.7l0,0c0,0,0-0.1,0.1-0.1c0.1-0.1,0.2-0.2,0.3-0.2c0.1,0,0.3,0.1,0.3,0.2
				C53.2,36.8,53.2,37.1,52.9,37.4C53,37.3,52.9,37.4,52.9,37.4L52.9,37.4z M52.3,36.6l0.6,0.7c0,0,0,0,0,0c0.2-0.2,0.2-0.5,0-0.7
				c-0.1-0.1-0.2-0.1-0.3-0.1C52.5,36.5,52.4,36.5,52.3,36.6C52.3,36.6,52.3,36.6,52.3,36.6z"/>
		</g>
		<g>
			<polygon class="st2" points="53.6,35.4 53.8,35.2 53.6,35 53.7,34.9 53.6,34.8 53.5,34.9 53.4,34.8 53.5,34.7 53.4,34.6 
				53.3,34.7 53.2,34.5 53,34.7 			"/>
			<path class="st3" d="M53.6,35.4L53,34.7l0.2-0.2l0.1,0.2l0.1-0.1l0.1,0.1l-0.1,0.1l0.1,0.1l0.1-0.1l0.1,0.2L53.7,35l0.1,0.1
				L53.6,35.4z M53,34.7l0.5,0.6l0.1-0.2L53.6,35l0.1-0.1l-0.1-0.1l-0.1,0.1l-0.1-0.1l0.1-0.1l-0.1-0.1l-0.1,0.1l-0.1-0.2L53,34.7z"
				/>
		</g>
		<g>
			<polygon class="st2" points="54.4,35.7 54.6,35.5 54.4,35.4 54.5,35.2 54.4,35.1 54.3,35.2 54.2,35.1 54.3,35 54.2,34.9 54.1,35 
				54,34.9 53.8,35.1 			"/>
			<path class="st3" d="M54.4,35.7l-0.6-0.7l0.2-0.2l0.1,0.2l0.1-0.1l0.1,0.1l-0.1,0.1l0.1,0.1l0.1-0.1l0.1,0.2l-0.1,0.1l0.1,0.1
				L54.4,35.7z M53.8,35.1l0.5,0.6l0.1-0.2l-0.1-0.1l0.1-0.1l-0.1-0.1l-0.1,0.1l-0.1-0.1l0.1-0.1L54.2,35l-0.1,0.1L54,34.9
				L53.8,35.1z"/>
		</g>
		<g>
			<polygon class="st2" points="54.7,36.5 54.8,36.3 54.7,36.2 54.8,36.1 54.7,36 54.6,36.1 54.5,36 54.6,35.9 54.5,35.8 54.4,35.9 
				54.3,35.7 54.1,35.9 			"/>
			<path class="st3" d="M54.7,36.6L54.7,36.6L54,35.9l0.2-0.2l0.1,0.2l0.1-0.1l0.1,0.1L54.5,36l0.1,0.1l0.1-0.1l0.1,0.2l-0.1,0.1
				l0.1,0.1L54.7,36.6z M54.1,35.9l0.5,0.6l0.1-0.2l-0.1-0.1l0.1-0.1L54.7,36l-0.1,0.1L54.5,36l0.1-0.1l-0.1-0.1l-0.1,0.1l-0.1-0.2
				L54.1,35.9z"/>
		</g>
		<g>
			<polygon class="st2" points="53,35.4 53,35.3 53.2,35.1 53.2,35.2 			"/>
			<path class="st3" d="M53,35.5l-0.1-0.1l0.2-0.3l0.1,0.1L53,35.5z M53,35.3L53,35.3l0.2-0.1l0,0L53,35.3z"/>
		</g>
		<g>
			<polygon class="st2" points="53.8,35.8 53.7,35.7 53.8,35.5 54,35.7 			"/>
			<path class="st3" d="M53.8,35.9l-0.2-0.2l0.2-0.2l0.2,0.2L53.8,35.9z M53.7,35.7l0.1,0.1l0.1-0.1l-0.1-0.1L53.7,35.7z"/>
		</g>
		<g>
			<polygon class="st2" points="54.1,36.6 54,36.5 54.2,36.3 54.3,36.4 			"/>
			<path class="st3" d="M54.1,36.6L54,36.5l0.2-0.3l0.1,0.1L54.1,36.6z M54.1,36.5L54.1,36.5l0.2-0.1l0-0.1L54.1,36.5z"/>
		</g>
	</g>
	<g>
		<g>
			<polygon class="st2" points="45.3,36.2 43.8,37.8 42.9,36.9 44.5,35.3 			"/>
			<path class="st3" d="M43.8,37.9L43.8,37.9l-0.8-0.9l0,0l1.6-1.7l0.8,0.9l0,0L43.8,37.9z M43,36.9l0.8,0.8l1.5-1.6l-0.8-0.8
				L43,36.9z"/>
		</g>
		<g>
			<polygon class="st2" points="43.4,36.5 43,37 42.4,36.4 42.9,35.9 			"/>
			<path class="st3" d="M43,37L43,37l-0.6-0.7l0.5-0.5l0.6,0.7L43,37z M42.5,36.4L43,37l0.4-0.4l-0.5-0.6L42.5,36.4z"/>
		</g>
		<g>
			<polygon class="st2" points="45.6,36.2 43.8,38.1 43.6,37.9 45.3,36 			"/>
			<path class="st3" d="M43.8,38.1l-0.2-0.3l1.8-1.9l0.2,0.3l0,0L43.8,38.1z M43.6,37.9l0.2,0.2l1.7-1.8L45.3,36L43.6,37.9z"/>
		</g>
		<g>
			<polygon class="st2" points="44,35.9 43.5,36.4 42.7,35.6 43.2,35.1 			"/>
			<path class="st3" d="M43.5,36.5L43.5,36.5l-0.8-0.9l0.5-0.5l0.8,0.9L43.5,36.5z M42.8,35.6l0.8,0.8l0.4-0.4l-0.8-0.8L42.8,35.6z"
				/>
		</g>
		<g>
			<polygon class="st2" points="44.5,35.4 44.1,35.8 43.5,35.3 44,34.8 			"/>
			<path class="st3" d="M44.1,35.9l-0.6-0.6l0.5-0.5l0.6,0.6L44.1,35.9z M43.6,35.3l0.5,0.5l0.4-0.4L44,34.8L43.6,35.3z"/>
		</g>
		<g>
			<polygon class="st2" points="44.7,35.3 42.9,37.1 42.7,37 44.5,35.1 			"/>
			<path class="st3" d="M42.9,37.2L42.7,37l0,0l1.8-1.9l0.2,0.2l0,0L42.9,37.2z M42.8,37l0.1,0.1l1.7-1.8l-0.1-0.1L42.8,37z"/>
		</g>
		<g>
			<path class="st2" d="M44.8,36.4c-0.2-0.3-0.6-0.3-0.9,0c-0.2,0.3-0.2,0.7,0,0.9c0,0,0,0,0.1,0.1L44.8,36.4
				C44.9,36.5,44.9,36.4,44.8,36.4z"/>
			<path class="st3" d="M44,37.4L44,37.4C44,37.4,44,37.4,44,37.4c-0.3-0.3-0.3-0.8-0.1-1.1c0.1-0.1,0.3-0.2,0.5-0.2
				s0.3,0.1,0.5,0.2c0,0,0,0,0.1,0.1l0,0l0,0L44,37.4z M44.4,36.2c-0.2,0-0.3,0.1-0.4,0.2c-0.2,0.2-0.2,0.6,0,0.9c0,0,0,0,0,0
				l0.8-0.9c0,0,0,0,0,0C44.7,36.3,44.6,36.2,44.4,36.2z"/>
		</g>
		<g>
			<path class="st2" d="M44.7,36.5c-0.2-0.2-0.5-0.2-0.7,0c-0.2,0.2-0.2,0.5,0,0.7c0,0,0,0,0.1,0.1L44.7,36.5
				C44.8,36.6,44.8,36.5,44.7,36.5z"/>
			<path class="st3" d="M44.1,37.3L44.1,37.3C44.1,37.3,44.1,37.3,44.1,37.3c-0.3-0.3-0.3-0.6-0.1-0.8c0.1-0.1,0.2-0.2,0.3-0.2
				c0.1,0,0.3,0.1,0.3,0.2c0,0,0,0,0.1,0.1l0,0l0,0L44.1,37.3z M44.4,36.4c-0.1,0-0.2,0-0.3,0.1c-0.2,0.2-0.2,0.5,0,0.7c0,0,0,0,0,0
				l0.6-0.7c0,0,0,0,0,0C44.6,36.4,44.5,36.4,44.4,36.4z"/>
		</g>
		<g>
			<polygon class="st2" points="42.9,35.8 42.8,35.6 42.6,35.8 42.5,35.7 42.4,35.8 42.5,35.9 42.4,36 42.3,35.9 42.2,36 42.3,36.1 
				42.2,36.3 42.4,36.5 			"/>
			<path class="st3" d="M42.4,36.5l-0.2-0.2l0.1-0.2L42.2,36l0.1-0.1l0.1,0.1l0.1-0.1l-0.1-0.1l0.1-0.2l0.1,0.1l0.1-0.1l0.2,0.2
				L42.4,36.5z M42.2,36.3l0.2,0.2l0.5-0.6l-0.1-0.2l-0.1,0.1l-0.1-0.1l-0.1,0.1l0.1,0.1L42.4,36l-0.1-0.1L42.3,36l0.1,0.1
				L42.2,36.3z"/>
		</g>
		<g>
			<polygon class="st2" points="43.3,35 43.1,34.8 42.9,34.9 42.8,34.8 42.7,34.9 42.8,35 42.7,35.1 42.6,35 42.5,35.1 42.6,35.3 
				42.5,35.4 42.7,35.6 			"/>
			<path class="st3" d="M42.7,35.7l-0.2-0.2l0.1-0.2l-0.1-0.1l0.1-0.1l0.1,0.1l0.1-0.1l-0.1-0.1l0.1-0.2l0.1,0.1l0.1-0.1l0.2,0.2
				L42.7,35.7z M42.5,35.4l0.2,0.2l0.5-0.6l-0.1-0.2L42.9,35l-0.1-0.1l-0.1,0.1l0.1,0.1l-0.1,0.1l-0.1-0.1l-0.1,0.1l0.1,0.1
				L42.5,35.4z"/>
		</g>
		<g>
			<polygon class="st2" points="44,34.7 43.9,34.5 43.7,34.6 43.6,34.5 43.5,34.6 43.6,34.8 43.5,34.9 43.4,34.7 43.3,34.8 43.4,35 
				43.3,35.1 43.5,35.3 			"/>
			<path class="st3" d="M43.5,35.4l-0.2-0.2l0.1-0.2l-0.1-0.1l0.1-0.1l0.1,0.1l0.1-0.1l-0.1-0.1l0.1-0.2l0.1,0.1l0.1-0.1l0.2,0.2
				L43.5,35.4z M43.3,35.1l0.2,0.2l0.5-0.6l-0.1-0.2l-0.1,0.1l-0.1-0.1l-0.1,0.1l0.1,0.1l-0.1,0.1l-0.1-0.1l-0.1,0.1l0.1,0.1
				L43.3,35.1z"/>
		</g>
		<g>
			<polygon class="st2" points="43,36.4 42.9,36.5 42.7,36.3 42.8,36.2 			"/>
			<path class="st3" d="M42.9,36.6l-0.2-0.3l0.1-0.1l0.2,0.3L42.9,36.6z M42.8,36.3l0.2,0.2l0,0L42.8,36.3L42.8,36.3z"/>
		</g>
		<g>
			<polygon class="st2" points="43.4,35.6 43.2,35.7 43.1,35.6 43.2,35.4 			"/>
			<path class="st3" d="M43.2,35.8L43,35.6l0.2-0.2l0.2,0.2L43.2,35.8z M43.1,35.6l0.1,0.1l0.1-0.1l-0.1-0.1L43.1,35.6z"/>
		</g>
		<g>
			<polygon class="st2" points="44.1,35.3 44,35.4 43.8,35.1 43.9,35 			"/>
			<path class="st3" d="M44,35.4l-0.2-0.3l0.1-0.1l0.2,0.3L44,35.4z M43.8,35.1l0.2,0.2l0-0.1L43.8,35.1L43.8,35.1z"/>
		</g>
	</g>
	<g>
		<g>
			<path class="st6" d="M47.4,28.7h2.2v2c0,0-0.1,0.3-0.2,0.5c-0.4,0.6-0.9,0.6-0.9,0.6s-0.6,0-0.9-0.6c-0.2-0.2-0.2-0.5-0.2-0.5
				L47.4,28.7z"/>
		</g>
		<g>
			<g>
				<path class="st4" d="M48.8,30.1c0,0.1-0.1,0.2-0.2,0.2c-0.1,0-0.2-0.1-0.2-0.2c0-0.1,0.1-0.2,0.2-0.2
					C48.7,29.8,48.8,30,48.8,30.1z"/>
			</g>
			<g>
				<path class="st4" d="M48.1,29.5c0,0.1-0.1,0.2-0.2,0.2c-0.1,0-0.2-0.1-0.2-0.2c0-0.1,0.1-0.2,0.2-0.2
					C48.1,29.2,48.1,29.3,48.1,29.5z"/>
			</g>
			<g>
				<path class="st4" d="M48.1,30.7c0,0.1-0.1,0.2-0.2,0.2c-0.1,0-0.2-0.1-0.2-0.2c0-0.1,0.1-0.2,0.2-0.2
					C48.1,30.5,48.1,30.6,48.1,30.7z"/>
			</g>
			<g>
				<path class="st4" d="M49.3,29.5c0,0.1-0.1,0.2-0.2,0.2s-0.2-0.1-0.2-0.2c0-0.1,0.1-0.2,0.2-0.2S49.3,29.3,49.3,29.5z"/>
			</g>
			<g>
				<path class="st4" d="M49.3,30.7c0,0.1-0.1,0.2-0.2,0.2s-0.2-0.1-0.2-0.2c0-0.1,0.1-0.2,0.2-0.2S49.3,30.6,49.3,30.7z"/>
			</g>
		</g>
	</g>
	<g>
		<g>
			<path class="st6" d="M50.2,28.7h2.2v2c0,0-0.1,0.3-0.2,0.5c-0.4,0.6-0.9,0.6-0.9,0.6s-0.6,0-0.9-0.6c-0.2-0.2-0.2-0.5-0.2-0.5
				L50.2,28.7z"/>
		</g>
		<g>
			<g>
				<path class="st4" d="M51.6,30.1c0,0.1-0.1,0.2-0.2,0.2c-0.1,0-0.2-0.1-0.2-0.2c0-0.1,0.1-0.2,0.2-0.2
					C51.5,29.8,51.6,30,51.6,30.1z"/>
			</g>
			<g>
				<path class="st4" d="M51,29.5c0,0.1-0.1,0.2-0.2,0.2c-0.1,0-0.2-0.1-0.2-0.2c0-0.1,0.1-0.2,0.2-0.2C50.9,29.2,51,29.3,51,29.5z"
					/>
			</g>
			<g>
				<path class="st4" d="M51,30.7c0,0.1-0.1,0.2-0.2,0.2c-0.1,0-0.2-0.1-0.2-0.2c0-0.1,0.1-0.2,0.2-0.2C50.9,30.5,51,30.6,51,30.7z"
					/>
			</g>
			<g>
				<path class="st4" d="M52.2,29.5c0,0.1-0.1,0.2-0.2,0.2c-0.1,0-0.2-0.1-0.2-0.2c0-0.1,0.1-0.2,0.2-0.2
					C52.1,29.2,52.2,29.3,52.2,29.5z"/>
			</g>
			<g>
				<path class="st4" d="M52.2,30.7c0,0.1-0.1,0.2-0.2,0.2c-0.1,0-0.2-0.1-0.2-0.2c0-0.1,0.1-0.2,0.2-0.2
					C52.1,30.5,52.2,30.6,52.2,30.7z"/>
			</g>
		</g>
	</g>
	<g>
		<g>
			<path class="st6" d="M47.4,24.9h2.2v2c0,0-0.1,0.3-0.2,0.5C49.1,28,48.5,28,48.5,28s-0.6,0-0.9-0.6c-0.2-0.2-0.2-0.5-0.2-0.5
				L47.4,24.9z"/>
		</g>
		<g>
			<g>
				<path class="st4" d="M48.8,26.2c0,0.1-0.1,0.2-0.2,0.2c-0.1,0-0.2-0.1-0.2-0.2c0-0.1,0.1-0.2,0.2-0.2
					C48.7,26,48.8,26.1,48.8,26.2z"/>
			</g>
			<g>
				<path class="st4" d="M48.1,25.6c0,0.1-0.1,0.2-0.2,0.2c-0.1,0-0.2-0.1-0.2-0.2c0-0.1,0.1-0.2,0.2-0.2
					C48.1,25.4,48.1,25.5,48.1,25.6z"/>
			</g>
			<g>
				<path class="st4" d="M48.1,26.9c0,0.1-0.1,0.2-0.2,0.2c-0.1,0-0.2-0.1-0.2-0.2s0.1-0.2,0.2-0.2C48.1,26.6,48.1,26.8,48.1,26.9z"
					/>
			</g>
			<g>
				<path class="st4" d="M49.3,25.6c0,0.1-0.1,0.2-0.2,0.2s-0.2-0.1-0.2-0.2c0-0.1,0.1-0.2,0.2-0.2S49.3,25.5,49.3,25.6z"/>
			</g>
			<g>
				<path class="st4" d="M49.3,26.9c0,0.1-0.1,0.2-0.2,0.2s-0.2-0.1-0.2-0.2s0.1-0.2,0.2-0.2S49.3,26.8,49.3,26.9z"/>
			</g>
		</g>
	</g>
	<g>
		<g>
			<path class="st6" d="M47.4,32.6h2.2v2c0,0-0.1,0.3-0.2,0.5c-0.4,0.6-0.9,0.6-0.9,0.6s-0.6,0-0.9-0.6c-0.2-0.2-0.2-0.5-0.2-0.5
				L47.4,32.6z"/>
		</g>
		<g>
			<g>
				<path class="st4" d="M48.8,34c0,0.1-0.1,0.2-0.2,0.2c-0.1,0-0.2-0.1-0.2-0.2c0-0.1,0.1-0.2,0.2-0.2C48.7,33.8,48.8,33.9,48.8,34
					z"/>
			</g>
			<g>
				<path class="st4" d="M48.1,33.4c0,0.1-0.1,0.2-0.2,0.2c-0.1,0-0.2-0.1-0.2-0.2c0-0.1,0.1-0.2,0.2-0.2
					C48.1,33.1,48.1,33.2,48.1,33.4z"/>
			</g>
			<g>
				<path class="st4" d="M48.1,34.6c0,0.1-0.1,0.2-0.2,0.2c-0.1,0-0.2-0.1-0.2-0.2c0-0.1,0.1-0.2,0.2-0.2
					C48.1,34.4,48.1,34.5,48.1,34.6z"/>
			</g>
			<g>
				<path class="st4" d="M49.3,33.4c0,0.1-0.1,0.2-0.2,0.2s-0.2-0.1-0.2-0.2c0-0.1,0.1-0.2,0.2-0.2S49.3,33.2,49.3,33.4z"/>
			</g>
			<g>
				<path class="st4" d="M49.3,34.6c0,0.1-0.1,0.2-0.2,0.2s-0.2-0.1-0.2-0.2c0-0.1,0.1-0.2,0.2-0.2S49.3,34.5,49.3,34.6z"/>
			</g>
		</g>
	</g>
	<g>
		<g>
			<path class="st6" d="M44.4,28.8h2.2v2c0,0-0.1,0.3-0.2,0.5c-0.4,0.6-0.9,0.6-0.9,0.6s-0.6,0-0.9-0.6c-0.2-0.2-0.2-0.5-0.2-0.5
				L44.4,28.8z"/>
		</g>
		<g>
			<g>
				<path class="st4" d="M45.8,30.1c0,0.1-0.1,0.2-0.2,0.2c-0.1,0-0.2-0.1-0.2-0.2c0-0.1,0.1-0.2,0.2-0.2
					C45.7,29.8,45.8,30,45.8,30.1z"/>
			</g>
			<g>
				<path class="st4" d="M45.2,29.5c0,0.1-0.1,0.2-0.2,0.2s-0.2-0.1-0.2-0.2c0-0.1,0.1-0.2,0.2-0.2S45.2,29.3,45.2,29.5z"/>
			</g>
			<g>
				<path class="st4" d="M45.2,30.7c0,0.1-0.1,0.2-0.2,0.2s-0.2-0.1-0.2-0.2c0-0.1,0.1-0.2,0.2-0.2S45.2,30.6,45.2,30.7z"/>
			</g>
			<g>
				<path class="st4" d="M46.4,29.5c0,0.1-0.1,0.2-0.2,0.2s-0.2-0.1-0.2-0.2c0-0.1,0.1-0.2,0.2-0.2S46.4,29.3,46.4,29.5z"/>
			</g>
			<g>
				<path class="st4" d="M46.4,30.7c0,0.1-0.1,0.2-0.2,0.2s-0.2-0.1-0.2-0.2c0-0.1,0.1-0.2,0.2-0.2S46.4,30.6,46.4,30.7z"/>
			</g>
		</g>
	</g>
</g>
</svg>
