<?xml version="1.0" encoding="utf-8"?>
<!-- Generator: Adobe Illustrator 28.1.0, SVG Export Plug-In . SVG Version: 6.00 Build 0)  -->
<svg version="1.1" id="Layer_1" xmlns="http://www.w3.org/2000/svg" xmlns:xlink="http://www.w3.org/1999/xlink" x="0px" y="0px"
	 viewBox="0 0 114 60" style="enable-background:new 0 0 114 60;" xml:space="preserve">
<style type="text/css">
	.st0{fill:#006D33;}
	.st1{fill:#FFFFFF;}
</style>
<g>
	<rect y="0" class="st0" width="114" height="60"/>
	<path class="st1" d="M35.6,21.1c1.4,0.1,0.6-2.4,1.2-2.9c0.1-0.2,0.3-0.2,0.3,0.1v2.2c0,0.7,0.5,0.9,0.8,1.1c0.4,0,0.6,0,0.8,0.4
		c0.1,1.3,0.1,2.5,0.2,3.8c0,0,0.9,0.3,0.9-2.1c0-1.4-0.3-2.6-0.1-2.8c0-0.3,0.3-0.3,0.6-0.2c0.4,0.3,0.5,0.6,1.1,0.5
		c0.9-0.2,1.4-0.7,1.4-1.4c-0.1-0.6-0.1-1.3-0.4-2c0-0.1-0.2-0.4-0.1-0.5c0.2,0.3,0.4,0.2,0.5,0c-0.2-0.5-0.4-1-0.8-1.2
		c-0.3-0.3-0.8-0.2-0.9,0.4c-0.1,0.7,0.2,1.5,0.7,2.1c0.1,0.3,0.2,0.7,0.2,1.1c-0.3,0.1-0.5,0.1-0.7-0.1c0,0-0.7-0.5-0.7-0.6
		c0.2-1.2,0-1.3-0.1-1.7c-0.1-0.5-0.3-0.6-0.5-0.9c-0.2-0.2-0.4-0.2-0.5,0c-0.3,0.5-0.2,1.7,0.1,2.2c0.2,0.5,0.4,0.8,0.3,0.8
		c-0.1,0.3-0.3,0.2-0.4-0.1c-0.2-0.6-0.3-1.6-0.3-2c-0.1-0.5-0.1-1.7-0.5-2c-0.2-0.3-0.5-0.2-0.6,0.1c0,0.5,0,1.1,0,1.6
		c0.2,0.9,0.3,1.6,0.4,2.5c0,1.2-0.7,0.5-0.7-0.1c0.2-0.8,0.1-2,0-2.3c-0.1-0.3-0.3-0.4-0.5-0.3c-0.2,0-0.8,0.6-1,1.7
		c0,0-0.1,0.5-0.2,1c-0.1,0.5-0.4,0.9-0.7-0.1c-0.2-0.7-0.4-2.5-0.7-2.1C34.6,18.4,34.4,20.9,35.6,21.1z M37.8,22.2
		c-1.2,0-2.9,1.6-3,2.4c1.3-0.6,2.5-1.2,3.8-1.8C38.4,22.5,38.6,22.2,37.8,22.2z M44.3,26.8c0.5-1.7,0-3,0.2-3.2c0,0,0,0,0,0
		c0,0,0,0,0,0h0c0,0,0,0,0,0c0.6,0.7,1.5,0.1,1.7-0.1c0.1-0.1,0.3-0.2,0.4,0c0.5,0.4,1.4,0.2,1.5-0.4c0.1-0.6,0.2-1.2,0.2-1.9
		c-0.3,0.1-0.6,0.2-0.7,0.3c0,0,0,0.1,0,0.1c0,0.2-0.1,0.4-0.1,0.5c0,0,0,0,0,0c0,0,0,0-0.1,0.1c-0.1,0.1-0.3,0-0.3-0.1
		c-0.2-0.7-0.8-0.8-1.2,0.3c-0.3,0.2-0.7,0.2-0.8-0.1c0.1-0.7-0.2-0.8-0.8-0.5c-0.2-1.4-0.4-2.8-0.6-4.2c0.2,0,0.5,0.2,0.7-0.1
		c-0.2-0.8-0.7-2.3-1-2.4c0,0,0,0,0,0c0,0,0,0,0,0c0,0,0,0,0,0c0,0,0,0,0,0c0,0,0,0,0,0c0,0-0.1,0-0.1,0c-0.1,0-0.1,0.1-0.2,0.1
		c-0.3,0.1-0.6,0.4-0.5,0.9c0.4,2.2,0.6,3.9,1,6.1c0.1,0.3-0.2,0.6-0.4,0.6c-0.5-0.3-0.6-1-1.4-0.9c-0.6,0-1.3,0.6-1.3,1.3
		c-0.1,0.5-0.1,1,0,1.4c0.4,0.5,0.9,0.4,1.3,0.3c0.4-0.1,0.6-0.5,0.8-0.4h0v0c0.1,0.1,0,1.3-1.7,2.2c-1,0.5-1.8,0.6-2.3-0.3
		c-0.3-0.5,0-2.5-0.6-2.1c-2,5.1,4.6,5.8,5.4,0.2c0-0.2,0.2-0.3,0.3-0.3c0,0,0.1,0.1,0.1,0.2c-0.2,5.1-5.1,5.4-6,3.8
		c-0.2-0.4-0.3-1.2-0.3-1.7c0-0.3-0.1-0.5-0.2-0.5c-0.2-0.2-0.5,0.2-0.5,0.9c-0.1,0.5-0.1,0.7-0.1,1.2
		C36.9,31.8,43.3,30.1,44.3,26.8z M41.9,23.3L41.9,23.3C41.9,23.3,41.9,23.3,41.9,23.3c-0.1,0.1-0.2,0.1-0.4,0.1
		c-0.2,0-0.2,0-0.3-0.2c0-0.1,0.1-0.3,0.1-0.4c0,0,0,0,0,0c0,0,0,0,0,0c0,0,0.1-0.1,0.2-0.1c0.1,0,0.3,0,0.4,0.2
		C42,23.1,42,23.2,41.9,23.3z M44.9,18.7C44.9,18.7,44.9,18.7,44.9,18.7C44.9,18.7,44.9,18.8,44.9,18.7
		C44.9,18.8,44.9,18.8,44.9,18.7L44.9,18.7c0.1,0.1,1.3,0.1,1.4,0c0,0,0,0,0,0h0c0.4-0.1,2.3-2.3,2.3-2.3c-0.1-0.1-0.2-0.1-0.3-0.2
		c-0.1-0.1-0.1-0.2,0-0.3c0.5-0.3,0.3-0.9,0.1-1.1c-0.2-0.1-0.4-0.1-0.6-0.1c-0.2,0-0.3,0.1-0.4,0.1c-0.3,0.3-0.4,0.8-0.1,1.1
		c0.2,0.1,0.5,0.4,0.3,0.5C46.9,17.2,45,18.5,44.9,18.7C44.9,18.7,44.9,18.7,44.9,18.7C44.9,18.7,44.9,18.7,44.9,18.7L44.9,18.7
		L44.9,18.7C44.9,18.7,44.9,18.7,44.9,18.7z M47.7,15.4C47.7,15.4,47.7,15.4,47.7,15.4c0.1,0,0.3,0.1,0.3,0.2c0.1,0.2,0,0.3-0.1,0.3
		c-0.1,0-0.3-0.1-0.3-0.2C47.6,15.6,47.6,15.4,47.7,15.4z M35.5,28.4c-0.3,0.6-0.4,0.2-0.5-0.2c0-0.7,0-1.3,0.1-1.8
		c0.1-0.5,0-0.3-0.2-0.1c-0.7,1.1-0.8,2.8-0.4,3.3c0.2,0.2,0.5,0.3,0.8,0.3c0.4-0.2,0.6-1.1,0.5-1.4C35.8,28.3,35.7,28.2,35.5,28.4z
		 M58.7,16.6c0.8,1.1,1.6,2.2,2.4,3.4c0.1,0.9,0.2,1.7,0.3,2.5c0.1,1.8,0.2,4.1,0,6c0.3,0,0.9-0.6,1.1-1.4c0.1-1.2,0-3.5-0.1-4.2
		c0-0.3,0-0.6,0-0.9c0.9,1.5,1.8,3,2.6,4.7c0.3-0.1,0.2-1.9,0.1-2.1c-0.7-1.5-1.6-2.9-1.9-3.5c-0.1-0.2-0.5-0.8-0.9-1.4
		c-0.1-0.9-0.2-1.7-0.2-1.9c-0.1-1,0.4,0.1,0.3-0.5c-0.2-1-0.7-1.6-1.4-2.5c-0.2-0.3-0.2-0.4-0.5,0.1c-0.2,0.4-0.2,0.8-0.1,1.1
		c-0.1-0.1-0.2-0.3-0.3-0.5c-0.5-0.5-0.6-0.5-1-0.9c-0.2-0.2-0.8-0.5-0.9,0c-0.1,0.4,0,0.7,0.1,1C58.2,15.9,58.6,16.3,58.7,16.6z
		 M60.5,16.5c0,0.1,0,0.2,0.1,0.3c0,0.2,0.1,0.4,0.1,0.6c-0.2-0.2-0.3-0.4-0.4-0.5C59.9,16.4,60.3,16.5,60.5,16.5z M65.3,27.2
		c-0.8,0.8-1.9,1.8-3.2,2.3c-0.1,0.2,0.3,0.8,0.9,0.8c1-0.1,1.9-0.7,2.7-2.2c0.2-0.3,0.6-1.1,0.6-1.7c0.1-3.4-0.2-6-0.7-8.5
		c0-0.2,0-0.5,0-0.6c0.1-0.1,0.3,0,0.4-0.2c0.2-0.2-0.5-1.6-0.8-2.2c-0.1-0.3-0.2-0.4-0.4,0c-0.2,0.4-0.4,1-0.4,1.6
		c0.5,3.3,0.6,6.3,0.9,9.6C65.6,26.5,65.5,27,65.3,27.2z M78.6,17.9c0-0.2-0.1-0.8-0.1-0.9c0.1-0.2,0.4,0,0.5-0.2
		c0.2-0.2-0.9-1.5-1.2-2.1c-0.1-0.3-0.2-0.4-0.4,0c-0.2,0.4-0.3,1-0.2,1.6c0.5,3.6,0.9,7.1,1,10.3c0,0.3-0.1,0.5-0.2,0.9
		c-0.3,0.4-0.7,0.9-1,1.2c-0.3,0.2-1,0.5-1.3,0.7c-0.7,0.4-0.7,0.9-0.1,0.9c1-0.1,2.2-0.2,3-1.4c0.2-0.3,0.5-1.3,0.5-1.9
		C79.2,23.7,79.1,20.4,78.6,17.9z M70.9,21.5c0-0.5,0.1-1.1,0.1-1.5c0-0.1,0-0.3,0.2-0.3c0.1,0,0.4,0.1,0.4,0c0-0.3-0.1-0.7-0.3-0.9
		c-0.2-0.3-0.8-0.3-0.9,0.3c0,0.2,0.1,0.3,0.1,0.5c0,0.1-0.1,0.2-0.4,0.1c0,0-0.2-0.3-0.2-0.3c-0.2-0.1-0.5,0-0.6,0.1
		c-0.1,0.2-0.2,0.5-0.1,0.8C69.5,20.6,70.5,21.5,70.9,21.5z M70.6,16.9c0.7,0.8,1.4,1.7,2,2.6c0.1,1.9,0.2,3.6,0.3,5.4
		c0,0.8-0.3,1.9-0.5,2c0,0-0.4,0.2-0.6,0c-0.2-0.1-0.9-1.1-0.9-1.1c-0.4-0.3-0.6-0.2-0.8,0c-0.7,0.7-1,1.9-1.5,2.8
		c-0.1,0.2-0.5,0.4-0.8,0c-1-1.3-0.4-3.2-0.5-2.7c-0.9,1-0.5,2.6-0.3,2.9c0.3,0.6,0.5,0.9,1.1,1.2c0.5,0.4,0.9,0.1,1.1-0.1
		c0.5-0.5,0.5-1.9,0.7-2.1c0.2-0.5,0.6-0.4,0.8-0.2c0.2,0.3,0.4,0.5,0.7,0.6c0.5,0.4,1,0.5,1.6,0.1c0.4-0.2,0.6-0.5,0.8-1
		c0.2-0.6,0.1-4,0.1-5.8c0.4,0.5,0.7,1,1,1.5c0.2,1.6,0.2,3.2,0.2,4.8c0,0.3,1.1-0.9,1.1-1.5c0-0.5,0-1,0-1.4
		c0.5,0.9,1.1,1.7,1.5,2.6c0.3-0.2,0.2-1.9,0-2.1c-0.5-0.9-1.2-1.8-1.7-2.5c-0.1-0.9-0.2-2-0.3-2.3c-0.1-0.5-0.2-1.3-0.3-1.9
		c0-0.2-0.2-1-0.1-1.1c0.1-0.2,0.3,0,0.4-0.2c0.2-0.2-0.6-2.1-1-2.7c-0.1-0.2-0.4-0.2-0.7,0.2c-0.3,0.3-0.2,0.9-0.1,1.4
		c0.3,1.5,0.5,2.9,0.7,4.4c-0.4-0.5-0.8-1.2-1.2-1.8c0-0.2-0.1-0.3-0.1-0.3c0,0-0.1-1.2-0.1-1.5c0-0.1,0-0.1,0.1-0.1
		c0.1,0.1,0.1,0.1,0.2,0.2c0.1,0,0.2-0.2,0.2-0.4c-0.4-0.7-0.8-1.4-1.2-2.2c-0.1-0.1-0.2-0.2-0.4,0C72.2,14.8,72,15,72,15.3
		c0,0.5,0.1,1,0.2,1.6c0,0.1,0,0.1,0,0.2c0-0.1-0.1-0.1-0.1-0.2c-1-1.1,0.5-0.2-0.2-1c-0.6-0.6-0.7-0.8-1.2-1.2
		c-0.2-0.1-0.4-0.4-0.5,0.1c0,0.4-0.1,0.9,0,1.3C70.2,16.3,70.4,16.7,70.6,16.9z M72.4,42.5c-0.3,0-1.1,0.1-1.1,0.1
		c-1-0.1-1.7-0.1-2.7-0.2c0.1-0.1,0.3-0.6,0.1-0.8c-0.1,0-0.1-0.1-0.3-0.1h0c0,0,0,0,0,0l0,0c0,0,0,0,0,0c0,0,0,0,0,0c0,0,0,0,0,0
		c-0.1-0.1-0.1-0.3-0.1-0.3c0,0,0,0,0,0l0,0l0,0h0l0,0c-0.7,0.2-0.7,0.9-0.2,1.2c-7.5,0-19-0.1-21.5-0.1c-1.4,0-5.8-0.2-5.8-0.2
		c0.9,1.4,2.3,1.7,4.1,1.7c3.3,0,18.8,0,23.2,0c-0.3,0.6,0,1.4,0.3,1.6c0,0,0,0,0,0c0,0,0,0,0,0c0,0,0,0,0,0
		c0.3,0.1,0.4-0.1,0.5-0.3c0.5,0,3.1,0.1,3.4,0l0,0c0.2,0.2,0.3,0.5,0.6,0.4c0.5-0.1,1-0.2,1-1.3C73.7,44.3,73.6,42.4,72.4,42.5z
		 M71.8,44.6C71.8,44.6,71.8,44.6,71.8,44.6L71.8,44.6C71.8,44.6,71.8,44.6,71.8,44.6c-0.4,0-0.6,0-1,0c0,0,0,0,0-0.1
		c-0.1-0.3-0.7-0.2-0.8,0c0,0,0,0,0,0c0,0,0,0,0,0c0,0,0,0,0,0c0,0,0,0,0,0c0,0,0,0,0,0c-0.5,0.1-0.9,0-1.4,0
		c-0.1-0.2-0.1-0.5,0-0.6c0,0,0,0,0,0c1.1,0.1,2.1,0,3.2,0.1C72,44.2,71.9,44.5,71.8,44.6z M50.3,20c0.6,0.2,0.9-0.9,1.2-2.1
		c0.2-0.3,0.3-0.4,0.4-0.2c0,1.6,0.1,2,0.5,2.4c0.9,0.7,1.7,0.1,1.7,0c0.1-0.1,0.7-0.7,0.7-0.7c0.2-0.2,0.4-0.2,0.6,0
		c0.2,0.2,0.2,0.5,0.7,0.8c0.4,0.2,1.2,0,1.4-0.3c0.3-0.5,0.3-0.6,0.4-0.8c0.2-0.2,0.5-0.1,0.5-0.1c0,0.1-0.2,0.3-0.1,0.5
		c0.2,0.2,0.3,0.1,0.4,0c0.5-0.2,0.8-1.2,0.8-1.2c0-0.4-0.2-0.3-0.3-0.3c-0.2,0.1-0.2,0.1-0.4,0.3c-0.2,0-0.7,0.2-0.9-0.2
		c-0.2-0.4-0.2-1-0.4-1.4c0,0-0.3-0.6,0-0.7c0.1,0,0.4,0.1,0.5-0.1c0.1-0.2-0.3-0.9-0.6-1.3c-0.3-0.3-0.6-0.3-1,0
		c-0.3,0.2-0.2,0.5-0.3,0.7c-0.1,0.3-0.1,0.6,0.2,1c0.3,0.5,0.7,1.1,0.6,2c0,0-0.3,0.4-0.7,0.4c-0.2,0-0.5-0.1-0.7-1.4
		c-0.1-1,0-2.3-0.4-2.9c-0.1-0.4-0.3-0.7-0.6-0.1c-0.1,0.3-0.5,0.6-0.2,1.4c0.2,0.5,0.3,1.3,0.2,2.2c-0.2,0.3-0.2,0.3-0.4,0.6
		c-0.3,0.3-0.6,0.2-0.9,0.1c-0.2-0.2-0.4-0.2-0.5-0.8c0-0.8,0.1-2.2-0.1-2.5c-0.2-0.4-0.6-0.3-0.7-0.2c-0.8,0.7-1.1,1.8-1.3,2.8
		c-0.2,0.7-0.4,0.5-0.6,0.2c-0.4-0.4-0.4-3.1-0.9-2.7C48.4,17.9,49.5,20.2,50.3,20z M61.2,24.5C61.2,24.5,61.2,24.5,61.2,24.5
		L61.2,24.5C61.2,24.5,61.2,24.5,61.2,24.5L61.2,24.5C61.2,24.5,61.2,24.5,61.2,24.5L61,24.4l-4.3,0c-0.1,0-0.1,0-0.1-0.1
		c0,0,0,0,0,0c0,0,0,0,0,0h0c0,0,0,0,0,0l0,0v0l0,0v0l0,0c0,0,0,0,0,0c0,0,0.1-0.1,0.1-0.1c1-0.1,2.8-0.4,3-2.2
		c0-0.9-0.4-1.5-1.5-1.7c-0.8,0.1-1.4,0.9-1.3,1.7c0,0.2,0.1,0.7-0.2,0.8c-1.6,0.1-3.3,1.1-3.4,1.8h0c0,0,0,0,0,0h0c0,0,0,0,0,0
		s0,0,0,0h0l0,0c-0.1,0-0.2-0.2-0.2-0.4c-0.1-1.2-0.5-2.6-1.1-3.7c-0.2-0.2-0.3-0.3-0.4-0.3h0c0,0,0,0,0,0h0c0,0,0,0,0,0
		c0,0,0,0,0,0c-0.1,0-0.1,0.1-0.2,0.2c-0.2,0.2-0.3,0.4-0.2,0.9c0,0.1,0.4,1.2,0.7,1.9c0.2,0.8,0.4,1.7,0.3,2.6
		c-0.5,1.1-1.6,2.2-2.6,2.7c-0.5,0.2-1,0.1-1.1,0l0,0c-0.3-0.2-0.3-0.6-0.3-0.6v0h0c0.9-0.6,1.9-1.1,2.6-2.7c0.2-0.6,0.3-1,0.1-2
		c-0.1-0.4-0.2-0.7-0.4-0.9c0,0,0,0,0,0c0.1-0.1,0.5,0.2,0.6,0c-0.1-0.5-0.4-1.1-0.8-1.4c-0.3-0.3-0.6-0.3-0.9-0.1
		c-0.3,0.2-0.4,0.8-0.2,1.4c0.2,0.4,0.6,0.5,1,1.3v0c0,0.1,0.1,0.6-0.1,0.9c-0.1,0.4-1.9,1.8-2,1.9c0,0,0,0,0,0c0,0,0,0,0,0h0l0,0h0
		c0,0,0,0,0,0h0c0,0,0,0,0,0c0,0,0-0.1,0-0.3c0-0.3,0.1-0.8,0.1-0.9v0h0v0h0c-0.6,0.4-0.8,1.5-0.9,1.8c-1.4,1-3.1,1.7-4,2.7
		c-0.5,0.8,3.4-0.9,3.8-1.1c0,0,0,0,0,0c0.1,0.1,0.1,0.4,0.3,0.7c0.4,0.5,1.3,0.9,2.1,0.7c1.4-0.5,2.2-1.5,3-2.5
		c0.1-0.2,0.3-0.3,0.5-0.2c0.6,1.3,2.2,2.1,4.3,2.2c0.5-0.6,0.3-0.9,0.1-1c-0.1,0-1-0.4-1.2-0.8c-0.1-0.4,0.1-0.7,0.6-0.9
		c1.3-0.2,2.7-0.3,3.9-0.8c0-0.4,0.3-1.1,0.4-1.4C61.1,24.6,61.2,24.6,61.2,24.5z M57.7,21.9C57.7,21.8,57.7,21.8,57.7,21.9
		C57.7,21.8,57.7,21.8,57.7,21.9L57.7,21.9C57.7,21.8,57.7,21.8,57.7,21.9c0.1-0.1,0.1-0.1,0.2-0.1c0.1,0,0.2,0,0.3,0.1
		c0.2,0.1,0.3,0.2,0.3,0.4v0c0,0,0,0,0,0c0,0,0,0,0,0c0,0,0,0,0,0c0,0,0,0,0,0c0,0,0,0,0,0c-0.1,0.1-0.3,0.1-0.4,0
		C57.8,22.1,57.7,22,57.7,21.9C57.7,21.9,57.7,21.9,57.7,21.9z M56,26.2c-0.5,0.2-0.9,0.3-0.9,0.9c0.1,0.3,0,0.5,0,0.6c0,0,0,0,0,0
		c0,0,0,0,0,0l0,0c0,0,0,0,0,0l0,0c0,0,0,0,0,0c0,0,0,0,0,0c0,0,0,0,0,0c-0.1,0-0.3-0.1-0.4-0.1c-0.3-0.2-1.1-0.7-1.2-1.8
		c0-0.2,0.2-0.4,0.4-0.5c0,0,0,0,0,0h0c0.5,0.1,1.2,0.1,1.8,0.2C56.2,25.6,56.4,26,56,26.2z M40.1,15.9c0.5,0.2,1.4,0.1,1.4-0.7
		c0-0.1,0-0.3,0-0.4c-0.1-0.2-0.4-0.2-0.4,0.1c0,0.1,0,0.2,0,0.2c0,0-0.2,0-0.2-0.2c0-0.1-0.1-0.1-0.1-0.2c0,0-0.1,0-0.1,0
		c-0.1,0-0.1,0-0.1,0.1c0,0.1,0,0.1,0,0.2c0,0.1,0,0.1-0.1,0.1c-0.1,0,0,0-0.1,0c0,0-0.1,0-0.1-0.1s0-0.2,0-0.2c0,0-0.1-0.1-0.1-0.1
		c-0.3,0-0.3,0.3-0.3,0.4C39.7,15.2,39.7,15.7,40.1,15.9z M54.6,22c0.5,0.2,1.7,0.1,1.4-0.7c0-0.1,0-0.3,0-0.4
		c-0.1-0.2-0.4-0.2-0.4,0.1c0,0.1,0,0.2,0,0.2c0,0-0.2,0-0.2-0.2c0-0.1-0.1-0.1-0.1-0.2c0,0-0.1,0-0.1,0c-0.1,0-0.1,0-0.1,0.1
		c0,0.1,0,0.1,0,0.2c0,0.1,0,0.1-0.1,0.1c-0.1,0,0,0-0.1,0c0,0-0.1,0-0.1-0.1s0-0.2,0-0.2c0,0-0.1-0.1-0.1-0.1
		c-0.3,0-0.3,0.3-0.3,0.4C54.2,21.3,54.2,21.8,54.6,22z M63,19.5c0.5,0.2,1.4,0.1,1.4-0.7c0-0.1,0-0.3,0-0.4
		c-0.1-0.2-0.4-0.2-0.4,0.1c0,0.1,0,0.2,0,0.2c0,0-0.2,0-0.2-0.2c0-0.1-0.1-0.1-0.1-0.2c0,0-0.1,0-0.1,0c-0.1,0-0.1,0-0.1,0.1
		c0,0.1,0,0.1,0,0.2c0,0.1,0,0.1-0.1,0.1c-0.1,0-0.1,0-0.1,0c0,0-0.1,0-0.1-0.1c0-0.1,0-0.2,0-0.2c0,0-0.1-0.1-0.1-0.1
		c-0.3,0-0.3,0.3-0.3,0.4C62.6,18.8,62.6,19.3,63,19.5z M63.3,16.4c0.2,0.5-0.1,1,0.1,1c0.2,0.1,0.4-0.5,0.5-1.1
		c0.1-0.4-0.2-1.3-0.7-1.5c-0.3-0.1-0.7,0.1-0.5,0.5C62.6,15.5,63.2,16.1,63.3,16.4z M67.9,27.9c0.3,0,0.7-0.8,0.9-1.6
		c0.1-1.1-0.1-1.7-0.1-2.4c0-0.6-0.7-5.8-0.9-6.2c-0.2-0.9,0.7-0.1,0.6-0.6c-0.3-0.7-1-1.6-1.2-2.2c-0.1-0.2-0.1-0.5-0.4-0.1
		c-0.3,0.9-0.4,1.7-0.3,2.3C67.2,20.9,68,24.3,67.9,27.9z M76.4,17.8c0.1,0.2-0.1,1,0,1.1c0.2,0.1,0.4-0.5,0.4-1.1
		c0-0.3-0.2-1.4-0.6-1.6c-0.2-0.1-0.6,0.1-0.5,0.5C75.8,16.8,76.4,17.4,76.4,17.8z M46.5,26.4c0.1,0.1,0.4-0.4,0.4-0.8
		c0-0.2-0.2-1.1-0.6-1.2c-0.2-0.1-0.6,0-0.5,0.4c0,0.2,0.5,0.4,0.6,0.9C46.5,25.7,46.4,26.3,46.5,26.4z M36.1,15.8
		c0.1,0.2-0.1,0.8,0.1,0.8c0.1,0.1,0.3-0.4,0.4-0.9c0-0.2,0-1.1-0.6-1.3c-0.2-0.1-0.6,0.1-0.5,0.4C35.6,15.1,36,15.6,36.1,15.8z
		 M47.3,18.5c-0.4,0.2-0.6,0.9-0.3,1.4c0.3,0.4,0.7,0.2,0.7,0.2c0.4,0.1,0.7-0.8,0.7-0.8s0-0.2-0.5,0.2c-0.2,0-0.2,0-0.3-0.2
		c0-0.2,0-0.4,0.1-0.7C47.7,18.5,47.5,18.4,47.3,18.5z M50.6,15.9c0.2-0.1,0.2-0.2,0.3-0.4c0.1-0.3-0.4,0.2-0.4-0.2
		c-0.1-0.3,0.2-0.5,0.4-0.8c0-0.2,0-0.4-0.3-0.2c-0.2,0.1-0.7,0.6-0.7,1.1c0,0.3-0.1,0.3,0.1,0.5C50.2,16.1,50.3,16,50.6,15.9z
		 M53.6,16.1c0.3-0.8,0.3-1.1,0.3-1.4c-0.1-0.5-0.4-0.5-0.6,0.1C53.1,14.9,53,16,53,16C53,16.3,53.4,16.5,53.6,16.1z M72.2,21.5
		c0,0-2.3,1.6-2.3,1.7c-0.2,0.2-0.1,0.9,0,0.8c0.2,0.1,2.5-1.5,2.4-1.7C72.4,22.3,72.4,21.4,72.2,21.5z M71.9,25.9
		c0.2,0.1,0.6-0.4,0.5-1c0-0.3-0.1-1.5-0.5-1.7c-0.2-0.1-0.6,0.1-0.5,0.5c-0.1,0.2,0.3,0.8,0.4,1.2C71.9,25.1,71.7,25.8,71.9,25.9z
		 M59,29.3c0,0,0.2,0.2,0.4,0.1c0.5-0.2,0.8-0.4,1.4-0.5c0.2,0,0.2-0.5-0.1-0.5c-0.4,0-0.7,0-1.1,0.3c-0.2,0.1-0.3-0.1-0.3-0.2
		c-0.1-0.3,0.1-0.5,0.1-0.7c0,0-0.2-0.2-0.4-0.1c0,0-0.5,0.3-0.7,0.6c-0.1,0.1-0.1,0.1-0.1,0.3c0.1,0.2,0.2,0.1,0.4,0
		c0.2,0,0.3,0.1,0.3,0.3C58.8,29.2,59,29.3,59,29.3z M75.5,29.2c-0.1-0.1-0.3,0-0.4-0.1c-0.1,0-0.3,0-0.2-0.2
		c0.1-0.1,0.1-0.2,0.2-0.3c0.1-0.1,0-0.2-0.2-0.3c-0.2,0-0.3,0-0.6,0c-0.1,0-0.2,0.1-0.2,0.3c0,0.3,0.2,0.3,0.3,0.4
		c0.1,0.1,0.2,0.2,0,0.4c-0.2,0.1-0.3,0.2-0.4,0.4c-0.1,0.1-0.1,0.3,0.1,0.4c0.4,0.1,1.4-0.5,1.4-0.5C75.6,29.4,75.5,29.2,75.5,29.2
		z"/>
</g>
</svg>
