<?xml version="1.0" encoding="utf-8"?>
<!-- Generator: Adobe Illustrator 28.1.0, SVG Export Plug-In . SVG Version: 6.00 Build 0)  -->
<svg version="1.1" id="Layer_1" xmlns="http://www.w3.org/2000/svg" xmlns:xlink="http://www.w3.org/1999/xlink" x="0px" y="0px"
	 viewBox="0 0 114 60" style="enable-background:new 0 0 114 60;" xml:space="preserve">
<style type="text/css">
	.st0{fill:#FF2437;}
	.st1{fill:#FFFFFF;}
</style>
<g>
	<rect x="0.1" y="0" class="st0" width="113.8" height="30.3"/>
	<rect x="0.1" y="30.2" class="st1" width="113.8" height="29.8"/>
	<g>
		<path class="st1" d="M13,15.2c0-5.7,4.4-10.4,9.9-10.8c-1.1-0.4-2.3-0.6-3.6-0.6c-6.2,0-11.2,5.1-11.2,11.4
			c0,6.3,5,11.4,11.2,11.4c1.2,0,2.4-0.2,3.6-0.6C17.4,25.6,13,20.9,13,15.2z"/>
	</g>
	<polygon class="st1" points="25.2,6 25.8,7.9 27.8,7.9 26.2,9.1 26.8,10.9 25.2,9.8 23.6,10.9 24.2,9.1 22.7,7.9 24.6,7.9 	"/>
	<polygon class="st1" points="19.3,10.5 19.9,12.3 21.8,12.3 20.3,13.5 20.9,15.4 19.3,14.2 17.7,15.4 18.3,13.5 16.7,12.3 
		18.7,12.3 	"/>
	<polygon class="st1" points="31.1,10.5 31.7,12.3 33.7,12.3 32.1,13.5 32.7,15.4 31.1,14.2 29.5,15.4 30.1,13.5 28.6,12.3 
		30.5,12.3 	"/>
	<polygon class="st1" points="28.9,17.7 29.5,19.5 31.4,19.5 29.8,20.7 30.4,22.6 28.9,21.4 27.3,22.6 27.9,20.7 26.3,19.5 
		28.3,19.5 	"/>
	<polygon class="st1" points="21.5,17.7 22.1,19.5 24.1,19.5 22.5,20.7 23.1,22.6 21.5,21.4 20,22.6 20.6,20.7 19,19.5 20.9,19.5 	
		"/>
</g>
</svg>
