<?xml version="1.0" encoding="utf-8"?>
<!-- Generator: Adobe Illustrator 28.1.0, SVG Export Plug-In . SVG Version: 6.00 Build 0)  -->
<svg version="1.1" id="Layer_1" xmlns="http://www.w3.org/2000/svg" xmlns:xlink="http://www.w3.org/1999/xlink" x="0px" y="0px"
	 viewBox="0 0 114 60" style="enable-background:new 0 0 114 60;" xml:space="preserve">
<style type="text/css">
	.st0{fill:#FFFFFF;}
	.st1{fill:#E6042D;}
	.st2{fill:#00317B;}
	.st3{fill:#1F191A;}
</style>
<g>
	<rect x="0.1" y="0" class="st0" width="113.8" height="60.1"/>
	<g>
		<g>
			<path class="st1" d="M57.1,15c-5.9,0-11.1,3.4-13.5,8.4c-0.6,2.1-0.9,6,3.1,8.6c5.7,3.7,10-1.3,10.7-2.7c0.8-1.4,4.5-4,9.1-2
				c4.4,1.9,5,6.7,3.5,10.5c1.4-2.3,2.2-5,2.2-7.8C72.2,21.8,65.4,15,57.1,15z"/>
			<path class="st2" d="M66.5,27.4c-4.5-2-8.3,0.6-9.1,2c-0.8,1.4-5.1,6.4-10.7,2.7c-3.9-2.6-3.6-6.5-3.1-8.6c-1,2-1.5,4.2-1.5,6.6
				c0,8.3,6.7,15,15,15c5.4,0,10.2-2.9,12.9-7.2C71.5,34.1,70.9,29.3,66.5,27.4z"/>
		</g>
		<g>
			
				<rect x="23.4" y="11.4" transform="matrix(0.5619 -0.8272 0.8272 0.5619 3.0671 31.1284)" class="st3" width="15.1" height="2.4"/>
			
				<rect x="26.5" y="13.5" transform="matrix(0.5619 -0.8272 0.8272 0.5619 2.7134 34.6303)" class="st3" width="15.1" height="2.4"/>
			<rect x="29.7" y="15.6" transform="matrix(0.562 -0.8272 0.8272 0.562 2.3889 38.188)" class="st3" width="15.1" height="2.4"/>
		</g>
		<g>
			<rect x="73.4" y="10" transform="matrix(0.8306 -0.5569 0.5569 0.8306 5.1316 43.8395)" class="st3" width="2.4" height="6.9"/>
			
				<rect x="77.9" y="16.8" transform="matrix(0.8306 -0.5569 0.5569 0.8306 2.1081 47.4825)" class="st3" width="2.4" height="6.9"/>
			<rect x="78.8" y="7.2" transform="matrix(0.8306 -0.5569 0.5569 0.8306 5.334 47.0506)" class="st3" width="2.4" height="15.1"/>
			<rect x="79.7" y="5.7" transform="matrix(0.8306 -0.5569 0.5569 0.8306 8.5609 46.6094)" class="st3" width="2.4" height="7"/>
			
				<rect x="84.2" y="12.6" transform="matrix(0.8305 -0.5569 0.5569 0.8305 5.5239 50.2685)" class="st3" width="2.4" height="6.9"/>
		</g>
		<g>
			<rect x="29.7" y="40" transform="matrix(0.8306 -0.5569 0.5569 0.8306 -21.1778 25.28)" class="st3" width="2.4" height="14.8"/>
			
				<rect x="36" y="35.8" transform="matrix(0.8306 -0.5569 0.5569 0.8306 -17.7707 28.0704)" class="st3" width="2.4" height="14.8"/>
			
				<rect x="30.6" y="38.4" transform="matrix(0.8306 -0.5569 0.5569 0.8306 -17.9451 24.8285)" class="st3" width="2.4" height="7"/>
			
				<rect x="35.1" y="45.3" transform="matrix(0.8306 -0.5569 0.5569 0.8306 -20.9833 28.4808)" class="st3" width="2.4" height="6.9"/>
		</g>
		<g>
			<polygon class="st3" points="71.5,48.8 73.5,50.2 77.4,44.4 75.4,43.1 			"/>
			<polygon class="st3" points="82,37.7 80,36.4 76.1,42 78.2,43.4 			"/>
			<polygon class="st3" points="85.1,39.8 83.1,38.5 79.3,44.1 81.3,45.5 			"/>
			<polygon class="st3" points="74.6,50.9 76.7,52.3 80.6,46.5 78.5,45.2 			"/>
			<polygon class="st3" points="88.3,41.9 86.3,40.5 82.4,46.2 84.5,47.6 			"/>
			<polygon class="st3" points="77.8,53 79.9,54.4 83.8,48.6 81.7,47.3 			"/>
		</g>
	</g>
</g>
</svg>
