<?xml version="1.0" encoding="utf-8"?>
<!-- Generator: Adobe Illustrator 28.1.0, SVG Export Plug-In . SVG Version: 6.00 Build 0)  -->
<svg version="1.1" id="Layer_1" xmlns="http://www.w3.org/2000/svg" xmlns:xlink="http://www.w3.org/1999/xlink" x="0px" y="0px"
	 viewBox="0 0 114 60" style="enable-background:new 0 0 114 60;" xml:space="preserve">
<style type="text/css">
	.st0{fill:#FF0310;}
	.st1{fill:#FFFFFF;}
</style>
<g>
	<rect x="0.1" y="0" class="st0" width="113.8" height="60.1"/>
	<g>
		<path class="st1" d="M39.4,42.1c-6,0-10.9-5.3-10.9-11.9c0-6.6,4.9-11.9,10.9-11.9c3.6,0,6.8,1.9,8.8,4.9
			c-2.3-4.7-6.9-7.9-12.1-7.9c-7.6,0-13.7,6.7-13.7,15.1c0,8.3,6.1,15.1,13.7,15.1c5.5,0,10.2-3.5,12.4-8.6
			C46.5,40,43.2,42.1,39.4,42.1z"/>
	</g>
	<polygon class="st1" points="51.5,22.6 54.6,27.3 59.6,25.5 56.5,30.2 59.5,34.9 54.5,33.1 51.4,37.7 51.4,31.9 46.5,30.1 
		51.5,28.4 	"/>
</g>
</svg>
