<?xml version="1.0" encoding="utf-8"?>
<!-- Generator: Adobe Illustrator 28.1.0, SVG Export Plug-In . SVG Version: 6.00 Build 0)  -->
<svg version="1.1" id="Layer_1" xmlns="http://www.w3.org/2000/svg" xmlns:xlink="http://www.w3.org/1999/xlink" x="0px" y="0px"
	 viewBox="0 0 114 60" style="enable-background:new 0 0 114 60;" xml:space="preserve">
<style type="text/css">
	.st0{fill:#FCDC04;}
	.st1{fill:#D90000;}
	.st2{fill:#FFFFFF;}
	.st3{fill:#D90000;stroke:#000000;stroke-width:1.782916e-02;}
	.st4{fill:#FCDC04;stroke:#000000;stroke-width:1.782916e-02;}
	.st5{stroke:#000000;stroke-width:1.782916e-02;}
	.st6{fill:#9CA69C;stroke:#9CA69C;stroke-width:1.782916e-02;}
	.st7{fill:#FFFFFF;stroke:#FFFFFF;stroke-width:1.782916e-02;}
	.st8{fill:#9CA69C;stroke:#000000;stroke-width:1.782916e-02;}
	.st9{fill:#FFFFFF;stroke:#000000;stroke-width:1.782916e-02;}
	.st10{stroke:#FFFFFF;stroke-width:1.782916e-02;}
</style>
<path d="M0,0.1h114v59.8H0V0.1z"/>
<path class="st0" d="M0,10.1h114v15H0V10.1z M0,40h114v19.9H0V40z"/>
<path class="st1" d="M0,20h114v10H0V20z M0,49.9h114v10H0V49.9z"/>
<circle class="st2" cx="57" cy="30" r="9.3"/>
<g>
	<path class="st3" d="M55.4,22.9l-0.6-1.1c0.2-0.2,0.6-0.4,1.3-0.4c0,0-0.1,1.2-0.1,1.2L55.4,22.9z"/>
	<path class="st4" d="M55.9,22.6l0.1-1.2c0,0,1.3-0.1,1.9,0.7c0,0-0.7,1-0.7,1L55.9,22.6z"/>
	<path class="st3" d="M57.3,23l0.6-1c0.4,0.4,0.6,0.7,0.6,1.2c0,0-1,0.2-1,0.2C57.6,23.5,57.3,23,57.3,23z"/>
	<path class="st5" d="M55.7,38.8c0,0,1.2-1.3,3.4-1c-0.3-0.6-1.4-0.5-1.4-0.5s-0.3-2.6-0.1-2.7c0.3-0.1,1.4,0,1.4,0
		c0.1,0,0.4-0.4,0.2-0.7c-0.2-0.3-0.8-1.2-0.6-1.4c0.2-0.2,1.6,0.1,1.6,0.1l-3.7-4.8c0,0-0.4-1.8,0.4-2.7c0.9-0.8,0.8-1.6,0.8-1.6
		c-0.1-0.8-1.4-1.4-2.3-0.7c-0.5,0.6-0.2,1.1-0.2,1.1s-1.3,0.4-1.4,0.6c-0.1,0.2,1.5,0,1.5,0l-0.1,1.1c0,0-3,2.8-0.7,5.1
		c0,0,0.1-0.1,0.1-0.1s0.8,1,1.7,1.2c0.8,0.8,0.7,0.7,0.7,0.7s0.2,1.3,0,1.6c-0.2-0.1-2.3-0.1-2.6,0c-0.3,0.1-1.3,0-1.1,1.8
		c0.2-0.5,0.4-0.9,0.4-0.9s0,0.6,0.2,0.8c0-0.7,0.2-1.1,0.2-1.1s0.1,0.7,0.2,0.8c0.2,0.1,0.2-1.2,1-1.1c0.9,0.1,1.5,0.1,1.5,0.1
		s0.3,2.5,0.2,2.7c-0.6-0.1-2.2,0.1-2.2,0.4c0.9-0.1,1.3,0.1,1.3,0.1S55.4,38.4,55.7,38.8z"/>
	<path class="st6" d="M56,25.2c0,0-2.2,2.4-1.3,4.3c0.1-0.3,0-0.4,0.1-0.4c-0.1,0,0.3,0.2,0.2,0.2c0-0.1-0.1-0.4-0.1-0.4
		c0.1,0,0.2,0,0.3,0.1c-0.1-0.1-0.1-0.2-0.2-0.3c0.1,0,0.3,0,0.4,0c0,0-0.1-0.4-0.1-0.4c0,0,0.3,0,0.3,0
		C55.1,27.1,55.7,26.2,56,25.2z"/>
	<path class="st6" d="M56.8,23.1c0,0,0.1,0.8-0.3,1.1c-0.1,0.1-0.4,0.1-0.3,0.3c0.1,0.2,0.2,0.2,0.4,0.1
		C57,24.6,57.5,23.5,56.8,23.1z"/>
	<circle class="st2" cx="55.8" cy="23.8" r="0.2"/>
	<path class="st3" d="M55.3,24.5c-0.1,0.1-0.7,0.7-0.1,1c0.6-0.2,0.5-0.3,0.6-0.4C55.7,24.8,55.4,24.7,55.3,24.5z"/>
	<path class="st6" d="M56.6,30.5c0,0.1-0.2,0.6,0,1c0.5-0.2,0.8-0.2,1,0C57.1,31.2,57,31,56.6,30.5z"/>
	<path class="st7" d="M57.5,32.9l0,1.2c0,0,0.4,0.1,0.6,0C58.3,34,58.1,33.3,57.5,32.9z"/>
	<path class="st8" d="M60.5,33.1c0,0-0.8-1.8-2.7-2.3c-2-0.5-1.7-2.5-1.5-2.7c0.1-0.2,0.1-0.5,0.7-0.2c0.6,0.3,3.1,1.6,3.5,1.6
		C60.9,29.6,60.5,33.1,60.5,33.1z"/>
	<path class="st3" d="M58.7,30.8c0,0,2.6,1.6,1.8,2.9c0.8-0.5,0.5-1.4,0.5-1.4s0.6,1.6-0.9,2.4c0.2,0.1,0.3,0.1,0.3,0.1L60.1,35
		c0,0-0.1,0.2,0.9-0.3c-0.3,0.2-0.3,0.4-0.3,0.4s0.1,0.2,0.7-0.4c-0.5,0.6-0.6,0.9-0.6,0.9c1.4-0.1,4.5-4.8-1-6.2
		c0.3,0.3,0.3,0.3,0.3,0.3L58.7,30.8z"/>
	<path class="st9" d="M58.8,30.3c0.4,0.3,0.5,0.3,0.5,0.5c-0.3-0.1-0.6-0.1-0.6-0.1S58,30,57.8,30c-0.1,0-0.6-0.3-0.6-0.3
		c-0.3-0.1-0.5-1.1,0.5-0.8c1,0.5,1.2,0.5,1.2,0.5c0.4,0.1,0.8,0.3,1.3,0.4c0.2,0.3,0.5,0.5,0.7,0.8c0,0-1.3-0.6-1.4-0.6
		c0.3,0.3,0.6,0.7,0.6,0.7C59.6,30.5,59.2,30.4,58.8,30.3z"/>
	<path class="st10" d="M53.8,24.6c0,0,1.2-0.3,1.4-0.3"/>
</g>
</svg>
