<?xml version="1.0" encoding="utf-8"?>
<!-- Generator: Adobe Illustrator 28.1.0, SVG Export Plug-In . SVG Version: 6.00 Build 0)  -->
<svg version="1.1" id="Layer_1" xmlns="http://www.w3.org/2000/svg" xmlns:xlink="http://www.w3.org/1999/xlink" x="0px" y="0px"
	 viewBox="0 0 114 60" style="enable-background:new 0 0 114 60;" xml:space="preserve">
<style type="text/css">
	.st0{fill:#FFFFFF;}
	.st1{fill:#EF091F;}
	.st2{fill:#001F80;}
</style>
<g>
	<g>
		<rect x="0.1" y="0" class="st0" width="113.7" height="59.9"/>
		<polygon class="st1" points="113.9,24 63.8,24 63.8,0 50.1,0 50.1,24 0.2,24 0.2,36 50.1,36 50.1,59.9 63.8,59.9 63.8,36 
			113.9,36 		"/>
	</g>
	<g>
		<polygon class="st2" points="0.1,7 0.1,20 24.9,20 		"/>
		<polygon class="st2" points="13.8,0 13.4,0 45.6,17 45.6,0 		"/>
		<polygon class="st1" points="38.3,19.9 0.1,0 0.1,4.7 29.2,19.9 		"/>
		<polygon class="st1" points="75.7,40 113.9,59.9 113.9,55.2 84.8,40 		"/>
	</g>
	<g>
		<polygon class="st2" points="0.1,53 0.1,40 24.9,40 		"/>
		<polygon class="st2" points="13.8,60 13.4,60 45.6,43 45.6,60 		"/>
		<polygon class="st1" points="38.1,40 0.1,59.9 9,59.9 45.6,40.8 45.6,40 		"/>
	</g>
	<g>
		<polygon class="st2" points="113.9,7 113.9,20 89.1,20 		"/>
		<polygon class="st2" points="100.2,0 100.6,0 68.4,17 68.4,0 		"/>
		<polygon class="st1" points="113.8,0 105.3,0 68.4,19.3 68.4,20 76.2,20 		"/>
	</g>
	<g>
		<polygon class="st2" points="113.9,53 113.9,40 89.1,40 		"/>
		<polygon class="st2" points="100.2,60 100.6,60 68.4,43 68.4,60 		"/>
	</g>
</g>
</svg>
