<?xml version="1.0" encoding="utf-8"?>
<!-- Generator: Adobe Illustrator 28.1.0, SVG Export Plug-In . SVG Version: 6.00 Build 0)  -->
<svg version="1.1" id="Layer_1" xmlns="http://www.w3.org/2000/svg" xmlns:xlink="http://www.w3.org/1999/xlink" x="0px" y="0px"
	 viewBox="0 0 114 60" style="enable-background:new 0 0 114 60;" xml:space="preserve">
<style type="text/css">
	.st0{fill:#FFFFFF;}
	.st1{fill:#CF1C31;}
	.st2{fill:#3A3870;}
</style>
<g>
	<rect x="0.1" y="0.2" class="st0" width="113.8" height="59.6"/>
	<rect x="0.1" y="0" class="st1" width="113.7" height="4.7"/>
	<rect x="0.1" y="9.2" class="st1" width="113.7" height="4.7"/>
	<rect x="0.1" y="18.4" class="st1" width="113.7" height="4.7"/>
	<rect x="0.1" y="27.6" class="st1" width="113.7" height="4.7"/>
	<rect x="0.1" y="36.9" class="st1" width="113.7" height="4.7"/>
	<rect x="0.1" y="46.1" class="st1" width="113.7" height="4.7"/>
	<rect x="0.1" y="55.3" class="st1" width="113.7" height="4.7"/>
	<rect x="0.1" y="0" class="st2" width="45.4" height="32.4"/>
	<g>
		<polygon class="st0" points="3.9,1.2 4.4,2.5 5.8,2.5 4.6,3.3 5.1,4.7 3.9,3.9 2.8,4.7 3.3,3.3 2.1,2.5 3.5,2.5 		"/>
		<polygon class="st0" points="7.7,4.5 8.1,5.9 9.5,5.9 8.4,6.7 8.8,8 7.7,7.2 6.6,8 7,6.7 5.9,5.9 7.3,5.9 		"/>
		<polygon class="st0" points="7.7,11 8.1,12.3 9.5,12.3 8.4,13.2 8.8,14.5 7.7,13.7 6.6,14.5 7,13.2 5.9,12.3 7.3,12.3 		"/>
		<polygon class="st0" points="7.7,17.5 8.1,18.8 9.5,18.8 8.4,19.7 8.8,21 7.7,20.2 6.6,21 7,19.7 5.9,18.8 7.3,18.8 		"/>
		<polygon class="st0" points="7.7,24 8.1,25.3 9.5,25.3 8.4,26.2 8.8,27.5 7.7,26.7 6.6,27.5 7,26.2 5.9,25.3 7.3,25.3 		"/>
		<polygon class="st0" points="15.3,4.5 15.7,5.9 17.1,5.9 16,6.7 16.4,8 15.3,7.2 14.2,8 14.6,6.7 13.5,5.9 14.9,5.9 		"/>
		<polygon class="st0" points="15.3,11 15.7,12.3 17.1,12.3 16,13.2 16.4,14.5 15.3,13.7 14.2,14.5 14.6,13.2 13.5,12.3 14.9,12.3 
					"/>
		<polygon class="st0" points="15.3,17.5 15.7,18.8 17.1,18.8 16,19.7 16.4,21 15.3,20.2 14.2,21 14.6,19.7 13.5,18.8 14.9,18.8 		
			"/>
		<polygon class="st0" points="15.3,24 15.7,25.3 17.1,25.3 16,26.2 16.4,27.5 15.3,26.7 14.2,27.5 14.6,26.2 13.5,25.3 14.9,25.3 
					"/>
		<polygon class="st0" points="22.9,4.5 23.3,5.9 24.7,5.9 23.6,6.7 24,8 22.9,7.2 21.8,8 22.2,6.7 21.1,5.9 22.4,5.9 		"/>
		<polygon class="st0" points="22.9,11 23.3,12.3 24.7,12.3 23.6,13.2 24,14.5 22.9,13.7 21.8,14.5 22.2,13.2 21.1,12.3 22.4,12.3 
					"/>
		<polygon class="st0" points="22.9,17.5 23.3,18.8 24.7,18.8 23.6,19.7 24,21 22.9,20.2 21.8,21 22.2,19.7 21.1,18.8 22.4,18.8 		
			"/>
		<polygon class="st0" points="22.9,24 23.3,25.3 24.7,25.3 23.6,26.2 24,27.5 22.9,26.7 21.8,27.5 22.2,26.2 21.1,25.3 22.4,25.3 
					"/>
		<polygon class="st0" points="30.5,4.5 30.9,5.9 32.3,5.9 31.1,6.7 31.6,8 30.5,7.2 29.3,8 29.8,6.7 28.7,5.9 30,5.9 		"/>
		<polygon class="st0" points="30.5,11 30.9,12.3 32.3,12.3 31.1,13.2 31.6,14.5 30.5,13.7 29.3,14.5 29.8,13.2 28.7,12.3 30,12.3 
					"/>
		<polygon class="st0" points="30.5,17.5 30.9,18.8 32.3,18.8 31.1,19.7 31.6,21 30.5,20.2 29.3,21 29.8,19.7 28.7,18.8 30,18.8 		
			"/>
		<polygon class="st0" points="30.5,24 30.9,25.3 32.3,25.3 31.1,26.2 31.6,27.5 30.5,26.7 29.3,27.5 29.8,26.2 28.7,25.3 30,25.3 
					"/>
		<polygon class="st0" points="38,4.5 38.5,5.9 39.8,5.9 38.7,6.7 39.2,8 38,7.2 36.9,8 37.4,6.7 36.2,5.9 37.6,5.9 		"/>
		<polygon class="st0" points="38,11 38.5,12.3 39.8,12.3 38.7,13.2 39.2,14.5 38,13.7 36.9,14.5 37.4,13.2 36.2,12.3 37.6,12.3 		
			"/>
		<polygon class="st0" points="38,17.5 38.5,18.8 39.8,18.8 38.7,19.7 39.2,21 38,20.2 36.9,21 37.4,19.7 36.2,18.8 37.6,18.8 		"/>
		<polygon class="st0" points="38,24 38.5,25.3 39.8,25.3 38.7,26.2 39.2,27.5 38,26.7 36.9,27.5 37.4,26.2 36.2,25.3 37.6,25.3 		
			"/>
		<polygon class="st0" points="3.9,7.7 4.4,9 5.8,9 4.6,9.8 5.1,11.2 3.9,10.3 2.8,11.2 3.3,9.8 2.1,9 3.5,9 		"/>
		<polygon class="st0" points="3.9,14.2 4.4,15.5 5.8,15.5 4.6,16.3 5.1,17.7 3.9,16.8 2.8,17.7 3.3,16.3 2.1,15.5 3.5,15.5 		"/>
		<polygon class="st0" points="3.9,20.7 4.4,22 5.8,22 4.6,22.8 5.1,24.2 3.9,23.3 2.8,24.2 3.3,22.8 2.1,22 3.5,22 		"/>
		<polygon class="st0" points="3.9,27.2 4.4,28.5 5.8,28.5 4.6,29.3 5.1,30.6 3.9,29.8 2.8,30.6 3.3,29.3 2.1,28.5 3.5,28.5 		"/>
		<polygon class="st0" points="11.4,1.2 11.9,2.5 13.2,2.5 12.1,3.3 12.5,4.7 11.4,3.9 10.3,4.7 10.7,3.3 9.6,2.5 11,2.5 		"/>
		<polygon class="st0" points="11.4,7.7 11.9,9 13.2,9 12.1,9.8 12.5,11.2 11.4,10.3 10.3,11.2 10.7,9.8 9.6,9 11,9 		"/>
		<polygon class="st0" points="11.4,14.2 11.9,15.5 13.2,15.5 12.1,16.3 12.5,17.7 11.4,16.8 10.3,17.7 10.7,16.3 9.6,15.5 11,15.5 
					"/>
		<polygon class="st0" points="11.4,20.7 11.9,22 13.2,22 12.1,22.8 12.5,24.2 11.4,23.3 10.3,24.2 10.7,22.8 9.6,22 11,22 		"/>
		<polygon class="st0" points="11.4,27.2 11.9,28.5 13.2,28.5 12.1,29.3 12.5,30.6 11.4,29.8 10.3,30.6 10.7,29.3 9.6,28.5 11,28.5 
					"/>
		<polygon class="st0" points="19.1,1.2 19.6,2.5 20.9,2.5 19.8,3.3 20.2,4.7 19.1,3.9 18,4.7 18.4,3.3 17.3,2.5 18.7,2.5 		"/>
		<polygon class="st0" points="19.1,7.7 19.6,9 20.9,9 19.8,9.8 20.2,11.2 19.1,10.3 18,11.2 18.4,9.8 17.3,9 18.7,9 		"/>
		<polygon class="st0" points="19.1,14.2 19.6,15.5 20.9,15.5 19.8,16.3 20.2,17.7 19.1,16.8 18,17.7 18.4,16.3 17.3,15.5 
			18.7,15.5 		"/>
		<polygon class="st0" points="19.1,20.7 19.6,22 20.9,22 19.8,22.8 20.2,24.2 19.1,23.3 18,24.2 18.4,22.8 17.3,22 18.7,22 		"/>
		<polygon class="st0" points="19.1,27.2 19.6,28.5 20.9,28.5 19.8,29.3 20.2,30.6 19.1,29.8 18,30.6 18.4,29.3 17.3,28.5 
			18.7,28.5 		"/>
		<polygon class="st0" points="26.7,1.2 27.1,2.5 28.5,2.5 27.4,3.3 27.8,4.7 26.7,3.9 25.6,4.7 26,3.3 24.9,2.5 26.2,2.5 		"/>
		<polygon class="st0" points="26.7,7.7 27.1,9 28.5,9 27.4,9.8 27.8,11.2 26.7,10.3 25.6,11.2 26,9.8 24.9,9 26.2,9 		"/>
		<polygon class="st0" points="26.7,14.2 27.1,15.5 28.5,15.5 27.4,16.3 27.8,17.7 26.7,16.8 25.6,17.7 26,16.3 24.9,15.5 
			26.2,15.5 		"/>
		<polygon class="st0" points="26.7,20.7 27.1,22 28.5,22 27.4,22.8 27.8,24.2 26.7,23.3 25.6,24.2 26,22.8 24.9,22 26.2,22 		"/>
		<polygon class="st0" points="26.7,27.2 27.1,28.5 28.5,28.5 27.4,29.3 27.8,30.6 26.7,29.8 25.6,30.6 26,29.3 24.9,28.5 
			26.2,28.5 		"/>
		<polygon class="st0" points="34.2,1.2 34.6,2.5 36,2.5 34.9,3.3 35.3,4.7 34.2,3.9 33.1,4.7 33.5,3.3 32.4,2.5 33.8,2.5 		"/>
		<polygon class="st0" points="34.2,7.7 34.6,9 36,9 34.9,9.8 35.3,11.2 34.2,10.3 33.1,11.2 33.5,9.8 32.4,9 33.8,9 		"/>
		<polygon class="st0" points="34.2,14.2 34.6,15.5 36,15.5 34.9,16.3 35.3,17.7 34.2,16.8 33.1,17.7 33.5,16.3 32.4,15.5 
			33.8,15.5 		"/>
		<polygon class="st0" points="34.2,20.7 34.6,22 36,22 34.9,22.8 35.3,24.2 34.2,23.3 33.1,24.2 33.5,22.8 32.4,22 33.8,22 		"/>
		<polygon class="st0" points="34.2,27.2 34.6,28.5 36,28.5 34.9,29.3 35.3,30.6 34.2,29.8 33.1,30.6 33.5,29.3 32.4,28.5 
			33.8,28.5 		"/>
		<polygon class="st0" points="41.9,1.2 42.3,2.5 43.7,2.5 42.6,3.3 43,4.7 41.9,3.9 40.8,4.7 41.2,3.3 40.1,2.5 41.5,2.5 		"/>
		<polygon class="st0" points="41.9,7.7 42.3,9 43.7,9 42.6,9.8 43,11.2 41.9,10.3 40.8,11.2 41.2,9.8 40.1,9 41.5,9 		"/>
		<polygon class="st0" points="41.9,14.2 42.3,15.5 43.7,15.5 42.6,16.3 43,17.7 41.9,16.8 40.8,17.7 41.2,16.3 40.1,15.5 
			41.5,15.5 		"/>
		<polygon class="st0" points="41.9,20.7 42.3,22 43.7,22 42.6,22.8 43,24.2 41.9,23.3 40.8,24.2 41.2,22.8 40.1,22 41.5,22 		"/>
		<polygon class="st0" points="41.9,27.2 42.3,28.5 43.7,28.5 42.6,29.3 43,30.6 41.9,29.8 40.8,30.6 41.2,29.3 40.1,28.5 
			41.5,28.5 		"/>
	</g>
</g>
</svg>
